<svg xmlns="http://www.w3.org/2000/svg" width="100%" height="100%" baseProfile="full" version="1.1" viewBox="0 0 108 24"><path fill="url(#paint0_linear)" d="M22.0355 13.8061C21.7646 13.7338 21.591 13.4621 21.6515 13.189C22.8781 7.55655 19.4509 1.87951 13.8055 0.371979C7.99951 -1.17844 2.00837 2.26004 0.439177 8.03908C0.438535 8.04147 0.437892 8.04386 0.436608 8.04863C0.435323 8.05341 0.433397 8.06058 0.432112 8.06536C-0.523381 11.6478 0.11651 15.4029 2.24467 18.5057C3.72713 20.6655 5.86704 22.3199 8.33091 23.2185C15.2182 25.7259 22.6336 21.9688 24.8255 15.25C24.9397 14.9016 24.7347 14.5269 24.3775 14.4315L22.0355 13.8061ZM10.5942 19.2633C8.47987 18.6987 6.71288 17.3487 5.62018 15.4594C4.52683 13.5725 4.23571 11.3775 4.79911 9.27247C5.73477 5.83062 9.30175 3.78266 12.7609 4.70638C16.045 5.58337 18.0685 8.82721 17.4806 12.1033C17.426 12.4114 17.61 12.7114 17.9144 12.7927L20.1198 13.3816C20.4003 13.4565 20.5573 13.7519 20.4636 14.0238C19.0835 18.0485 14.7749 20.3797 10.5942 19.2633Z"/></svg>