<?xml version="1.0" standalone="no"?>
<!DOCTYPE svg PUBLIC "-//W3C//DTD SVG 20010904//EN"
 "http://www.w3.org/TR/2001/REC-SVG-20010904/DTD/svg10.dtd">
<svg version="1.0" xmlns="http://www.w3.org/2000/svg"
 width="512.000000pt" height="512.000000pt" viewBox="0 0 512.000000 512.000000"
 preserveAspectRatio="xMidYMid meet">
<metadata>
Created by potrace 1.14, written by Peter Selinger 2001-2017
</metadata>
<g transform="translate(0.000000,512.000000) scale(0.100000,-0.100000)"
fill="#000000" stroke="none">
<path d="M2516 5047 c-10 -7 -38 -74 -64 -152 l-47 -140 -110 -12 c-204 -22
-466 -96 -651 -182 l-84 -40 -65 30 c-139 63 -341 104 -479 97 l-69 -3 -14
-40 c-51 -144 -76 -391 -54 -529 l12 -76 -83 -112 c-138 -186 -218 -326 -297
-525 -68 -171 -142 -466 -144 -573 l-2 -75 -139 -47 c-144 -48 -166 -62 -166
-108 0 -46 22 -60 165 -108 l140 -47 11 -105 c11 -99 30 -207 41 -237 4 -10
-4 -13 -25 -11 -36 3 -62 -16 -62 -45 0 -56 97 -322 171 -469 90 -180 238
-392 365 -525 l69 -71 72 -7 c70 -7 73 -8 165 -82 333 -267 724 -433 1125
-476 l108 -12 47 -140 c48 -143 62 -165 108 -165 46 0 60 22 108 166 l47 139
35 3 c51 4 241 31 269 39 17 4 22 3 17 -5 -10 -16 4 -15 23 2 9 8 59 27 111
41 162 47 354 129 498 214 29 17 52 28 52 25 0 -2 -10 -18 -22 -34 -12 -16
-20 -31 -17 -34 2 -2 47 -24 100 -49 107 -51 95 -37 236 -267 39 -63 83 -126
97 -139 l25 -24 12 29 c6 16 14 119 18 229 8 221 8 221 82 316 23 30 46 59 50
65 5 6 -23 23 -80 47 -52 23 -101 51 -120 71 l-32 33 38 24 c70 42 158 116
193 164 l35 46 17 -21 c20 -25 48 -111 48 -149 0 -49 12 -54 66 -30 88 38 140
36 317 -11 88 -23 161 -39 164 -36 3 3 -49 60 -114 128 -66 68 -127 137 -136
155 -9 17 -22 63 -28 101 l-12 70 -64 -24 c-104 -39 -110 -35 -63 41 148 241
262 559 303 845 14 93 14 108 0 128 -12 20 -20 23 -50 17 -30 -5 -34 -4 -31
12 2 13 38 30 142 65 144 48 166 62 166 108 0 46 -22 60 -165 108 l-140 47
-12 108 c-90 829 -681 1554 -1483 1821 -164 55 -289 83 -435 99 l-110 12 -47
140 c-48 143 -62 165 -108 165 -14 0 -34 -6 -44 -13z m58 -192 c4 -14 20 -63
37 -110 l31 -85 36 -1 c22 -1 -3 -8 -63 -19 -227 -40 -390 -108 -500 -211 -19
-18 -66 -39 -129 -59 -54 -17 -119 -40 -143 -51 l-46 -19 -15 22 c-9 13 -40
48 -69 79 l-53 56 69 31 c175 78 414 140 631 162 63 7 118 17 122 23 3 6 21
55 40 109 18 54 36 98 39 98 4 0 10 -11 13 -25z m418 -241 c582 -123 1077
-481 1385 -1001 145 -247 242 -549 273 -853 7 -63 17 -118 23 -122 6 -3 55
-21 109 -40 54 -18 98 -36 98 -39 0 -4 -11 -10 -25 -13 -14 -4 -63 -20 -109
-37 l-84 -30 -8 -76 -9 -77 -102 -35 c-56 -20 -104 -34 -106 -31 -3 3 0 34 5
70 26 166 9 465 -37 666 -23 102 -22 101 -97 74 -99 -36 -219 -95 -271 -135
-57 -44 -77 -82 -118 -222 -17 -59 -45 -135 -61 -167 -92 -183 -311 -283 -688
-316 -106 -9 -343 0 -422 16 -32 6 -31 10 -47 -200 -6 -80 -15 -143 -22 -146
-12 -8 -192 -20 -198 -14 -4 3 9 169 25 336 l6 56 -77 7 c-77 7 -77 8 -71 34
4 14 9 61 13 104 l6 78 36 -5 c139 -22 456 -58 556 -63 195 -9 453 31 569 88
97 49 141 115 187 284 12 44 32 103 44 132 55 123 198 228 430 314 50 18 94
36 98 39 12 10 -30 98 -106 225 -269 453 -682 760 -1196 890 l-85 21 -21 85
c-12 46 -25 94 -29 107 -4 12 -5 22 -2 22 3 0 61 -12 128 -26z m-1786 -29
c113 -20 266 -72 341 -116 96 -57 195 -163 241 -260 69 -142 76 -185 77 -425
l0 -212 -55 29 c-66 35 -81 35 -179 8 -80 -22 -115 -46 -134 -91 l-12 -28 -78
34 c-206 90 -344 209 -415 356 -59 122 -76 222 -69 385 6 117 15 175 48 298
l10 37 68 0 c38 0 108 -7 157 -15z m1632 -62 c103 -391 18 -703 -242 -888 -77
-54 -147 -89 -211 -104 -27 -7 -58 -14 -67 -17 -11 -3 -18 0 -18 8 0 30 -56
66 -134 88 -93 26 -123 23 -193 -18 l-50 -30 -7 87 c-3 47 -1 137 4 200 21
237 85 397 204 515 87 87 157 129 284 172 118 40 231 62 333 63 l77 1 20 -77z
m-1898 -656 c0 -10 50 -90 94 -151 5 -8 -12 -41 -49 -96 -51 -75 -64 -88 -116
-112 -76 -35 -141 -80 -211 -146 -32 -30 -58 -52 -58 -49 0 19 96 220 143 300
65 109 176 267 188 267 5 0 9 -6 9 -13z m880 -329 l80 -43 84 44 84 45 69 -18
c123 -33 132 -51 93 -178 -19 -63 -20 -64 -94 -106 -41 -23 -77 -49 -80 -58
-3 -9 -6 -52 -6 -96 l0 -81 -63 -64 c-42 -41 -72 -63 -87 -63 -15 0 -45 22
-87 63 l-63 64 0 81 c0 44 -3 87 -6 96 -3 9 -39 35 -80 58 -74 42 -75 43 -95
108 -25 79 -27 117 -7 136 14 14 127 52 160 53 10 1 54 -18 98 -41z m-404 -73
l91 -38 14 -55 c16 -69 29 -84 109 -130 60 -35 65 -41 68 -75 3 -31 -5 -49
-50 -111 -29 -41 -69 -99 -88 -130 -38 -63 -134 -149 -224 -202 -194 -115
-418 -118 -671 -8 -89 39 -245 133 -245 149 1 22 72 183 112 249 126 215 269
333 458 382 38 9 98 13 195 10 136 -3 143 -4 231 -41z m1453 12 c165 -58 305
-189 414 -387 34 -62 97 -209 97 -227 0 -4 -38 -32 -84 -61 -240 -151 -505
-204 -697 -139 -143 49 -297 161 -359 263 -19 31 -59 89 -88 130 -45 62 -53
80 -50 111 3 34 8 40 68 75 82 47 91 58 114 146 l18 71 92 20 c50 11 100 23
111 25 11 3 81 4 155 2 116 -2 145 -6 209 -29z m-1093 -527 c76 -76 83 -80
124 -80 41 0 48 4 124 80 44 44 81 80 83 80 8 0 94 -141 132 -217 79 -159 107
-323 77 -463 -21 -101 -90 -237 -171 -338 -63 -78 -232 -235 -247 -230 -28 11
-187 161 -242 229 -240 299 -243 590 -10 952 24 37 45 67 47 67 2 0 39 -36 83
-80z m-1118 -397 c1 -59 6 -111 10 -115 4 -4 51 8 103 26 241 87 363 87 564 0
l82 -35 12 -65 c6 -36 23 -95 37 -131 13 -37 23 -68 21 -70 -2 -2 -67 28 -145
66 -158 78 -203 93 -279 92 -100 -1 -363 -89 -363 -122 0 -9 11 -61 25 -114
14 -54 24 -99 23 -100 -8 -6 -214 39 -219 48 -12 18 -48 220 -60 332 -6 61
-16 113 -22 117 -6 3 -55 21 -109 40 -54 18 -98 36 -98 39 0 4 11 10 25 13 14
4 63 20 109 37 l84 30 6 59 7 58 92 -48 92 -49 3 -108z m4128 -295 c-25 -221
-114 -503 -230 -723 -56 -107 -125 -219 -131 -213 -3 2 2 26 11 53 8 28 17 91
21 140 13 194 -57 382 -194 526 -49 52 -71 80 -62 83 8 3 104 34 214 70 110
36 234 79 275 95 106 42 104 43 96 -31z m-840 -79 c107 -32 191 -84 276 -169
153 -155 218 -372 173 -585 -39 -184 -179 -365 -346 -445 -195 -93 -387 -93
-579 1 -67 33 -102 60 -166 123 -204 204 -249 484 -121 746 72 148 217 273
375 325 124 40 266 42 388 4z m-3352 -218 c315 -62 690 -111 961 -126 205 -11
206 -11 279 -67 l66 -51 65 50 65 50 252 6 c233 6 573 32 743 56 123 18 117
23 85 -61 -102 -264 -43 -546 158 -759 21 -23 30 -39 23 -43 -15 -10 -265 -42
-466 -60 -524 -48 -1093 -45 -1630 9 -272 28 -233 12 -342 139 -190 222 -342
487 -428 749 -25 75 -45 139 -45 142 0 8 1 7 214 -34z m4061 -791 c10 -19 47
-65 83 -102 36 -38 61 -68 56 -68 -5 0 -43 9 -84 20 -88 23 -159 25 -215 5
-21 -8 -40 -13 -41 -12 -1 1 -9 27 -18 58 -8 30 -27 73 -42 94 -25 37 -25 40
-10 72 16 33 16 33 88 34 40 0 89 6 108 13 l35 13 11 -46 c6 -25 19 -62 29
-81z m-1281 -196 c22 -14 24 -22 24 -92 0 -47 6 -91 15 -114 l15 -36 -36 -7
c-68 -12 -123 -44 -194 -112 -57 -54 -70 -63 -65 -43 34 131 40 182 30 238 -6
31 -14 64 -18 73 -5 13 4 19 41 28 55 14 115 43 133 65 17 20 26 20 55 0z
m225 -94 c41 -11 102 -20 135 -20 l61 0 -100 -66 c-55 -35 -146 -87 -202 -114
-105 -52 -254 -112 -260 -106 -6 6 57 56 96 76 20 10 55 21 76 25 22 3 52 9
67 11 l27 5 -25 65 c-13 35 -24 78 -24 96 0 36 26 60 55 53 11 -3 53 -15 94
-25z m431 22 c0 -21 78 -83 135 -108 l64 -28 -35 -47 c-63 -86 -68 -106 -74
-309 l-5 -185 -84 145 c-97 165 -134 206 -220 241 l-61 25 40 54 c36 48 70
129 70 167 0 7 10 13 23 14 12 0 47 8 77 19 66 22 70 22 70 12z m-2535 -13
l180 -12 125 -53 c69 -28 136 -55 149 -59 23 -7 23 -6 17 31 -4 22 -9 47 -12
57 -5 15 5 17 103 17 l108 0 19 -85 c21 -95 13 -89 136 -106 198 -28 486 -10
702 43 49 12 90 19 92 17 4 -4 -42 -208 -49 -216 -5 -8 -208 -43 -305 -53 -63
-7 -118 -17 -122 -23 -3 -6 -21 -55 -40 -109 -18 -54 -35 -98 -38 -98 -3 0
-20 44 -38 98 -19 54 -37 103 -40 109 -4 6 -59 16 -122 23 -293 30 -599 126
-832 261 -77 44 -248 158 -248 165 0 6 18 5 215 -7z"/>
<path d="M3655 1996 c-289 -70 -432 -403 -284 -662 33 -58 122 -145 178 -173
179 -92 399 -56 532 86 86 91 129 197 129 313 -2 288 -276 504 -555 436z m176
-46 c180 -34 312 -180 326 -363 13 -169 -75 -314 -236 -391 -60 -28 -75 -31
-162 -31 -90 0 -99 2 -171 38 -156 77 -240 226 -224 396 18 193 188 352 387
360 15 1 51 -4 80 -9z"/>
</g>
</svg>
