<svg xmlns="http://www.w3.org/2000/svg" xmlns:xlink="http://www.w3.org/1999/xlink" aria-hidden="true" role="img" class="iconify iconify--vscode-icons" width="1em" height="1em" preserveAspectRatio="xMidYMid meet" viewBox="0 0 32 32"><path fill="#e10098" d="M4.782 22.747l11.45-19.833l1.028.593L5.81 23.34z"></path><path fill="#e10098" d="M4.545 21.162h22.902v1.187H4.545z"></path><path fill="#e10098" d="M4.998 21.829l.594-1.028l11.455 6.613l-.594 1.028z"></path><path fill="#e10098" d="M14.95 4.591l.594-1.028l11.455 6.614l-.594 1.028z"></path><path fill="#e10098" d="M5.001 10.174L16.456 3.56l.594 1.028l-11.455 6.614z"></path><path fill="#e10098" d="M14.743 3.508l1.028-.594l11.45 19.833l-1.027.593z"></path><path fill="#e10098" d="M5.454 9.386h1.187v13.228H5.454z"></path><path fill="#e10098" d="M25.36 9.386h1.187v13.228H25.36z"></path><path fill="#e10098" d="M15.733 27.042l9.963-5.752l.519.898l-9.963 5.752z"></path><path d="M28.12 23a2.5 2.5 0 1 1-.915-3.411A2.5 2.5 0 0 1 28.12 23" fill="#e10098"></path><path d="M8.2 11.5a2.5 2.5 0 1 1-.915-3.411A2.5 2.5 0 0 1 8.2 11.5" fill="#e10098"></path><path d="M3.88 23a2.5 2.5 0 1 1 3.411.915A2.5 2.5 0 0 1 3.88 23" fill="#e10098"></path><path d="M23.8 11.5a2.5 2.5 0 1 1 3.411.915A2.5 2.5 0 0 1 23.8 11.5" fill="#e10098"></path><path d="M16 30a2.5 2.5 0 1 1 2.5-2.5A2.493 2.493 0 0 1 16 30" fill="#e10098"></path><path d="M16 6.991a2.5 2.5 0 1 1 2.5-2.5a2.493 2.493 0 0 1-2.5 2.5" fill="#e10098"></path></svg>