<svg xmlns="http://www.w3.org/2000/svg" xmlns:xlink="http://www.w3.org/1999/xlink" aria-hidden="true" role="img" class="iconify iconify--vscode-icons" width="1em" height="1em" preserveAspectRatio="xMidYMid meet" viewBox="0 0 32 32"><defs><radialGradient id="IconifyId-17ab498a166-cbb4b1-608" cx="-2.176" cy="-852.913" r="48.27" gradientTransform="matrix(.36 .402 .222 -.163 205.356 -126.01)" gradientUnits="userSpaceOnUse"><stop offset="0" stop-color="#7ce1ff"></stop><stop offset=".3" stop-color="#7ce1ff" stop-opacity="0"></stop></radialGradient><radialGradient id="IconifyId-17ab498a166-cbb4b1-609" cx="4199.973" cy="-1221.763" r="83.239" gradientTransform="matrix(.031 .03 .075 -.062 -25.785 -180.883)" gradientUnits="userSpaceOnUse"><stop offset="0" stop-color="#7ce1ff"></stop><stop offset="1" stop-color="#7ce1ff" stop-opacity="0"></stop></radialGradient><radialGradient id="IconifyId-17ab498a166-cbb4b1-610" cx="-264.938" cy="-543.943" r="27.886" gradientTransform="matrix(-1.048 -.5 -1.117 .527 -867.609 176.63)" gradientUnits="userSpaceOnUse"><stop offset="0" stop-color="#7ce1ff" stop-opacity=".8"></stop><stop offset=".15" stop-color="#7ce1ff" stop-opacity="0"></stop></radialGradient><linearGradient id="IconifyId-17ab498a166-cbb4b1-611" x1="-113.501" y1="-375.465" x2="-113.501" y2="-404.611" gradientTransform="matrix(1 0 0 -1 129.5 -387.5)" gradientUnits="userSpaceOnUse"><stop offset="0" stop-color="#fff"></stop><stop offset="1" stop-color="#fff" stop-opacity="0"></stop></linearGradient></defs><path d="M8.492 5.6h19.843a1.517 1.517 0 0 1 1.546 1.948l-3.923 16.906a2.636 2.636 0 0 1-2.45 1.948H3.665a1.517 1.517 0 0 1-1.546-1.948L6.042 7.545A2.636 2.636 0 0 1 8.492 5.6z" fill="#2a80c9"></path><path d="M23.508 26.471H3.665a1.653 1.653 0 0 1-1.333-.6a1.657 1.657 0 0 1-.279-1.436L5.976 7.53a2.71 2.71 0 0 1 2.516-2h19.843a1.584 1.584 0 0 1 1.612 2.031L26.024 24.47a2.71 2.71 0 0 1-2.516 2.001zM8.492 5.664a2.568 2.568 0 0 0-2.384 1.9L2.185 24.47a1.525 1.525 0 0 0 .253 1.321a1.521 1.521 0 0 0 1.227.544h19.843a2.568 2.568 0 0 0 2.384-1.9L29.815 7.53a1.45 1.45 0 0 0-1.48-1.866z" fill="#1f5e93" opacity=".945"></path><path d="M23.541 26.359H3.7a1.57 1.57 0 0 1-1.267-.559a1.574 1.574 0 0 1-.263-1.364L6.093 7.522a2.514 2.514 0 0 1 2.366-1.881H28.3a1.5 1.5 0 0 1 1.53 1.927l-3.923 16.909a2.514 2.514 0 0 1-2.366 1.882zM8.459 5.843A2.336 2.336 0 0 0 6.29 7.568L2.367 24.477a1.376 1.376 0 0 0 .224 1.192a1.372 1.372 0 0 0 1.107.487h19.843a2.336 2.336 0 0 0 2.168-1.725l3.924-16.909A1.3 1.3 0 0 0 28.3 5.843z" fill="#bbd8f1" opacity=".945"></path><path d="M18.558 15.816c.061-.183-7-7.561-7-7.561" fill="none" stroke-linecap="round" stroke-width="76.717" stroke="url(#IconifyId-17ab498a166-cbb4b1-608)"></path><path d="M8.558 22.835s9.942-6.825 10-7" fill="#2aa7c9" stroke-linecap="round" stroke-width="76.717" stroke="url(#IconifyId-17ab498a166-cbb4b1-609)"></path><path d="M8.73 23.121h1.124" fill="none" stroke-linecap="round" stroke-width="100" stroke="url(#IconifyId-17ab498a166-cbb4b1-610)"></path><path d="M8.817 24.052a1.226 1.226 0 0 1-.7-2.237c2.77-1.9 6.941-4.786 8.809-6.117c-1.253-1.385-3.8-4.088-5.665-6.046a1.226 1.226 0 1 1 1.78-1.692c.017.017 1.674 1.756 3.3 3.493A219.106 219.106 0 0 1 18.61 13.9c.334.368.583.649.76.856a1.514 1.514 0 0 1 .494 1.539c-.165.492-.165.492-5.428 4.142c-2.438 1.691-4.9 3.383-4.926 3.4a1.221 1.221 0 0 1-.693.215z" fill="#fff"></path><path d="M19.925 23.929h-4.882a1.226 1.226 0 0 1 0-2.453h4.882a1.226 1.226 0 1 1 0 2.453z" fill="#fff" opacity=".75"></path><path d="M28.606 13.04c-10.079.433-19.226 2.533-25.181 5.78l-1.307 5.634A1.514 1.514 0 0 0 3.664 26.4h19.843a2.629 2.629 0 0 0 2.45-1.948l2.648-11.412z" opacity=".1" fill="#000"></path><path d="M8.492 5.6a2.629 2.629 0 0 0-2.45 1.948L2.118 24.455A1.514 1.514 0 0 0 3.664 26.4h19.843a2.629 2.629 0 0 0 2.45-1.948L29.88 7.545A1.514 1.514 0 0 0 28.334 5.6H8.492z" fill="url(#IconifyId-17ab498a166-cbb4b1-611)"></path></svg>