<svg xmlns="http://www.w3.org/2000/svg" xmlns:xlink="http://www.w3.org/1999/xlink" aria-hidden="true" role="img" class="iconify iconify--vscode-icons" width="1em" height="1em" preserveAspectRatio="xMidYMid meet" viewBox="0 0 32 32"><path d="M3 24.967c2.25 0 2.25-1.485 4.5-1.485s2.25 1.485 4.5 1.485s2.25-1.485 4.5-1.485s2.251 1.485 4.5 1.485s2.25-1.485 4.5-1.485c2.132 0 2.239 1.332 4.147 1.474A14.264 14.264 0 0 0 19.094 7.885A14 14 0 0 0 2.347 18.632a14.606 14.606 0 0 0-.011 6.281a4.8 4.8 0 0 0 .675.054z" fill="#304ffe"></path><path d="M14.626 9.316h3.643v3.44h-3.643z" fill="#ffd54f"></path><path d="M14.626 9.316h1.286v3.44h-1.286z" fill="#fff176"></path><ellipse cx="15.88" cy="10.167" rx=".857" ry="1.092" fill="#fff176"></ellipse><path d="M14.541 8.922a1.886 1.886 0 1 1 3.771 0" fill="#f4511e"></path><path d="M14.412 8.857h4.007a.251.251 0 0 1 0 .5h-4.007a.244.244 0 0 1-.246-.251a.251.251 0 0 1 .246-.249z" fill="#f4511e"></path><path d="M14.1 23.351l.525-10.628h3.643l.472 10.1z" fill="#c5cae9"></path><path d="M18.323 13.542l.139 2.818" fill="none"></path><path d="M14.487 15.367l-.139 2.949l4.114-1.956l-.139-2.818z" fill="#ff7043"></path><path d="M18.6 19.124l.139 2.818" fill="none"></path><path d="M14.2 21.221l-.15 2.949l4.693-2.228l-.143-2.818z" fill="#ff7043"></path><path d="M14.069 11.161h4.7v1.573h-4.7z" fill="#e64a19"></path><path d="M14.069 11.161h3.086v1.573h-3.086z" fill="#f4511e"></path><path d="M22.352 10.725a.925.925 0 0 1 .353.076a1.484 1.484 0 0 1 2.872-.393a1.016 1.016 0 0 1 0 2.031h-3.225a.85.85 0 0 1-.847-.863a.84.84 0 0 1 .847-.851z" fill="#2979ff"></path><path d="M12.762 18.938a.706.706 0 0 1 .3.066a1.253 1.253 0 0 1 2.432-.339a.864.864 0 0 1 .086 1.726h-2.807a.717.717 0 0 1-.686-.754a.7.7 0 0 1 .675-.7z" fill="#448aff"></path><circle cx="19.769" cy="9.042" r=".15" fill="#fdd835"></circle><circle cx="4.576" cy="21.363" r=".15" fill="#fdd835"></circle><circle cx="5.979" cy="18.239" r=".15" fill="#fdd835"></circle><circle cx="6.922" cy="17.431" r=".15" fill="#fdd835"></circle><circle cx="10.897" cy="13.816" r=".15" fill="#fdd835"></circle><circle cx="23.466" cy="14.252" r=".15" fill="#fdd835"></circle><circle cx="29.434" cy="20.718" r=".15" fill="#fdd835"></circle><circle cx="8.379" cy="13.346" r=".15" fill="#fdd835"></circle><circle cx="21.795" cy="20.784" r=".15" fill="#fdd835"></circle><circle cx="26.391" cy="16.907" r=".15" fill="#fdd835"></circle><path d="M14.691 9.261S7.565 8.245 7.544 8.245a15.735 15.735 0 0 0-4.715 4.806l11.851-1.769z" fill="#ffe082" opacity=".5"></path><path d="M12.033 25c2.25 0 2.25-1.485 4.5-1.485S18.784 25 21.034 25c1.907 0 2.2-1.07 3.621-1.4a17.155 17.155 0 0 0-8.068-1.769a17.2 17.2 0 0 0-8.111 1.791c1.371.34 1.671 1.378 3.557 1.378z" fill="#00c853"></path><path d="M12.044 24.978c2.25 0 2.25-1.485 4.5-1.485h.043l-.021-1.639A17.2 17.2 0 0 0 8.529 23.6c1.34.351 1.651 1.378 3.515 1.378z" fill="#64dd17"></path></svg>