<svg xmlns="http://www.w3.org/2000/svg" xmlns:xlink="http://www.w3.org/1999/xlink" aria-hidden="true" role="img" class="iconify iconify--vscode-icons" width="1em" height="1em" preserveAspectRatio="xMidYMid meet" viewBox="0 0 32 32"><path d="M20 2.434A7.353 7.353 0 0 1 22.543 2h6.448c-.012 2.389.026 4.777-.018 7.164a6.7 6.7 0 0 1-6.226 6.177c-2.361.032-4.722 0-7.083.012c0-2.292-.012-4.585.006-6.877A6.689 6.689 0 0 1 20 2.434z" fill="#5ca645"></path><path d="M15.664 16.67c2.361.01 4.722-.02 7.081.014a6.691 6.691 0 0 1 6.23 6.232c.038 2.359.006 4.72.016 7.079c-2.412-.016-4.827.034-7.239-.024a6.658 6.658 0 0 1-6.074-6.242c-.036-2.353-.006-4.706-.014-7.059z" fill="#5ca645"></path><path d="M7.95 5.4a5.654 5.654 0 0 1 6.381 5.653v9.886a5.67 5.67 0 0 1-8.92 4.706a5.579 5.579 0 0 1-2.4-4.494Q3 16 3.013 10.855A5.632 5.632 0 0 1 7.95 5.4zM8 8.035a3.049 3.049 0 1 0 3.7 2.835A3.036 3.036 0 0 0 8 8.035z" fill="#595a59"></path></svg>