<svg xmlns="http://www.w3.org/2000/svg" xmlns:xlink="http://www.w3.org/1999/xlink" aria-hidden="true" role="img" class="iconify iconify--vscode-icons" width="1em" height="1em" preserveAspectRatio="xMidYMid meet" viewBox="0 0 32 32"><path d="M18.053 12.267l4.76 7.467l.373.56l1.12-.653l-.373-.56l-4.76-7.467l-.373-.654l-1.12.653l.373.653zm-5.227-.747l-4.76 7.467l-.373.56l1.12.653l.373-.467l4.76-7.467l.373-.56l-1.119-.746l-.373.56z" fill="#5e9cff"></path><path d="M16 13.107a4.979 4.979 0 0 0 4.947-4.947A5.061 5.061 0 0 0 16 3.12a4.979 4.979 0 0 0-4.947 4.947A5.061 5.061 0 0 0 16 13.107zm0-1.307a3.644 3.644 0 0 1-3.64-3.64a3.64 3.64 0 1 1 7.28 0A3.644 3.644 0 0 1 16 11.8z" fill="#5e9cff"></path><path d="M25.053 28.88a4.947 4.947 0 1 0-4.947-4.947a4.979 4.979 0 0 0 4.947 4.947zm0-1.307a3.644 3.644 0 0 1-3.64-3.64a3.64 3.64 0 1 1 7.28 0a3.644 3.644 0 0 1-3.64 3.64z" fill="#5e9cff"></path><path d="M6.947 28.88a4.947 4.947 0 1 0 0-9.893a4.947 4.947 0 1 0 0 9.893zm0-1.307a3.644 3.644 0 0 1-3.64-3.64a3.706 3.706 0 0 1 3.64-3.64a3.706 3.706 0 0 1 3.64 3.64a3.644 3.644 0 0 1-3.64 3.64z" fill="#5e9cff"></path><circle cx="6.947" cy="23.933" r="1.68" fill="#fff"></circle></svg>