<svg xmlns="http://www.w3.org/2000/svg" xmlns:xlink="http://www.w3.org/1999/xlink" aria-hidden="true" role="img" class="iconify iconify--vscode-icons" width="1em" height="1em" preserveAspectRatio="xMidYMid meet" viewBox="0 0 32 32"><defs><filter id="IconifyId-17ab498a166-cbb4b1-729"><feGaussianBlur result="blur" stdDeviation="4" in="SourceAlpha"></feGaussianBlur><feOffset result="offsetBlur" dx=".1" dy=".1" in="blur"></feOffset><feFlood result="offsetColor" flood-color="#C4C7CE"></feFlood><feComposite result="offsetBlur" operator="in" in="offsetColor" in2="offsetBlur"></feComposite></filter></defs><g filter="url(#IconifyId-17ab498a166-cbb4b1-729)"><path d="M25.706 16.847L27.4 7.03S24.849 2 16.037 2C5.344 2 4.562 7.03 4.562 7.03l1.714 9.817z" fill="#000"></path></g><g filter="url(#IconifyId-17ab498a166-cbb4b1-729)"><path d="M5.549 12.637l.727 4.21h19.43l.726-4.21H5.549z" fill="#000"></path></g><g filter="url(#IconifyId-17ab498a166-cbb4b1-729)"><path d="M28.63 19.194H3.351l-.782-2.347h26.862l-.801 2.347z" fill="#000"></path></g><g filter="url(#IconifyId-17ab498a166-cbb4b1-729)"><circle cx="15.981" cy="13.997" r="3.13" fill="#000"></circle></g><path d="M15.981 16.735A2.738 2.738 0 1 1 18.72 14a2.743 2.743 0 0 1-2.739 2.735zm0-5.123A2.384 2.384 0 1 0 18.366 14a2.377 2.377 0 0 0-2.384-2.384zm0 4.359A1.975 1.975 0 1 1 17.956 14a1.976 1.976 0 0 1-1.975 1.972zm0-3.707a1.714 1.714 0 1 0 1.719 1.714a1.709 1.709 0 0 0-1.714-1.714zm.5 1.025l.894-.652l-.689.876l1.08-.279l-.95.577l1.1.13l-1.1.186l1.006.522l-1.08-.224l.727.838l-.931-.6l.373 1.043l-.652-.894l-.019 1.118l-.279-1.08l-.428 1.025l.112-1.1l-.764.8l.5-.987l-1.006.466l.838-.745l-1.118.075L15.143 14l-1.062-.335l1.118.019l-.876-.689l1.025.41l-.559-.95l.8.764l-.186-1.1l.484 1.006l.224-1.08l.093 1.118l.615-.931z" filter="url(#IconifyId-17ab498a166-cbb4b1-729)" fill="#000"></path><g filter="url(#IconifyId-17ab498a166-cbb4b1-729)"><path d="M15.981 22.983s1.937-2.31 6.483-1.174s6.874 6.762 6.874 6.762a9.244 9.244 0 0 1-6.352 1.341c-3.875-.502-7.023-4.637-7.005-6.929z" fill="#000"></path></g><g filter="url(#IconifyId-17ab498a166-cbb4b1-729)"><path d="M8.977 29.913a9.244 9.244 0 0 1-6.352-1.341s2.328-5.626 6.875-6.763s6.483 1.174 6.483 1.174c.017 2.291-3.132 6.427-7.006 6.93z" fill="#000"></path></g><path d="M25.706 16.847L27.4 7.03S24.849 2 16.037 2C5.344 2 4.562 7.03 4.562 7.03l1.714 9.817z" fill="#050505"></path><path d="M5.549 12.637l.727 4.21h19.43l.727-4.21H5.549z" fill="#dd002a"></path><path d="M28.63 19.194H3.351l-.782-2.347h26.862z" fill="#050505"></path><circle cx="15.981" cy="13.997" r="3.13" fill="#050505"></circle><path d="M15.981 16.735A2.738 2.738 0 1 1 18.72 14a2.743 2.743 0 0 1-2.739 2.735zm0-5.123A2.384 2.384 0 1 0 18.366 14a2.377 2.377 0 0 0-2.384-2.384zm0 4.359A1.975 1.975 0 1 1 17.956 14a1.976 1.976 0 0 1-1.975 1.972zm0-3.707a1.714 1.714 0 1 0 1.719 1.714a1.709 1.709 0 0 0-1.714-1.714zm.5 1.025l.894-.652l-.689.876l1.08-.279l-.95.577l1.1.13l-1.1.186l1.006.522l-1.08-.224l.727.838l-.931-.6l.373 1.043l-.652-.894l-.019 1.118l-.279-1.08l-.428 1.025l.112-1.1l-.764.8l.5-.987l-1.006.466l.838-.745l-1.118.075L15.143 14l-1.062-.335l1.118.019l-.876-.689l1.025.41l-.559-.95l.8.764l-.186-1.1l.484 1.006l.224-1.08l.093 1.118l.615-.931z" fill="#dd002a"></path><path d="M15.981 22.983s1.937-2.31 6.483-1.174s6.874 6.762 6.874 6.762a9.244 9.244 0 0 1-6.352 1.341c-3.875-.502-7.023-4.637-7.005-6.929z" fill="#4f1907"></path><path d="M8.977 29.913a9.244 9.244 0 0 1-6.352-1.341s2.328-5.626 6.875-6.763s6.483 1.174 6.483 1.174c.017 2.291-3.132 6.427-7.006 6.93z" fill="#4f1907"></path></svg>