<svg xmlns="http://www.w3.org/2000/svg" xmlns:xlink="http://www.w3.org/1999/xlink" aria-hidden="true" role="img" class="iconify iconify--vscode-icons" width="1em" height="1em" preserveAspectRatio="xMidYMid meet" viewBox="0 0 32 32"><path d="M27.5 5.5h-9.3l-2.1 4.2H4.4v16.8h25.2v-21zm0 4.2h-8.2l1.1-2.1h7.1z" fill="#5597bf"></path><path fill="#1572b6" d="M14.177 28.901L12.492 10h18.516l-1.686 18.898L21.739 31l-7.562-2.099z"></path><path fill="#33a9dc" d="M21.75 29.393l6.127-1.699l1.442-16.149H21.75v17.848z"></path><path fill="#fff" d="M21.75 18.393h3.068l.211-2.374H21.75v-2.318h5.813l-.056.622l-.57 6.388H21.75v-2.318z"></path><path fill="#ebebeb" d="M21.764 24.413l-.01.003l-2.582-.697l-.165-1.849H16.68l.325 3.64l4.748 1.318l.011-.003v-2.412z"></path><path fill="#fff" d="M24.62 20.613l-.279 3.105l-2.585.697v2.412l4.752-1.317l.035-.392l.403-4.505H24.62z"></path><path fill="#ebebeb" d="M21.758 13.701V16.019H16.159l-.047-.521l-.105-1.175l-.056-.622h5.807z"></path><path fill="#ebebeb" d="M21.75 18.393V20.712h-2.549l-.046-.521l-.106-1.176l-.055-.622h2.756z"></path></svg>