<svg xmlns="http://www.w3.org/2000/svg" xmlns:xlink="http://www.w3.org/1999/xlink" aria-hidden="true" role="img" class="iconify iconify--vscode-icons" width="1em" height="1em" preserveAspectRatio="xMidYMid meet" viewBox="0 0 32 32"><path d="M8.109 4.26L16 3.433l7.891.828L30 12.4L16 28.567L2 12.4z" fill="#fdb300"></path><path fill="#ea6c00" d="M7.671 12.395L16 28.567L2 12.395h5.671z"></path><path fill="#ea6c00" d="M24.329 12.395L16 28.567l14-16.172h-5.671z"></path><path fill="#fdad00" d="M7.671 12.395h16.658L16 28.567L7.671 12.395z"></path><path fill="#fdd231" d="M16 3.433l-7.891.827l-.438 8.135L16 3.433z"></path><path fill="#fdd231" d="M16 3.433l7.891.827l.438 8.135L16 3.433z"></path><path fill="#fdad00" d="M30 12.395L23.891 4.26l.438 8.135H30z"></path><path fill="#fdad00" d="M2 12.395L8.109 4.26l-.438 8.135H2z"></path><path fill="#feeeb7" d="M16 3.433l-8.329 8.962h16.658L16 3.433z"></path></svg>