<svg xmlns="http://www.w3.org/2000/svg" xmlns:xlink="http://www.w3.org/1999/xlink" aria-hidden="true" role="img" class="iconify iconify--vscode-icons" width="1em" height="1em" preserveAspectRatio="xMidYMid meet" viewBox="0 0 32 32"><path d="M27.4 5.5h-9.2l-2.1 4.2H4.3v4H.5l3.8 12.8h25.2v-21zm-7.2 2.1h7.1v2.1h-8.1zm5.5 6.1H6.6v-1.9h20.8v7.626z" fill="#7db4d3"></path><path d="M19.177 29.932c2.827-.586 5.161-1.071 5.188-1.078l.049-.012l-2.668-3.725c-1.468-2.049-2.668-3.734-2.668-3.743s2.755-8.925 2.771-8.956c0-.011 1.88 3.789 4.545 9.211l4.571 9.3L31 31H14.04z" fill="#0089d6"></path><path d="M9 28.8s1.257-2.567 2.794-5.693l2.794-5.684l3.259-3.206A722.051 722.051 0 0 1 21.114 11a.785.785 0 0 1-.052.155l-3.539 8.9l-3.476 8.745h-2.525c-1.386.007-2.522 0-2.522 0z" fill="#0089d6"></path></svg>