<svg xmlns="http://www.w3.org/2000/svg" xmlns:xlink="http://www.w3.org/1999/xlink" aria-hidden="true" role="img" class="iconify iconify--vscode-icons" width="1em" height="1em" preserveAspectRatio="xMidYMid meet" viewBox="0 0 32 32"><defs><linearGradient id="IconifyId-17ab498a166-cbb4b1-795" x1="15.915" y1="25.739" x2="21.018" y2="14.942" gradientUnits="userSpaceOnUse"><stop offset="0" stop-color="#1011a1"></stop><stop offset="1" stop-color="#6969e1"></stop></linearGradient><linearGradient id="IconifyId-17ab498a166-cbb4b1-796" x1="20.676" y1="17.727" x2="27.799" y2="29.772" gradientUnits="userSpaceOnUse"><stop offset="0" stop-color="#b40e0e"></stop><stop offset="1" stop-color="#ff5959"></stop></linearGradient><linearGradient id="IconifyId-17ab498a166-cbb4b1-797" x1="24.799" y1="28.981" x2="14.72" y2="28.135" gradientUnits="userSpaceOnUse"><stop offset="0" stop-color="#01a300"></stop><stop offset="1" stop-color="#01df00"></stop></linearGradient><linearGradient id="IconifyId-17ab498a166-cbb4b1-798" x1="19.474" y1="26.291" x2="19.345" y2="21.908" gradientUnits="userSpaceOnUse"><stop offset="0" stop-color="#848484"></stop><stop offset="1" stop-color="#d2d2d2"></stop></linearGradient></defs><path d="M27.9 6h-9.7l-2 4H5v17h25V6zm.1 18H7V12h21zm.1-14h-7.8l1-2H28z" fill="#dcb67a"></path><path fill="#dcb67a" d="M25.9 14H.3l3.8 13h25.6l-3.8-13z"></path><path d="M21.456 21.2l-11.391 9.733L20.5 10.091z" fill="url(#IconifyId-17ab498a166-cbb4b1-795)"></path><path d="M10.081 30.951l-.039-.029L20.518 10l.007.089l.957 11.122l-.009.008zm10.4-20.77L10.143 30.833l11.287-9.644z" fill="#000"></path><path d="M21.983 27.277L20.5 10.089l10.449 20.846z" fill="url(#IconifyId-17ab498a166-cbb4b1-796)"></path><path d="M31 30.982l-.062-.024L21.96 27.3v-.016l-1.485-17.193l.047-.013zm-8.993-3.722l8.89 3.627l-10.361-20.67z" fill="#000"></path><path d="M16.829 25.124l14.131 5.809H10.068z" fill="url(#IconifyId-17ab498a166-cbb4b1-797)"></path><path d="M30.96 30.958H10l.052-.044l6.772-5.814l.015.006l14.131 5.803zm-20.825-.051h20.7l-14-5.754z" fill="#000"></path><path d="M16.851 25.138l4.6-3.922l.64 6.056z" fill="url(#IconifyId-17ab498a166-cbb4b1-798)"></path><path d="M22.149 27.351l-.077-.033l-5.316-2.165l.062-.053l4.673-3.984l.01.095zm-5.2-2.229l5.087 2.072l-.621-5.879z" fill="#000"></path><path d="M30.887 31.075H10.094A.193.193 0 0 1 9.939 31a.188.188 0 0 1 .018-.171l10.426-20.82a.144.144 0 0 1 .12-.083a.135.135 0 0 1 .115.079l10.423 20.812a.2.2 0 0 1 .015.187a.192.192 0 0 1-.169.071zm-20.808-.153h20.808a.168.168 0 0 0 .038 0c0-.006-.008-.018-.018-.037L20.5 10.109L10.092 30.893zm-.016 0z" fill="#000"></path></svg>