<svg xmlns="http://www.w3.org/2000/svg" xmlns:xlink="http://www.w3.org/1999/xlink" aria-hidden="true" role="img" class="iconify iconify--vscode-icons" width="1em" height="1em" preserveAspectRatio="xMidYMid meet" viewBox="0 0 32 32"><path d="M27.5 5.5h-9.3l-2.1 4.2H4.4v16.8h25.2v-21zm0 4.2h-8.2l1.1-2.1h7.1z" fill="#ffba58"></path><path d="M20 12.5V14h-4a2.006 2.006 0 0 0-2 2v4h-1.5a2.5 2.5 0 0 0 0 5H14v4a2.006 2.006 0 0 0 2 2h3.8v-1.5a2.7 2.7 0 0 1 5.4 0V31H29a2.006 2.006 0 0 0 2-2v-3.8h-1.5a2.7 2.7 0 0 1 0-5.4H31V16a2.006 2.006 0 0 0-2-2h-4v-1.5a2.5 2.5 0 0 0-5 0z" fill="#e76a00"></path></svg>