<svg xmlns="http://www.w3.org/2000/svg" xmlns:xlink="http://www.w3.org/1999/xlink" aria-hidden="true" role="img" class="iconify iconify--vscode-icons" width="1em" height="1em" preserveAspectRatio="xMidYMid meet" viewBox="0 0 32 32"><defs><linearGradient id="IconifyId-17ab498a166-cbb4b1-731" x1="17.65" y1="26.056" x2="21.099" y2="26.056" gradientUnits="userSpaceOnUse"><stop offset="0" stop-color="#4d4d4d"></stop><stop offset=".5" stop-color="#fff"></stop><stop offset="1" stop-color="#4d4d4d"></stop></linearGradient><linearGradient id="IconifyId-17ab498a166-cbb4b1-732" x1="17.65" y1="23.756" x2="21.099" y2="23.756" xlink:href="#IconifyId-17ab498a166-cbb4b1-731"></linearGradient><linearGradient id="IconifyId-17ab498a166-cbb4b1-733" x1="17.65" y1="21.456" x2="21.099" y2="21.456" xlink:href="#IconifyId-17ab498a166-cbb4b1-731"></linearGradient><linearGradient id="IconifyId-17ab498a166-cbb4b1-734" x1="17.65" y1="19.156" x2="21.099" y2="19.156" xlink:href="#IconifyId-17ab498a166-cbb4b1-731"></linearGradient><linearGradient id="IconifyId-17ab498a166-cbb4b1-735" x1="17.65" y1="16.857" x2="21.099" y2="16.857" xlink:href="#IconifyId-17ab498a166-cbb4b1-731"></linearGradient><linearGradient id="IconifyId-17ab498a166-cbb4b1-736" x1="17.65" y1="14.557" x2="21.099" y2="14.557" xlink:href="#IconifyId-17ab498a166-cbb4b1-731"></linearGradient><linearGradient id="IconifyId-17ab498a166-cbb4b1-737" x1="17.65" y1="12.257" x2="21.099" y2="12.257" xlink:href="#IconifyId-17ab498a166-cbb4b1-731"></linearGradient><linearGradient id="IconifyId-17ab498a166-cbb4b1-738" x1="17.65" y1="9.957" x2="21.099" y2="9.957" xlink:href="#IconifyId-17ab498a166-cbb4b1-731"></linearGradient><linearGradient id="IconifyId-17ab498a166-cbb4b1-739" x1="17.65" y1="7.657" x2="21.099" y2="7.657" xlink:href="#IconifyId-17ab498a166-cbb4b1-731"></linearGradient><linearGradient id="IconifyId-17ab498a166-cbb4b1-740" x1="16.237" y1="27.217" x2="19.686" y2="27.217" xlink:href="#IconifyId-17ab498a166-cbb4b1-731"></linearGradient><linearGradient id="IconifyId-17ab498a166-cbb4b1-741" x1="16.237" y1="24.918" x2="19.686" y2="24.918" xlink:href="#IconifyId-17ab498a166-cbb4b1-731"></linearGradient><linearGradient id="IconifyId-17ab498a166-cbb4b1-742" x1="16.237" y1="22.618" x2="19.686" y2="22.618" xlink:href="#IconifyId-17ab498a166-cbb4b1-731"></linearGradient><linearGradient id="IconifyId-17ab498a166-cbb4b1-743" x1="16.237" y1="20.318" x2="19.686" y2="20.318" xlink:href="#IconifyId-17ab498a166-cbb4b1-731"></linearGradient><linearGradient id="IconifyId-17ab498a166-cbb4b1-744" x1="16.237" y1="18.018" x2="19.686" y2="18.018" xlink:href="#IconifyId-17ab498a166-cbb4b1-731"></linearGradient><linearGradient id="IconifyId-17ab498a166-cbb4b1-745" x1="17.65" y1="28.356" x2="21.099" y2="28.356" xlink:href="#IconifyId-17ab498a166-cbb4b1-731"></linearGradient><linearGradient id="IconifyId-17ab498a166-cbb4b1-746" x1="16.237" y1="15.718" x2="19.686" y2="15.718" xlink:href="#IconifyId-17ab498a166-cbb4b1-731"></linearGradient><linearGradient id="IconifyId-17ab498a166-cbb4b1-747" x1="16.237" y1="13.419" x2="19.686" y2="13.419" xlink:href="#IconifyId-17ab498a166-cbb4b1-731"></linearGradient><linearGradient id="IconifyId-17ab498a166-cbb4b1-748" x1="16.237" y1="11.119" x2="19.686" y2="11.119" xlink:href="#IconifyId-17ab498a166-cbb4b1-731"></linearGradient><linearGradient id="IconifyId-17ab498a166-cbb4b1-749" x1="16.237" y1="8.819" x2="19.686" y2="8.819" xlink:href="#IconifyId-17ab498a166-cbb4b1-731"></linearGradient><linearGradient id="IconifyId-17ab498a166-cbb4b1-750" x1="16.237" y1="29.514" x2="19.686" y2="29.514" xlink:href="#IconifyId-17ab498a166-cbb4b1-731"></linearGradient><linearGradient id="IconifyId-17ab498a166-cbb4b1-751" x1="16.985" y1="11.196" x2="20.446" y2="11.196" xlink:href="#IconifyId-17ab498a166-cbb4b1-731"></linearGradient><linearGradient id="IconifyId-17ab498a166-cbb4b1-752" x1="18.096" y1="5.329" x2="19.336" y2="5.329" xlink:href="#IconifyId-17ab498a166-cbb4b1-731"></linearGradient><linearGradient id="IconifyId-17ab498a166-cbb4b1-753" x1="16.029" y1="5.591" x2="21.403" y2="5.591" xlink:href="#IconifyId-17ab498a166-cbb4b1-731"></linearGradient></defs><path d="M27.667 27.667V17.333L23 15V2H4.333v28h23.334zm-4.667 0v-9.111l2.333 1.222v7.889z" fill="#c09553"></path><path fill="url(#IconifyId-17ab498a166-cbb4b1-731)" d="M17.65 25.559h3.45v.993h-3.45z"></path><path fill="url(#IconifyId-17ab498a166-cbb4b1-732)" d="M17.65 23.26h3.45v.993h-3.45z"></path><path fill="url(#IconifyId-17ab498a166-cbb4b1-733)" d="M17.65 20.96h3.45v.993h-3.45z"></path><path fill="url(#IconifyId-17ab498a166-cbb4b1-734)" d="M17.65 18.66h3.45v.993h-3.45z"></path><path fill="url(#IconifyId-17ab498a166-cbb4b1-735)" d="M17.65 16.36h3.45v.993h-3.45z"></path><path fill="url(#IconifyId-17ab498a166-cbb4b1-736)" d="M17.65 14.06h3.45v.993h-3.45z"></path><path fill="url(#IconifyId-17ab498a166-cbb4b1-737)" d="M17.65 11.76h3.45v.993h-3.45z"></path><path fill="url(#IconifyId-17ab498a166-cbb4b1-738)" d="M17.65 9.461h3.45v.993h-3.45z"></path><path fill="url(#IconifyId-17ab498a166-cbb4b1-739)" d="M17.65 7.161h3.45v.993h-3.45z"></path><path fill="url(#IconifyId-17ab498a166-cbb4b1-740)" d="M16.237 26.721h3.45v.993h-3.45z"></path><path fill="url(#IconifyId-17ab498a166-cbb4b1-741)" d="M16.237 24.421h3.45v.993h-3.45z"></path><path fill="url(#IconifyId-17ab498a166-cbb4b1-742)" d="M16.237 22.121h3.45v.993h-3.45z"></path><path fill="url(#IconifyId-17ab498a166-cbb4b1-743)" d="M16.237 19.821h3.45v.993h-3.45z"></path><path fill="url(#IconifyId-17ab498a166-cbb4b1-744)" d="M16.237 17.522h3.45v.993h-3.45z"></path><path fill="url(#IconifyId-17ab498a166-cbb4b1-745)" d="M17.65 27.859h3.45v.993h-3.45z"></path><path fill="url(#IconifyId-17ab498a166-cbb4b1-746)" d="M16.237 15.222h3.45v.993h-3.45z"></path><path fill="url(#IconifyId-17ab498a166-cbb4b1-747)" d="M16.237 12.922h3.45v.993h-3.45z"></path><path fill="url(#IconifyId-17ab498a166-cbb4b1-748)" d="M16.237 10.622h3.45v.993h-3.45z"></path><path fill="url(#IconifyId-17ab498a166-cbb4b1-749)" d="M16.237 8.322h3.45v.993h-3.45z"></path><path fill="url(#IconifyId-17ab498a166-cbb4b1-750)" d="M16.237 29.018h3.45v.993h-3.45z"></path><path d="M20.1 5.911a.554.554 0 0 0-.548-.53h-.009v.557h.092l.206 2.514h-2.252l.211-2.514h.094v-.557h-.044a.552.552 0 0 0-.547.53l-.314 10.569a.513.513 0 0 0 .515.531h2.432a.512.512 0 0 0 .513-.531zm-1.384 10.5a1.171 1.171 0 1 1 1.171-1.171a1.171 1.171 0 0 1-1.171 1.168z" fill="url(#IconifyId-17ab498a166-cbb4b1-751)"></path><path fill="url(#IconifyId-17ab498a166-cbb4b1-752)" d="M18.096 3.802h1.24v3.054h-1.24z"></path><path d="M21.4 4.56a2.549 2.549 0 0 0-2.549-2.549h-.276a2.55 2.55 0 0 0-2.436 3.3v.006a7.986 7.986 0 0 1 .261 2.561a1.811 1.811 0 0 0 .641 1.271l.109-3.441a.593.593 0 0 1 .6-.551h.135v-1.57h1.653v1.57h.1a.6.6 0 0 1 .605.551l.121 3.462a1.813 1.813 0 0 0 .666-1.292V7.8v-.041v-.039a7.693 7.693 0 0 1 .236-2.359a2.543 2.543 0 0 0 .134-.801z" fill="url(#IconifyId-17ab498a166-cbb4b1-753)"></path></svg>