<svg xmlns="http://www.w3.org/2000/svg" xmlns:xlink="http://www.w3.org/1999/xlink" aria-hidden="true" role="img" class="iconify iconify--vscode-icons" width="1em" height="1em" preserveAspectRatio="xMidYMid meet" viewBox="0 0 32 32"><path d="M27.4 5.5h-9.3L16 9.7H4.3v16.8h25.2v-21zm0 4.2h-8.2l1.1-2.1h7.1z" fill="#598baa"></path><path d="M31.662 28.332l-6.937-12.214a2.413 2.413 0 0 0-4.026-.277l-1.544-2.721a2.413 2.413 0 0 0-4.21.005L6.308 28.333a2.476 2.476 0 0 0 0 2.436A2.419 2.419 0 0 0 8.409 32h21.152a2.424 2.424 0 0 0 2.106-1.234a2.478 2.478 0 0 0-.005-2.434zm-18.191.219h-3.342l6.92-12.188l1.664 2.931l-5.132 9.039c-.04.067-.081.144-.11.218zm3.933 0l3.282-5.782l3.283 5.782z" fill="#fff"></path><path d="M20.7 17.845l-.823 1.449l-2.815-4.956l-8.637 15.213h5.849A1.437 1.437 0 0 0 15.7 31H8.425a1.417 1.417 0 0 1-1.234-.725a1.466 1.466 0 0 1 0-1.448l8.64-15.214a1.414 1.414 0 0 1 2.468 0z" fill="#00c58e"></path><path d="M26.938 28.827l-5.413-9.533l-.825-1.449l-.823 1.449l-5.413 9.533a1.471 1.471 0 0 0 0 1.448A1.42 1.42 0 0 0 15.7 31h10a1.419 1.419 0 0 0 1.234-.724a1.468 1.468 0 0 0 0-1.449zm-11.238.724l5-8.808l5 8.808z" fill="#2f495e"></path><path d="M30.809 30.276a1.419 1.419 0 0 1-1.234.724H25.7a1.437 1.437 0 0 0 1.425-1.449h2.444l-6.933-12.215l-1.111 1.958l-.825-1.449l.7-1.233a1.414 1.414 0 0 1 2.469 0l6.938 12.215a1.468 1.468 0 0 1 .002 1.449z" fill="#108775"></path></svg>