<svg xmlns="http://www.w3.org/2000/svg" xmlns:xlink="http://www.w3.org/1999/xlink" aria-hidden="true" role="img" class="iconify iconify--vscode-icons" width="1em" height="1em" preserveAspectRatio="xMidYMid meet" viewBox="0 0 32 32"><path d="M27.5 5.5h-9.3l-2.1 4.2H4.4v16.8h25.2v-21zm0 4.2h-8.2l1.1-2.1h7.1z" fill="#34756b"></path><path d="M21 31a10 10 0 1 1 10-10a10.011 10.011 0 0 1-10 10zm0-18.182A8.182 8.182 0 1 0 29.182 21A8.191 8.191 0 0 0 21 12.818z" fill="#5fc1b3"></path><path d="M21.909 21.909h-1.068a.75.75 0 0 1-.75-.75v-6.682a.75.75 0 0 1 .75-.75h.318a.75.75 0 0 1 .75.75z" fill="#5fc1b3"></path><path d="M27.523 21.909h-6.682a.75.75 0 0 1-.75-.75v-1.068h7.432a.75.75 0 0 1 .75.75v.318a.75.75 0 0 1-.75.75z" fill="#5fc1b3"></path></svg>