<svg xmlns="http://www.w3.org/2000/svg" xmlns:xlink="http://www.w3.org/1999/xlink" aria-hidden="true" role="img" class="iconify iconify--vscode-icons" width="1em" height="1em" preserveAspectRatio="xMidYMid meet" viewBox="0 0 32 32"><path d="M19.484 7.937v5.477l1.916 1.205a.489.489 0 0 0 .21 0l8.238-5.554a1.174 1.174 0 0 0-.959-1.128z" fill="#0072c6"></path><path d="M19.484 15.457l1.747 1.2a.522.522 0 0 0 .543 0c-.3.181 8.073-5.378 8.073-5.378v10.066a1.408 1.408 0 0 1-1.49 1.555h-8.874v-7.443z" fill="#0072c6"></path><path d="M10.44 12.932a1.609 1.609 0 0 0-1.42.838a4.131 4.131 0 0 0-.526 2.218A4.05 4.05 0 0 0 9.02 18.2a1.6 1.6 0 0 0 2.771.022a4.014 4.014 0 0 0 .515-2.2a4.369 4.369 0 0 0-.5-2.281a1.536 1.536 0 0 0-1.366-.809z" fill="#0072c6"></path><path d="M2.153 5.155v21.427L18.453 30V2zm10.908 14.336a3.231 3.231 0 0 1-2.7 1.361a3.19 3.19 0 0 1-2.64-1.318A5.459 5.459 0 0 1 6.706 16.1a5.868 5.868 0 0 1 1.036-3.616a3.267 3.267 0 0 1 2.744-1.384a3.116 3.116 0 0 1 2.61 1.321a5.639 5.639 0 0 1 1 3.484a5.763 5.763 0 0 1-1.035 3.586z" fill="#0072c6"></path></svg>