<svg xmlns="http://www.w3.org/2000/svg" xmlns:xlink="http://www.w3.org/1999/xlink" aria-hidden="true" role="img" class="iconify iconify--vscode-icons" width="1em" height="1em" preserveAspectRatio="xMidYMid meet" viewBox="0 0 32 32"><path fill="#af2235" d="M23.307 11.572l-4.41-7.667h-1.212l-.386-.609h-.574l-4.779 8.276z"></path><path fill="#7a0617" d="M9.861 11.572l-2.408 4.209l-2.638 1.522L2 22.178l1.927 3.279l8.019-13.885z"></path><path fill="#97091c" d="M16.725 3.296h-3.82l-2.077 3.596l.852 1.5l-1.819 3.18h2.085z"></path><path fill="#630d1b" d="M4.995 25.954l.644 1.072h11.149l.618-1.072z"></path><path fill="#a40d1b" d="M24.507 13.659l-1.2-2.087H11.946L3.927 25.457l.292.497h13.187z"></path><path fill="#500520" d="M16.788 27.026h.711l.927 1.642h.605l-.92-1.642h9.395l.633-1.072H17.406z"></path><path fill="#710615" d="M24.507 13.659l-7.101 12.295h10.733l1.743-2.949z"></path><linearGradient id="IconifyId-17ab498a166-cbb4b1-164" gradientUnits="userSpaceOnUse" x1="14.2" y1="18.7" x2="22.6" y2="14.1"><stop offset=".088" stop-color="#ffc13b"></stop><stop offset="1" stop-color="#fd4d29"></stop></linearGradient><path fill="url(#IconifyId-17ab498a166-cbb4b1-164)" d="M13.076 12.661l5.935 10.319h2.613l-7.239-12.586zm-1.628 2.82l4.313 7.499h2.613l-5.617-9.767z"></path><linearGradient id="IconifyId-17ab498a166-cbb4b1-165" gradientUnits="userSpaceOnUse" x1="6.352" y1="24.718" x2="13.567" y2="20.729"><stop offset="0" stop-color="#fd4d29"></stop><stop offset="1" stop-color="#ff7427"></stop></linearGradient><path fill="url(#IconifyId-17ab498a166-cbb4b1-165)" d="M16.404 25.204l-5.275-9.171l-5.297 9.171z"></path><path fill="url(#IconifyId-17ab498a166-cbb4b1-164)" d="M14.704 9.842L22.26 22.98h2.613l-8.86-15.405zm2.938-5.086l-1.31 2.267L25.51 22.98h2.613z"></path></svg>