<svg xmlns="http://www.w3.org/2000/svg" xmlns:xlink="http://www.w3.org/1999/xlink" aria-hidden="true" role="img" class="iconify iconify--vscode-icons" width="1em" height="1em" preserveAspectRatio="xMidYMid meet" viewBox="0 0 32 32"><path d="M2 2.273l23.979 25.4a1.119 1.119 0 0 0 1.442-.1a1.064 1.064 0 0 0 .144-1.344L2 2.273z" fill="#df4f4f"></path><path d="M9.593 4.674l18.26 19.686a1.119 1.119 0 0 0 1.442-.1a1.064 1.064 0 0 0 .144-1.344L9.593 4.674z" fill="#df4f4f"></path><path d="M4.259 9.811L22.519 29.5a1.119 1.119 0 0 0 1.442-.1a1.064 1.064 0 0 0 .144-1.344L4.259 9.811z" fill="#df4f4f"></path><path d="M16.011 6.738l12.758 13.754a.782.782 0 0 0 1.007-.067a.743.743 0 0 0 .1-.939L16.011 6.738z" fill="#df4f4f"></path><path d="M6.016 15.765l12.757 13.753a.782.782 0 0 0 1.007-.067a.743.743 0 0 0 .1-.939L6.016 15.765z" fill="#df4f4f"></path><path d="M22.567 9.715l5.782 6.252a.4.4 0 0 0 .5-.031a.335.335 0 0 0 .05-.44l-6.33-5.781z" fill="#df4f4f"></path><path d="M9.208 22.1l5.782 6.252a.4.4 0 0 0 .5-.031a.335.335 0 0 0 .05-.44L9.208 22.1z" fill="#df4f4f"></path></svg>