<svg xmlns="http://www.w3.org/2000/svg" xmlns:xlink="http://www.w3.org/1999/xlink" aria-hidden="true" role="img" class="iconify iconify--vscode-icons" width="1em" height="1em" preserveAspectRatio="xMidYMid meet" viewBox="0 0 32 32"><path fill="#fff" d="M15.996 3.22l10.97 6.48l-.012 12.6L16 28.78L5.038 22.408l-.004-12.78L15.996 3.22z"></path><path d="M16 2L3.987 9.02v14L16 30l12-7.1l.013-13.8zm10.954 20.3L16 28.78L5.038 22.408V9.628L16 3.22L26.966 9.7z" fill="#171c1e"></path><path fill="#1ea8ff" d="M25.569 13.654l-5.623 3.31l-.003 7.926l5.647-3.325l-.021-7.911z"></path><path fill="#50bfff" d="M23.282 12.303l2.287 1.351l-5.623 3.31l-.003 7.926l-2.616-1.52l.021-7.495l5.934-3.572z"></path><path fill="#97ff27" d="M22.512 10.35l.002 1.466l-6.103 3.682l.007 8.099l-1.42.834l-.004-9.575l7.518-4.506z"></path><path fill="#c2ff72" d="M20.008 8.871l2.504 1.479l-7.518 4.506l.004 9.575l-2.804-1.63l-.005-9.388l7.819-4.542z"></path><path fill="#ff274b" d="M19.226 6.606v1.768l-8.016 4.7v10.098l-1.402.816l.027-11.711l9.391-5.671z"></path><path fill="#ff5c77" d="M16.16 4.784l-9.63 5.61l-.001 11.677l3.298 1.917l.008-11.711l9.4-5.671l-3.075-1.822z"></path></svg>