<svg xmlns="http://www.w3.org/2000/svg" xmlns:xlink="http://www.w3.org/1999/xlink" aria-hidden="true" role="img" class="iconify iconify--vscode-icons" width="1em" height="1em" preserveAspectRatio="xMidYMid meet" viewBox="0 0 32 32"><path d="M16 30a14 14 0 1 1 14-14a14.016 14.016 0 0 1-14 14zm0-26.824A12.824 12.824 0 1 0 28.824 16A12.84 12.84 0 0 0 16 3.176z" fill="#33a9dc"></path><path fill="#33a9dc" d="M2.784 15.412h26.432v1.176H2.784z"></path><path d="M16.317 10.474A44.779 44.779 0 0 1 4.42 8.92l.34-1.126c.111.034 11.277 3.32 22.427 0l.335 1.127a39.374 39.374 0 0 1-11.205 1.553z" fill="#33a9dc"></path><path d="M4.785 23.907l-.335-1.126c11.5-3.422 22.634-.14 23.1 0l-.34 1.126c-.11-.034-11.274-3.319-22.425 0z" fill="#33a9dc"></path><path d="M11.468 28.764a35.454 35.454 0 0 1-.742-25.71l1.082.461A34.228 34.228 0 0 0 12.55 28.3z" fill="#33a9dc"></path><path d="M20.441 28.764L19.36 28.3a34.229 34.229 0 0 0 .74-24.785l1.082-.461a35.461 35.461 0 0 1-.741 25.71z" fill="#33a9dc"></path><path fill="#33a9dc" d="M15.412 2.783h1.175v26.919h-1.175z"></path><path fill="#1572b6" d="M14.127 28.901L12.442 10h18.516l-1.686 18.898L21.689 31l-7.562-2.099z"></path><path fill="#33a9dc" d="M21.7 29.393l6.127-1.699l1.442-16.149H21.7v17.848z"></path><path fill="#fff" d="M21.7 18.393h3.068l.211-2.374H21.7v-2.318h5.813l-.056.622l-.57 6.388H21.7v-2.318z"></path><path fill="#ebebeb" d="M21.714 24.413l-.01.003l-2.582-.697l-.165-1.849H16.63l.325 3.64l4.748 1.318l.011-.003v-2.412z"></path><path fill="#fff" d="M24.57 20.613l-.279 3.105l-2.585.697v2.412l4.752-1.317l.035-.392l.403-4.505H24.57z"></path><path fill="#ebebeb" d="M21.708 13.701V16.019H16.109l-.047-.521l-.105-1.175l-.056-.622h5.807z"></path><path fill="#ebebeb" d="M21.7 18.393V20.712h-2.549l-.046-.521l-.106-1.176l-.055-.622H21.7z"></path></svg>