<svg xmlns="http://www.w3.org/2000/svg" xmlns:xlink="http://www.w3.org/1999/xlink" aria-hidden="true" role="img" class="iconify iconify--vscode-icons" width="1em" height="1em" preserveAspectRatio="xMidYMid meet" viewBox="0 0 32 32"><path d="M27.4 5.5h-9.2l-2.1 4.2H4.3v16.8h25.2v-21zm0 18.7H6.6V11.8h20.8zm0-14.5h-8.2l1-2.1h7.1v2.1z" fill="#a76571"></path><path fill="#a76571" d="M25.7 13.7H.5l3.8 12.8h25.2l-3.8-12.8z"></path><path d="M20.4 10a10.5 10.5 0 1 0 10.5 10.5A10.5 10.5 0 0 0 20.4 10zm0 18.375a7.862 7.862 0 0 1-6.41-12.432l10.968 10.968a7.826 7.826 0 0 1-4.558 1.464zm6.411-3.318L15.843 14.09a7.862 7.862 0 0 1 10.968 10.967z" fill="#d80027"></path></svg>