<svg xmlns="http://www.w3.org/2000/svg" xmlns:xlink="http://www.w3.org/1999/xlink" aria-hidden="true" role="img" class="iconify iconify--vscode-icons" width="1em" height="1em" preserveAspectRatio="xMidYMid meet" viewBox="0 0 32 32"><path d="M17.25 11.04V6.653l6.406 3.241v6.343l-2.548-1.229v-1.995L17.25 11.04" fill="#4396b9"></path><path d="M25.722 15.2l1.66.849l-6.258 3.129l-.016-4.175l2.548 1.229l2.066-1.032" fill="#b8dde8"></path><path d="M17.25 8.407L14.638 9.7l2.612 1.34V8.407" fill="#75bed5"></path><path d="M14.764 22.4l-.053-6.32l-6.355-3.168L2 9.774v6.412l.061 6.21l6.146 3.073l.184.092l.013.006l6.359 3.172V22.4" fill="#4396b9"></path><path d="M27.382 16.053l-6.274 3.137v-6.177l-6.4 3.062l.055 6.453v6.21l6.343-3.172v-.035l6.276-3.131v-6.348" fill="#75bed5"></path><path d="M30 13.065l-6.343 3.171V9.893L30 6.721v6.343" fill="#75bed5"></path><path d="M17.25 6.653l6.406 3.241L30 6.721l-6.47-3.309l-4.372 2.256l-4.7-2.407l-6.383 3.321L2 9.774l6.356 3.139l6.355 3.163l6.4-3.062L14.638 9.7l-.083.043l-.016-.008l.1-.035l2.612-1.3V6.653" fill="#b8dde8"></path></svg>