<svg xmlns="http://www.w3.org/2000/svg" xmlns:xlink="http://www.w3.org/1999/xlink" aria-hidden="true" role="img" class="iconify iconify--vscode-icons" width="1em" height="1em" preserveAspectRatio="xMidYMid meet" viewBox="0 0 32 32"><defs><radialGradient id="IconifyId-17ab498a166-cbb4b1-790" cx="19.64" cy="19.72" r="15.24" gradientUnits="userSpaceOnUse"><stop offset="0" stop-color="#138fce"></stop><stop offset=".857" stop-color="#385eaa"></stop><stop offset=".929" stop-color="#3265af"></stop></radialGradient></defs><path d="M27.9 6h-9.7l-2 4H5v17h25V6zm.1 18H7V12h21zm.1-14h-7.8l1-2H28z" fill="#7b9ddb"></path><path fill="#7b9ddb" d="M25.9 14H.3l3.8 13h25.6l-3.8-13z"></path><path fill="url(#IconifyId-17ab498a166-cbb4b1-790)" d="M11 11h20v20H11z"></path><g opacity=".23" fill="#fff"><path d="M13.679 11h.357v20h-.357z"></path><path d="M16.536 11h.357v20h-.357z"></path><path d="M19.393 11h.357v20h-.357z"></path><path d="M22.25 11h.357v20h-.357z"></path><path d="M25.107 11h.357v20h-.357z"></path><path d="M27.964 11h.357v20h-.357z"></path><path d="M11 13.679h20v.357H11z"></path><path d="M11 16.536h20v.357H11z"></path><path d="M11 19.393h20v.357H11z"></path><path d="M11 22.25h20v.357H11z"></path><path d="M11 25.107h20v.357H11z"></path><path d="M11 27.964h20v.357H11z"></path></g></svg>