<svg xmlns="http://www.w3.org/2000/svg" xmlns:xlink="http://www.w3.org/1999/xlink" aria-hidden="true" role="img" class="iconify iconify--vscode-icons" width="1em" height="1em" preserveAspectRatio="xMidYMid meet" viewBox="0 0 32 32"><defs><linearGradient id="IconifyId-17ab498a166-cbb4b1-219" x1="9.955" y1="9.096" x2="16.68" y2="23.324" gradientTransform="matrix(1 0 0 -1 0 32)" gradientUnits="userSpaceOnUse"><stop offset="0" stop-color="#1011a1"></stop><stop offset="1" stop-color="#6969e1"></stop></linearGradient><linearGradient id="IconifyId-17ab498a166-cbb4b1-220" x1="16.231" y1="19.655" x2="25.618" y2="3.782" gradientTransform="matrix(1 0 0 -1 0 32)" gradientUnits="userSpaceOnUse"><stop offset="0" stop-color="#b40e0e"></stop><stop offset="1" stop-color="#ff5959"></stop></linearGradient><linearGradient id="IconifyId-17ab498a166-cbb4b1-221" x1="21.663" y1="4.823" x2="8.381" y2="5.938" gradientTransform="matrix(1 0 0 -1 0 32)" gradientUnits="userSpaceOnUse"><stop offset="0" stop-color="#01a300"></stop><stop offset="1" stop-color="#01df00"></stop></linearGradient><linearGradient id="IconifyId-17ab498a166-cbb4b1-222" x1="14.643" y1="8.368" x2="14.472" y2="14.145" gradientTransform="matrix(1 0 0 -1 0 32)" gradientUnits="userSpaceOnUse"><stop offset="0" stop-color="#848484"></stop><stop offset="1" stop-color="#d2d2d2"></stop></linearGradient></defs><path d="M17.257 16.919L2.246 29.749L15.994 2.283z" fill="url(#IconifyId-17ab498a166-cbb4b1-219)"></path><path d="M2.262 29.768l-.038-.03L16.012 2.193l.008.088l1.263 14.649l-.01.008zM15.977 2.374L2.324 29.649L17.23 16.908z" fill="#000"></path><path d="M17.952 24.931L16 2.28l13.767 27.471z" fill="url(#IconifyId-17ab498a166-cbb4b1-220)"></path><path d="M29.818 29.8l-.061-.025l-11.828-4.827v-.015L15.975 2.282l.047-.013zm-11.842-4.887L29.715 29.7L16.036 2.408z" fill="#000"></path><path d="M11.16 22.094l18.621 7.654H2.25z" fill="url(#IconifyId-17ab498a166-cbb4b1-221)"></path><path d="M29.781 29.773H2.183l.051-.044l8.921-7.665l.014.006l18.622 7.655zm-27.464-.05h27.337l-18.489-7.6z" fill="#000"></path><path d="M11.189 22.112l6.059-5.168l.843 7.98z" fill="url(#IconifyId-17ab498a166-cbb4b1-222)"></path><path d="M18.149 25l-.077-.032l-6.978-2.842l6.194-5.283l.01.094zm-6.865-2.9l6.748 2.749l-.824-7.8z" fill="#000"></path><path d="M29.7 29.911H2.285a.221.221 0 0 1-.182-.088a.222.222 0 0 1 .022-.2L15.864 2.187a.169.169 0 0 1 .14-.1a.154.154 0 0 1 .13.085l13.733 27.435a.238.238 0 0 1 .02.226a.211.211 0 0 1-.187.078zm-27.468-.16a.484.484 0 0 0 .057.011h27.4l.073-.009a.221.221 0 0 0-.028-.077L16 2.248v.012L2.261 29.684a.279.279 0 0 0-.025.067z" fill="#000"></path></svg>