<svg xmlns="http://www.w3.org/2000/svg" xmlns:xlink="http://www.w3.org/1999/xlink" aria-hidden="true" role="img" class="iconify iconify--vscode-icons" width="1em" height="1em" preserveAspectRatio="xMidYMid meet" viewBox="0 0 32 32"><path fill="#00636b" d="M23.307 11.572l-4.41-7.667h-1.212l-.386-.609h-.574l-4.779 8.276z"></path><path fill="#013e80" d="M9.861 11.572l-2.408 4.209l-2.638 1.522L2 22.178l1.927 3.279l8.019-13.885z"></path><path fill="#00414f" d="M16.725 3.296h-3.82l-2.077 3.596l.852 1.5l-1.819 3.18h2.085z"></path><path fill="#00225c" d="M4.995 25.954l.644 1.072h11.149l.618-1.072z"></path><path fill="#005392" d="M24.507 13.659l-1.2-2.087H11.946L3.927 25.457l.292.497h13.187z"></path><path fill="#000c3d" d="M16.788 27.026h.711l.927 1.642h.605l-.92-1.642h9.395l.633-1.072H17.406z"></path><path fill="#000f60" d="M24.507 13.659l-7.101 12.295h10.733l1.743-2.949z"></path><radialGradient id="IconifyId-17ab498a166-cbb4b1-161" cx="13.769" cy="17.09" r="11.945" gradientUnits="userSpaceOnUse"><stop offset="0" stop-color="#06dbe0"></stop><stop offset="1" stop-color="#3b63ff"></stop></radialGradient><path fill="url(#IconifyId-17ab498a166-cbb4b1-161)" d="M12.4 18.381l6.542-11.326l-1.298-2.257L5.868 25.187h10.447z"></path><path fill="url(#IconifyId-17ab498a166-cbb4b1-161)" d="M25.61 18.649H13.226l2.487 4.324h12.384z"></path><linearGradient id="IconifyId-17ab498a166-cbb4b1-162" gradientUnits="userSpaceOnUse" x1="15.5" y1="16.5" x2="22.3" y2="13"><stop offset="0" stop-color="#1dffb8"></stop><stop offset="1" stop-color="#00d2f8"></stop></linearGradient><path d="M14.378 18.085h2.682l-1.948-3.387l-1.345 2.328a.706.706 0 0 0 .611 1.059zm4.855-10.523l-3.8 6.581l2.267 3.942h7.585z" fill="url(#IconifyId-17ab498a166-cbb4b1-162)"></path></svg>