<svg xmlns="http://www.w3.org/2000/svg" xmlns:xlink="http://www.w3.org/1999/xlink" aria-hidden="true" role="img" class="iconify iconify--vscode-icons" width="1em" height="1em" preserveAspectRatio="xMidYMid meet" viewBox="0 0 32 32"><defs><linearGradient id="IconifyId-17ab498a166-cbb4b1-867" x1="-659.847" y1="839.557" x2="-666.491" y2="839.603" gradientTransform="matrix(-.977 -.323 -.29 .877 -378.211 -928.733)" gradientUnits="userSpaceOnUse"><stop offset=".231" stop-color="#999875"></stop><stop offset=".563" stop-color="#9b9977"></stop><stop offset=".683" stop-color="#a09f7e"></stop><stop offset=".768" stop-color="#a9a889"></stop><stop offset=".837" stop-color="#b7b69a"></stop><stop offset=".896" stop-color="#c9c7b0"></stop><stop offset=".948" stop-color="#deddcb"></stop><stop offset=".994" stop-color="#f8f6eb"></stop><stop offset="1" stop-color="#fbf9ef"></stop></linearGradient><linearGradient id="IconifyId-17ab498a166-cbb4b1-868" x1="-658.764" y1="827.72" x2="-668.32" y2="844.273" gradientTransform="matrix(-.977 -.323 -.29 .877 -378.211 -928.733)" gradientUnits="userSpaceOnUse"><stop offset="0" stop-color="#48a547"></stop><stop offset="1" stop-color="#3f9143"></stop></linearGradient><linearGradient id="IconifyId-17ab498a166-cbb4b1-869" x1="-658.088" y1="839.78" x2="-664.862" y2="835.229" gradientTransform="matrix(-.977 -.323 -.29 .877 -378.211 -928.733)" gradientUnits="userSpaceOnUse"><stop offset="0" stop-color="#41a247"></stop><stop offset=".352" stop-color="#4ba74b"></stop><stop offset=".956" stop-color="#67b554"></stop><stop offset="1" stop-color="#69b655"></stop></linearGradient></defs><path d="M27.5 5.5h-9.3l-2.1 4.2H4.4v16.8h25.2v-21zm0 4.2h-8.2l1.1-2.1h7.1z" fill="#458248"></path><path d="M26.775 31l-.563-.187s.072-2.851-.956-3.05c-.678-.786.1-33.556 2.567-.112a2.033 2.033 0 0 0-1 1.142A10.575 10.575 0 0 0 26.775 31z" fill="url(#IconifyId-17ab498a166-cbb4b1-867)"></path><path d="M27.079 28.247a9.917 9.917 0 0 0 3.748-9.919c-1.1-4.864-3.711-6.463-3.992-7.073a7.321 7.321 0 0 1-.619-1.2l.208 13.552s-.431 4.141.655 4.64z" fill="url(#IconifyId-17ab498a166-cbb4b1-868)"></path><path d="M25.925 28.427S21.334 25.3 21.6 19.769a11.656 11.656 0 0 1 4.139-8.736A1.3 1.3 0 0 0 26.194 10c.286.615.239 9.182.269 10.184c.117 3.898-.216 7.507-.538 8.243z" fill="url(#IconifyId-17ab498a166-cbb4b1-869)"></path></svg>