<svg xmlns="http://www.w3.org/2000/svg" xmlns:xlink="http://www.w3.org/1999/xlink" aria-hidden="true" role="img" class="iconify iconify--vscode-icons" width="1em" height="1em" preserveAspectRatio="xMidYMid meet" viewBox="0 0 32 32"><path d="M30 30H2V2h28v28z" fill="#000"></path><path fill="#665948" d="M29.125 29.125H2.875V2.875h26.25v26.25z"></path><path d="M16.55 18.352a2.92 2.92 0 0 1-.8-.517c-.36-.539-.337-.351-.351-3.131c-.007-1.384-.028-2.564-.042-2.626c-.025-.108-.054-.113-.654-.126c-.624-.014-.624-.016-.624-.138c0-.092.036-.134.151-.168a3.232 3.232 0 0 0 1.332-.787a4.179 4.179 0 0 0 1.047-2.536a1.466 1.466 0 0 1 .036-.349c.042-.109.351-.109.393 0c.017.044.036.825.036 1.731v1.645h1.895l-.012.295l-.018.288l-.932.018l-.932.012l-.006 2.578c-.006 3-.012 2.82.109 3.1a.693.693 0 0 0 1.2.132c.27-.288.34-.643.369-1.935l.024-1.13h.291v1.136a13.641 13.641 0 0 1-.054 1.436a1.283 1.283 0 0 1-.854 1.058a3.364 3.364 0 0 1-.387.072a2.982 2.982 0 0 1-1.223-.054zM5.841 7.6H8.62l5.152.018l.012 2.092c.013 2.006.013 2.093-.079 2.122c-.181.057-.266-.022-.266-.246a6.751 6.751 0 0 0-.23-1.34a9.916 9.916 0 0 0-.551-1.154a3.787 3.787 0 0 0-1.023-.992a3.281 3.281 0 0 0-1.725-.258a5.236 5.236 0 0 0-1.889.21a.341.341 0 0 0-.133.168c-.016.057-.03 1.037-.03 2.176a9.272 9.272 0 0 0 .067 2.074a4.847 4.847 0 0 0 1.883-.246c.49-.258.837-1.154 1-2.6c.035-.309.039-.316.17-.3l.133.012l.018 3.294l.012 3.288h-.311v-.343a7.152 7.152 0 0 0-.236-1.617a1.268 1.268 0 0 0-.926-1A6.511 6.511 0 0 0 8 12.792l-.139.036l.006 2.4a12.716 12.716 0 0 0 .073 2.494c.11.143.466.225 1.132.258c.335.017.787.043 1 .06c.376.029.4.035.4.15v.126H6.961a19.242 19.242 0 0 1-3.535-.078c-.065-.169.018-.183 1.132-.252a2.083 2.083 0 0 0 1.011-.222c.084-.072.091-.364.091-4.838V8.158l-.127-.084a5.028 5.028 0 0 0-1.6-.228c-.476 0-.553-.028-.5-.174A9.516 9.516 0 0 1 5.841 7.6zm19.324 3.558a2.52 2.52 0 0 1 .381.036a2.028 2.028 0 0 1 1.483 1.124l.151.331l.03 2.6a23.1 23.1 0 0 0 .085 2.657a2.036 2.036 0 0 0 .563.108c.279.029.554.066.617.078c.132.025.156.147.036.192c-.15.057-8.664.033-8.7-.024c-.068-.11.088-.2.351-.2a2.4 2.4 0 0 0 1.023-.216c.073-.073.085-.382.085-2.921c0-2.993 0-3.04-.23-3.161a2.952 2.952 0 0 0-.642-.09c-.492-.032-.537-.046-.551-.144s.015-.112.254-.138c.74-.081 2.689-.2 2.767-.174s.091.11.091.643a1.585 1.585 0 0 0 .054.613a.054.054 0 0 0 .048-.06a2.12 2.12 0 0 1 .212-.4a1.854 1.854 0 0 1 .7-.727a3.876 3.876 0 0 1 1.192-.128zm-.5.295c-.647 0-1.192.61-1.489 1.653a8.628 8.628 0 0 0-.2 2.9l.012 1.881l.188.06a4.054 4.054 0 0 0 1.81.06c.587-.087.541.161.539-2.681c0-1.358-.028-2.641-.054-2.843c-.09-.667-.371-1.033-.808-1.031z" fill="#fff"></path><path fill="#d6534f" d="M28.825 22.602H3.175v-1h25.65v1z"></path></svg>