<svg xmlns="http://www.w3.org/2000/svg" xmlns:xlink="http://www.w3.org/1999/xlink" aria-hidden="true" role="img" class="iconify iconify--vscode-icons" width="1em" height="1em" preserveAspectRatio="xMidYMid meet" viewBox="0 0 32 32"><circle cx="16" cy="16" r="14" fill="#fff"></circle><path d="M27.016 24.641a14 14 0 0 0-15.8-21.8c5.684 2.981 13.197 12.708 15.8 21.8z" fill="#3e5ba9"></path><path d="M13.995 10.93a24.3 24.3 0 0 0-7.22-5.46a14 14 0 0 0-1.312 19.747a39.56 39.56 0 0 1 8.532-14.287z" fill="#9f1d20"></path><path d="M16.575 14.1A32.645 32.645 0 0 0 9.43 28.365a14.016 14.016 0 0 0 13.3-.089A38.642 38.642 0 0 0 16.575 14.1z" fill="#9f1d20"></path></svg>