<svg xmlns="http://www.w3.org/2000/svg" xmlns:xlink="http://www.w3.org/1999/xlink" aria-hidden="true" role="img" class="iconify iconify--vscode-icons" width="1em" height="1em" preserveAspectRatio="xMidYMid meet" viewBox="0 0 32 32"><defs><linearGradient id="IconifyId-17ab498a166-cbb4b1-765" x1="-42.612" y1="-38.015" x2="-39.39" y2="-40.974" gradientTransform="matrix(7.886 0 0 -8.589 343.962 -327.095)" gradientUnits="userSpaceOnUse"><stop offset="0" stop-color="#c06fbb"></stop><stop offset="1" stop-color="#6e4d9b"></stop></linearGradient><linearGradient id="IconifyId-17ab498a166-cbb4b1-766" x1="-43.738" y1="-30.081" x2="-44.614" y2="-28.886" gradientTransform="matrix(15.701 0 0 -16.956 713.239 -480.525)" gradientUnits="userSpaceOnUse"><stop offset="0" stop-color="#6e4d9b"></stop><stop offset=".14" stop-color="#77327a"></stop><stop offset=".29" stop-color="#b31777"></stop><stop offset=".84" stop-color="#cd0f7e"></stop><stop offset="1" stop-color="#ed2c89"></stop></linearGradient><linearGradient id="IconifyId-17ab498a166-cbb4b1-767" x1="-43.456" y1="-35.988" x2="-40.514" y2="-40.083" gradientTransform="matrix(8.637 0 0 -7.94 373.165 -284.546)" xlink:href="#IconifyId-17ab498a166-cbb4b1-765"></linearGradient><linearGradient id="IconifyId-17ab498a166-cbb4b1-768" x1="4.839" y1="40.432" x2="31.752" y2="18.356" xlink:href="#IconifyId-17ab498a166-cbb4b1-765"></linearGradient><linearGradient id="IconifyId-17ab498a166-cbb4b1-769" x1="-42.555" y1="-42.491" x2="-40.318" y2="-44.326" gradientTransform="matrix(6.504 0 0 -6.517 291.135 -265.393)" xlink:href="#IconifyId-17ab498a166-cbb4b1-765"></linearGradient><linearGradient id="IconifyId-17ab498a166-cbb4b1-770" x1="-42.523" y1="-35.351" x2="-39.643" y2="-37.889" gradientTransform="matrix(10.02 0 0 -10.013 426.022 -346.247)" xlink:href="#IconifyId-17ab498a166-cbb4b1-765"></linearGradient><linearGradient id="IconifyId-17ab498a166-cbb4b1-771" x1="-42.615" y1="-31.641" x2="-43.494" y2="-30.439" gradientTransform="matrix(15.678 0 0 -16.922 696.247 -503.63)" xlink:href="#IconifyId-17ab498a166-cbb4b1-766"></linearGradient><linearGradient id="IconifyId-17ab498a166-cbb4b1-772" x1="-42.477" y1="-37.84" x2="-39.255" y2="-41.407" gradientTransform="matrix(7.887 0 0 -8.589 343.999 -327.094)" xlink:href="#IconifyId-17ab498a166-cbb4b1-765"></linearGradient><linearGradient id="IconifyId-17ab498a166-cbb4b1-773" x1="-44.786" y1="-25.269" x2="-44.38" y2="-24.867" gradientTransform="matrix(37.627 7.508 7.477 -37.474 1885.141 -584.006)" gradientUnits="userSpaceOnUse"><stop offset="0" stop-color="#6e4d9b"></stop><stop offset=".14" stop-color="#77327a"></stop><stop offset=".53" stop-color="#b31777"></stop><stop offset=".79" stop-color="#cd0f7e"></stop><stop offset="1" stop-color="#ed2c89"></stop></linearGradient></defs><path d="M27.5 5.5h-9.3l-2.1 4.2H4.4v16.8h25.2v-21zm0 4.2h-8.2l1.1-2.1h7.1z" fill="#bf5588"></path><path d="M23.537 13.888l-2 1.335l-2.06-3.087l2-1.335l2.06 3.087z" fill="url(#IconifyId-17ab498a166-cbb4b1-765)"></path><path d="M25.162 23.163l3.417 5.12L24.509 31l-3.417-5.12l-.6-.893l4.07-2.716l.6.893z" fill="url(#IconifyId-17ab498a166-cbb4b1-766)"></path><path d="M20.036 26.585l.752 1.127l-3.1 2.068l-1.348-2.021l.677-.452l2.421-1.616l.6.893z" fill="url(#IconifyId-17ab498a166-cbb4b1-767)"></path><path fill="url(#IconifyId-17ab498a166-cbb4b1-768)" d="M26.855 20.743l.869-.58l1.348 2.021l-2 1.334l-.752-1.127l1.131-.755l-.596-.893z"></path><path fill="url(#IconifyId-17ab498a166-cbb4b1-769)" d="M26.32 22.391l-.596-.893l1.131-.755l.596.893l-1.131.755z"></path><path d="M12.831 21.033l-.677.452l-2.06-3.085l3.1-2.068l1.444 2.164l-2.421 1.616l2.421-1.616l.616.923l-2.421 1.616z" fill="url(#IconifyId-17ab498a166-cbb4b1-770)"></path><path d="M19.763 15.072l.616.923l-4.07 2.716l-.616-.923l-3.385-5.072L16.378 10l3.385 5.072z" fill="url(#IconifyId-17ab498a166-cbb4b1-771)"></path><path d="M22.668 14.468l-1.131.755l-.616-.923l-1.444-2.164l2-1.335l2.06 3.087l-.869.58z" fill="url(#IconifyId-17ab498a166-cbb4b1-772)"></path><path d="M17.614 28.2l-.6-.893l2.421-1.616l.6.893l-2.421 1.616z" fill="#714896"></path><path d="M26.32 22.391l-.6-.893l1.131-.755l.6.893l-1.131.755z" fill="#6f4795"></path><path d="M12.831 21.033l-.616-.923l2.421-1.616l.616.923l-2.421 1.616z" fill="#88519f"></path><path d="M21.537 15.223l-.616-.923l1.131-.755l.616.923l-1.131.755z" fill="#85509e"></path><path d="M25.162 23.163l-4.07 2.716l-.6-.893l4.07-2.716l.6.893z" fill="#8d166a"></path><path d="M19.763 15.072l.616.923l-4.07 2.716l-.616-.923l4.07-2.716z" fill="#a70d6f"></path><path fill="#9e61ad" d="M10.525 15.103l1.151-.768l.768 1.151l-1.15.768z"></path><path fill="#8053a3" d="M14.674 28.904l1.151-.768l.769 1.151l-1.152.769z"></path><path d="M12.8 29.3l-3.374-5.1l18.013-12.044l3.534 5.011L12.8 29.3z" fill="url(#IconifyId-17ab498a166-cbb4b1-773)"></path></svg>