<svg xmlns="http://www.w3.org/2000/svg" xmlns:xlink="http://www.w3.org/1999/xlink" aria-hidden="true" role="img" class="iconify iconify--vscode-icons" width="1em" height="1em" preserveAspectRatio="xMidYMid meet" viewBox="0 0 32 32"><path d="M7.575 16l-2.8 4.849l2.8 4.849l2.8-4.849z" fill="#303f9f"></path><path d="M24.374 6.3l-2.8 4.849l2.8 4.851l2.8-4.849z" fill="#3f51b5"></path><path d="M27.174 11.151L18.775 25.7h5.6l5.6-9.7z" fill="#7986cb"></path><path d="M18.775 6.3L7.574 25.7h5.6l11.2-19.4z" fill="#ff4081"></path><path d="M7.575 6.3l-5.6 9.7l2.8 4.849L13.176 6.3z" fill="#536dfe"></path><path d="M18.775 6.3l2.8 4.849l2.8-4.849z" fill="#fff" fill-opacity=".2"></path><path d="M15.975 11.151l2.8-4.849l2.8 4.849z" fill="#fff" fill-opacity=".1"></path><path d="M15.975 11.151l2.8 4.849l2.8-4.849z" fill="none"></path><path d="M13.175 16l2.8-4.849l2.8 4.849z" fill-opacity=".1" fill="#000"></path><path d="M13.175 16l2.8 4.849l2.8-4.849z" fill-opacity=".2" fill="#000"></path><path d="M10.376 20.849l2.8-4.849l2.8 4.849z" fill-opacity=".3" fill="#000"></path><path d="M10.376 20.849l2.8 4.849l2.8-4.849z" fill-opacity=".4" fill="#000"></path><path d="M7.575 25.7l2.8-4.849l2.8 4.849z" fill-opacity=".5" fill="#000"></path><path d="M7.575 6.3l2.8 4.849l2.8-4.849z" fill="#fff" fill-opacity=".2"></path><path d="M4.776 11.151l2.8-4.851l2.8 4.849z" fill="#fff" fill-opacity=".1"></path><path d="M4.776 11.151L7.576 16l2.8-4.849z" fill="none"></path><path d="M1.976 16l2.8-4.849L7.576 16z" fill-opacity=".1" fill="#000"></path><path d="M1.976 16l2.8 4.849L7.576 16z" fill-opacity=".2" fill="#000"></path><path d="M10.376 20.849L7.575 16l-2.8 4.849z" fill="none"></path><path d="M10.376 20.849L7.575 25.7l-2.8-4.849zm16.8-9.7L24.374 6.3l-2.8 4.849z" fill-opacity=".2" fill="#000"></path><path d="M27.174 11.151L24.374 16l-2.8-4.849z" fill="none"></path><path d="M24.374 16l2.8-4.849L29.975 16z" fill="#fff" fill-opacity=".2"></path><path d="M24.374 16l2.8 4.849L29.975 16z" fill="#fff" fill-opacity=".1"></path><path d="M21.574 20.849l2.8-4.849l2.8 4.849z" fill="none"></path><path d="M21.574 20.849l2.8 4.849l2.8-4.849z" fill-opacity=".1" fill="#000"></path><path d="M18.775 25.7l2.8-4.849l2.8 4.849z" fill-opacity=".2" fill="#000"></path></svg>