<svg xmlns="http://www.w3.org/2000/svg" xmlns:xlink="http://www.w3.org/1999/xlink" aria-hidden="true" role="img" class="iconify iconify--vscode-icons" width="1em" height="1em" preserveAspectRatio="xMidYMid meet" viewBox="0 0 32 32"><path d="M15.969 30C9.415 29.973 2 26.44 2 26.44C2.427 9.574 14.919 2.592 15.965 2.037V2l.035.02l.035-.02v.04C17.081 2.6 29.573 9.578 30 26.443c0 0-7.463 3.557-14.031 3.557z" fill="#39207c"></path><path d="M17.8 23.1c.638.353.567 1.343.567 1.343c-6.024.919-7.512-7.706-7.512-7.706a.9.9 0 0 1-1.346-.353c2.338-5.994 10.417-2.757 10.417-2.757c-.443-.585.921-1.038.921-1.038C24.815 17.439 17.8 23.1 17.8 23.1z" fill="#f7f7f7"></path></svg>