<svg xmlns="http://www.w3.org/2000/svg" xmlns:xlink="http://www.w3.org/1999/xlink" aria-hidden="true" role="img" class="iconify iconify--vscode-icons" width="1em" height="1em" preserveAspectRatio="xMidYMid meet" viewBox="0 0 32 32"><circle cx="16" cy="16" r="14" fill="#fff"></circle><path d="M18.291 16A2.29 2.29 0 0 1 16 18.29A2.29 2.29 0 0 1 13.71 16a2.29 2.29 0 0 1 4.581 0z" fill="#263238"></path><path d="M26.168 10.129a11.741 11.741 0 0 0-1.8-2.352l-2.647 1.528a8.82 8.82 0 0 0-2.765-1.6a10.866 10.866 0 0 0-2.14 3.053a12.959 12.959 0 0 1 8.818 3.074l1.666-.962a11.741 11.741 0 0 0-1.133-2.739z" fill="#1976d2"></path><path d="M26.169 21.869a11.741 11.741 0 0 0 1.137-2.734l-2.648-1.529a8.82 8.82 0 0 0 .005-3.2a10.866 10.866 0 0 0-3.714-.327a12.959 12.959 0 0 1 1.751 9.179l1.666.962a11.741 11.741 0 0 0 1.803-2.351z" fill="#42a5f5"></path><path d="M16 27.74a11.741 11.741 0 0 0 2.937-.382V24.3a8.819 8.819 0 0 0 2.77-1.593a10.866 10.866 0 0 0-1.574-3.38a12.959 12.959 0 0 1-7.071 6.1v1.924A11.741 11.741 0 0 0 16 27.74z" fill="#1976d2"></path><path d="M5.834 21.87a11.741 11.741 0 0 0 1.8 2.352l2.648-1.529a8.819 8.819 0 0 0 2.765 1.6a10.866 10.866 0 0 0 2.14-3.053a12.959 12.959 0 0 1-8.818-3.074l-1.669.965a11.741 11.741 0 0 0 1.134 2.739z" fill="#42a5f5"></path><path d="M5.833 10.13A11.741 11.741 0 0 0 4.7 12.864l2.648 1.529a8.819 8.819 0 0 0-.005 3.2a10.866 10.866 0 0 0 3.714.327a12.959 12.959 0 0 1-1.752-9.179l-1.666-.962a11.741 11.741 0 0 0-1.806 2.351z" fill="#1976d2"></path><path d="M16 4.259a11.741 11.741 0 0 0-2.937.382V7.7a8.819 8.819 0 0 0-2.77 1.593a10.866 10.866 0 0 0 1.574 3.38a12.959 12.959 0 0 1 7.071-6.1V4.648A11.741 11.741 0 0 0 16 4.259z" fill="#42a5f5"></path></svg>