<svg xmlns="http://www.w3.org/2000/svg" xmlns:xlink="http://www.w3.org/1999/xlink" aria-hidden="true" role="img" class="iconify iconify--vscode-icons" width="1em" height="1em" preserveAspectRatio="xMidYMid meet" viewBox="0 0 32 32"><path d="M27.5 5.5h-9.3l-2.1 4.2H4.4v16.8h25.2v-21zm0 4.2h-8.2l1.1-2.1h7.1z" fill="#bf5555"></path><path d="M9.99 10.4l17.984 19.05a.839.839 0 0 0 1.081-.072a.8.8 0 0 0 .108-1.008L9.99 10.4z" fill="#df4f4f"></path><path d="M15.684 12.205L29.38 26.97a.839.839 0 0 0 1.081-.072a.8.8 0 0 0 .108-1.008L15.684 12.205z" fill="#df4f4f"></path><path d="M11.684 16.058l13.7 14.764a.839.839 0 0 0 1.081-.072a.8.8 0 0 0 .108-1.008L11.684 16.058z" fill="#df4f4f"></path><path d="M20.5 13.754l9.568 10.315a.586.586 0 0 0 .755-.05a.558.558 0 0 0 .076-.7l-10.4-9.56z" fill="#df4f4f"></path><path d="M13 20.524l9.57 10.315a.586.586 0 0 0 .755-.05a.558.558 0 0 0 .076-.7L13 20.524z" fill="#df4f4f"></path><path d="M25.415 15.986l4.337 4.689a.3.3 0 0 0 .374-.024a.251.251 0 0 0 .037-.33l-4.748-4.336z" fill="#df4f4f"></path><path d="M15.4 25.277l4.337 4.689a.3.3 0 0 0 .374-.024a.251.251 0 0 0 .037-.33L15.4 25.277z" fill="#df4f4f"></path></svg>