<svg xmlns="http://www.w3.org/2000/svg" xmlns:xlink="http://www.w3.org/1999/xlink" aria-hidden="true" role="img" class="iconify iconify--vscode-icons" width="1em" height="1em" preserveAspectRatio="xMidYMid meet" viewBox="0 0 32 32"><path fill="#ffed00" d="M26.034 7.613h-2.029V21.34h2.029V7.613z"></path><path fill="#fcc204" d="M30 7.613h-3.966V21.34H30V7.613z"></path><path d="M30 21.34l-2.973 3.838l-3.022-3.838zm-4.121 0l-.845-.661l-.845.661zm2 0l-.845-.661l-.845.661zm2 0l-.845-.661l-.845.661z" fill="#fff7ad"></path><path fill="#e53524" d="M25.818 23.643l1.207 1.535l1.187-1.535h-2.394z"></path><path fill="#f7c3c6" d="M26.034 3.391h-2.029v3.854h2.029V3.391z"></path><path fill="#f5b2b6" d="M30 3.391h-3.966v3.854H30V3.391z"></path><path d="M12.324 5.972l-7.743 7.743l7.743 7.743l7.743-7.743l-7.743-7.743" fill="#f68712"></path><path d="M2 3.391l10.324 2.581l-7.743 7.743L2 3.391" fill="#fab20b"></path><path d="M22.648 3.391l-2.581 10.324l-7.743-7.743l10.324-2.581" fill="#f47216"></path><path d="M22.648 24.039l-10.324-2.581l7.743-7.743l2.581 10.324" fill="#f25c19"></path><path d="M2 24.039l2.581-10.324l7.743 7.743L2 24.039" fill="#f89c0e"></path><path d="M12.324 5.972L2 3.391h5.162l5.162 2.581" fill="#fbc707"></path><path d="M12.324 5.972l10.324-2.581h-5.162l-5.162 2.581" fill="#fbc707"></path><path d="M12.324 21.458l10.324 2.581h-5.162l-5.162-2.581" fill="#f68712"></path><path d="M12.324 21.458L2 24.039h5.162l5.162-2.581" fill="#f25c19"></path><path d="M4.581 13.715L2 24.039v-5.162l2.581-5.162" fill="#fff200"></path><path d="M4.581 13.715L2 3.391v5.162l2.581 5.162" fill="#fff200"></path><path d="M20.067 13.715l2.581-10.324v5.162l-2.581 5.162" fill="#f1471d"></path><path d="M20.067 13.715l2.581 10.324v-5.162l-2.581-5.162" fill="#f1471d"></path><path d="M25.079 25.254a3.272 3.272 0 0 0-.694.538c-.2.2-.385.419-.56.628a2.96 2.96 0 0 1-1.225 1.042a1.92 1.92 0 0 1-2-.7c-.093-.1-.184-.213-.275-.322a3.669 3.669 0 0 0-1.963-1.456a3.017 3.017 0 0 0-2.949 1.191l-.169.2a2.716 2.716 0 0 1-1.593 1.177c-.621.07-1.186-.244-1.891-1.05a3.54 3.54 0 0 0-2.608-1.58h-.018a3.652 3.652 0 0 0-2.648 1.622c-.679.776-1.289 1.092-1.92.993a2.355 2.355 0 0 1-1.327-.924L2 26.775c.064.074.127.15.191.226A3.737 3.737 0 0 0 4.4 28.573a3.128 3.128 0 0 0 2.869-1.338c.567-.648 1.1-1.26 1.867-1.265h.009c.7 0 1.2.507 1.821 1.222a3.484 3.484 0 0 0 2.517 1.417a2.5 2.5 0 0 0 .28-.016a3.577 3.577 0 0 0 2.272-1.538l.164-.191a2.055 2.055 0 0 1 1.931-.855a2.8 2.8 0 0 1 1.388 1.107c.1.116.195.232.294.343a2.892 2.892 0 0 0 3.122.993a3.892 3.892 0 0 0 1.693-1.361c.167-.2.325-.388.494-.556a2.247 2.247 0 0 1 .471-.37z" fill="#e53524"></path></svg>