<svg xmlns="http://www.w3.org/2000/svg" xmlns:xlink="http://www.w3.org/1999/xlink" aria-hidden="true" role="img" class="iconify iconify--vscode-icons" width="1em" height="1em" preserveAspectRatio="xMidYMid meet" viewBox="0 0 32 32"><defs><linearGradient id="IconifyId-17ab498a166-cbb4b1-883" x1="20.813" y1="19.026" x2="20.813" y2="1" gradientTransform="matrix(1 0 0 -1 0 32)" gradientUnits="userSpaceOnUse"><stop offset="0" stop-color="#c22127"></stop><stop offset=".088" stop-color="#b52127"></stop><stop offset=".517" stop-color="#792026"></stop><stop offset=".834" stop-color="#531f25"></stop><stop offset="1" stop-color="#451f25"></stop></linearGradient><linearGradient id="IconifyId-17ab498a166-cbb4b1-884" x1="12.668" y1="16.133" x2="12.668" y2="14.762" xlink:href="#IconifyId-17ab498a166-cbb4b1-883"></linearGradient><linearGradient id="IconifyId-17ab498a166-cbb4b1-885" x1="11.71" y1="11.631" x2="11.71" y2="10.319" xlink:href="#IconifyId-17ab498a166-cbb4b1-883"></linearGradient><linearGradient id="IconifyId-17ab498a166-cbb4b1-886" x1="15.844" y1="11.462" x2="15.844" y2="9.841" xlink:href="#IconifyId-17ab498a166-cbb4b1-883"></linearGradient><linearGradient id="IconifyId-17ab498a166-cbb4b1-887" x1="8.153" y1="14.476" x2="8.153" y2="13.478" xlink:href="#IconifyId-17ab498a166-cbb4b1-883"></linearGradient><linearGradient id="IconifyId-17ab498a166-cbb4b1-888" x1="9.922" y1="16.131" x2="9.922" y2="15.032" xlink:href="#IconifyId-17ab498a166-cbb4b1-883"></linearGradient><linearGradient id="IconifyId-17ab498a166-cbb4b1-889" x1="6.825" y1="12.193" x2="6.825" y2="11.36" xlink:href="#IconifyId-17ab498a166-cbb4b1-883"></linearGradient><linearGradient id="IconifyId-17ab498a166-cbb4b1-890" x1="13.306" y1="9.947" x2="13.306" y2="8.766" xlink:href="#IconifyId-17ab498a166-cbb4b1-883"></linearGradient><linearGradient id="IconifyId-17ab498a166-cbb4b1-891" x1="14.517" y1="8.059" x2="14.517" y2="7.136" xlink:href="#IconifyId-17ab498a166-cbb4b1-883"></linearGradient><linearGradient id="IconifyId-17ab498a166-cbb4b1-892" x1="9.037" y1="11.353" x2="9.037" y2="10.566" xlink:href="#IconifyId-17ab498a166-cbb4b1-883"></linearGradient><linearGradient id="IconifyId-17ab498a166-cbb4b1-893" x1="5.443" y1="14.007" x2="5.443" y2="13.219" xlink:href="#IconifyId-17ab498a166-cbb4b1-883"></linearGradient><linearGradient id="IconifyId-17ab498a166-cbb4b1-894" x1="11.067" y1="9.185" x2="11.067" y2="8.399" xlink:href="#IconifyId-17ab498a166-cbb4b1-883"></linearGradient><linearGradient id="IconifyId-17ab498a166-cbb4b1-895" x1="10.758" y1="13.704" x2="10.758" y2="12.643" xlink:href="#IconifyId-17ab498a166-cbb4b1-883"></linearGradient></defs><path d="M27.5 5.5h-9.3l-2.1 4.2H4.4v16.8h25.2v-21zm0 4.2h-8.2l1.1-2.1h7.1z" fill="#e77377"></path><path d="M27.7 21.175a6.026 6.026 0 0 0-3.653-1.975a10.3 10.3 0 0 0-3.578.089a7.942 7.942 0 0 1-.082 2.742c-.765-8.216-6.213-8.655-9.76-9.057a7.26 7.26 0 0 1 3.206 2.453h1.121l-.2 1.148h.624l-.16.874l.063.115h-.77l-.152.771H13.1l-.314 1.6h1.51l.104-.535h1.479l.225-1.154h.658l-.181 1.023h.912l-.215 1.219h1l-.325 1.851h-.277l-.134.764H16.32l-.274 1.5h1.414l.084-.459h1.116l-.274 1.556h-.937a18.59 18.59 0 0 1-.662 5.3c3.018-.84 4.574-5.067 8.275-6.763c3.2-1.466 5.989 0 5.937-.59c-.1-1.1-2.609-2.33-3.3-2.474m-2.906-.108c-.629-.572.633-.466 1.588.309a1.851 1.851 0 0 1-1.588-.309" fill="url(#IconifyId-17ab498a166-cbb4b1-883)"></path><path fill="url(#IconifyId-17ab498a166-cbb4b1-884)" d="M13.441 15.867h-1.296l-.251 1.371h1.295l.252-1.371z"></path><path fill="url(#IconifyId-17ab498a166-cbb4b1-885)" d="M10.971 21.681h1.238l.24-1.312h-1.238l-.24 1.312z"></path><path fill="url(#IconifyId-17ab498a166-cbb4b1-886)" d="M16.758 20.538h-1.531l-.296 1.621h1.53l.297-1.621z"></path><path fill="url(#IconifyId-17ab498a166-cbb4b1-887)" d="M7.773 17.524l-.183.998h.942l.183-.998h-.942z"></path><path fill="url(#IconifyId-17ab498a166-cbb4b1-888)" d="M10.541 15.869H9.503l-.201 1.099h1.038l.201-1.099z"></path><path fill="url(#IconifyId-17ab498a166-cbb4b1-889)" d="M6.355 20.64h.786l.154-.833h-.786l-.154.833z"></path><path fill="url(#IconifyId-17ab498a166-cbb4b1-890)" d="M12.64 23.234h1.114l.217-1.181h-1.114l-.217 1.181z"></path><path fill="url(#IconifyId-17ab498a166-cbb4b1-891)" d="M13.997 24.864h.87l.17-.923h-.871l-.169.923z"></path><path fill="url(#IconifyId-17ab498a166-cbb4b1-892)" d="M8.594 21.434h.743l.143-.787h-.743l-.143.787z"></path><path fill="url(#IconifyId-17ab498a166-cbb4b1-893)" d="M5 18.781h.743l.143-.788h-.742L5 18.781z"></path><path fill="url(#IconifyId-17ab498a166-cbb4b1-894)" d="M10.624 23.601h.743l.144-.786h-.742l-.145.786z"></path><path fill="url(#IconifyId-17ab498a166-cbb4b1-895)" d="M11.357 18.296h-1.003l-.195 1.061h1.003l.195-1.061z"></path></svg>