<svg xmlns="http://www.w3.org/2000/svg" xmlns:xlink="http://www.w3.org/1999/xlink" aria-hidden="true" role="img" class="iconify iconify--vscode-icons" width="1em" height="1em" preserveAspectRatio="xMidYMid meet" viewBox="0 0 32 32"><defs><linearGradient id="IconifyId-17ab498a166-cbb4b1-677" x1="-134.907" y1="204.572" x2="-134.896" y2="204.572" gradientTransform="matrix(1538 0 0 -961.25 207495 196661)" gradientUnits="userSpaceOnUse"><stop offset="0" stop-color="#e62d2a"></stop><stop offset=".6" stop-color="#df3f3d"></stop><stop offset=".8" stop-color="#df3f3d"></stop><stop offset="1" stop-color="#e62d2a"></stop></linearGradient><linearGradient id="IconifyId-17ab498a166-cbb4b1-678" x1="-134.907" y1="203.781" x2="-134.896" y2="203.781" gradientTransform="matrix(1538 0 0 -961.25 207495 195892)" xlink:href="#IconifyId-17ab498a166-cbb4b1-677"></linearGradient><linearGradient id="IconifyId-17ab498a166-cbb4b1-679" x1="-134.907" y1="205.363" x2="-134.896" y2="205.363" gradientTransform="matrix(1538 0 0 -961.25 207495 197430)" xlink:href="#IconifyId-17ab498a166-cbb4b1-677"></linearGradient></defs><path d="M7.384 19.231v2.154c0 .363 7.833.971 12.937 2.154c2.465-.571 4.295-1.277 4.295-2.154v-2.154c0-.877-1.83-1.582-4.295-2.154c-5.1 1.183-12.937 1.791-12.937 2.154" fill="#7f0c1d"></path><path d="M7.384 10.615v2.154c0 .363 7.833.971 12.937 2.154c2.465-.571 4.295-1.277 4.295-2.154v-2.154c0-.877-1.83-1.582-4.295-2.154c-5.1 1.183-12.937 1.791-12.937 2.154" fill="#7f0c1d"></path><path d="M7.384 14.923v6.462c0-.538 17.232-1.615 17.232-4.308v-6.462c0 2.692-17.232 3.769-17.232 4.308" fill="url(#IconifyId-17ab498a166-cbb4b1-677)"></path><path d="M7.384 6.308v6.462c0-.538 17.232-1.615 17.232-4.308V2c0 2.692-17.232 3.769-17.232 4.308" fill="url(#IconifyId-17ab498a166-cbb4b1-678)"></path><path d="M7.384 23.538V30c0-.538 17.232-1.615 17.232-4.308v-6.461c0 2.692-17.232 3.769-17.232 4.308" fill="url(#IconifyId-17ab498a166-cbb4b1-679)"></path></svg>