<svg xmlns="http://www.w3.org/2000/svg" xmlns:xlink="http://www.w3.org/1999/xlink" aria-hidden="true" role="img" class="iconify iconify--vscode-icons" width="1em" height="1em" preserveAspectRatio="xMidYMid meet" viewBox="0 0 32 32"><path d="M2.73 6.67L15.85 2v28L4.77 23.88z" fill="#de3641"></path><path d="M15.85 2l13.42 4.59l-2.19 17.21L15.85 30z" fill="#b13138"></path><path d="M15.85 5.14l8.53 18.23h-2.91l-1.82-4.16h-3.8v-2.48h2.77L15.85 11l-2.33 5.73h2.33v2.48h-3.47l-1.63 4.16H7.61z" fill="#fff"></path><path fill="#e44f26" d="M18.69 28.21l-1.11-12.47H29.8l-1.11 12.47l-5.01 1.39l-4.99-1.39z"></path><path fill="#f1662a" d="M23.69 28.54l4.05-1.12l.95-10.66h-5v11.78z"></path><path fill="#ebebeb" d="M23.69 21.39h-2.02l-.14-1.57h2.16v-1.53h-3.84l.04.41l.38 4.22h3.42v-1.53z"></path><path fill="#ebebeb" d="M23.69 25.36h-.01l-1.7-.46l-.11-1.22H20.34l.21 2.4l3.13.87h.01v-1.59z"></path><path fill="#fff" d="M23.69 21.39v1.53h1.88l-.18 1.98l-1.7.46v1.59l3.13-.87l.03-.26l.35-4.02l.04-.41H23.69z"></path><path fill="#fff" d="M23.69 18.29V19.82h3.69l.03-.35l.07-.77l.04-.41h-3.83z"></path></svg>