<svg xmlns="http://www.w3.org/2000/svg" xmlns:xlink="http://www.w3.org/1999/xlink" aria-hidden="true" role="img" class="iconify iconify--vscode-icons" width="1em" height="1em" preserveAspectRatio="xMidYMid meet" viewBox="0 0 32 32"><circle cx="16" cy="16" r="14" fill="#0e3a51"></circle><path d="M12.64 15.72a1.625 1.625 0 0 0 1.624 1.624h15.668c.042-.444.068-.89.068-1.344a14.049 14.049 0 0 0-.144-1.9H14.264a1.625 1.625 0 0 0-1.624 1.62z" fill="#15a9ce"></path><path d="M17.624 8.795a1.624 1.624 0 1 0 0 3.248h11.8a13.9 13.9 0 0 0-1.437-3.248z" fill="#92d13d"></path><path d="M29.572 19.379H10.9a1.624 1.624 0 0 0 0 3.248h17.433a13.91 13.91 0 0 0 1.239-3.248z" fill="#de3423"></path></svg>