<svg xmlns="http://www.w3.org/2000/svg" xmlns:xlink="http://www.w3.org/1999/xlink" aria-hidden="true" role="img" class="iconify iconify--vscode-icons" width="1em" height="1em" preserveAspectRatio="xMidYMid meet" viewBox="0 0 32 32"><path d="M27.4 5.5h-9.2l-2.1 4.2H4.3v16.8h25.2v-21zm0 18.7H6.6V11.8h20.8zm0-14.5h-8.2l1-2.1h7.1v2.1z" fill="#db7b7b"></path><path fill="#db7b7b" d="M25.7 13.7H.5l3.8 12.8h25.2l-3.8-12.8z"></path><path d="M9.99 10.4l17.984 19.05a.839.839 0 0 0 1.081-.072a.8.8 0 0 0 .108-1.008L9.99 10.4z" fill="#fff"></path><path d="M15.684 12.205L29.38 26.97a.839.839 0 0 0 1.081-.072a.8.8 0 0 0 .108-1.008L15.684 12.205z" fill="#fff"></path><path d="M11.684 16.058l13.7 14.764a.839.839 0 0 0 1.081-.072a.8.8 0 0 0 .108-1.008L11.684 16.058z" fill="#fff"></path><path d="M20.5 13.754l9.568 10.315a.586.586 0 0 0 .755-.05a.558.558 0 0 0 .076-.7l-10.4-9.56z" fill="#fff"></path><path d="M13 20.524l9.57 10.315a.586.586 0 0 0 .755-.05a.558.558 0 0 0 .076-.7L13 20.524z" fill="#fff"></path><path d="M25.415 15.986l4.337 4.689a.3.3 0 0 0 .374-.024a.251.251 0 0 0 .037-.33l-4.748-4.336z" fill="#fff"></path><path d="M15.4 25.277l4.337 4.689a.3.3 0 0 0 .374-.024a.251.251 0 0 0 .037-.33L15.4 25.277z" fill="#fff"></path></svg>