<svg xmlns="http://www.w3.org/2000/svg" xmlns:xlink="http://www.w3.org/1999/xlink" aria-hidden="true" role="img" class="iconify iconify--vscode-icons" width="1em" height="1em" preserveAspectRatio="xMidYMid meet" viewBox="0 0 32 32"><path d="M23.425 2.937L30 2.94v6.573l-1.951-.029l.021-3.714L18.827 15L11.4 8.656l-8.018 7.421L2 14.727l9.379-8.614l7.439 6.116l7.344-7.362l-2.73.005l-.008-1.935z" fill="#828282"></path><path d="M24.365 11.708l1.911-1.884v19.227h-1.924l.013-17.342z" fill="#828282"></path><path d="M9.468 12.7l1.922-1.783l-.016 18.148l-1.906-.016V12.7z" fill="#828282"></path><path d="M13.2 12.5l1.908 1.619l-.008 14.939l-1.911-.008l.011-16.55z" fill="#828282"></path><path d="M20.645 15.583l1.908-2.039l.005 15.5h-1.927l.013-13.467z" fill="#828282"></path><path d="M5.742 16.191l1.924-1.826l.027 14.682H5.748l-.006-12.856z" fill="#828282"></path><path d="M16.918 15.66l1.914 1.64l.005 11.748H16.91l.008-13.39z" fill="#828282"></path></svg>