<svg xmlns="http://www.w3.org/2000/svg" xmlns:xlink="http://www.w3.org/1999/xlink" aria-hidden="true" role="img" class="iconify iconify--vscode-icons" width="1em" height="1em" preserveAspectRatio="xMidYMid meet" viewBox="0 0 32 32"><path d="M21.892 22.136l-2.186-2.041h-9.599l2.186 2.041h9.599z" fill="#000"></path><path d="M12.293 14.98l-2.186 2.041h9.599l2.186-2.041h-9.599z" fill="#000"></path><path d="M21.891 11.906l-2.185-2.042h-9.599l2.186 2.042h9.598z" fill="#000"></path><path d="M9.1 13.926l-1.448-1.444L2.3 17.836a1.023 1.023 0 0 0 0 1.443l5.354 5.354L9.1 23.19l-4.636-4.632z" fill="#000"></path><path d="M29.7 12.721l-5.352-5.355L22.9 8.81l4.63 4.632l-4.63 4.633l1.443 1.443l5.357-5.353a1.021 1.021 0 0 0 0-1.444z" fill="#000"></path></svg>