<svg xmlns="http://www.w3.org/2000/svg" xmlns:xlink="http://www.w3.org/1999/xlink" aria-hidden="true" role="img" class="iconify iconify--vscode-icons" width="1em" height="1em" preserveAspectRatio="xMidYMid meet" viewBox="0 0 32 32"><path d="M27.5 5.5h-9.3l-2.1 4.2H4.4v16.8h25.2v-21zm0 4.2h-8.2l1.1-2.1h7.1z" fill="#5555bf"></path><path d="M21.422 13a.675.675 0 0 0-.427.174l-5.7 4.74a.869.869 0 0 1-.716.246h-3.673a.9.9 0 0 0-.906.894v5.882a.9.9 0 0 0 .9.9h3.68a.869.869 0 0 1 .716.246l5.7 4.74c.391.325.811.168.811-.217V13.391a.371.371 0 0 0-.354-.391zm7.328 1.725l-1.343 1.345a11.031 11.031 0 0 1 0 11.883l1.339 1.332a12.893 12.893 0 0 0 .004-14.561zm-3.25 3.241L24.179 19.3a4.526 4.526 0 0 1 0 5.428l1.321 1.316a6.416 6.416 0 0 0 .008-8.077z" fill="#00007f"></path></svg>