<svg xmlns="http://www.w3.org/2000/svg" xmlns:xlink="http://www.w3.org/1999/xlink" aria-hidden="true" role="img" class="iconify iconify--vscode-icons" width="1em" height="1em" preserveAspectRatio="xMidYMid meet" viewBox="0 0 32 32"><defs><linearGradient id="IconifyId-17ab498a166-cbb4b1-321" x1="18.92" y1="10.58" x2="26.55" y2="9.6" gradientTransform="matrix(1 0 0 -1 0 32)" gradientUnits="userSpaceOnUse"><stop offset="0" stop-color="#1a7d75"></stop><stop offset="1" stop-color="#1a8864"></stop></linearGradient><linearGradient id="IconifyId-17ab498a166-cbb4b1-322" x1="11.46" y1="13.46" x2="7.6" y2="3.34" gradientTransform="matrix(1 0 0 -1 0 32)" gradientUnits="userSpaceOnUse"><stop offset=".01" stop-color="#168a81"></stop><stop offset="1" stop-color="#31a97f"></stop></linearGradient><linearGradient id="IconifyId-17ab498a166-cbb4b1-323" x1="20.67" y1="23.36" x2="27.15" y2="13.54" gradientTransform="matrix(1 0 0 -1 0 32)" gradientUnits="userSpaceOnUse"><stop offset="0" stop-color="#27a59b"></stop><stop offset="1" stop-color="#64d8a2"></stop></linearGradient><linearGradient id="IconifyId-17ab498a166-cbb4b1-324" x1="10.7" y1="20.5" x2="17.69" y2="14.45" xlink:href="#IconifyId-17ab498a166-cbb4b1-323"></linearGradient><linearGradient id="IconifyId-17ab498a166-cbb4b1-325" x1="24.45" y1="16.91" x2="3.9" y2="23.83" xlink:href="#IconifyId-17ab498a166-cbb4b1-323"></linearGradient></defs><path d="M27.32 13.59A2.57 2.57 0 0 1 30 15.92c.5 6.53-5.36 13.83-13.76 14.06a2.43 2.43 0 0 1-2.54-2.38a2.45 2.45 0 0 1 2.37-2.52c5.58-.15 9.11-5 8.92-8.93a2.45 2.45 0 0 1 2.32-2.56z" fill-rule="evenodd" fill="url(#IconifyId-17ab498a166-cbb4b1-321)"></path><path d="M4.47 13.45a2.45 2.45 0 0 1 2.44 2.45A9 9 0 0 0 16 25.1a2.43 2.43 0 0 1 2.5 2.38A2.45 2.45 0 0 1 16.1 30A13.91 13.91 0 0 1 2 15.9a2.47 2.47 0 0 1 2.47-2.45z" fill-rule="evenodd" fill="url(#IconifyId-17ab498a166-cbb4b1-322)"></path><path d="M21.22 16.09a2.51 2.51 0 0 1 2.52-2.51h3.67a2.51 2.51 0 1 1 0 5h-3.67a2.51 2.51 0 0 1-2.52-2.51z" fill="url(#IconifyId-17ab498a166-cbb4b1-323)"></path><path d="M13.51 16.09A2.5 2.5 0 1 1 16 18.61a2.5 2.5 0 0 1-2.49-2.52z" fill="url(#IconifyId-17ab498a166-cbb4b1-324)"></path><path d="M18.44 4.35a2.44 2.44 0 0 1-2.33 2.55c-5.82.24-9.37 4.82-9.2 9.17a2.41 2.41 0 0 1-2.31 2.54A2.52 2.52 0 0 1 2 16.22A14 14 0 0 1 15.9 2a2.45 2.45 0 0 1 2.54 2.35z" fill-rule="evenodd" fill="url(#IconifyId-17ab498a166-cbb4b1-325)"></path></svg>