<svg xmlns="http://www.w3.org/2000/svg" xmlns:xlink="http://www.w3.org/1999/xlink" aria-hidden="true" role="img" class="iconify iconify--vscode-icons" width="1em" height="1em" preserveAspectRatio="xMidYMid meet" viewBox="0 0 32 32"><defs><linearGradient id="IconifyId-17ab498a166-cbb4b1-497" x1="-611.348" y1="-67.488" x2="-600.272" y2="-65.335" gradientTransform="matrix(1.437 0 0 -1.437 894.417 -82.292)" gradientUnits="userSpaceOnUse"><stop offset="0" stop-color="#0f6067"></stop><stop offset=".5" stop-color="#05abac"></stop><stop offset="1" stop-color="#58bec4"></stop></linearGradient><linearGradient id="IconifyId-17ab498a166-cbb4b1-498" x1="-603.594" y1="-77.699" x2="-602.011" y2="-59.604" gradientTransform="matrix(1.437 0 0 -1.437 894.417 -82.292)" gradientUnits="userSpaceOnUse"><stop offset="0" stop-color="#117c83"></stop><stop offset=".5" stop-color="#21b5b5"></stop><stop offset="1" stop-color="#7ed4d4"></stop></linearGradient><linearGradient id="IconifyId-17ab498a166-cbb4b1-499" x1="-612.757" y1="-59.906" x2="-616.934" y2="-72.76" gradientTransform="matrix(1.437 0 0 -1.437 894.417 -82.292)" gradientUnits="userSpaceOnUse"><stop offset="0" stop-color="#9accd3"></stop><stop offset=".5" stop-color="#72aeb3"></stop><stop offset="1" stop-color="#317d7f"></stop></linearGradient><linearGradient id="IconifyId-17ab498a166-cbb4b1-500" x1="-621.851" y1="-74.579" x2="-614.84" y2="-72.301" gradientTransform="matrix(1.437 0 0 -1.437 894.417 -82.292)" gradientUnits="userSpaceOnUse"><stop offset="0" stop-color="#21626e"></stop><stop offset=".5" stop-color="#157c84"></stop><stop offset="1" stop-color="#03a3a5"></stop></linearGradient><linearGradient id="IconifyId-17ab498a166-cbb4b1-501" x1="-616.369" y1="-64.469" x2="-625.34" y2="-72.835" gradientTransform="matrix(1.437 0 0 -1.437 894.417 -82.292)" gradientUnits="userSpaceOnUse"><stop offset="0" stop-color="#0b7c81"></stop><stop offset=".5" stop-color="#068d90"></stop><stop offset="1" stop-color="#16b1b1"></stop></linearGradient><linearGradient id="IconifyId-17ab498a166-cbb4b1-502" x1="-608.072" y1="-74.678" x2="-603.488" y2="-70.966" gradientTransform="matrix(1.437 0 0 -1.437 894.417 -82.292)" gradientUnits="userSpaceOnUse"><stop offset="0" stop-color="#0a8a8f"></stop><stop offset=".5" stop-color="#0f7c82"></stop><stop offset="1" stop-color="#1a5964"></stop></linearGradient><linearGradient id="IconifyId-17ab498a166-cbb4b1-503" x1="-601.134" y1="-70.113" x2="-606.008" y2="-67.067" gradientTransform="matrix(1.437 0 0 -1.437 894.417 -82.292)" gradientUnits="userSpaceOnUse"><stop offset="0" stop-color="#256a77"></stop><stop offset=".5" stop-color="#0d9499"></stop><stop offset="1" stop-color="#06a0a2"></stop></linearGradient></defs><path d="M21.6 3.462H30L18.767 24.211s-1.893-5.5-2.706-7.459" fill="url(#IconifyId-17ab498a166-cbb4b1-497)"></path><path d="M23.669 29.118H30V3.462c-.005 13.407-5.64 25.656-6.331 25.656z" fill="url(#IconifyId-17ab498a166-cbb4b1-498)"></path><path d="M18.767 24.211h-5.226L2 3.462c2.047-.26 6.135-.611 8.16-.776z" fill="url(#IconifyId-17ab498a166-cbb4b1-499)"></path><path d="M8.693 16.019C6.96 22.866 1.995 29.32 2 29.314c5.752 0 6.991-.835 6.991-1.276V16.54c-.101-.17-.197-.346-.298-.521z" fill="url(#IconifyId-17ab498a166-cbb4b1-500)"></path><path d="M2 3.462v25.852c3.147-5.2 4.981-8.6 6.6-13.45C4.6 8.794 2 3.462 2 3.462z" fill="url(#IconifyId-17ab498a166-cbb4b1-501)"></path><path fill="url(#IconifyId-17ab498a166-cbb4b1-502)" d="M23.233 28.102l.436 1.016V15.647l-.436.728"></path><path d="M23.647 15.673v13.4l.016.043c.452 0 6.332-14.5 6.332-25.656c0 .002-3.589 7.487-6.348 12.213z" fill="url(#IconifyId-17ab498a166-cbb4b1-503)"></path></svg>