<svg xmlns="http://www.w3.org/2000/svg" xmlns:xlink="http://www.w3.org/1999/xlink" aria-hidden="true" role="img" class="iconify iconify--vscode-icons" width="1em" height="1em" preserveAspectRatio="xMidYMid meet" viewBox="0 0 32 32"><path d="M2 2h28v28H2zm1.689.067a1.624 1.624 0 0 0-1.626 1.625v24.622a1.625 1.625 0 0 0 1.626 1.626h24.627a1.625 1.625 0 0 0 1.626-1.626V3.692a1.624 1.624 0 0 0-1.626-1.625zm-.681 26.012a.911.911 0 0 0 .911.912h24.164a.911.911 0 0 0 .911-.912V3.919a.91.91 0 0 0-.911-.911H3.919a.91.91 0 0 0-.911.911z" fill="#0d9b35"></path><path fill="#fff" d="M25.52 5.502l-6.662 20.989h-5.704L6.492 5.502h4.016l5.521 17.293l5.475-17.293h4.016z"></path></svg>