<svg xmlns="http://www.w3.org/2000/svg" xmlns:xlink="http://www.w3.org/1999/xlink" aria-hidden="true" role="img" class="iconify iconify--vscode-icons" width="1em" height="1em" preserveAspectRatio="xMidYMid meet" viewBox="0 0 32 32"><defs><linearGradient id="IconifyId-17ab498a166-cbb4b1-644" x1="13.146" y1="-186.913" x2="20.701" y2="-188.679" gradientTransform="matrix(1 0 0 -1 0 -170)" gradientUnits="userSpaceOnUse"><stop offset="0" stop-color="#ff6533"></stop><stop offset=".157" stop-color="#ff5633"></stop><stop offset=".434" stop-color="#ff4333"></stop><stop offset=".714" stop-color="#ff3733"></stop><stop offset="1" stop-color="#f33"></stop></linearGradient><linearGradient id="IconifyId-17ab498a166-cbb4b1-645" x1="11.963" y1="-184.409" x2="25.504" y2="-194.908" gradientTransform="matrix(1 0 0 -1 0 -170)" gradientUnits="userSpaceOnUse"><stop offset="0" stop-color="#bf3338"></stop><stop offset="1" stop-color="#f33"></stop></linearGradient><linearGradient id="IconifyId-17ab498a166-cbb4b1-646" x1="12.406" y1="-186.476" x2="14.368" y2="-188.536" xlink:href="#IconifyId-17ab498a166-cbb4b1-644"></linearGradient><linearGradient id="IconifyId-17ab498a166-cbb4b1-647" x1="15.974" y1="-190.023" x2="15.385" y2="-181.584" xlink:href="#IconifyId-17ab498a166-cbb4b1-644"></linearGradient><linearGradient id="IconifyId-17ab498a166-cbb4b1-648" x1="13.423" y1="-186.331" x2="16.211" y2="-188.227" gradientTransform="matrix(1 0 0 -1 0 -170)" gradientUnits="userSpaceOnUse"><stop offset="0" stop-color="#fbb040"></stop><stop offset="1" stop-color="#fb8840"></stop></linearGradient><linearGradient id="IconifyId-17ab498a166-cbb4b1-649" x1="16.279" y1="-175.614" x2="13.434" y2="-206.915" gradientTransform="matrix(1 0 0 -1 0 -170)" gradientUnits="userSpaceOnUse"><stop offset="0" stop-color="#fff"></stop><stop offset="1" stop-color="#fff" stop-opacity="0"></stop></linearGradient></defs><path d="M26.713 11.219a9.147 9.147 0 0 0-1.193-4.534c-2.016-2.075-6.4-2.556-7.492-.01c-1.119 2.61 1.879 5.514 3.189 5.284c1.668-.294-.294-4.121-.294-4.121c2.551 4.808 1.962 3.336-2.649 7.752S8.953 29.322 8.266 29.715a.559.559 0 0 1-.093.049h18.088a.43.43 0 0 0 .383-.623l-4.729-9.361a.428.428 0 0 1 .167-.564a9.209 9.209 0 0 0 4.631-7.997z" fill="url(#IconifyId-17ab498a166-cbb4b1-644)"></path><path d="M26.713 11.219a9.147 9.147 0 0 0-1.193-4.534c-2.016-2.075-6.4-2.556-7.492-.01c-1.119 2.61 1.879 5.514 3.189 5.284c1.668-.294-.294-4.121-.294-4.121c2.551 4.808 1.962 3.336-2.649 7.752S8.953 29.322 8.266 29.715a.559.559 0 0 1-.093.049h18.088a.43.43 0 0 0 .383-.623l-4.729-9.361a.428.428 0 0 1 .167-.564a9.209 9.209 0 0 0 4.631-7.997z" fill="url(#IconifyId-17ab498a166-cbb4b1-645)"></path><path d="M8.266 29.715c.687-.392 5.4-9.714 10.008-14.13s5.2-2.944 2.649-7.752c0 0-9.763 13.688-13.3 20.458" fill="url(#IconifyId-17ab498a166-cbb4b1-646)"></path><path d="M9.639 17.449C16.233 5.326 17.1 4.1 20.531 4.1a6.253 6.253 0 0 1 4.8 2.262A9.21 9.21 0 0 0 17.636 2h-11.2a.427.427 0 0 0-.427.427V25a67.956 67.956 0 0 1 3.63-7.551z" fill="url(#IconifyId-17ab498a166-cbb4b1-647)"></path><path d="M18.274 15.585C13.662 20 8.953 29.322 8.266 29.715a2.076 2.076 0 0 1-2.453-.245c-.653-.731-1.668-1.913 3.827-12.02C16.233 5.326 17.1 4.1 20.531 4.1a6.253 6.253 0 0 1 4.8 2.262c.064.1.128.211.191.319c-2.016-2.075-6.4-2.556-7.492-.01c-1.119 2.61 1.879 5.514 3.189 5.284c1.668-.294-.294-4.121-.294-4.121c2.55 4.807 1.961 3.335-2.651 7.751z" fill="url(#IconifyId-17ab498a166-cbb4b1-648)"></path><path d="M10.179 17.989C16.773 5.866 17.636 4.644 21.071 4.644A6.3 6.3 0 0 1 25.192 6.2a6.253 6.253 0 0 0-4.661-2.1c-3.434 0-4.3 1.222-10.892 13.345C4.145 27.556 5.16 28.738 5.813 29.469a1.607 1.607 0 0 0 .314.265c-.574-.834-.827-2.772 4.052-11.745z" opacity=".3" fill="url(#IconifyId-17ab498a166-cbb4b1-649)"></path></svg>