<svg xmlns="http://www.w3.org/2000/svg" xmlns:xlink="http://www.w3.org/1999/xlink" aria-hidden="true" role="img" class="iconify iconify--vscode-icons" width="1em" height="1em" preserveAspectRatio="xMidYMid meet" viewBox="0 0 32 32"><path d="M25.21 24.21l-12.471 3.718a.525.525 0 0 1-.667-.606l4.456-21.511a.43.43 0 0 1 .809-.094l8.249 17.661a.6.6 0 0 1-.376.832zm2.139-.878L17.8 2.883A1.531 1.531 0 0 0 16.491 2a1.513 1.513 0 0 0-1.4.729L4.736 19.648a1.592 1.592 0 0 0 .018 1.7l5.064 7.909a1.628 1.628 0 0 0 1.83.678l14.7-4.383a1.6 1.6 0 0 0 1-2.218z" fill="#d2d2d2" fill-rule="evenodd"></path></svg>