<svg xmlns="http://www.w3.org/2000/svg" xmlns:xlink="http://www.w3.org/1999/xlink" aria-hidden="true" role="img" class="iconify iconify--vscode-icons" width="1em" height="1em" preserveAspectRatio="xMidYMid meet" viewBox="0 0 32 32"><path d="M24.556 19.111H11.333l3.111-7.778h5.134L20.667 9H16l-1.556-2.333L16 4.333h4.667L19.578 2h-5.134l-3.422 4.667L12.422 9L3.089 20.667A5.375 5.375 0 0 0 2 23.778a4.7 4.7 0 0 0 3.889 4.666S22.222 30 24.556 30a5.445 5.445 0 0 0 0-10.889zm-17.889 7a2.334 2.334 0 1 1 0-4.667a2.334 2.334 0 0 1 0 4.667zm17.889 1.556a3.112 3.112 0 1 1 3.111-3.111a3.12 3.12 0 0 1-3.111 3.111z" fill="#32b0e7"></path></svg>