<svg xmlns="http://www.w3.org/2000/svg" xmlns:xlink="http://www.w3.org/1999/xlink" aria-hidden="true" role="img" class="iconify iconify--vscode-icons" width="1em" height="1em" preserveAspectRatio="xMidYMid meet" viewBox="0 0 32 32"><defs><linearGradient id="IconifyId-17ab498a166-cbb4b1-166" x1="-5602.682" y1="768.541" x2="-5598.727" y2="763.917" gradientTransform="scale(1 -1) rotate(64.97 -2187.655 4795.665)" gradientUnits="userSpaceOnUse"><stop offset="0" stop-color="#f69923"></stop><stop offset=".312" stop-color="#f79a23"></stop><stop offset=".838" stop-color="#e97826"></stop></linearGradient><linearGradient id="IconifyId-17ab498a166-cbb4b1-167" x1="-5631.952" y1="769.052" x2="-5603.737" y2="769.052" gradientTransform="scale(1 -1) rotate(64.97 -2187.655 4795.665)" gradientUnits="userSpaceOnUse"><stop offset=".323" stop-color="#9e2064"></stop><stop offset=".63" stop-color="#c92037"></stop><stop offset=".751" stop-color="#cd2335"></stop><stop offset="1" stop-color="#e97826"></stop></linearGradient><linearGradient id="IconifyId-17ab498a166-cbb4b1-168" x1="-5628.546" y1="766.221" x2="-5611.733" y2="766.221" gradientTransform="scale(1 -1) rotate(64.97 -2187.655 4795.665)" gradientUnits="userSpaceOnUse"><stop offset="0" stop-color="#282662"></stop><stop offset=".095" stop-color="#662e8d"></stop><stop offset=".788" stop-color="#9f2064"></stop><stop offset=".949" stop-color="#cd2032"></stop></linearGradient><linearGradient id="IconifyId-17ab498a166-cbb4b1-169" x1="-5630.367" y1="769.316" x2="-5602.152" y2="769.316" xlink:href="#IconifyId-17ab498a166-cbb4b1-167"></linearGradient><linearGradient id="IconifyId-17ab498a166-cbb4b1-170" x1="-5628.31" y1="768.933" x2="-5613.482" y2="768.933" xlink:href="#IconifyId-17ab498a166-cbb4b1-168"></linearGradient><linearGradient id="IconifyId-17ab498a166-cbb4b1-171" x1="-5630.367" y1="766.394" x2="-5602.152" y2="766.394" xlink:href="#IconifyId-17ab498a166-cbb4b1-167"></linearGradient><linearGradient id="IconifyId-17ab498a166-cbb4b1-172" x1="-5632.118" y1="766.539" x2="-5603.902" y2="766.539" xlink:href="#IconifyId-17ab498a166-cbb4b1-167"></linearGradient><linearGradient id="IconifyId-17ab498a166-cbb4b1-173" x1="-5630.367" y1="765.526" x2="-5602.152" y2="765.526" xlink:href="#IconifyId-17ab498a166-cbb4b1-167"></linearGradient><linearGradient id="IconifyId-17ab498a166-cbb4b1-174" x1="-5630.367" y1="765.625" x2="-5602.152" y2="765.625" xlink:href="#IconifyId-17ab498a166-cbb4b1-167"></linearGradient><linearGradient id="IconifyId-17ab498a166-cbb4b1-175" x1="-5614.516" y1="765.645" x2="-5608.28" y2="765.645" xlink:href="#IconifyId-17ab498a166-cbb4b1-167"></linearGradient></defs><path d="M19.993 2.133a10.267 10.267 0 0 0-2.04 2.056l.8 1.51a19.733 19.733 0 0 1 1.708-2.144c.044-.049.068-.072.068-.072l-.068.072a17.865 17.865 0 0 0-1.6 2.174a30.1 30.1 0 0 0 3.111-.385a3.288 3.288 0 0 0-.3-2.5S20.9 1.6 19.993 2.133z" fill="url(#IconifyId-17ab498a166-cbb4b1-166)"></path><path d="M18.638 10.749h.018l-.115.013l-.021.009z" fill="none"></path><path d="M17.821 13.455z" fill="none"></path><path d="M12.27 19.524l.025-.068q.264-.7.523-1.357q.291-.741.575-1.436q.3-.733.59-1.418q.305-.718.6-1.384q.24-.542.474-1.049l.155-.335l.3-.645q.138-.291.274-.57l.09-.185l.015-.03l-.1.011l-.078-.154a.956.956 0 0 1-.023.045q-.211.418-.417.845l-.238.495q-.328.689-.645 1.389t-.624 1.422q-.3.7-.594 1.4t-.567 1.387q-.289.72-.562 1.426l-.123.318q-.219.569-.426 1.124l.123.243l.11-.012l.012-.033q.269-.737.531-1.429z" fill="none"></path><path d="M17.305 14.818l-.315.055l.161-.025l.154-.03z" fill="#be202e"></path><path d="M17.305 14.818l-.315.055l.161-.025l.154-.03z" fill="#be202e" opacity=".35"></path><path d="M17.573 13.5l.05-.007c.068-.01.135-.022.2-.036l-.248.042z" fill="#be202e"></path><path d="M17.573 13.5l.05-.007c.068-.01.135-.022.2-.036l-.248.042z" fill="#be202e" opacity=".35"></path><path d="M16.394 9.6q.365-.682.739-1.332q.388-.674.784-1.305l.046-.075q.392-.62.79-1.191l-.8-1.51l-.182.225c-.231.288-.47.6-.716.925a46.135 46.135 0 0 0-1.66 2.379a48.05 48.05 0 0 0-.692 1.09l-.026.042l1.041 2.052q.334-.656.676-1.3z" fill="url(#IconifyId-17ab498a166-cbb4b1-167)"></path><path d="M11.651 21.192q-.207.568-.415 1.159l-.006.017l-.059.167c-.093.266-.175.5-.361 1.049a2.107 2.107 0 0 1 .786.926a1.68 1.68 0 0 0-.544-1.154a3.621 3.621 0 0 0 3.489-1.42a2.791 2.791 0 0 0 .165-.313a1.451 1.451 0 0 1-1.4.513a4.059 4.059 0 0 0 2.046-1.672a7.96 7.96 0 0 0 .328-.587a3.3 3.3 0 0 1-3.109 1.01l-.842.092c-.029.071-.052.142-.078.213z" fill="url(#IconifyId-17ab498a166-cbb4b1-168)"></path><path d="M12.044 19.306q.273-.706.562-1.426q.276-.69.567-1.387t.594-1.4q.308-.711.629-1.419t.645-1.389q.118-.248.238-.495q.207-.426.417-.845a.956.956 0 0 1 .023-.045l-1.042-2.053l-.051.083c-.242.4-.484.8-.721 1.216s-.475.844-.7 1.276q-.291.547-.568 1.1l-.11.225c-.227.467-.432.918-.617 1.352q-.315.737-.556 1.406c-.107.293-.2.576-.292.847c-.073.232-.142.464-.208.7q-.234.818-.4 1.631l1.046 2.065q.208-.554.426-1.124z" fill="url(#IconifyId-17ab498a166-cbb4b1-169)"></path><path d="M10.435 18.755a16.07 16.07 0 0 0-.272 1.974c0 .023 0 .046-.005.069a4.15 4.15 0 0 0-1.2-1.029a5.825 5.825 0 0 1 1.172 2.693a2.642 2.642 0 0 1-1.325-.226a2.662 2.662 0 0 0 1.13.686a3.247 3.247 0 0 0-1.571.783a3.359 3.359 0 0 1 1.861-.342A153.89 153.89 0 0 0 8.076 30a.625.625 0 0 0 .425-.413c.128-.43.976-3.251 2.306-6.959l.115-.318l.032-.089q.211-.583.437-1.19l.1-.277v-.005l-1.041-2.065c-.005.023-.011.047-.015.071z" fill="url(#IconifyId-17ab498a166-cbb4b1-170)"></path><path d="M15.88 11.078l-.09.185l-.274.57q-.15.315-.3.645c-.052.111-.1.222-.155.335q-.234.508-.474 1.049q-.3.666-.6 1.384q-.291.685-.59 1.418q-.284.7-.575 1.436q-.259.661-.523 1.357a1.864 1.864 0 0 0-.025.068q-.262.693-.529 1.422l-.012.033l.842-.092l-.05-.009a6 6 0 0 0 3.21-1.807a7.984 7.984 0 0 0 1.1-1.524a13.139 13.139 0 0 0 .706-1.467c.195-.472.382-.982.562-1.536a3.053 3.053 0 0 1-.788.274c-.051.011-.1.021-.156.03s-.107.018-.161.025a3.668 3.668 0 0 0 1.962-1.913a3.344 3.344 0 0 1-1.13.495a2.61 2.61 0 0 1-.2.036l-.05.007a3.821 3.821 0 0 0 .839-.469a2.616 2.616 0 0 0 .479-.458a3.27 3.27 0 0 0 .263-.362c.025-.04.05-.08.074-.122l.09-.178c.131-.264.236-.5.319-.706c.042-.1.078-.2.109-.288l.036-.1c.033-.1.06-.187.081-.265a2.605 2.605 0 0 0 .062-.275a1.01 1.01 0 0 1-.109.075a3.965 3.965 0 0 1-1.162.4l.773-.085l-.773.085h-.018l-.119.019l.021-.009l-2.645.29z" fill="url(#IconifyId-17ab498a166-cbb4b1-171)"></path><path d="M18.858 5.73a35.07 35.07 0 0 0-.768 1.236l-.044.074q-.358.6-.759 1.327q-.346.626-.719 1.347q-.326.629-.672 1.336l2.645-.29a3.216 3.216 0 0 0 1.449-1.14c.089-.128.178-.262.267-.4c.272-.424.538-.891.776-1.355a14.074 14.074 0 0 0 .588-1.294a6.8 6.8 0 0 0 .233-.7c.048-.184.086-.358.115-.524a30.152 30.152 0 0 1-3.111.383z" fill="url(#IconifyId-17ab498a166-cbb4b1-172)"></path><path d="M17.149 14.848a3.224 3.224 0 0 0 0 0z" fill="#be202e"></path><path d="M17.149 14.848a3.224 3.224 0 0 0 0 0z" fill="#be202e" opacity=".35"></path><path d="M17.149 14.848a3.224 3.224 0 0 0 0 0z" fill="url(#IconifyId-17ab498a166-cbb4b1-173)"></path><path d="M17.57 13.5l.05-.007l-.05.007z" fill="#be202e"></path><path d="M17.57 13.5l.05-.007l-.05.007z" fill="#be202e" opacity=".35"></path><path d="M17.57 13.5l.05-.007l-.05.007z" fill="url(#IconifyId-17ab498a166-cbb4b1-174)"></path><path d="M17.572 13.5z" fill="#be202e"></path><path d="M17.572 13.5z" fill="#be202e" opacity=".35"></path><path d="M17.572 13.5z" fill="url(#IconifyId-17ab498a166-cbb4b1-175)"></path></svg>