<svg xmlns="http://www.w3.org/2000/svg" xmlns:xlink="http://www.w3.org/1999/xlink" aria-hidden="true" role="img" class="iconify iconify--vscode-icons" width="1em" height="1em" preserveAspectRatio="xMidYMid meet" viewBox="0 0 32 32"><path d="M3.449 21.989L14.4 11.025l1.6-1.6l1.6 1.6l8.087 8.087l-.012.041l-.16.47l-.181.459l-.2.448l-.224.437l-.2.354L16 12.62L4.613 24.016a13.1 13.1 0 0 1-1.164-2.028z" fill="#e64a19"></path><path d="M16 2A14 14 0 1 1 5.431 25.162l.495-.5l.359-.359l.36-.36l.36-.36l.015-.015a11.708 11.708 0 1 0-2.5-5.03l-.78.782l-1.04 1.045A13.994 13.994 0 0 1 16 2z" fill="#b2b2b2"></path></svg>