<svg xmlns="http://www.w3.org/2000/svg" xmlns:xlink="http://www.w3.org/1999/xlink" aria-hidden="true" role="img" class="iconify iconify--vscode-icons" width="1em" height="1em" preserveAspectRatio="xMidYMid meet" viewBox="0 0 32 32"><defs><linearGradient id="IconifyId-17ab498a166-cbb4b1-548" x1="625.787" y1="825.641" x2="632.847" y2="812.848" gradientTransform="rotate(.063 730247.83 -555381.24)" gradientUnits="userSpaceOnUse"><stop offset="0" stop-color="#fff"></stop><stop offset="1" stop-color="#e1e1e1"></stop></linearGradient><linearGradient id="IconifyId-17ab498a166-cbb4b1-549" x1="634.081" y1="810.251" x2="635.169" y2="809.248" gradientTransform="translate(-610.524 -802.52)" gradientUnits="userSpaceOnUse"><stop offset="0" stop-color="#fff"></stop><stop offset="1" stop-color="#c8c8c8"></stop></linearGradient><linearGradient id="IconifyId-17ab498a166-cbb4b1-550" x1="14.019" y1="-116.816" x2="10.665" y2="-106.493" gradientTransform="matrix(1 0 0 -1 .04 -103.785)" gradientUnits="userSpaceOnUse"><stop offset=".127" stop-color="#8a0000"></stop><stop offset=".244" stop-color="#900000" stop-opacity=".999"></stop><stop offset=".398" stop-color="#a00000" stop-opacity=".999"></stop><stop offset=".573" stop-color="#bc0000" stop-opacity=".998"></stop><stop offset=".761" stop-color="#e20000" stop-opacity=".997"></stop><stop offset=".867" stop-color="#fa0000" stop-opacity=".996"></stop></linearGradient><linearGradient id="IconifyId-17ab498a166-cbb4b1-551" x1="14.16" y1="-117.225" x2="10.541" y2="-106.084" gradientTransform="matrix(1 0 0 -1 .04 -103.785)" gradientUnits="userSpaceOnUse"><stop offset=".315" stop-color="#5e0000"></stop><stop offset=".444" stop-color="#830000" stop-opacity=".999"></stop><stop offset=".618" stop-color="#ae0000" stop-opacity=".998"></stop><stop offset=".775" stop-color="#cd0000" stop-opacity=".997"></stop><stop offset=".908" stop-color="#e00000" stop-opacity=".996"></stop><stop offset="1" stop-color="#e70000" stop-opacity=".996"></stop></linearGradient></defs><path d="M9.064 3.162h11.6a31.459 31.459 0 0 1 7.524 7.538v17.842H9.064z" fill="url(#IconifyId-17ab498a166-cbb4b1-548)"></path><path d="M9.064 3.162h11.6a31.459 31.459 0 0 1 7.524 7.538v17.842H9.064z" fill="none" stroke="#c8c8c8" stroke-width=".5"></path><path d="M20.662 3.162a31.807 31.807 0 0 1 7.526 7.538a6.765 6.765 0 0 0-5.332-2.03a6.025 6.025 0 0 0-2.194-5.508z" fill="url(#IconifyId-17ab498a166-cbb4b1-549)"></path><path d="M20.662 3.162a31.807 31.807 0 0 1 7.526 7.538a6.765 6.765 0 0 0-5.332-2.03a6.025 6.025 0 0 0-2.194-5.508z" fill="none" stroke="#c8c8c8" stroke-width=".5"></path><path fill="none" stroke="#c8c8c8" stroke-width="4" d="M5.339 6.496h14.1v2.7h-14.1z"></path><path d="M15.819 19.855c.466-.914 1-1.943 1.42-2.977l.168-.408c-.554-2.108-.886-3.8-.589-4.894a.755.755 0 0 1 .763-.458h.254c.484-.007.711.608.737.847a3.847 3.847 0 0 1-.141 1.072a2.639 2.639 0 0 0-.161-1.091c-.2-.439-.391-.7-.562-.743a.54.54 0 0 0-.2.407a5.874 5.874 0 0 0-.077.939a10.511 10.511 0 0 0 .433 2.729c.054-.156.1-.306.14-.447c.059-.222.433-1.691.433-1.691s-.094 1.956-.226 2.547c-.028.125-.059.249-.092.375a8.586 8.586 0 0 0 2.145 3.351a6.7 6.7 0 0 0 1.24.852a16.9 16.9 0 0 1 2.517-.189a3.153 3.153 0 0 1 1.938.433a.738.738 0 0 1 .213.484a1.446 1.446 0 0 1-.041.282c.01-.051.01-.3-.755-.546a8.91 8.91 0 0 0-3.086-.043c1.566.766 3.093 1.147 3.576.919a1.015 1.015 0 0 0 .262-.254a2.727 2.727 0 0 1-.146.484a.764.764 0 0 1-.377.258c-.764.2-2.752-.268-4.485-1.258a36.619 36.619 0 0 0-5.768 1.371c-1.675 2.936-2.935 4.284-3.959 3.771l-.377-.189a.436.436 0 0 1-.141-.474c.119-.584.852-1.465 2.324-2.344c.158-.1.864-.469.864-.469s-.523.506-.645.605c-1.175.963-2.042 2.174-2.021 2.644v.041c1-.142 2.495-2.174 4.419-5.939m.61.312a77.843 77.843 0 0 1-.926 1.682a24.582 24.582 0 0 1 4.975-1.408a8.276 8.276 0 0 1-.637-.485a8.531 8.531 0 0 1-2.1-2.729a23.388 23.388 0 0 1-1.317 2.94" fill="#f91d0a"></path><path fill="url(#IconifyId-17ab498a166-cbb4b1-550)" d="M3.75 4.968h17.264v5.803H3.75z"></path><path d="M21.343 11.119H3.437V4.62h17.906zM20.7 5.264H4.081v5.209H20.7z" fill="url(#IconifyId-17ab498a166-cbb4b1-551)"></path><path d="M8.262 5.819h1.256a1.1 1.1 0 0 1 .859.331a1.338 1.338 0 0 1 .3.937a1.351 1.351 0 0 1-.3.942a1.1 1.1 0 0 1-.859.328h-.5v1.349h-.756V5.819m.757.726v1.086h.419a.423.423 0 0 0 .34-.141a.611.611 0 0 0 .12-.4a.6.6 0 0 0-.12-.4a.422.422 0 0 0-.34-.141h-.419m2.949.031v2.369h.271a.853.853 0 0 0 .708-.3a1.382 1.382 0 0 0 .246-.885a1.375 1.375 0 0 0-.244-.88a.858.858 0 0 0-.71-.3h-.271m-.757-.758h.8a2.9 2.9 0 0 1 .989.121a1.283 1.283 0 0 1 .562.427a1.779 1.779 0 0 1 .307.607a2.783 2.783 0 0 1 .1.779a2.831 2.831 0 0 1-.1.786a1.779 1.779 0 0 1-.307.607a1.313 1.313 0 0 1-.566.43a2.965 2.965 0 0 1-.991.125h-.8V5.819m3.342 0H16.6v.758h-1.29V7.3h1.209v.758H15.31v1.648h-.757V5.819" fill="#fff9f9"></path></svg>