<svg xmlns="http://www.w3.org/2000/svg" xmlns:xlink="http://www.w3.org/1999/xlink" aria-hidden="true" role="img" class="iconify iconify--vscode-icons" width="1em" height="1em" preserveAspectRatio="xMidYMid meet" viewBox="0 0 32 32"><path d="M27.49 11.337h-.1a.267.267 0 0 0-.267.266v2.333a.267.267 0 0 0 .267.266h2.341a.267.267 0 0 0 .269-.266v-.971a.27.27 0 0 0-.126-.228l-2.248-1.367a.256.256 0 0 0-.136-.033z" fill="#20ba31"></path><path d="M2 12.965v.966a.267.267 0 0 0 .267.266h2.341a.266.266 0 0 0 .267-.266V11.6a.266.266 0 0 0-.267-.265h-.1a.29.29 0 0 0-.141.037l-2.245 1.365a.282.282 0 0 0-.122.228z" fill="#20ba31"></path><path d="M11.552 11.6v.1a.289.289 0 0 0 .037.14l1.372 2.239a.265.265 0 0 0 .23.126h1.217a.266.266 0 0 0 .267-.266v-2.331a.267.267 0 0 0-.267-.266h-2.585a.26.26 0 0 0-.271.258z" fill="#20ba31"></path><path d="M22.368 19.035v-.966a.267.267 0 0 0-.268-.269h-2.34a.266.266 0 0 0-.267.266V20.4a.266.266 0 0 0 .267.265h.1a.29.29 0 0 0 .14-.035l2.247-1.367a.275.275 0 0 0 .121-.228z" fill="#20ba31"></path><path d="M10.573 11.6v2.309a.265.265 0 0 1-.267.266H8.8a.267.267 0 0 0-.267.266V20.4a.266.266 0 0 1-.266.266H5.68a.267.267 0 0 1-.267-.266v-8.8a.266.266 0 0 1 .267-.265h4.626a.27.27 0 0 1 .267.265z" fill="#70d37b"></path><path d="M26.591 11.6v8.8a.265.265 0 0 1-.267.265H23.74a.266.266 0 0 1-.267-.265v-5.956a.267.267 0 0 0-.267-.266H21.7a.266.266 0 0 1-.267-.266V11.6a.267.267 0 0 1 .267-.266h4.626a.265.265 0 0 1 .265.266z" fill="#70d37b"></path><path d="M18.688 20.667H16.1a.266.266 0 0 1-.267-.265V11.6a.266.266 0 0 1 .267-.265h2.585a.267.267 0 0 1 .267.265v8.8a.268.268 0 0 1-.264.267z" fill="#70d37b"></path><path d="M14.464 20.667h-2.7a.209.209 0 0 1-.211-.209v-5.337a.209.209 0 0 1 .211-.21h2.7a.21.21 0 0 1 .211.21v5.337a.213.213 0 0 1-.211.209z" fill="#70d37b"></path></svg>