<svg xmlns="http://www.w3.org/2000/svg" xmlns:xlink="http://www.w3.org/1999/xlink" aria-hidden="true" role="img" class="iconify iconify--vscode-icons" width="1em" height="1em" preserveAspectRatio="xMidYMid meet" viewBox="0 0 32 32"><g fill="none"><path d="M29.884 6.146l-13.142 23.5a.714.714 0 0 1-1.244.005L2.096 6.148a.714.714 0 0 1 .746-1.057l13.156 2.352a.714.714 0 0 0 .253 0l12.881-2.348a.714.714 0 0 1 .752 1.05z" fill="url(#IconifyId-17ab498a166-cbb4b1-714)"></path><path d="M22.264 2.007L12.54 3.912a.357.357 0 0 0-.288.33l-.598 10.104a.357.357 0 0 0 .437.369l2.707-.625a.357.357 0 0 1 .43.42l-.804 3.939a.357.357 0 0 0 .454.413l1.672-.508a.357.357 0 0 1 .454.414l-1.279 6.187c-.08.387.435.598.65.267l.143-.222l7.925-15.815a.357.357 0 0 0-.387-.51l-2.787.537a.357.357 0 0 1-.41-.45l1.818-6.306a.357.357 0 0 0-.412-.45z" fill="url(#IconifyId-17ab498a166-cbb4b1-717)"></path><defs id="IconifyId-17ab498a166-cbb4b1-713"><linearGradient id="IconifyId-17ab498a166-cbb4b1-714" x1="6" y1="33" x2="235" y2="344" gradientUnits="userSpaceOnUse" gradientTransform="translate(1.34 1.894) scale(.07142)"><stop stop-color="#41D1FF" id="IconifyId-17ab498a166-cbb4b1-715"></stop><stop offset="1" stop-color="#BD34FE" id="IconifyId-17ab498a166-cbb4b1-716"></stop></linearGradient><linearGradient id="IconifyId-17ab498a166-cbb4b1-717" x1="194.651" y1="8.818" x2="236.076" y2="292.989" gradientUnits="userSpaceOnUse" gradientTransform="translate(1.34 1.894) scale(.07142)"><stop stop-color="#FFEA83" id="IconifyId-17ab498a166-cbb4b1-718"></stop><stop offset=".083" stop-color="#FFDD35" id="IconifyId-17ab498a166-cbb4b1-719"></stop><stop offset="1" stop-color="#FFA800" id="IconifyId-17ab498a166-cbb4b1-720"></stop></linearGradient></defs></g></svg>