<svg xmlns="http://www.w3.org/2000/svg" xmlns:xlink="http://www.w3.org/1999/xlink" aria-hidden="true" role="img" class="iconify iconify--vscode-icons" width="1em" height="1em" preserveAspectRatio="xMidYMid meet" viewBox="0 0 32 32"><path d="M10.175 18.342a8.171 8.171 0 1 1 8.171-8.171a8.181 8.181 0 0 1-8.171 8.171zm0-11.673a3.5 3.5 0 1 0 3.5 3.5a3.506 3.506 0 0 0-3.5-3.5z" fill="#68217a"></path><path d="M28.089 24.023a4.2 4.2 0 1 1-1.231-2.971a4.189 4.189 0 0 1 1.231 2.971z" fill="#68217a"></path><path d="M30 6.21a4.2 4.2 0 1 1-1.231-2.971A4.189 4.189 0 0 1 30 6.21z" fill="#68217a"></path><path d="M10.416 25.8a4.2 4.2 0 1 1-1.231-2.971a4.189 4.189 0 0 1 1.231 2.971z" fill="#68217a"></path><path fill="#68217a" d="M15.54 7.42l7.937-2.014l.689 2.715l-7.938 2.013z"></path><path fill="#68217a" d="M5.342 23.331l1.868-7.368l2.716.689l-1.868 7.368z"></path><path fill="#68217a" d="M14.307 16.415l1.99-1.97l6.538 6.603l-1.99 1.97z"></path></svg>