<svg xmlns="http://www.w3.org/2000/svg" xmlns:xlink="http://www.w3.org/1999/xlink" aria-hidden="true" role="img" class="iconify iconify--vscode-icons" width="1em" height="1em" preserveAspectRatio="xMidYMid meet" viewBox="0 0 32 32"><defs><linearGradient id="IconifyId-17ab498a166-cbb4b1-623" x1="5.501" y1="16" x2="26.5" y2="16" gradientUnits="userSpaceOnUse"><stop offset=".08" stop-color="#aa2237"></stop><stop offset=".982" stop-color="#b4313d"></stop></linearGradient><linearGradient id="IconifyId-17ab498a166-cbb4b1-624" x1="10.099" y1="5.601" x2="16.169" y2="5.601" gradientUnits="userSpaceOnUse"><stop offset=".037" stop-color="#b83a41"></stop><stop offset=".896" stop-color="#bf4a50"></stop></linearGradient><linearGradient id="IconifyId-17ab498a166-cbb4b1-625" x1="7.851" y1="20.836" x2="7.851" y2="14.698" gradientUnits="userSpaceOnUse"><stop offset=".037" stop-color="#a92237"></stop><stop offset=".939" stop-color="#972235"></stop></linearGradient><linearGradient id="IconifyId-17ab498a166-cbb4b1-626" x1="13.133" y1="29.442" x2="13.133" y2="20.836" gradientUnits="userSpaceOnUse"><stop offset=".037" stop-color="#bc4245"></stop><stop offset=".939" stop-color="#a42136"></stop></linearGradient><linearGradient id="IconifyId-17ab498a166-cbb4b1-627" x1="19.212" y1="8.696" x2="19.212" y2="2.575" gradientUnits="userSpaceOnUse"><stop offset=".037" stop-color="#cc5057"></stop><stop offset=".896" stop-color="#b73840"></stop></linearGradient><linearGradient id="IconifyId-17ab498a166-cbb4b1-628" x1="21.776" y1="7.866" x2="24.376" y2="6.365" gradientUnits="userSpaceOnUse"><stop offset=".08" stop-color="#d4575f"></stop><stop offset=".945" stop-color="#b63540"></stop></linearGradient><linearGradient id="IconifyId-17ab498a166-cbb4b1-629" x1="22.256" y1="11.733" x2="26.484" y2="11.733" gradientUnits="userSpaceOnUse"><stop offset="0" stop-color="#c04b51"></stop><stop offset="1" stop-color="#b83a41"></stop></linearGradient><linearGradient id="IconifyId-17ab498a166-cbb4b1-630" x1="22.239" y1="17.79" x2="26.475" y2="17.79" gradientUnits="userSpaceOnUse"><stop offset="0" stop-color="#ba4044"></stop><stop offset="1" stop-color="#b4303c"></stop></linearGradient><linearGradient id="IconifyId-17ab498a166-cbb4b1-631" x1="21.349" y1="23.257" x2="24.603" y2="24.442" gradientUnits="userSpaceOnUse"><stop offset="0" stop-color="#972136"></stop><stop offset="1" stop-color="#9f2236"></stop></linearGradient><linearGradient id="IconifyId-17ab498a166-cbb4b1-632" x1="18.562" y1="21.3" x2="24.103" y2="27.904" gradientUnits="userSpaceOnUse"><stop offset=".037" stop-color="#b22c3a"></stop><stop offset=".939" stop-color="#c04d53"></stop></linearGradient><linearGradient id="IconifyId-17ab498a166-cbb4b1-633" x1="16.199" y1="29.443" x2="16.199" y2="23.313" gradientUnits="userSpaceOnUse"><stop offset=".037" stop-color="#b22c3a"></stop><stop offset=".939" stop-color="#9b2135"></stop></linearGradient><linearGradient id="IconifyId-17ab498a166-cbb4b1-634" x1="22.221" y1="6.635" x2="25.29" y2="6.635" gradientUnits="userSpaceOnUse"><stop offset=".037" stop-color="#fff"></stop><stop offset=".742" stop-color="#f4e6d9"></stop></linearGradient><linearGradient id="IconifyId-17ab498a166-cbb4b1-635" x1="17.162" y1="4.552" x2="22.113" y2="7.411" gradientUnits="userSpaceOnUse"><stop offset=".037" stop-color="#fff"></stop><stop offset=".896" stop-color="#f4e6d9"></stop></linearGradient></defs><path d="M27.007 26.836A3.163 3.163 0 0 1 23.844 30H4.993V5.164A3.164 3.164 0 0 1 8.156 2h18.851z" fill="#80152a"></path><path d="M26.5 26.539a2.876 2.876 0 0 1-2.945 2.945H5.5V5.461a2.876 2.876 0 0 1 2.946-2.944H26.5z" fill="url(#IconifyId-17ab498a166-cbb4b1-623)"></path><path fill="#8a2034" d="M10.099 2.541l.068 6.12l-4.548 1.523l4.48-7.643z"></path><path fill="url(#IconifyId-17ab498a166-cbb4b1-624)" d="M10.099 2.541l.068 6.12l6.002-2.502l-6.07-3.618z"></path><path fill="#ae2338" d="M7.614 14.698l2.553-6.037l-4.548 1.523l1.995 4.514z"></path><path fill="url(#IconifyId-17ab498a166-cbb4b1-625)" d="M7.614 14.698l2.519 6.138l-4.565-1.471l2.046-4.667z"></path><path fill="#8a2034" d="M10.108 29.442l.025-8.606l-4.565-1.471l4.54 10.077z"></path><path fill="#8c2033" d="M10.108 29.442l-4.54.001V19.365l4.54 10.077z"></path><path fill="url(#IconifyId-17ab498a166-cbb4b1-626)" d="M10.108 29.442l.025-8.606l6.025 2.479l-6.05 6.127z"></path><path fill="url(#IconifyId-17ab498a166-cbb4b1-627)" d="M22.188 2.575l.068 6.121l-6.087-2.537l6.019-3.584z"></path><path fill="url(#IconifyId-17ab498a166-cbb4b1-628)" d="M22.188 2.575l.068 6.121l4.228 1.505l-4.296-7.626z"></path><path fill="url(#IconifyId-17ab498a166-cbb4b1-629)" d="M24.737 14.77l-2.481-6.074l4.228 1.505l-1.747 4.569z"></path><path fill="url(#IconifyId-17ab498a166-cbb4b1-630)" d="M24.737 14.77l-2.498 6.04l4.236-1.513l-1.738-4.527z"></path><path fill="url(#IconifyId-17ab498a166-cbb4b1-631)" d="M22.29 29.426l-.051-8.616l4.236-1.513l-4.185 10.129z"></path><path fill="url(#IconifyId-17ab498a166-cbb4b1-632)" d="M22.29 29.426l-.051-8.616l-6.077 2.503l6.128 6.113z"></path><path fill="url(#IconifyId-17ab498a166-cbb4b1-633)" d="M22.29 29.426l-12.181.017l6.053-6.13l6.128 6.113z"></path><path d="M16.786 16.577l1.37.628l-.139-.976l-1.249-.672zM6.4 19.847l1.784.2l.389-1.658l-1.708-.3zm6.345-11.48l-1.17-.867l-.812 1.1l1.281.8zm3.576-2.9l-.748-.976l-1.052.621l.875.952zm3.855-.685l-.241-.8l-1.268-.1l.368.875zm4.287 1l-1.065-.761v.494l1.027.635zm-14.398 7.086l-1.458-.634l-.495 1.445l1.5.558zm7.26-.654l-.26.894l.939.863l.235-.831zm5.992-4l.78.038l.007-.362l-.812-.165zM20.075 5.2c-3.751-.186-10.466 3.369-11.43 17.631h9.2c-2.062-5.343-1.823-9.374-.405-12.106c2.062-3.973 5.132-4.236 8-2.561c.1-.241.241-.545.241-.545A7.821 7.821 0 0 0 20.075 5.2zm.275 2.96l.342.818l.634-.342l-.235-.755zm-2.08 1.858l.7.958l.431-.628l-.611-.948zm1.065 11.147l-.435-1.05l-1.592-.3l.419 1.2z" fill="#f7dee1"></path><path fill="#fff" d="M10.969 8.329l1.1-.46l-.494-.366l-.606.826z"></path><path fill="#fff" d="M15.392 6.059l.292-.189l-1.03-.614l.738.803z"></path><path fill="#d7c4c9" d="M6.862 18.089l-.413 1.56l.978.315l.753.086l.389-1.658l-1.707-.303z"></path><path d="M9.165 18.478q-.165.935-.292 1.952l1.26.406z" fill="#d7c4c9"></path><path fill="#c2c3c6" d="M6.449 19.649l-.052.198l1.03.117l-.978-.315z"></path><path d="M10.133 20.836l-1.26-.406a44.475 44.475 0 0 0-.228 2.4h1.482z" fill="#c2c3c6"></path><path fill="#ddc3c8" d="M10.127 22.831h4.854l-4.848-1.995l-.006 1.995z"></path><path d="M23.68 5.223l-.286-.2v.494l.689.426zm.77 1.368a7.094 7.094 0 0 0-2.229-1.069l.018 1.669a6.321 6.321 0 0 1 3.05.89zm-1.133 1.623l.78.038l.007-.362l-.812-.165z" fill="url(#IconifyId-17ab498a166-cbb4b1-634)"></path><path d="M22.221 5.522a9.532 9.532 0 0 0-2.146-.322a7.357 7.357 0 0 0-3.854.985l3.819 1.588a4.373 4.373 0 0 1 2.2-.581zm-2.05-.745l-.241-.8l-.087-.008l-.913.543l.1.237zm.5 3.258l.538.225l-.119-.382z" fill="url(#IconifyId-17ab498a166-cbb4b1-635)"></path><path d="M10.218 26.044v-.678A1.081 1.081 0 0 0 9.2 24.353H7.047v4.067h1.1v-1.184l.888 1.184h1.319l-1.032-1.37a1.1 1.1 0 0 0 .896-1.006zm-1.082.2h-1v-.82h1zm4.269-1.911h-1a1.074 1.074 0 0 0-1.023 1.057v3.01h1.082v-.794h.972v.794h1.1v-3.016a1.1 1.1 0 0 0-1.131-1.049zm.033 2.181h-.972v-1.09h.972zM23.5 25.8h-1.058v-.444H24.3v-1.005h-1.864a1.08 1.08 0 0 0-1.1 1.04v.431a1.1 1.1 0 0 0 1.091 1.065h.983v.494h-2v1.027h1.97a1.082 1.082 0 0 0 1.123-.982v-.539A1.056 1.056 0 0 0 23.5 25.8zm-4.433-1.458h-1.09v4.071H20.7v-1.089h-1.63zm-3.36 4.071H16.8v-4.069h-1.091z" fill="#fff"></path></svg>