<svg xmlns="http://www.w3.org/2000/svg" xmlns:xlink="http://www.w3.org/1999/xlink" aria-hidden="true" role="img" class="iconify iconify--vscode-icons" width="1em" height="1em" preserveAspectRatio="xMidYMid meet" viewBox="0 0 32 32"><path d="M6.534 13.451A9.827 9.827 0 0 1 11.1 7.5L9 3.856a14.036 14.036 0 0 0-6.522 8.5z" fill="#000"></path><path d="M13.464 6.529a9.837 9.837 0 0 1 2.529-.329V2a14.016 14.016 0 0 0-3.617.472z" fill="#000"></path><path d="M18.546 6.529a9.819 9.819 0 0 1 5.938 4.571L28.125 9a14.028 14.028 0 0 0-8.482-6.522z" fill="#000"></path><path d="M2.005 16a14.033 14.033 0 0 0 .472 3.617l4.057-1.088a9.77 9.77 0 0 1-.328-2.537h-4.2z" fill="#000"></path><path d="M3.878 23.006a14.036 14.036 0 0 0 2.217 2.9l2.969-2.969A9.969 9.969 0 0 1 7.5 20.909z" fill="#000"></path><path d="M9 28.127A13.9 13.9 0 0 0 15.985 30v-4.2a9.739 9.739 0 0 1-4.885-1.313z" fill="#000"></path><path d="M24.475 20.909a9.819 9.819 0 0 1-5.946 4.553l1.088 4.057a14.028 14.028 0 0 0 8.491-6.514z" fill="#000"></path><path d="M29.517 19.765a14.051 14.051 0 0 0 0-7.266l-4.065 1.088a9.809 9.809 0 0 1 0 5.09z" fill="#000"></path></svg>