<svg xmlns="http://www.w3.org/2000/svg" xmlns:xlink="http://www.w3.org/1999/xlink" aria-hidden="true" role="img" class="iconify iconify--vscode-icons" width="1em" height="1em" preserveAspectRatio="xMidYMid meet" viewBox="0 0 32 32"><path d="M22.038 2H6.375a1.755 1.755 0 0 0-1.75 1.75v24.5A1.755 1.755 0 0 0 6.375 30h19.25a1.755 1.755 0 0 0 1.75-1.75V6.856zm.525 2.844l1.663 1.531h-1.663zM6.375 28.25V3.75h14.438v4.375h4.813V28.25z" fill="#c2c2c2"></path><path fill="#829ec2" d="M8.125 15.097h13.076v1.75H8.125z"></path><path fill="#829ec2" d="M8.125 24.439h9.762v1.75H8.125z"></path><path fill="#829ec2" d="M8.125 19.763h15.75v1.75H8.125z"></path><path fill="#829ec2" d="M8.125 10.23h15.75v1.75H8.125z"></path></svg>