<svg xmlns="http://www.w3.org/2000/svg" xmlns:xlink="http://www.w3.org/1999/xlink" aria-hidden="true" role="img" class="iconify iconify--vscode-icons" width="1em" height="1em" preserveAspectRatio="xMidYMid meet" viewBox="0 0 32 32"><path d="M16.271 9.616a5.137 5.137 0 1 0 5.137 5.137a5.137 5.137 0 0 0-5.137-5.137zm0 7.379a2.231 2.231 0 1 1 2.229-2.231A2.231 2.231 0 0 1 16.271 17z" fill="#ffcf31"></path><path d="M16.271 20.176a5.423 5.423 0 1 1 5.423-5.423a5.429 5.429 0 0 1-5.423 5.423zm0-10.275a4.852 4.852 0 1 0 4.852 4.852A4.858 4.858 0 0 0 16.271 9.9zm0 7.379a2.517 2.517 0 1 1 2.517-2.517a2.52 2.52 0 0 1-2.517 2.518zm0-4.463a1.946 1.946 0 1 0 1.946 1.946a1.948 1.948 0 0 0-1.946-1.945z" fill="#e9ad0f"></path><path d="M16.582 9.616h-.623v-.361A4.364 4.364 0 0 0 11.6 4.9H2v-.626h9.6a4.987 4.987 0 0 1 4.982 4.982z" fill="#e9ad0f"></path><path d="M20.941 24.977a4.982 4.982 0 0 1-4.982-4.982V19.9h.623v.094a4.359 4.359 0 0 0 4.359 4.359h8.617v.623h-8.617z" fill="#e9ad0f"></path><path fill="#e9ad0f" d="M26.926 27.726l-.441-.44l2.634-2.634l-2.621-2.621l.441-.44L30 24.652l-3.074 3.074z"></path></svg>