<svg xmlns="http://www.w3.org/2000/svg" xmlns:xlink="http://www.w3.org/1999/xlink" aria-hidden="true" role="img" class="iconify iconify--vscode-icons" width="1em" height="1em" preserveAspectRatio="xMidYMid meet" viewBox="0 0 32 32"><path d="M14.98 25.994c3.57-.726 6.518-1.327 6.552-1.335l.062-.015l-3.37-4.615c-1.854-2.538-3.37-4.625-3.37-4.637s3.48-11.056 3.5-11.095c.007-.013 2.375 4.694 5.741 11.411l5.774 11.521l.044.088H8.491z" fill="#0089d6"></path><path d="M2.125 24.586c0-.006 1.588-3.18 3.529-7.053l3.529-7.041L13.3 6.52c2.262-2.185 4.119-3.976 4.126-3.979a.914.914 0 0 1-.066.192l-4.47 11.026l-4.39 10.83H5.311a142.95 142.95 0 0 1-3.186-.003z" fill="#0089d6"></path></svg>