<svg xmlns="http://www.w3.org/2000/svg" xmlns:xlink="http://www.w3.org/1999/xlink" aria-hidden="true" role="img" class="iconify iconify--vscode-icons" width="1em" height="1em" preserveAspectRatio="xMidYMid meet" viewBox="0 0 32 32"><path d="M29.913 20.149L23.481 9.03l-6.414 11.119z" fill="#fbac30"></path><path d="M29.913 20.149l-2.408-2.775h-8.022l-2.416 2.775z" fill="#12b17d"></path><path d="M23.481 24.33l4.024-6.956h-8.022z" fill="#bb255c"></path><path d="M8.309 19.138H5.258l-.3 1.02H2.345l2.923-7.939H8.3l2.922 7.939h-2.6zm-2.435-2h1.82l-.91-2.794zm3.768-4.916h2.729l1.709 5.339l1.709-5.339h2.729L15.6 20.158h-3.036l-2.922-7.939" fill="#000"></path><path d="M23.03 14.213l-.827.827l-.891-.938l1.93-1.883h1.35v4.769H23.03z" fill="#f1f4d4"></path></svg>