<svg xmlns="http://www.w3.org/2000/svg" xmlns:xlink="http://www.w3.org/1999/xlink" aria-hidden="true" role="img" class="iconify iconify--vscode-icons" width="1em" height="1em" preserveAspectRatio="xMidYMid meet" viewBox="0 0 32 32"><path fill="#4dabcf" d="M14.048 7.689L9.405 5.327L4.309 7.89l4.769 2.413l4.97-2.614z"></path><path fill="#4dabcf" d="M16.177 8.771l4.868 2.476l-5.051 2.556l-4.776-2.417l4.959-2.615z"></path><path fill="#4dabcf" d="M22.678 5.363l5.001 2.527l-4.472 2.263l-4.879-2.479l4.35-2.311z"></path><path fill="#4dabcf" d="M20.526 4.274L16.023 2L11.57 4.239l4.639 2.358l4.317-2.323z"></path><path fill="#4dabcf" d="M17.006 23.809V30l5.454-2.742l-.006-6.194l-5.448 2.745z"></path><path fill="#4dabcf" d="M22.452 18.903l-.006-6.129l-5.44 2.725v6.131l5.446-2.727z"></path><path fill="#4dabcf" d="M29 17.754v6.215l-4.652 2.339l-.003-6.186L29 17.754z"></path><path fill="#4dabcf" d="M29 15.581v-6.09l-4.661 2.335l.004 6.141L29 15.581z"></path><path d="M15.08 15.5l-3.674-1.861v8.045S6.913 12.05 6.5 11.185a.9.9 0 0 0-.331-.264C5.361 10.5 3 9.29 3 9.29V23.5l3.266 1.76v-7.428s4.445 8.607 4.49 8.7a4.026 4.026 0 0 0 .968 1.32c.635.423 3.357 2.073 3.357 2.073z" fill="#4d77cf"></path></svg>