<svg xmlns="http://www.w3.org/2000/svg" xmlns:xlink="http://www.w3.org/1999/xlink" aria-hidden="true" role="img" class="iconify iconify--vscode-icons" width="1em" height="1em" preserveAspectRatio="xMidYMid meet" viewBox="0 0 32 32"><path d="M16 5.5L5.5 16L16 26.5L26.5 16L16 5.5" fill="#f68712"></path><path d="M2 2l14 3.5L5.5 16L2 2" fill="#fab20b"></path><path d="M30 2l-3.5 14L16 5.5L30 2" fill="#f47216"></path><path d="M30 30l-14-3.5L26.5 16L30 30" fill="#f25c19"></path><path d="M2 30l3.5-14L16 26.5L2 30" fill="#f89c0e"></path><path d="M16 5.5L2 2h7l7 3.5" fill="#fbc707"></path><path d="M16 5.5L30 2h-7l-7 3.5" fill="#fbc707"></path><path d="M16 26.5L30 30h-7l-7-3.5" fill="#f68712"></path><path d="M16 26.5L2 30h7l7-3.5" fill="#f25c19"></path><path d="M5.5 16L2 30v-7l3.5-7" fill="#fff200"></path><path d="M5.5 16L2 2v7l3.5 7" fill="#fff200"></path><path d="M26.5 16L30 2v7l-3.5 7" fill="#f1471d"></path><path d="M26.5 16L30 30v-7l-3.5-7" fill="#f1471d"></path></svg>