<svg xmlns="http://www.w3.org/2000/svg" xmlns:xlink="http://www.w3.org/1999/xlink" aria-hidden="true" role="img" class="iconify iconify--vscode-icons" width="1em" height="1em" preserveAspectRatio="xMidYMid meet" viewBox="0 0 32 32"><defs><linearGradient id="IconifyId-17ab498a166-cbb4b1-307" x1="4.494" y1="-2092.086" x2="13.832" y2="-2075.914" gradientTransform="translate(0 2100)" gradientUnits="userSpaceOnUse"><stop offset="0" stop-color="#18884f"></stop><stop offset=".5" stop-color="#117e43"></stop><stop offset="1" stop-color="#0b6631"></stop></linearGradient></defs><path d="M19.581 15.35L8.512 13.4v14.409A1.192 1.192 0 0 0 9.705 29h19.1A1.192 1.192 0 0 0 30 27.809V22.5z" fill="#185c37"></path><path d="M19.581 3H9.705a1.192 1.192 0 0 0-1.193 1.191V9.5L19.581 16l5.861 1.95L30 16V9.5z" fill="#21a366"></path><path d="M8.512 9.5h11.069V16H8.512z" fill="#107c41"></path><path d="M16.434 8.2H8.512v16.25h7.922a1.2 1.2 0 0 0 1.194-1.191V9.391A1.2 1.2 0 0 0 16.434 8.2z" opacity=".1" fill="#000"></path><path d="M15.783 8.85H8.512V25.1h7.271a1.2 1.2 0 0 0 1.194-1.191V10.041a1.2 1.2 0 0 0-1.194-1.191z" opacity=".2" fill="#000"></path><path d="M15.783 8.85H8.512V23.8h7.271a1.2 1.2 0 0 0 1.194-1.191V10.041a1.2 1.2 0 0 0-1.194-1.191z" opacity=".2" fill="#000"></path><path d="M15.132 8.85h-6.62V23.8h6.62a1.2 1.2 0 0 0 1.194-1.191V10.041a1.2 1.2 0 0 0-1.194-1.191z" opacity=".2" fill="#000"></path><path d="M3.194 8.85h11.938a1.193 1.193 0 0 1 1.194 1.191v11.918a1.193 1.193 0 0 1-1.194 1.191H3.194A1.192 1.192 0 0 1 2 21.959V10.041A1.192 1.192 0 0 1 3.194 8.85z" fill="url(#IconifyId-17ab498a166-cbb4b1-307)"></path><path d="M5.7 19.873l2.511-3.884l-2.3-3.862h1.847L9.013 14.6c.116.234.2.408.238.524h.017c.082-.188.169-.369.26-.546l1.342-2.447h1.7l-2.359 3.84l2.419 3.905h-1.809l-1.45-2.711A2.355 2.355 0 0 1 9.2 16.8h-.024a1.688 1.688 0 0 1-.168.351l-1.493 2.722z" fill="#fff"></path><path d="M28.806 3h-9.225v6.5H30V4.191A1.192 1.192 0 0 0 28.806 3z" fill="#33c481"></path><path d="M19.581 16H30v6.5H19.581z" fill="#107c41"></path></svg>