<svg xmlns="http://www.w3.org/2000/svg" xmlns:xlink="http://www.w3.org/1999/xlink" aria-hidden="true" role="img" class="iconify iconify--vscode-icons" width="1em" height="1em" preserveAspectRatio="xMidYMid meet" viewBox="0 0 32 32"><rect x=".55" y="22.339" width="15.433" height="2.796" rx=".439" transform="rotate(-44.999 8.266 23.737)" fill="#b8d432"></rect><rect x="1.372" y="16.382" width="9.859" height="2.796" rx=".439" transform="rotate(-44.999 6.301 17.78)" fill="#b8d432"></rect><rect x="9.232" y="24.301" width="9.859" height="2.796" rx=".439" transform="rotate(-44.999 14.162 25.7)" fill="#b8d432"></rect><path fill="#0078d4" d="M30 2H2l28 27.999V2z"></path><path fill="#59b4d9" d="M10.282 10.282l11.436 11.436L30 13.436V2H18.564l-8.282 8.282z"></path><path fill="#fff" opacity=".2" d="M30 29.999V2L16 16l14 13.999z"></path><rect x="16.226" y="9.001" width="2.796" height="2.796" rx=".622" transform="rotate(-44.999 17.623 10.4)" fill="#fff"></rect><rect x="20.18" y="5.048" width="2.796" height="2.796" rx=".622" transform="rotate(-44.999 21.579 6.446)" fill="#fff"></rect><rect x="20.18" y="12.955" width="2.796" height="2.796" rx=".622" transform="rotate(-44.999 21.578 14.353)" fill="#fff"></rect><rect x="24.133" y="9.002" width="2.796" height="2.796" rx=".622" transform="rotate(-44.999 25.531 10.4)" fill="#fff"></rect></svg>