<svg xmlns="http://www.w3.org/2000/svg" xmlns:xlink="http://www.w3.org/1999/xlink" aria-hidden="true" role="img" class="iconify iconify--vscode-icons" width="1em" height="1em" preserveAspectRatio="xMidYMid meet" viewBox="0 0 32 32"><path d="M14.188 19.163l-2.967-5.218l-6.388 11.248A1.679 1.679 0 0 0 6.292 27.7h3.952a1.683 1.683 0 0 0 1.46-.85l2.482-4.371a3.366 3.366 0 0 0 .002-3.316z" fill="#95538e"></path><path d="M12.965 14.057a3.358 3.358 0 0 0 2.925 1.7h5.86L14.418 2.85A1.677 1.677 0 0 0 12.965 2h-3.96a1.679 1.679 0 0 0-1.679 1.678a1.661 1.661 0 0 0 .22.831z" fill="#95538e"></path><path d="M27.171 25.191l-3.528-6.262a3.355 3.355 0 0 0-2.927-1.712h-5.851l5.42 9.623a1.675 1.675 0 0 0 1.462.854h3.96a1.679 1.679 0 0 0 1.464-2.5z" fill="#95538e"></path><path d="M16.015 22.259l-2.234 3.87A2.58 2.58 0 0 0 16.015 30a2.58 2.58 0 0 0 2.235-3.871z" fill="#95538e"></path></svg>