<svg xmlns="http://www.w3.org/2000/svg" xmlns:xlink="http://www.w3.org/1999/xlink" aria-hidden="true" role="img" class="iconify iconify--vscode-icons" width="1em" height="1em" preserveAspectRatio="xMidYMid meet" viewBox="0 0 32 32"><defs><linearGradient id="IconifyId-17ab498a166-cbb4b1-309" x1="9.89" y1="15.04" x2="8.62" y2="14.37" gradientTransform="translate(0 2)" gradientUnits="userSpaceOnUse"><stop offset="0" stop-color="#a52a22"></stop><stop offset=".4" stop-color="#a52a22" stop-opacity=".5"></stop><stop offset=".8" stop-color="#a52a22" stop-opacity="0"></stop></linearGradient><linearGradient id="IconifyId-17ab498a166-cbb4b1-310" x1="15.29" y1="13.2" x2="14.71" y2="12.63" gradientTransform="translate(0 2)" gradientUnits="userSpaceOnUse"><stop offset="0" stop-color="#a52a22" stop-opacity=".8"></stop><stop offset=".5" stop-color="#a52a22" stop-opacity=".21"></stop><stop offset="1" stop-color="#a52a22" stop-opacity="0"></stop></linearGradient><linearGradient id="IconifyId-17ab498a166-cbb4b1-311" x1="5.35" y1="4.95" x2="26.62" y2="26.22" gradientTransform="translate(0 2)" gradientUnits="userSpaceOnUse"><stop offset="0" stop-color="#fff" stop-opacity=".1"></stop><stop offset="1" stop-color="#fff" stop-opacity="0"></stop></linearGradient><clipPath id="IconifyId-17ab498a166-cbb4b1-312"><path d="M23.62 8.26a.65.65 0 0 0-.74-.52a.57.57 0 0 0-.34.18l-3.31 3.31l-2.59-4.94A.62.62 0 0 0 15.8 6a.55.55 0 0 0-.27.27L14.13 9l-3.58-6.66a.64.64 0 0 0-.86-.26a.66.66 0 0 0-.32.46L5.89 24.59l9.21 5.16a1.82 1.82 0 0 0 1.86 0l9.34-5.16z" fill="none"></path></clipPath></defs><g clip-path="url(#IconifyId-17ab498a166-cbb4b1-312)"><path d="M5.89 24.59l3.49-22a.63.63 0 0 1 .71-.59a.61.61 0 0 1 .45.33L14.13 9l1.42-2.7a.63.63 0 0 1 .85-.3a.59.59 0 0 1 .27.27l9.62 18.31z" fill="#f9a01b"></path><path d="M17.7 2.16L.84.73v30.55l5.05-6.69z" opacity=".12" fill="url(#IconifyId-17ab498a166-cbb4b1-309)"></path><path d="M17.83 16L14.1 9L5.89 24.59z" fill="#f47d20"></path><path d="M.84.73h30.54v30.55H.84z" opacity=".2" fill="url(#IconifyId-17ab498a166-cbb4b1-310)"></path><path d="M26.29 24.59L23.62 8.26a.65.65 0 0 0-.74-.52a.57.57 0 0 0-.34.18L5.89 24.59l9.21 5.16a1.82 1.82 0 0 0 1.86 0z" fill="#ffcb2a"></path><path d="M23.62 8.26a.65.65 0 0 0-.74-.52a.57.57 0 0 0-.34.18l-3.31 3.31l-2.59-4.94A.62.62 0 0 0 15.8 6a.55.55 0 0 0-.27.27L14.13 9l-3.58-6.66a.64.64 0 0 0-.86-.26a.66.66 0 0 0-.32.46L5.89 24.59l.09.05l13.28-13.25l3.31-3.31a.64.64 0 0 1 .91 0a.61.61 0 0 1 .17.34L26.3 24.6zM5.89 24.57L9.38 2.7a.61.61 0 0 1 .7-.53a.61.61 0 0 1 .46.33l3.57 6.64l1.42-2.69a.63.63 0 0 1 .85-.28a.53.53 0 0 1 .27.28l2.55 4.83z" fill="#fff" fill-opacity=".2"></path><path d="M17 29.61a2 2 0 0 1-1.86 0L6 24.45v.14l9.21 5.16a1.84 1.84 0 0 0 1.87 0l9.33-5.16v-.14z" fill="#a52a22" opacity=".2"></path><path d="M23.62 8.26a.65.65 0 0 0-.74-.52a.57.57 0 0 0-.34.18l-3.31 3.31l-2.59-4.94A.62.62 0 0 0 15.8 6a.55.55 0 0 0-.27.27L14.13 9l-3.58-6.66a.64.64 0 0 0-.86-.26a.66.66 0 0 0-.32.46L5.89 24.59l9.21 5.16a1.82 1.82 0 0 0 1.86 0l9.34-5.16z" fill="url(#IconifyId-17ab498a166-cbb4b1-311)"></path></g><circle cx="23.75" cy="23.64" r="6.36" fill="#fff"></circle><path d="M23.75 20.46a3.18 3.18 0 1 0 3.18 3.18a3.17 3.17 0 0 0-3.16-3.18zm-.32 5.7a2.53 2.53 0 0 1-2.23-2.52a2.3 2.3 0 0 1 .07-.58l1.52 1.53v.32a.64.64 0 0 0 .64.64zm2.19-.83a.63.63 0 0 0-.6-.44h-.32V24a.32.32 0 0 0-.32-.32h-1.91V23h.63a.32.32 0 0 0 .33-.32v-.63h.64a.66.66 0 0 0 .63-.64v-.13a2.55 2.55 0 0 1 1.4 3.32a2.44 2.44 0 0 1-.47.75z" fill="#010101" fill-opacity=".54" fill-rule="evenodd"></path></svg>