<svg xmlns="http://www.w3.org/2000/svg" xmlns:xlink="http://www.w3.org/1999/xlink" aria-hidden="true" role="img" class="iconify iconify--vscode-icons" width="1em" height="1em" preserveAspectRatio="xMidYMid meet" viewBox="0 0 32 32"><path d="M27.4 5.5h-9.2l-2.1 4.2H4.3v16.8h25.2v-21zm0 18.7H6.6V11.8h20.8zm0-14.5h-8.2l1-2.1h7.1v2.1z" fill="#dda27a"></path><path fill="#dda27a" d="M25.7 13.7H.5l3.8 12.8h25.2l-3.8-12.8z"></path><path d="M13.065 26.488l-.383-.365v-.753a4.479 4.479 0 0 0 5.557 0v.753l-.383.365a3.471 3.471 0 0 1-4.791 0z" fill="#59c2f2"></path><path d="M12.682 23.9V13a4.029 4.029 0 0 0 5.557 0v10.9l-.383.365a3.471 3.471 0 0 1-4.791 0zm1.111-6.455h3.334v-1.111h-3.334z" fill="#59c2f2"></path><path d="M15.46 28.559a4.566 4.566 0 0 1-2.778-.966v2.077a4.029 4.029 0 0 0 5.557 0v-2.077a4.567 4.567 0 0 1-2.779.966z" fill="#59c2f2"></path><path d="M23.968 26.488l.383-.365v-.753a4.479 4.479 0 0 1-5.557 0v.753l.383.365a3.471 3.471 0 0 0 4.791 0z" fill="#8abf4f"></path><path d="M18.794 23.9V13a4.029 4.029 0 0 0 5.557 0v10.9l-.383.365a3.471 3.471 0 0 1-4.791 0zm1.111-6.455h3.335v-1.111h-3.334z" fill="#8abf4f"></path><path d="M21.573 28.559a4.566 4.566 0 0 1-2.778-.966v2.077a4.029 4.029 0 0 0 5.557 0v-2.077a4.567 4.567 0 0 1-2.779.966z" fill="#8abf4f"></path><path d="M30.081 26.488l.383-.365v-.753a4.479 4.479 0 0 1-5.557 0v.753l.383.365a3.471 3.471 0 0 0 4.791 0z" fill="#b533a5"></path><path d="M24.907 23.9V13a4.029 4.029 0 0 0 5.557 0v10.9l-.383.365a3.471 3.471 0 0 1-4.791 0zm1.111-6.455h3.334v-1.111h-3.334z" fill="#b533a5"></path><path d="M27.685 28.559a4.565 4.565 0 0 1-2.778-.966v2.077a4.029 4.029 0 0 0 5.557 0v-2.077a4.567 4.567 0 0 1-2.779.966z" fill="#b533a5"></path></svg>