<svg xmlns="http://www.w3.org/2000/svg" xmlns:xlink="http://www.w3.org/1999/xlink" aria-hidden="true" role="img" class="iconify iconify--vscode-icons" width="1em" height="1em" preserveAspectRatio="xMidYMid meet" viewBox="0 0 32 32"><defs><linearGradient id="IconifyId-17ab498a166-cbb4b1-529" x1="-78" y1="525" x2="-78" y2="553" gradientTransform="translate(94 -523)" gradientUnits="userSpaceOnUse"><stop offset="0" stop-color="#21c6b7"></stop><stop offset="1" stop-color="#4c9bbf"></stop></linearGradient></defs><path d="M22.292 11.717h-.01a.033.033 0 0 1-.017-.01a.08.08 0 0 1-.02-.068l.565-3.451l2.651 2.648L22.7 12a.069.069 0 0 1-.024.005h-.006s-.007 0-.014-.011a1.267 1.267 0 0 0-.364-.277zm3.844-.21l2.834 2.831c.589.588.883.882.991 1.222a1.355 1.355 0 0 1 .039.152l-6.772-2.864h-.011c-.027-.011-.059-.024-.059-.052s.032-.041.059-.052h.008zm3.748 5.114a5.3 5.3 0 0 1-.914 1.042l-3.194 3.19l-4.132-.86h-.022c-.036-.006-.076-.012-.076-.046a1.249 1.249 0 0 0-.479-.871c-.017-.017-.012-.043-.008-.068v-.01l.778-4.766v-.016c0-.036.011-.079.045-.079a1.265 1.265 0 0 0 .848-.486a.064.064 0 0 1 .02-.02a.1.1 0 0 1 .075.01zm-4.843 4.966l-5.253 5.248l.9-5.521v-.028c.007-.018.026-.025.045-.033h.009a1.355 1.355 0 0 0 .508-.377a.12.12 0 0 1 .066-.045a.074.074 0 0 1 .021 0zm-6.365 6.358l-.592.592l-6.546-9.451l-.008-.01a.063.063 0 0 1-.019-.044a.066.066 0 0 1 .016-.032l.007-.009c.02-.029.037-.058.056-.09l.015-.025a.1.1 0 0 1 .038-.043a.08.08 0 0 1 .053 0l7.253 1.494a.127.127 0 0 1 .056.024a.059.059 0 0 1 .014.031v.014a1.282 1.282 0 0 0 .749.844c.02.01.011.033 0 .057a.213.213 0 0 0-.011.033c-.087.553-.871 5.327-1.081 6.615zm-1.237 1.235a2.739 2.739 0 0 1-.985.752a1.459 1.459 0 0 1-.882 0c-.341-.108-.635-.4-1.224-.99l-6.574-6.567l1.717-2.661a.105.105 0 0 1 .029-.034a.078.078 0 0 1 .067 0a1.736 1.736 0 0 0 .521.077a1.786 1.786 0 0 0 .676-.137a.052.052 0 0 1 .055 0a.241.241 0 0 1 .021.024zm-10.3-7.438l-1.507-1.507l2.979-1.269a.069.069 0 0 1 .024 0c.025 0 .039.025.053.048l.01.016c.028.043.057.081.085.118l.009.012c.008.012 0 .024-.006.037zm-2.174-2.173l-1.908-1.906c-.325-.324-.56-.559-.723-.762l5.8 1.2h.022c.036.006.076.012.076.046s-.043.053-.08.068l-.017.007zM2 15.921a1.5 1.5 0 0 1 .066-.362c.108-.34.4-.634.991-1.222L5.5 11.9c.4.59 3.061 4.426 3.371 4.87l.01.013c.02.027.042.056.02.078a2 2 0 0 0-.289.385a.122.122 0 0 1-.036.045a.041.041 0 0 1-.031 0zm4.152-4.675l3.283-3.28c.309.135 1.432.609 2.436 1.033c.761.321 1.454.614 1.671.707a.08.08 0 0 1 .051.04a.073.073 0 0 1 0 .044a1.532 1.532 0 0 0-.033.315a1.46 1.46 0 0 0 .416 1.02c.022.021 0 .053-.019.081l-.01.015l-3.333 5.158a.108.108 0 0 1-.031.036a.081.081 0 0 1-.063 0a1.656 1.656 0 0 0-.4-.054a2.2 2.2 0 0 0-.381.046a.044.044 0 0 1-.039 0a.146.146 0 0 1-.033-.037zM10.1 7.3l4.251-4.246c.589-.588.883-.882 1.224-.99a1.459 1.459 0 0 1 .882 0c.341.108.635.4 1.224.99l.921.92l-3.025 4.681a.127.127 0 0 1-.03.035a.08.08 0 0 1-.066 0a1.652 1.652 0 0 0-.459-.065a1.533 1.533 0 0 0-.945.336c-.02.019-.049.007-.074 0c-.395-.175-3.466-1.472-3.903-1.661zm9.143-2.685l2.792 2.789l-.672 4.16v.011a.082.082 0 0 1-.006.028c-.007.015-.021.018-.036.021h-.016a1.329 1.329 0 0 0-.385.195l-.014.013a.043.043 0 0 1-.03.018a.065.065 0 0 1-.031-.005l-4.253-1.805h-.009c-.027-.011-.059-.024-.059-.052a1.6 1.6 0 0 0-.217-.653l-.009-.015c-.021-.034-.043-.069-.026-.1zM16.367 10.9l3.987 1.687a.092.092 0 0 1 .055.042a.072.072 0 0 1 0 .041a1.045 1.045 0 0 0-.021.192v.112c0 .027-.029.039-.055.05h-.009c-.631.269-8.868 3.777-8.88 3.777a.048.048 0 0 1-.038-.012c-.022-.021 0-.053.019-.081l.01-.015l3.277-5.067l.006-.009c.019-.031.041-.065.076-.065l.033.005a1.4 1.4 0 0 0 .206.02a1.483 1.483 0 0 0 1.236-.655a.113.113 0 0 1 .024-.029a.078.078 0 0 1 .074.007zM11.8 17.611l8.977-3.824a.037.037 0 0 1 .025.013a1.372 1.372 0 0 0 .13.112l.02.013c.018.011.037.022.038.041v.018l-.77 4.716v.019c0 .037-.01.079-.045.079a1.262 1.262 0 0 0-1 .618v.006a.1.1 0 0 1-.037.042a.088.088 0 0 1-.051 0l-7.159-1.475s-.12-.377-.128-.378z" fill="url(#IconifyId-17ab498a166-cbb4b1-529)"></path></svg>