<svg xmlns="http://www.w3.org/2000/svg" xmlns:xlink="http://www.w3.org/1999/xlink" aria-hidden="true" role="img" class="iconify iconify--vscode-icons" width="1em" height="1em" preserveAspectRatio="xMidYMid meet" viewBox="0 0 32 32"><path d="M27.5 5.5h-9.3l-2.1 4.2H4.4v16.8h25.2v-21zm0 4.2h-8.2l1.1-2.1h7.1z" fill="#bf5555"></path><path d="M14.2 18.428a4.2 4.2 0 1 1 4.2-4.2a4.2 4.2 0 0 1-4.2 4.2zm0-6a1.8 1.8 0 1 0 1.8 1.8a1.8 1.8 0 0 0-1.8-1.797z" fill="#40e81c"></path><path d="M26.8 25.38a4.2 4.2 0 1 1 4.2-4.2a4.2 4.2 0 0 1-4.2 4.2zm0-6a1.8 1.8 0 1 0 1.8 1.8a1.8 1.8 0 0 0-1.8-1.797z" fill="#1c91e8"></path><path d="M16.187 31a4.2 4.2 0 1 1 4.2-4.2a4.2 4.2 0 0 1-4.2 4.2zm0-6a1.8 1.8 0 1 0 1.8 1.8a1.8 1.8 0 0 0-1.8-1.8z" fill="#eada1b"></path><path d="M14.19 19.094a5.689 5.689 0 0 1-.645-.015l.519 3.306a4.939 4.939 0 0 1 2.1-.475a5.542 5.542 0 0 1 .668.042l-.517-3.3a4.936 4.936 0 0 1-2.125.442z" fill="#474756"></path><path d="M22 22.158l-2.321 1.22a4.979 4.979 0 0 1 1.307 2.475l2.337-1.229A5.066 5.066 0 0 1 22 22.158z" fill="#474756"></path><path d="M23.359 17.7l-4.38-2.422a4.889 4.889 0 0 1-1.355 2.448l4.388 2.432a5.05 5.05 0 0 1 1.347-2.458z" fill="#474756"></path></svg>