<svg xmlns="http://www.w3.org/2000/svg" xmlns:xlink="http://www.w3.org/1999/xlink" aria-hidden="true" role="img" class="iconify iconify--vscode-icons" width="1em" height="1em" preserveAspectRatio="xMidYMid meet" viewBox="0 0 32 32"><defs><linearGradient id="IconifyId-17ab498a166-cbb4b1-178" x1="-73.299" y1="-36.757" x2="-69.112" y2="-40.601" gradientTransform="matrix(7.886 0 0 -8.589 578.084 -327.095)" gradientUnits="userSpaceOnUse"><stop offset="0" stop-color="#c06fbb"></stop><stop offset="1" stop-color="#6e4d9b"></stop></linearGradient><linearGradient id="IconifyId-17ab498a166-cbb4b1-179" x1="-75.72" y1="-29.976" x2="-76.857" y2="-28.423" gradientTransform="matrix(15.701 0 0 -16.956 1213.064 -480.525)" gradientUnits="userSpaceOnUse"><stop offset="0" stop-color="#6e4d9b"></stop><stop offset=".14" stop-color="#77327a"></stop><stop offset=".29" stop-color="#b31777"></stop><stop offset=".84" stop-color="#cd0f7e"></stop><stop offset="1" stop-color="#ed2c89"></stop></linearGradient><linearGradient id="IconifyId-17ab498a166-cbb4b1-180" x1="-74.781" y1="-34.695" x2="-70.958" y2="-40.015" gradientTransform="matrix(8.637 0 0 -7.94 632.817 -284.546)" xlink:href="#IconifyId-17ab498a166-cbb4b1-178"></linearGradient><linearGradient id="IconifyId-17ab498a166-cbb4b1-181" x1="-3.96" y1="41.901" x2="31.012" y2="13.213" xlink:href="#IconifyId-17ab498a166-cbb4b1-178"></linearGradient><linearGradient id="IconifyId-17ab498a166-cbb4b1-182" x1="-72.241" y1="-41.388" x2="-69.334" y2="-43.773" gradientTransform="matrix(6.504 0 0 -6.517 478.263 -265.393)" xlink:href="#IconifyId-17ab498a166-cbb4b1-178"></linearGradient><linearGradient id="IconifyId-17ab498a166-cbb4b1-183" x1="-74.154" y1="-34.519" x2="-70.411" y2="-37.816" gradientTransform="matrix(10.02 0 0 -10.013 732.69 -346.247)" xlink:href="#IconifyId-17ab498a166-cbb4b1-178"></linearGradient><linearGradient id="IconifyId-17ab498a166-cbb4b1-184" x1="-74.562" y1="-31.575" x2="-75.704" y2="-30.013" gradientTransform="matrix(15.678 0 0 -16.922 1195.287 -503.63)" xlink:href="#IconifyId-17ab498a166-cbb4b1-179"></linearGradient><linearGradient id="IconifyId-17ab498a166-cbb4b1-185" x1="-73.124" y1="-36.529" x2="-68.938" y2="-41.164" gradientTransform="matrix(7.887 0 0 -8.589 578.148 -327.094)" xlink:href="#IconifyId-17ab498a166-cbb4b1-178"></linearGradient><linearGradient id="IconifyId-17ab498a166-cbb4b1-186" x1="-78.108" y1="-25.063" x2="-77.58" y2="-24.54" gradientTransform="matrix(37.627 7.508 7.477 -37.474 3130.474 -328.745)" gradientUnits="userSpaceOnUse"><stop offset="0" stop-color="#6e4d9b"></stop><stop offset=".14" stop-color="#77327a"></stop><stop offset=".53" stop-color="#b31777"></stop><stop offset=".79" stop-color="#cd0f7e"></stop><stop offset="1" stop-color="#ed2c89"></stop></linearGradient></defs><path d="M20.336 7.408l-2.6 1.734l-2.676-4.011l2.6-1.734l2.677 4.012z" fill="url(#IconifyId-17ab498a166-cbb4b1-178)"></path><path d="M22.449 19.461l4.44 6.654l-5.289 3.529l-4.44-6.654l-.775-1.161l5.289-3.53l.775 1.161z" fill="url(#IconifyId-17ab498a166-cbb4b1-179)"></path><path d="M15.787 23.907l.978 1.465l-4.026 2.687l-1.752-2.626l.88-.587l3.147-2.1l.775 1.161z" fill="url(#IconifyId-17ab498a166-cbb4b1-180)"></path><path fill="url(#IconifyId-17ab498a166-cbb4b1-181)" d="M24.648 16.316l1.129-.754l1.752 2.626l-2.599 1.734l-.977-1.465l1.47-.981l-.775-1.16z"></path><path fill="url(#IconifyId-17ab498a166-cbb4b1-182)" d="M23.953 18.457l-.775-1.161l1.47-.98l.775 1.16l-1.47.981z"></path><path d="M6.424 16.692l-.879.587l-2.677-4.012l4.026-2.687l1.876 2.813l-3.146 2.1l3.146-2.1l.8 1.2l-3.147 2.1z" fill="url(#IconifyId-17ab498a166-cbb4b1-183)"></path><path d="M15.432 8.947l.8 1.2l-5.289 3.53l-.8-1.2l-4.4-6.591l5.289-3.53l4.4 6.591z" fill="url(#IconifyId-17ab498a166-cbb4b1-184)"></path><path d="M19.207 8.162l-1.47.981l-.8-1.2l-1.877-2.812l2.6-1.734l2.677 4.012l-1.129.754z" fill="url(#IconifyId-17ab498a166-cbb4b1-185)"></path><path d="M12.64 26.006l-.775-1.161l3.147-2.1l.775 1.161l-3.146 2.1z" fill="#714896"></path><path d="M23.953 18.457l-.775-1.157l1.47-.981l.775 1.161l-1.47.981z" fill="#6f4795"></path><path d="M6.424 16.692l-.8-1.2l3.146-2.1l.8 1.2l-3.147 2.1z" fill="#88519f"></path><path d="M17.737 9.143l-.8-1.2l1.47-.981l.8 1.2l-1.47.981z" fill="#85509e"></path><path d="M22.449 19.461l-5.289 3.53l-.775-1.161l5.289-3.53l.775 1.161z" fill="#8d166a"></path><path d="M15.432 8.947l.8 1.2l-5.289 3.53l-.8-1.2l5.289-3.53z" fill="#a70d6f"></path><path fill="#9e61ad" d="M3.428 8.987l1.496-.999l.999 1.497l-1.496.998z"></path><path fill="#8053a3" d="M8.82 26.921l1.497-.998l.998 1.496l-1.496.999z"></path><path d="M6.38 27.43L2 20.813L25.407 5.157L30 11.668L6.38 27.43z" fill="url(#IconifyId-17ab498a166-cbb4b1-186)"></path></svg>