<svg xmlns="http://www.w3.org/2000/svg" xmlns:xlink="http://www.w3.org/1999/xlink" aria-hidden="true" role="img" class="iconify iconify--vscode-icons" width="1em" height="1em" preserveAspectRatio="xMidYMid meet" viewBox="0 0 32 32"><path d="M16.129 2a12.348 12.348 0 0 0-2.35 24.465V30c7.371-1.114 13.9-6.982 14.384-14.684a12.8 12.8 0 0 0-5.9-11.667a10.27 10.27 0 0 0-1.411-.707c-.079-.033-.156-.063-.235-.094c-.216-.08-.435-.17-.658-.236A12.188 12.188 0 0 0 16.129 2z" fill="#00a818"></path><path d="M18.68 6.563a1.345 1.345 0 0 0-1.178.472a5.493 5.493 0 0 0-.518.9a2.9 2.9 0 0 0 .377 3.023A3.317 3.317 0 0 0 19.763 9A2.388 2.388 0 0 0 20 8a1.411 1.411 0 0 0-1.32-1.437zm-5.488.071A1.441 1.441 0 0 0 11.85 8a2.388 2.388 0 0 0 .235 1a3.427 3.427 0 0 0 2.473 1.96a3.141 3.141 0 0 0-.212-3.85a1.322 1.322 0 0 0-1.154-.472zm-3.7 3.637a1.3 1.3 0 0 0-.73 2.338a5.663 5.663 0 0 0 .895.543a3.386 3.386 0 0 0 3.179-.307a3.492 3.492 0 0 0-2.049-2.338a2.69 2.69 0 0 0-1.06-.236a1.369 1.369 0 0 0-.236 0zm11.611 4.582a3.44 3.44 0 0 0-1.955.567a3.492 3.492 0 0 0 2.052 2.338a2.69 2.69 0 0 0 1.06.236a1.329 1.329 0 0 0 .966-2.362a5.47 5.47 0 0 0-.895-.52a3.247 3.247 0 0 0-1.225-.26zm-10.292.071a3.247 3.247 0 0 0-1.225.26a2.575 2.575 0 0 0-.895.543a1.34 1.34 0 0 0 1.039 2.338a2.426 2.426 0 0 0 1.06-.236a3.185 3.185 0 0 0 1.955-2.338a3.366 3.366 0 0 0-1.931-.567zm3.815 2.314a3.317 3.317 0 0 0-2.4 1.96a2.286 2.286 0 0 0-.236.968a1.4 1.4 0 0 0 2.426.992a5.492 5.492 0 0 0 .518-.9a3.109 3.109 0 0 0-.306-3.023zm2.8.071a3.141 3.141 0 0 0 .212 3.85a1.47 1.47 0 0 0 2.5-.9a2.388 2.388 0 0 0-.236-.992a3.427 3.427 0 0 0-2.473-1.96z" fill="#fff"></path></svg>