<svg xmlns="http://www.w3.org/2000/svg" xmlns:xlink="http://www.w3.org/1999/xlink" aria-hidden="true" role="img" class="iconify iconify--vscode-icons" width="1em" height="1em" preserveAspectRatio="xMidYMid meet" viewBox="0 0 32 32"><path d="M16 2a9.3 9.3 0 0 0-9.428 9.17a2.656 2.656 0 0 0 5.312 0A4.027 4.027 0 0 1 16 7.24A2.62 2.62 0 1 0 16 2z" fill="#e73536" opacity=".8"></path><path d="M25.432 11.17A9.3 9.3 0 0 0 16 2a2.62 2.62 0 1 0 0 5.24a4.027 4.027 0 0 1 4.117 3.93a2.656 2.656 0 0 0 5.312 0z" fill="#938b98" opacity=".7"></path><path d="M16 30a9.3 9.3 0 0 0 9.428-9.17a2.656 2.656 0 0 0-5.312 0A4.027 4.027 0 0 1 16 24.76A2.62 2.62 0 1 0 16 30z" fill="#e73536" opacity=".8"></path><path d="M6.568 20.83A9.3 9.3 0 0 0 16 30a2.62 2.62 0 1 0 0-5.24a4.027 4.027 0 0 1-4.117-3.93a2.656 2.656 0 0 0-5.312 0z" fill="#938b98" opacity=".7"></path><path d="M7.693 13.36l13.552 9.664a2.637 2.637 0 0 0 3.7-.645a2.7 2.7 0 0 0-.639-3.74L10.755 8.975a2.637 2.637 0 0 0-3.7.645a2.7 2.7 0 0 0 .638 3.74z" fill="#4c3e54" opacity=".7"></path></svg>