<svg xmlns="http://www.w3.org/2000/svg" xmlns:xlink="http://www.w3.org/1999/xlink" aria-hidden="true" role="img" class="iconify iconify--vscode-icons" width="1em" height="1em" preserveAspectRatio="xMidYMid meet" viewBox="0 0 512 512"><path d="M41 0h430a41 41 0 0 1 41 41v430a41 41 0 0 1-41 41H41a41 41 0 0 1-41-41V41A41 41 0 0 1 41 0zm292.085 174.674c-.908-15.974-.972-32.987-.369-50.16H170.8c12.03 21.782 10.844 24.8 12.167 62.274v129.4c-.691 48.1-2.93 56.094-12.167 71.3h165.6c.915-19.388 2.523-40.337 4.795-62.7c-13.643 19.912-19.544 30.612-65.278 30.612h-39.465v-83.725h34.3c39.382-.676 45.53 11 53.849 16.966a454.232 454.232 0 0 1 0-65.282c-16.255 14.68-26.684 15.844-53.849 16.6h-34.3V156.6H279.6c25.516.3 40.131 4.474 53.485 18.074z" fill="#d8563a"></path></svg>