<svg xmlns="http://www.w3.org/2000/svg" xmlns:xlink="http://www.w3.org/1999/xlink" aria-hidden="true" role="img" class="iconify iconify--vscode-icons" width="1em" height="1em" preserveAspectRatio="xMidYMid meet" viewBox="0 0 32 32"><path d="M20.467 29.288l9.485-26.375a.5.5 0 0 0-.566-.728l-7.459.715a1.464 1.464 0 0 0-1.141.9l-8.779 25.206a.573.573 0 0 0 .578.813h7.26a.657.657 0 0 0 .577-.4z" fill="#536b8a"></path><path d="M2.614 2.185l7.459.719a1.466 1.466 0 0 1 1.142.9l8.965 25.609a.286.286 0 0 1-.289.406h-7.306a1.311 1.311 0 0 1-1.152-.81L2.048 2.913a.5.5 0 0 1 .566-.728z" fill="#5d87bf"></path></svg>