<svg xmlns="http://www.w3.org/2000/svg" xmlns:xlink="http://www.w3.org/1999/xlink" aria-hidden="true" role="img" class="iconify iconify--vscode-icons" width="1em" height="1em" preserveAspectRatio="xMidYMid meet" viewBox="0 0 32 32"><path d="M27.4 5.5h-9.2l-2.1 4.2H4.3v4H.5l3.8 12.8h25.2v-21zm-7.2 2.1h7.1v2.1h-8.1zm5.5 6.1H6.6v-1.9h20.8v7.626z" fill="#7b8bdb"></path><path d="M30.53 28.808h-3.457v-8.29a.253.253 0 0 0-.252-.253H14.35a.253.253 0 0 0-.252.253v8.29H10.47a.47.47 0 0 0-.47.47v1.252a.469.469 0 0 0 .47.47h20.06a.469.469 0 0 0 .47-.47v-1.252a.47.47 0 0 0-.47-.47z" fill="#0d2192"></path><path d="M10.47 31h6.03v-1.6h2.4v-9.135h-4.55a.253.253 0 0 0-.252.253v8.29H10.47a.47.47 0 0 0-.47.47v1.252a.469.469 0 0 0 .47.47z" fill="#20329b"></path></svg>