<svg xmlns="http://www.w3.org/2000/svg" xmlns:xlink="http://www.w3.org/1999/xlink" aria-hidden="true" role="img" class="iconify iconify--vscode-icons" width="1em" height="1em" preserveAspectRatio="xMidYMid meet" viewBox="0 0 32 32"><path d="M16.621 2.326h1.9v2.547c2.976.114 5.988-.242 8.942.2c.1.337.216.671.328 1c.75.134 1.959.041 2.077 1.059a28.973 28.973 0 0 1-.048 5.606a22.957 22.957 0 0 1-.057 5.962a21.112 21.112 0 0 1 .1 5.52c-.137.989-1.31.919-2.051 1.059a4.73 4.73 0 0 1-.378 1.549a3.8 3.8 0 0 1-1.921.3c-2.331-.022-4.662-.013-6.99-.013v2.547h-1.991C11.7 28.787 6.846 27.976 2 27.13V4.876c4.875-.849 9.75-1.682 14.621-2.55z" fill="#733781"></path><path d="M18.523 5.821h8.271v1.266c.731 0 1.463.016 2.2.048c.041 1.673.057 3.345-.013 5.018c-.728.025-1.46.038-2.185.041v13.985h-8.271v-2.55h6.042v-1.266h-6.042v-1.6h6.042v-1.266h-6.042V17.9h6.042v-1.266h-6.042v-1.6h6.039v-1.266h-6.042v-1.6h6.042v-1.266h-6.042v-1.6h6.042V8.036h-6.042V5.821z" fill="#fff"></path><path d="M11.826 10.667c.633-.035 1.269-.07 1.908-.1V21.1c-.687-.029-1.367-.067-2.048-.1c-1.266-2.433-2.636-4.811-3.86-7.266c.07 2.353.029 4.71.035 7.063c-.579-.038-1.151-.073-1.727-.108q.014-4.846 0-9.7l1.965-.1c1.243 2.277 2.506 4.544 3.714 6.843c.026-2.355 0-4.712.013-7.065z" fill="#fff"></path><path d="M27.742 13.122c.413.016.827.035 1.243.054a65.438 65.438 0 0 1-.01 5.012c-.413.019-.824.038-1.234.054q-.004-2.562.001-5.12z" fill="#fff"></path><path d="M27.742 19.161c.413.019.83.041 1.25.064a89.23 89.23 0 0 1 0 4.989l-1.25.076q-.005-2.566 0-5.129z" fill="#fff"></path></svg>