<svg xmlns="http://www.w3.org/2000/svg" xmlns:xlink="http://www.w3.org/1999/xlink" aria-hidden="true" role="img" class="iconify iconify--vscode-icons" width="1em" height="1em" preserveAspectRatio="xMidYMid meet" viewBox="0 0 32 32"><path d="M12.761 13.89l6.644 3.027l6.7-5.874a7.017 7.017 0 0 0 .141-1.475a7.484 7.484 0 0 0-13.66-4.233l-1.12 5.785z" fill="#fed10a"></path><path d="M5.886 20.919a7.262 7.262 0 0 0-.141 1.5a7.514 7.514 0 0 0 13.724 4.22l1.1-5.759l-1.469-2.821l-6.67-3.04z" fill="#24bbb1"></path><path d="M5.848 9.426L10.4 10.5l1-5.169a3.594 3.594 0 0 0-5.552 4.095" fill="#ef5098"></path><path d="M5.45 10.517a5.016 5.016 0 0 0-.218 9.453l6.388-5.77l-1.167-2.5z" fill="#17a8e0"></path><path d="M20.624 26.639a3.589 3.589 0 0 0 5.541-4.092l-4.541-1.065z" fill="#93c83e"></path><path d="M21.547 20.29l5 1.167A5.016 5.016 0 0 0 26.768 12l-6.541 5.733z" fill="#0779a1"></path></svg>