<svg xmlns="http://www.w3.org/2000/svg" xmlns:xlink="http://www.w3.org/1999/xlink" aria-hidden="true" role="img" class="iconify iconify--vscode-icons" width="1em" height="1em" preserveAspectRatio="xMidYMid meet" viewBox="0 0 32 32"><defs><linearGradient id="IconifyId-17ab498a166-cbb4b1-791" x1="15.912" y1="25.739" x2="21.015" y2="14.942" gradientUnits="userSpaceOnUse"><stop offset="0" stop-color="#1011a1"></stop><stop offset="1" stop-color="#6969e1"></stop></linearGradient><linearGradient id="IconifyId-17ab498a166-cbb4b1-792" x1="20.675" y1="17.727" x2="27.799" y2="29.772" gradientUnits="userSpaceOnUse"><stop offset="0" stop-color="#b40e0e"></stop><stop offset="1" stop-color="#ff5959"></stop></linearGradient><linearGradient id="IconifyId-17ab498a166-cbb4b1-793" x1="24.797" y1="28.981" x2="14.718" y2="28.135" gradientUnits="userSpaceOnUse"><stop offset="0" stop-color="#01a300"></stop><stop offset="1" stop-color="#01df00"></stop></linearGradient><linearGradient id="IconifyId-17ab498a166-cbb4b1-794" x1="19.472" y1="26.291" x2="19.342" y2="21.908" gradientUnits="userSpaceOnUse"><stop offset="0" stop-color="#848484"></stop><stop offset="1" stop-color="#d2d2d2"></stop></linearGradient></defs><path d="M27.9 6h-9.8l-2 4H5v17h25V6zm.1 4h-7.8l1-2H28z" fill="#c09553"></path><path d="M21.453 21.2l-11.391 9.733L20.5 10.091z" fill="url(#IconifyId-17ab498a166-cbb4b1-791)"></path><path d="M10.078 30.951l-.038-.029L20.518 10l.007.089l.954 11.122l-.009.008zm10.4-20.77L10.14 30.833l11.287-9.644z" fill="#000"></path><path d="M21.981 27.277L20.5 10.089l10.446 20.846z" fill="url(#IconifyId-17ab498a166-cbb4b1-792)"></path><path d="M31 30.982l-.061-.024l-8.981-3.658v-.016l-1.483-17.193l.047-.013zm-8.995-3.722l8.89 3.627l-10.359-20.67z" fill="#000"></path><path d="M16.827 25.124l14.13 5.809H10.065z" fill="url(#IconifyId-17ab498a166-cbb4b1-793)"></path><path d="M30.957 30.958H10l.051-.044l6.771-5.814l.015.006l14.13 5.808zm-20.825-.051h20.7l-14-5.754z" fill="#000"></path><path d="M16.849 25.138l4.6-3.922l.64 6.056z" fill="url(#IconifyId-17ab498a166-cbb4b1-794)"></path><path d="M22.147 27.351l-.077-.033l-5.316-2.165l.062-.053l4.673-3.984l.01.095zm-5.2-2.229l5.087 2.072l-.621-5.879z" fill="#000"></path><path d="M30.884 31.075H10.092A.192.192 0 0 1 9.937 31a.183.183 0 0 1 .018-.171l10.425-20.82a.146.146 0 0 1 .121-.083a.134.134 0 0 1 .112.08l10.425 20.811a.2.2 0 0 1 .016.186a.192.192 0 0 1-.17.072zm-20.807-.153h20.807a.162.162 0 0 0 .038 0c0-.006-.008-.018-.018-.036L20.5 10.109L10.09 30.893z" fill="#000"></path></svg>