<svg xmlns="http://www.w3.org/2000/svg" xmlns:xlink="http://www.w3.org/1999/xlink" aria-hidden="true" role="img" class="iconify iconify--vscode-icons" width="1em" height="1em" preserveAspectRatio="xMidYMid meet" viewBox="0 0 32 32"><path d="M27.5 5.5h-9.3l-2.1 4.2H4.4v16.8h25.2v-21zm0 4.2h-8.2l1.1-2.1h7.1z" fill="#b57757"></path><path d="M26.3 15.453l.6-2.1a1.178 1.178 0 0 0 1.09-1.162a1.2 1.2 0 0 0-2.395 0a1.162 1.162 0 0 0 .581 1l-.587 2.057a13.08 13.08 0 0 0-3.089-.385l-.262.114v15.938L22.5 31c1.58 0 8.491-4.652 8.508-9.644c-.008-3.577-2.448-5.182-4.708-5.903z" fill="#d06e35"></path><path d="M24.631 25.717c-1.346-2.1-.78-6.984 2.743-7.682a2.3 2.3 0 0 1 2.5 1.841c.875 2.914-4.299 6.993-5.243 5.841z" fill="#fff"></path><path d="M26.744 21.219a1.064 1.064 0 1 0 1.091 1.063a1.078 1.078 0 0 0-1.091-1.063z" fill="#d06e35"></path><path d="M27.07 22.2a.268.268 0 1 1 .276-.268a.274.274 0 0 1-.276.268z" fill="#fff"></path><path d="M19.39 15.3l-.583-2.138a1.158 1.158 0 0 0 .556-.984a1.2 1.2 0 0 0-2.395 0a1.181 1.181 0 0 0 1.191 1.166l.585 2.142c-2.275.736-4.744 2.348-4.744 5.87c.05 5.091 6.913 9.644 8.492 9.644V14.866a13.382 13.382 0 0 0-3.102.434z" fill="#f17b36"></path><path d="M20.6 25.715c-.945 1.154-6.12-2.927-5.242-5.841a2.3 2.3 0 0 1 2.5-1.841c3.522.7 4.092 5.583 2.744 7.684z" fill="#fff"></path><path d="M18.413 21.252a1.064 1.064 0 1 0 1.087 1.063a1.078 1.078 0 0 0-1.087-1.063z" fill="#f17b36"></path><path d="M18.087 22.233a.269.269 0 1 1 .276-.269a.273.273 0 0 1-.275.269z" fill="#fff"></path></svg>