<svg xmlns="http://www.w3.org/2000/svg" xmlns:xlink="http://www.w3.org/1999/xlink" aria-hidden="true" role="img" class="iconify iconify--vscode-icons" width="1em" height="1em" preserveAspectRatio="xMidYMid meet" viewBox="0 0 32 32"><defs><linearGradient id="IconifyId-17ab498a166-cbb4b1-187" x1="54.604" y1="168.388" x2="54.604" y2="194.885" gradientTransform="translate(-38.604 -165.636)" gradientUnits="userSpaceOnUse"><stop offset="0" stop-color="#d8d8d8"></stop><stop offset="1" stop-color="#a3a3a3"></stop></linearGradient><linearGradient id="IconifyId-17ab498a166-cbb4b1-188" x1="68.756" y1="209.152" x2="91.638" y2="209.152" gradientTransform="matrix(.832 0 0 .837 -50.601 -159.449)" gradientUnits="userSpaceOnUse"><stop offset="0" stop-color="#d7d7d7"></stop><stop offset=".5" stop-color="#e7e7e7"></stop><stop offset="1" stop-color="#d7d7d7"></stop></linearGradient></defs><rect x="2" y="2.824" width="28" height="26.353" rx="3.088" ry="3.088" fill="url(#IconifyId-17ab498a166-cbb4b1-187)"></rect><path d="M26.856 29.181H5.144A3.148 3.148 0 0 1 2 26.037V5.963a3.148 3.148 0 0 1 3.144-3.144h21.712A3.148 3.148 0 0 1 30 5.963v20.074a3.148 3.148 0 0 1-3.144 3.144zM5.144 2.963a3 3 0 0 0-3 3v20.074a3 3 0 0 0 3 3h21.712a3 3 0 0 0 3-3V5.963a3 3 0 0 0-3-3z" fill="#8d8d8d"></path><rect x="4.313" y="4.641" width="23.169" height="21.94" rx="2.571" ry="2.571" fill="url(#IconifyId-17ab498a166-cbb4b1-188)"></rect><path d="M24.911 26.641H6.884a2.634 2.634 0 0 1-2.631-2.631V7.212a2.634 2.634 0 0 1 2.631-2.631h18.027a2.634 2.634 0 0 1 2.631 2.631v16.8a2.634 2.634 0 0 1-2.631 2.629zM6.884 4.7a2.514 2.514 0 0 0-2.511 2.512v16.8a2.514 2.514 0 0 0 2.511 2.511h18.027a2.514 2.514 0 0 0 2.511-2.511v-16.8A2.514 2.514 0 0 0 24.911 4.7z" fill="#f8f8f8"></path><path d="M6.145 23.9l2.343-6.1h.87l2.5 6.1h-.92l-.712-1.848H7.673L7 23.9zM7.9 21.4h2.074l-.637-1.7q-.291-.77-.433-1.265a7.776 7.776 0 0 1-.328 1.165z" fill="#000"></path><path d="M13.607 23.9v-6.1h.807v2.5h3.171v-2.5h.807v6.1h-.807v-2.879h-3.17V23.9z" fill="#000"></path><path d="M20.478 23.9v-6.1h.807v3.025l3.03-3.025h1.094l-2.559 2.467l2.672 3.633h-1.066l-2.172-3.088l-1 .974V23.9z" fill="#000"></path></svg>