<svg xmlns="http://www.w3.org/2000/svg" xmlns:xlink="http://www.w3.org/1999/xlink" aria-hidden="true" role="img" class="iconify iconify--vscode-icons" width="1em" height="1em" preserveAspectRatio="xMidYMid meet" viewBox="0 0 32 32"><path d="M27.4 5.5h-9.2l-2.1 4.2H4.3v16.8h25.2v-21zm0 18.7H6.6V11.8h20.8zm0-14.5h-8.2l1-2.1h7.1v2.1z" fill="#dbad7b"></path><path fill="#dbad7b" d="M25.7 13.7H.5l3.8 12.8h25.2l-3.8-12.8z"></path><path d="M29.025 14.38H11.974A1.978 1.978 0 0 0 10 16.354v12.675A1.978 1.978 0 0 0 11.974 31h17.051A1.978 1.978 0 0 0 31 29.026V16.354a1.979 1.979 0 0 0-1.975-1.974z" fill="#675f58"></path><path d="M29.925 29.026a.905.905 0 0 1-.9.9H11.974a.905.905 0 0 1-.9-.9V17.62h18.85v11.406z" fill="#ccc"></path><path fill="#ff931e" d="M14.9 20.246h2.8v2.801h-2.8z"></path><path fill="#ff931e" d="M19.1 20.246h2.8v2.801h-2.8z"></path><path fill="#ff931e" d="M23.3 20.246h2.8v2.801h-2.8z"></path><path fill="#ff931e" d="M14.9 24.446h2.8v2.8h-2.8z"></path><path fill="#ff931e" d="M19.1 24.446h2.8v2.8h-2.8z"></path><path fill="#ff931e" d="M23.3 24.446h2.8v2.8h-2.8z"></path></svg>