<svg xmlns="http://www.w3.org/2000/svg" xmlns:xlink="http://www.w3.org/1999/xlink" aria-hidden="true" role="img" class="iconify iconify--vscode-icons" width="1em" height="1em" preserveAspectRatio="xMidYMid meet" viewBox="0 0 32 32"><defs><linearGradient id="IconifyId-17ab498a166-cbb4b1-783" x1="-117.555" y1="260.894" x2="-116.883" y2="260.894" gradientTransform="rotate(90 2089.825 5520.838) scale(29.091)" gradientUnits="userSpaceOnUse"><stop offset="0" stop-color="#fff"></stop><stop offset="1" stop-color="#fff" stop-opacity="0"></stop></linearGradient><linearGradient id="IconifyId-17ab498a166-cbb4b1-784" x1="-117.555" y1="261.146" x2="-116.883" y2="261.146" xlink:href="#IconifyId-17ab498a166-cbb4b1-783"></linearGradient><mask id="IconifyId-17ab498a166-cbb4b1-785" x="11.227" y="11.227" width="19.545" height="19.546" maskUnits="userSpaceOnUse"><path d="M14.08 24.342l.983-1.052l1.222 1.222l-1 .994l1.205 1.2l.993-.994l1.229 1.23l-.974.973l2.85 2.85h4.48a.814.814 0 0 0 .814-.814v-6.512l4.162-2.775a1.626 1.626 0 0 0 .724-1.354v-7.269a.814.814 0 0 0-.814-.814h-7.268a1.631 1.631 0 0 0-1.355.724l-2.774 4.162H12.04a.814.814 0 0 0-.812.815v4.479z" fill="#fff"></path><path d="M12.693 25.886h-1.465v4.887h4.885v-1.466h-3.42z" fill="#fff"></path></mask></defs><path d="M27.9 6h-9.8l-2 4H5v17h25V6zm.1 4h-7.8l1-2H28z" fill="#7798cc"></path><g mask="url(#IconifyId-17ab498a166-cbb4b1-785)"><path d="M11.228 25.886h1.465v3.421h3.42v1.466h-4.885z" fill="#91b0f2"></path><path d="M11.228 16.927v4.48l2.852 2.935l1.22-1.307l3.664 3.665l-1.222 1.22l2.85 2.85h4.48a.814.814 0 0 0 .814-.814v-6.517l-7.329-7.326H12.04a.813.813 0 0 0-.812.814z" fill="#0f46bd"></path><path d="M14.281 22.511l7.533-11.284h8.959v8.958l-11.284 7.533z" fill="#062aa9"></path><path d="M14.752 22.983a.814.814 0 0 1-.1-1.028l6.679-10a1.629 1.629 0 0 1 1.354-.724h7.275a.815.815 0 0 1 .815.814v7.274a1.627 1.627 0 0 1-.725 1.354l-10 6.679a.815.815 0 0 1-1.028-.1z" fill="#2560e0"></path><path d="M15.289 25.506l6.218-6.218l1.2 1.2l-6.217 6.219z" fill="#0a44c2"></path><path d="M15.289 25.506l6.218-6.218l1.2 1.2l-6.217 6.219z" fill="#729af2"></path><path d="M17.487 25.716l-1.2-1.2l5.225-5.224l1.2 1.2z" fill="#4c80f0"></path><path d="M25.887 18.557a2.443 2.443 0 1 0-2.443-2.443a2.443 2.443 0 0 0 2.443 2.443z" fill="#0a44c2"></path><path d="M25.887 18.557a2.443 2.443 0 1 0-2.443-2.443a2.443 2.443 0 0 0 2.443 2.443z" fill="#91b0f2"></path><g opacity=".2"><path d="M14.08 24.342l.983-1.052l1.222 1.222l-1 .994l1.205 1.2l.993-.994l1.229 1.23l-.974.973l2.85 2.85h4.48a.814.814 0 0 0 .814-.814v-6.512l4.162-2.775a1.626 1.626 0 0 0 .724-1.354v-7.269a.814.814 0 0 0-.814-.814h-7.268a1.631 1.631 0 0 0-1.355.724l-2.774 4.162H12.04a.814.814 0 0 0-.812.815v4.479z" fill="url(#IconifyId-17ab498a166-cbb4b1-783)"></path><path d="M12.693 25.886h-1.465v4.887h4.885v-1.466h-3.42z" fill="url(#IconifyId-17ab498a166-cbb4b1-784)"></path></g></g></svg>