<svg xmlns="http://www.w3.org/2000/svg" xmlns:xlink="http://www.w3.org/1999/xlink" aria-hidden="true" role="img" class="iconify iconify--vscode-icons" width="1em" height="1em" preserveAspectRatio="xMidYMid meet" viewBox="0 0 32 32"><path d="M21.346 24.019H7.306a1.2 1.2 0 0 1-1.249-1.15V4.915a1.2 1.2 0 0 1 1.249-1.15h14.04a1.2 1.2 0 0 1 1.254 1.15v17.954a1.2 1.2 0 0 1-1.254 1.15z" fill="#dcb67a"></path><path d="M21.346 24.048H7.306a1.232 1.232 0 0 1-1.277-1.179V4.915a1.232 1.232 0 0 1 1.277-1.179h14.04a1.232 1.232 0 0 1 1.277 1.179v17.954a1.232 1.232 0 0 1-1.277 1.179zM7.306 3.793a1.175 1.175 0 0 0-1.22 1.122v17.954a1.176 1.176 0 0 0 1.22 1.122h14.04a1.176 1.176 0 0 0 1.22-1.122V4.915a1.175 1.175 0 0 0-1.22-1.122z" fill="#231f20"></path><path d="M23.566 22.2H9.54a1.2 1.2 0 0 1-1.248-1.145V3.173A1.2 1.2 0 0 1 9.54 2.028h14.026a1.2 1.2 0 0 1 1.249 1.145v17.88a1.2 1.2 0 0 1-1.249 1.147zm-2.12-5.443a1.167 1.167 0 1 0 1.167 1.167a1.168 1.168 0 0 0-1.167-1.169z" fill="#cccccb"></path><path d="M23.566 22.226H9.54a1.229 1.229 0 0 1-1.276-1.173V3.173A1.229 1.229 0 0 1 9.54 2h14.026a1.23 1.23 0 0 1 1.277 1.173v17.88a1.117 1.117 0 0 1-.375.83a1.323 1.323 0 0 1-.902.343zM9.54 2.057a1.174 1.174 0 0 0-1.22 1.116v17.88a1.173 1.173 0 0 0 1.22 1.116h14.026a1.273 1.273 0 0 0 .864-.327a1.063 1.063 0 0 0 .356-.789V3.173a1.173 1.173 0 0 0-1.22-1.116zm11.906 17.06a1.2 1.2 0 1 1 1.195-1.2a1.2 1.2 0 0 1-1.195 1.2zm0-2.333a1.138 1.138 0 1 0 1.138 1.138a1.139 1.139 0 0 0-1.138-1.138z" fill="#231f20"></path><path d="M22.189 6.859H10.806V5.322h11.383zm0 1.594H10.806v1.536h11.383zm0 3.415H10.806V13.4h11.383zm-5.122 3.415h-6.261v1.536h6.261z" fill="#fff"></path><path d="M17.1 16.848h-6.322v-1.594H17.1zm-6.261-.057h6.2v-1.48h-6.2zm11.383-3.358H10.778v-1.594h11.44zm-11.383-.057h11.322V11.9H10.835zm11.383-3.358H10.778V8.424h11.44zm-11.387-.057h11.326v-1.48H10.835zm11.383-3.073h-11.44V5.294h11.44zm-11.383-.057h11.326v-1.48H10.835z" fill="#231f20"></path><path d="M19.242 24.019a1.336 1.336 0 0 0-1.122 1.474v3.041A1.329 1.329 0 0 0 19.245 30h5.6a1.327 1.327 0 0 0 1.125-1.466l-.057-3.041c0-.808-.444-1.472-1.065-1.474V20.5a3.034 3.034 0 0 0-2.724-3.308a.618.618 0 0 0-.339.079a.713.713 0 0 0-.365.657a.665.665 0 0 0 .4.622a.578.578 0 0 0 .245.06c.819.015 1.532.974 1.518 2.794v2.614m-1.137 2.669v1.264a.256.256 0 0 1-.511 0v-1.263a.734.734 0 0 1-.51-.689a.767.767 0 0 1 1.532 0a.735.735 0 0 1-.51.689z" fill="#4778bc" fill-rule="evenodd"></path></svg>