<svg xmlns="http://www.w3.org/2000/svg" xmlns:xlink="http://www.w3.org/1999/xlink" aria-hidden="true" role="img" class="iconify iconify--vscode-icons" width="1em" height="1em" preserveAspectRatio="xMidYMid meet" viewBox="0 0 32 32"><path d="M27.4 5.5h-9.2l-2.1 4.2H4.3v4H.5l3.8 12.8h25.2v-21zm-7.2 2.1h7.1v2.1h-8.1zm5.5 6.1H6.6v-1.9h20.8v7.626z" fill="#7bc0db"></path><path d="M31 26l-8.571 5l-8.572-5V16l8.572-5L31 16v10z" fill="#000"></path><path fill="#0084c1" d="M15.624 17.071L22.429 21l6.804-3.929l-6.804-3.928l-6.805 3.928z"></path><path fill="#82eddf" d="M15.624 17.071v7.858l6.805 3.928V21l-6.805-3.929z"></path><path fill="#00d3b9" d="M22.429 28.857V21l6.804-3.929v7.858l-6.804 3.928z"></path></svg>