<svg xmlns="http://www.w3.org/2000/svg" xmlns:xlink="http://www.w3.org/1999/xlink" aria-hidden="true" role="img" class="iconify iconify--vscode-icons" width="1em" height="1em" preserveAspectRatio="xMidYMid meet" viewBox="0 0 32 32"><defs><radialGradient id="IconifyId-17ab498a166-cbb4b1-936" cx="-100.943" cy="-69.047" r=".004" gradientTransform="matrix(2074.534 0 0 -2395.464 209432.559 -165379.819)" gradientUnits="userSpaceOnUse"><stop offset="0" stop-color="#93b4e7"></stop><stop offset=".593" stop-color="#b9d1f8"></stop><stop offset="1" stop-color="#9cb6e0"></stop></radialGradient></defs><path d="M27.4 5.5h-9.2l-2.1 4.2H4.3v16.8h25.2v-21zm0 18.7H6.6V11.8h20.8zm0-14.5h-8.2l1-2.1h7.1v2.1z" fill="#8da2cc"></path><path fill="#8da2cc" d="M25.7 13.7H.5l3.8 12.8h25.2l-3.8-12.8z"></path><path d="M21.9 10.032l-9.079 5.242v10.484L21.9 31l9.079-5.242V15.274z" fill="url(#IconifyId-17ab498a166-cbb4b1-936)"></path><path d="M21.9 15.35l-4.5 2.6v5.2l4.5 2.6l4.5-2.6v-5.2z" fill="#6f95db"></path><path d="M21.9 10l-9.1 5.278l9.1 4.954L31 15.31zm0 10.911l-9.1 4.824l9.1 5.245l9.066-5.28l-9.066-4.789z" fill="#fff" fill-opacity=".1"></path></svg>