<svg xmlns="http://www.w3.org/2000/svg" xmlns:xlink="http://www.w3.org/1999/xlink" aria-hidden="true" role="img" class="iconify iconify--vscode-icons" width="1em" height="1em" preserveAspectRatio="xMidYMid meet" viewBox="0 0 32 32"><rect x="2.096" y="2.096" width="27.566" height="27.566" rx="6.169" fill="#f722b1"></rect><path fill="#fff06c" d="M18.771 21.759h6.554v1.928h-6.554z"></path><path fill="#bcfe25" d="M18.771 24.651h3.084v1.928h-3.084z"></path><path fill="#fff" d="M22.434 24.651h1.157v1.928h-1.157z"></path><path d="M8.169 2h15.614a6.169 6.169 0 0 1 6.169 6.169v7.807L15.976 29.952H8.169A6.169 6.169 0 0 1 2 23.783V8.169A6.169 6.169 0 0 1 8.169 2z" fill="#c9c9c9" fill-rule="evenodd"></path><path d="M16.169 30v-7.663a6.167 6.167 0 0 1 6.168-6.168H30z" fill="#fff" fill-rule="evenodd"></path><path fill="#e0e0e0" d="M9.133 6.819h9.446v1.928H9.133z"></path><path fill="#e0e0e0" d="M19.542 6.819h3.373v1.928h-3.373z"></path><path fill="#e0e0e0" d="M6.434 6.819h1.735v1.928H6.434z"></path><path fill="#e0e0e0" d="M9.133 21.759h6.747v1.928H9.133z"></path><path fill="#e0e0e0" d="M6.434 21.759h1.735v1.928H6.434z"></path><path fill="#e0e0e0" d="M12.024 24.651h3.855v1.928h-3.855z"></path><path fill="#e0e0e0" d="M6.434 24.651h4.627v1.928H6.434z"></path><path fill="#e0e0e0" d="M11.735 10h5.301v1.928h-5.301z"></path><path fill="#e0e0e0" d="M6.434 10h4.241v1.928H6.434z"></path><path fill="#e0e0e0" d="M6.434 13.277h6.458v1.928H6.434z"></path></svg>