<svg xmlns="http://www.w3.org/2000/svg" xmlns:xlink="http://www.w3.org/1999/xlink" aria-hidden="true" role="img" class="iconify iconify--vscode-icons" width="1em" height="1em" preserveAspectRatio="xMidYMid meet" viewBox="0 0 32 32"><path d="M27.4 5.5h-9.2l-2.1 4.2H4.3v16.8h25.2v-21zm0 18.7H6.6V11.8h20.8zm0-14.5h-8.2l1-2.1h7.1v2.1z" fill="#7bdbc0"></path><path fill="#7bdbc0" d="M25.7 13.7H.5l3.8 12.8h25.2l-3.8-12.8z"></path><path d="M31 15.778V31H10V15.777h21" fill="#2dcc9f"></path><path d="M26.674 17.8a1.653 1.653 0 1 0 .845.467a1.659 1.659 0 0 0-.845-.467" fill="#fff"></path><path d="M22.083 26.467L18 20.786l-6.062 8.428h8.174q.987-1.374 1.976-2.747" fill="#fff"></path><path d="M25.043 23.391l-4.188 5.824h8.377q-2.094-2.915-4.189-5.824z" fill="#fff"></path></svg>