<svg xmlns="http://www.w3.org/2000/svg" xmlns:xlink="http://www.w3.org/1999/xlink" aria-hidden="true" role="img" class="iconify iconify--vscode-icons" width="1em" height="1em" preserveAspectRatio="xMidYMid meet" viewBox="0 0 32 32"><defs><linearGradient id="IconifyId-17ab498a166-cbb4b1-589" x1="4.494" y1="-1748.086" x2="13.832" y2="-1731.914" gradientTransform="translate(0 1756)" gradientUnits="userSpaceOnUse"><stop offset="0" stop-color="#ca4c28"></stop><stop offset=".5" stop-color="#c5401e"></stop><stop offset="1" stop-color="#b62f14"></stop></linearGradient></defs><path d="M18.93 17.3L16.977 3h-.146A12.9 12.9 0 0 0 3.953 15.854V16z" fill="#ed6c47"></path><path d="M17.123 3h-.146v13l6.511 2.6L30 16v-.146A12.9 12.9 0 0 0 17.123 3z" fill="#ff8f6b"></path><path d="M30 16v.143A12.905 12.905 0 0 1 17.12 29h-.287a12.907 12.907 0 0 1-12.88-12.857V16z" fill="#d35230"></path><path d="M17.628 9.389V23.26a1.2 1.2 0 0 1-.742 1.1a1.16 1.16 0 0 1-.45.091H7.027a10.08 10.08 0 0 1-.521-.65a12.735 12.735 0 0 1-2.553-7.657v-.286A12.705 12.705 0 0 1 6.05 8.85a8.82 8.82 0 0 1 .456-.65h9.93a1.2 1.2 0 0 1 1.192 1.189z" opacity=".1" fill="#000"></path><path d="M16.977 10.04v13.871a1.15 1.15 0 0 1-.091.448a1.2 1.2 0 0 1-1.1.741H7.62q-.309-.314-.593-.65a10.08 10.08 0 0 1-.521-.65a12.735 12.735 0 0 1-2.553-7.657v-.286A12.705 12.705 0 0 1 6.05 8.85h9.735a1.2 1.2 0 0 1 1.192 1.19z" opacity=".2" fill="#000"></path><path d="M16.977 10.04v12.571a1.2 1.2 0 0 1-1.192 1.189H6.506a12.735 12.735 0 0 1-2.553-7.657v-.286A12.705 12.705 0 0 1 6.05 8.85h9.735a1.2 1.2 0 0 1 1.192 1.19z" opacity=".2" fill="#000"></path><path d="M16.326 10.04v12.571a1.2 1.2 0 0 1-1.192 1.189H6.506a12.735 12.735 0 0 1-2.553-7.657v-.286A12.705 12.705 0 0 1 6.05 8.85h9.084a1.2 1.2 0 0 1 1.192 1.19z" opacity=".2" fill="#000"></path><path d="M3.194 8.85h11.938a1.193 1.193 0 0 1 1.194 1.191v11.918a1.193 1.193 0 0 1-1.194 1.191H3.194A1.192 1.192 0 0 1 2 21.959V10.041A1.192 1.192 0 0 1 3.194 8.85z" fill="url(#IconifyId-17ab498a166-cbb4b1-589)"></path><path d="M9.293 12.028a3.287 3.287 0 0 1 2.174.636a2.27 2.27 0 0 1 .756 1.841a2.555 2.555 0 0 1-.373 1.376a2.49 2.49 0 0 1-1.059.935a3.607 3.607 0 0 1-1.591.334H7.687v2.8H6.141v-7.922zM7.686 15.94h1.331a1.735 1.735 0 0 0 1.177-.351a1.3 1.3 0 0 0 .4-1.025q0-1.309-1.525-1.31H7.686v2.686z" fill="#fff"></path></svg>