<svg xmlns="http://www.w3.org/2000/svg" xmlns:xlink="http://www.w3.org/1999/xlink" aria-hidden="true" role="img" class="iconify iconify--vscode-icons" width="1em" height="1em" preserveAspectRatio="xMidYMid meet" viewBox="0 0 32 32"><path d="M27.5 5.5h-9.3l-2.1 4.2H4.4v16.8h25.2v-21zm0 4.2h-8.2l1.1-2.1h7.1z" fill="#558dbf"></path><path fill="#b2cde5" d="M20.62 10v5.999l-5.188-3"></path><path fill="#b2cde5" d="M25.807 12.999l-5.187 3V10"></path><path fill="#4c89c3" d="M25.807 12.999V19l-5.187-3.001"></path><path fill="#0057a9" d="M15.432 12.999V19l5.188-3.001"></path><path fill="#0057a9" d="M20.62 15.999V22l-5.188-3"></path><path fill="#4c89c3" d="M20.622 15.999L20.62 22l5.187-2.998"></path><path fill="#b2cde5" d="M25.807 19v6l-5.187-3"></path><path fill="#b2cde5" d="M15.432 19v6l5.188-3"></path><path fill="#4c89c3" d="M20.62 22v6l-5.188-3"></path><path fill="#0057a9" d="M20.622 22l-.002 6l5.187-2.998"></path><path fill="#b2cde5" d="M15.432 19v6l-5.187-3"></path><path fill="#0057a9" d="M10.245 22v6l5.187-3"></path><path fill="#0057a9" d="M15.432 25v6l-5.187-3"></path><path fill="#4c89c3" d="M15.434 25l-.002 6l5.188-2.998"></path><path fill="#b2cde5" d="M30.995 22.002L25.807 25l.003-6"></path><path fill="#4c89c3" d="M30.995 22v6l-5.188-3"></path><path fill="#0057a9" d="M25.807 25v6l-5.187-3"></path><path fill="#4c89c3" d="M25.81 25l-.003 6l5.188-2.998"></path></svg>