<svg xmlns="http://www.w3.org/2000/svg" xmlns:xlink="http://www.w3.org/1999/xlink" aria-hidden="true" role="img" class="iconify iconify--vscode-icons" width="1em" height="1em" preserveAspectRatio="xMidYMid meet" viewBox="0 0 32 32"><defs><clipPath id="IconifyId-17ab498a166-cbb4b1-642"><path d="M7.055 16.241c3.415-10.22 14.759-9.473 17.924 0l.1 5.893a15.562 15.562 0 0 0-9.036 7.246a17.641 17.641 0 0 0-9.013-7.034z" fill="none"></path></clipPath></defs><path d="M7.03 16.241l2.6-4.559c-2.418-.312-2.606-3.431-.8-9.062c-5.021 6.233-6.41 7.608-1.8 13.621z" fill="#bfbfbf" fill-rule="evenodd"></path><path d="M24.97 16.241l-2.595-4.559c2.418-.312 2.606-3.431.8-9.062c5.016 6.233 6.405 7.608 1.795 13.621z" fill="#bfbfbf" fill-rule="evenodd"></path><path d="M7.055 16.241c3.415-10.22 14.759-9.473 17.924 0l.1 5.893a15.562 15.562 0 0 0-9.036 7.246a17.641 17.641 0 0 0-9.013-7.034z" fill="none"></path><g clip-path="url(#IconifyId-17ab498a166-cbb4b1-642)"><path fill="#536367" d="M16.053 7.962h9.549v21.899h-9.549z"></path><path fill="#78929a" d="M5.322 7.962h10.732v21.899H5.322z"></path></g><circle cx="16.04" cy="16.241" r="1.166" fill="#fff"></circle></svg>