<svg xmlns="http://www.w3.org/2000/svg" xmlns:xlink="http://www.w3.org/1999/xlink" aria-hidden="true" role="img" class="iconify iconify--vscode-icons" width="1em" height="1em" preserveAspectRatio="xMidYMid meet" viewBox="0 0 32 32"><path d="M29.192 2.5l-6.917 7.492a24.849 24.849 0 0 1-5.091 14.754l6.021 1.49C33.243 16.882 29.192 2.5 29.192 2.5z" fill="#fdb940"></path><path d="M22.275 9.992a21.939 21.939 0 0 0-.288-4.337L6.726 22.194l10.436 2.585c.011-.011.011-.022.022-.033l-6.939-1.719z" fill="#feb322"></path><path d="M10.256 23.027l6.944 1.719a24.826 24.826 0 0 0 5.086-14.754z" fill="#f98200"></path><path d="M19.907 26.466c.608 0 1.2.033 1.782.077L2 21.745s3.663 1.2 8.09 7.755a15.944 15.944 0 0 1 9.817-3.034z" fill="#1b208b"></path></svg>