<svg xmlns="http://www.w3.org/2000/svg" xmlns:xlink="http://www.w3.org/1999/xlink" aria-hidden="true" role="img" class="iconify iconify--vscode-icons" width="1em" height="1em" preserveAspectRatio="xMidYMid meet" viewBox="0 0 32 32"><path d="M29.107 9.963v14a1.079 1.079 0 0 1-.489.845l-.458.274l-3.49 2.018l-2.357 1.372l-.489.274V13.6L8.719 6.03l6.224-3.587l.574-.327a1.081 1.081 0 0 1 .977 0L25.122 7.1L29.1 9.4v.563z" fill="#5ce500"></path><path d="M18.909 15.284l-2.687-1.553L9.935 10.1a1.1 1.1 0 0 0-.977 0l-5.58 3.222l-.486.283l9.466 5.464V30l5.571-3.219l.491-.274a1.081 1.081 0 0 0 .489-.845z" fill="#5ce500"></path><path fill="#5ce500" d="M2.893 24.536l6.548 3.782v-7.569l-6.548 3.787z"></path></svg>