<svg xmlns="http://www.w3.org/2000/svg" xmlns:xlink="http://www.w3.org/1999/xlink" aria-hidden="true" role="img" class="iconify iconify--vscode-icons" width="1em" height="1em" preserveAspectRatio="xMidYMid meet" viewBox="0 0 32 32"><defs><radialGradient id="IconifyId-17ab498a166-cbb4b1-192" cx="22.737" cy="22.737" r="3.628" gradientTransform="rotate(-81.5 21.8 23.545) scale(1 1.071)" gradientUnits="userSpaceOnUse"><stop offset="0" stop-color="#bedcdc"></stop><stop offset=".5" stop-color="#8e9e9e" stop-opacity=".74"></stop><stop offset="1" stop-color="#404f5c" stop-opacity=".84"></stop></radialGradient><radialGradient id="IconifyId-17ab498a166-cbb4b1-193" cx="11.336" cy="11.336" r="5.201" gradientTransform="rotate(-81.5 10.869 11.738) scale(1 1.071)" xlink:href="#IconifyId-17ab498a166-cbb4b1-192"></radialGradient></defs><path fill="silver" d="M24.811 27.318l2.404-2.404l1.202 2.404l-1.202 1.202l-2.404-1.202z"></path><path fill="silver" d="M20.964 27.443h3.401l-.85 2.55h-1.7l-.851-2.55z"></path><path fill="silver" d="M18.157 24.811l2.404 2.404l-2.404 1.202l-1.203-1.202l1.203-2.404z"></path><path fill="silver" d="M18.032 20.964v3.401l-2.55-.85v-1.7l2.55-.851z"></path><path fill="silver" d="M20.664 18.157l-2.404 2.404l-1.202-2.404l1.202-1.203l2.404 1.203z"></path><path fill="silver" d="M24.51 18.032h-3.4l.85-2.55h1.7l.85 2.55z"></path><path fill="silver" d="M27.318 20.664l-2.404-2.404l2.404-1.202l1.202 1.202l-1.202 2.404z"></path><path fill="silver" d="M27.443 24.51v-3.4l2.55.85v1.7l-2.55.85z"></path><path d="M27.776 22.737a5.039 5.039 0 1 1-1.476-3.562a5.023 5.023 0 0 1 1.476 3.562zm-5.039-1.9a1.9 1.9 0 1 0 1.344.557a1.894 1.894 0 0 0-1.344-.557z" fill="silver"></path><path d="M22.656 18.074a4.664 4.664 0 1 0 4.744 4.582a4.664 4.664 0 0 0-4.744-4.582zm.15 8.61a3.947 3.947 0 1 1 3.877-4.015a3.947 3.947 0 0 1-3.877 4.015z" fill="#a9a9a9"></path><path d="M22.674 19.11a3.628 3.628 0 1 0 3.69 3.564a3.628 3.628 0 0 0-3.69-3.564zm.1 5.7a2.073 2.073 0 1 1 2.037-2.11a2.073 2.073 0 0 1-2.037 2.11z" fill="url(#IconifyId-17ab498a166-cbb4b1-192)"></path><path d="M22.7 20.665a2.073 2.073 0 1 0 2.11 2.035a2.073 2.073 0 0 0-2.11-2.035zm.067 3.826a1.754 1.754 0 1 1 1.723-1.784a1.754 1.754 0 0 1-1.722 1.784z" fill="#a9a9a9"></path><path fill="silver" d="M6.563 16.976l2.275 1.262l-1.464 1.568l-1.365-.757l.554-2.073z"></path><path fill="silver" d="M4.382 13.834l1.34 2.23l-2.052.626l-.804-1.338l1.516-1.518z"></path><path fill="silver" d="M4.065 10.023l.045 2.601l-2.09-.484l-.027-1.561l2.072-.556z"></path><path fill="silver" d="M5.696 6.563L4.434 8.838L2.866 7.374l.757-1.365l2.073.554z"></path><path fill="silver" d="M8.838 4.382l-2.23 1.34l-.626-2.052l1.338-.804l1.518 1.516z"></path><path fill="silver" d="M12.65 4.065l-2.602.045l.484-2.09l1.561-.027l.557 2.072z"></path><path fill="silver" d="M16.109 5.696l-2.275-1.262l1.464-1.568l1.365.757l-.554 2.073z"></path><path fill="silver" d="M18.29 8.838l-1.34-2.23l2.052-.626l.804 1.338l-1.516 1.518z"></path><path fill="silver" d="M18.607 12.65l-.045-2.602l2.09.484l.027 1.561l-2.072.557z"></path><path fill="silver" d="M16.976 16.109l1.262-2.275l1.568 1.464l-.757 1.365l-2.073-.554z"></path><path fill="silver" d="M13.834 18.29l2.23-1.34l.626 2.052l-1.338.804l-1.518-1.516z"></path><path fill="silver" d="M10.023 18.607l2.601-.045l-.484 2.09l-1.561.027l-.556-2.072z"></path><path d="M11.467 18.831a7.5 7.5 0 1 1 5.261-2.288a7.473 7.473 0 0 1-5.261 2.288zm2.682-7.544a2.814 2.814 0 1 0-.789 2a2.8 2.8 0 0 0 .789-2z" fill="silver"></path><path d="M11.218 4.6a6.737 6.737 0 1 0 6.854 6.619A6.737 6.737 0 0 0 11.218 4.6zm.217 12.436a5.7 5.7 0 1 1 5.6-5.8a5.7 5.7 0 0 1-5.599 5.8z" fill="#a9a9a9"></path><path d="M11.245 6.136a5.2 5.2 0 1 0 5.29 5.109a5.2 5.2 0 0 0-5.29-5.109zm.14 8.036a2.837 2.837 0 1 1 2.787-2.886a2.837 2.837 0 0 1-2.786 2.886z" fill="url(#IconifyId-17ab498a166-cbb4b1-193)"></path><path d="M11.282 8.227a3.109 3.109 0 1 0 3.163 3.055a3.109 3.109 0 0 0-3.163-3.055zm.1 5.74a2.631 2.631 0 1 1 2.585-2.677a2.631 2.631 0 0 1-2.585 2.677z" fill="#a9a9a9"></path></svg>