<svg xmlns="http://www.w3.org/2000/svg" xmlns:xlink="http://www.w3.org/1999/xlink" aria-hidden="true" role="img" class="iconify iconify--vscode-icons" width="1em" height="1em" preserveAspectRatio="xMidYMid meet" viewBox="0 0 32 32"><path d="M16 30a14 14 0 1 1 14-14a14.016 14.016 0 0 1-14 14zm0-26.824A12.824 12.824 0 1 0 28.824 16A12.84 12.84 0 0 0 16 3.176z" fill="#f5de19"></path><path fill="#f5de19" d="M2.784 15.412h26.432v1.176H2.784z"></path><path d="M16.317 10.474A44.779 44.779 0 0 1 4.42 8.92l.34-1.126c.111.034 11.277 3.32 22.427 0l.335 1.127a39.374 39.374 0 0 1-11.205 1.553z" fill="#f5de19"></path><path d="M4.785 23.907l-.335-1.126c11.5-3.422 22.634-.14 23.1 0l-.34 1.126c-.11-.034-11.274-3.319-22.425 0z" fill="#f5de19"></path><path d="M11.468 28.764a35.454 35.454 0 0 1-.742-25.71l1.082.461A34.228 34.228 0 0 0 12.55 28.3z" fill="#f5de19"></path><path d="M20.441 28.764L19.36 28.3a34.229 34.229 0 0 0 .74-24.785l1.082-.461a35.461 35.461 0 0 1-.741 25.71z" fill="#f5de19"></path><path fill="#f5de19" d="M15.412 2.783h1.175v26.919h-1.175z"></path><path d="M22.96 26.5a3.281 3.281 0 0 0 2.972 1.829c1.248 0 2.046-.624 2.046-1.486c0-1.033-.819-1.4-2.193-2l-.753-.323c-2.174-.926-3.618-2.086-3.618-4.539c0-2.259 1.721-3.979 4.412-3.979a4.452 4.452 0 0 1 4.284 2.412l-2.346 1.506a2.049 2.049 0 0 0-1.939-1.291a1.311 1.311 0 0 0-1.442 1.291c0 .9.56 1.27 1.852 1.829l.753.323c2.559 1.1 4 2.216 4 4.732c0 2.712-2.13 4.2-4.992 4.2a5.788 5.788 0 0 1-5.489-3.08zm-10.641.261c.473.84.9 1.549 1.939 1.549c.99 0 1.614-.387 1.614-1.893V16.172h3.012v10.284c0 3.119-1.829 4.539-4.5 4.539a4.676 4.676 0 0 1-4.519-2.752z" fill="#f5de19" stroke="#000" stroke-miterlimit="10" stroke-width=".5"></path></svg>