<svg xmlns="http://www.w3.org/2000/svg" xmlns:xlink="http://www.w3.org/1999/xlink" aria-hidden="true" role="img" class="iconify iconify--vscode-icons" width="1em" height="1em" preserveAspectRatio="xMidYMid meet" viewBox="0 0 32 32"><path d="M16 30a14 14 0 1 1 14-14a14 14 0 0 1-14 14zm0-26.82A12.82 12.82 0 1 0 28.82 16A12.82 12.82 0 0 0 16 3.18z" fill="#45d339"></path><path fill="#45d339" d="M2.78 15.41h26.43v1.18H2.78z"></path><path d="M16.32 10.47a44.78 44.78 0 0 1-11.9-1.55l.34-1.13c.11 0 11.28 3.32 22.43 0l.33 1.13a39.37 39.37 0 0 1-11.2 1.55z" fill="#45d339"></path><path d="M4.79 23.91l-.34-1.13c11.5-3.42 22.63-.14 23.1 0l-.34 1.13c-.11-.04-11.27-3.32-22.42 0z" fill="#45d339"></path><path d="M11.47 28.76a35.45 35.45 0 0 1-.74-25.71l1.08.46a34.23 34.23 0 0 0 .74 24.79z" fill="#45d339"></path><path d="M20.44 28.76l-1.08-.46a34.23 34.23 0 0 0 .74-24.78l1.08-.46a35.46 35.46 0 0 1-.74 25.7z" fill="#45d339"></path><path fill="#45d339" d="M15.41 2.78h1.18V29.7h-1.18z"></path></svg>