<svg xmlns="http://www.w3.org/2000/svg" xmlns:xlink="http://www.w3.org/1999/xlink" aria-hidden="true" role="img" class="iconify iconify--vscode-icons" width="1em" height="1em" preserveAspectRatio="xMidYMid meet" viewBox="0 0 32 32"><defs><radialGradient id="IconifyId-17ab498a166-cbb4b1-613" cx="1341.25" cy="-3396.866" r="18.299" gradientTransform="translate(-1327.077 3405.935)" gradientUnits="userSpaceOnUse"><stop offset="0" stop-color="#fff"></stop><stop offset=".181" stop-color="#fbfbfb"></stop><stop offset=".365" stop-color="#efeff0"></stop><stop offset=".552" stop-color="#dadbdc"></stop><stop offset=".738" stop-color="#bebfc2"></stop><stop offset=".824" stop-color="#aeb0b3"></stop></radialGradient><radialGradient id="IconifyId-17ab498a166-cbb4b1-614" cx="6.678" cy="84.74" r="15.554" gradientTransform="matrix(1.072 0 0 1.166 -1.884 -86.154)" gradientUnits="userSpaceOnUse"><stop offset="0" stop-color="#fafdff"></stop><stop offset=".079" stop-color="#eef5fa"></stop><stop offset=".22" stop-color="#cfdfec"></stop><stop offset=".407" stop-color="#9dbbd5"></stop><stop offset=".631" stop-color="#588ab5"></stop><stop offset=".745" stop-color="#326fa4"></stop><stop offset=".799" stop-color="#2b6698"></stop><stop offset=".897" stop-color="#174e78"></stop><stop offset=".994" stop-color="#003152"></stop></radialGradient><radialGradient id="IconifyId-17ab498a166-cbb4b1-615" cx="11.241" cy="-9.897" r="16.594" gradientTransform="matrix(1 0 0 1.062 0 22.631)" gradientUnits="userSpaceOnUse"><stop offset="0" stop-color="#ffd540"></stop><stop offset=".667" stop-color="#ec1c24"></stop><stop offset=".994" stop-color="#760000"></stop></radialGradient><radialGradient id="IconifyId-17ab498a166-cbb4b1-616" cx="12.286" cy="26.127" r="2.083" gradientUnits="userSpaceOnUse"><stop offset="0" stop-color="#dddfe0"></stop><stop offset=".174" stop-color="#d9dbdc"></stop><stop offset=".351" stop-color="#cdcfd0"></stop><stop offset=".531" stop-color="#b8babb"></stop><stop offset=".711" stop-color="#9c9e9f"></stop><stop offset=".891" stop-color="#78797b"></stop><stop offset="1" stop-color="#5e5f61"></stop></radialGradient><radialGradient id="IconifyId-17ab498a166-cbb4b1-617" cx="19.064" cy="26.127" r="2.083" xlink:href="#IconifyId-17ab498a166-cbb4b1-616"></radialGradient><radialGradient id="IconifyId-17ab498a166-cbb4b1-618" cx="15.434" cy="16.191" r="2.687" gradientTransform="translate(0 .461)" xlink:href="#IconifyId-17ab498a166-cbb4b1-616"></radialGradient></defs><g><circle cx="16" cy="16" r="14" transform="rotate(-42.265 16 16)" fill="url(#IconifyId-17ab498a166-cbb4b1-613)"></circle><path d="M19.938 6.309a9.785 9.785 0 0 0-6.5-2.339c-4.874 0-9.664 3.73-10.033 10.991c-.4 7.8 4.75 12.862 12 12.862c10.733 0 16.672-9.78 10.027-20.388c4.671 10.6-.527 17.279-7.236 17.279c-5.441 0-9.61-3.651-9.61-10.345c-.004-9.66 7.237-10.33 11.352-8.06z" fill="url(#IconifyId-17ab498a166-cbb4b1-614)"></path><path d="M22.7 10.415c-.293-.94-.645-2.788.634-3.86a3.729 3.729 0 0 0-3.844 1.534A9.165 9.165 0 0 0 12 8.1a3.729 3.729 0 0 0-3.848-1.545c1.309 1.1.91 3.005.614 3.923A10.517 10.517 0 0 0 6.1 17.524c0 2.174 1.4 4.645 1.675 7.955l1.768-1.532a11.743 11.743 0 0 0 6.212 1.433a11.741 11.741 0 0 0 6.212-1.433l1.769 1.532c.28-3.31 1.675-5.781 1.675-7.955a10.512 10.512 0 0 0-2.711-7.109z" fill="url(#IconifyId-17ab498a166-cbb4b1-615)"></path><path d="M10.722 27.867a1.621 1.621 0 1 1 3.24 0v.053a2.234 2.234 0 1 0-3.228.126a1.188 1.188 0 0 1-.012-.179z" fill="url(#IconifyId-17ab498a166-cbb4b1-616)"></path><path d="M20.629 27.867a1.621 1.621 0 1 0-3.24 0v.053a2.234 2.234 0 1 1 3.228.126a1.678 1.678 0 0 0 .012-.179z" fill="url(#IconifyId-17ab498a166-cbb4b1-617)"></path><g opacity=".53" fill="#231f20"><path d="M8.346 18.4c-.132.667-.971.877-.971.877a1.359 1.359 0 0 1-.566-1.177a2.929 2.929 0 0 0 .443 1.793A2.927 2.927 0 0 0 8.346 18.4z"></path><path d="M10.008 18.737c-.132.667-.972.877-.972.877a1.36 1.36 0 0 1-.566-1.182a2.929 2.929 0 0 0 .444 1.793a2.926 2.926 0 0 0 1.094-1.488z"></path><path d="M8.833 20.249c-.132.667-.971.877-.971.877a1.359 1.359 0 0 1-.562-1.182a2.929 2.929 0 0 0 .443 1.793a2.925 2.925 0 0 0 1.09-1.488z"></path><path d="M10.5 20.583c-.132.667-.971.877-.971.877a1.36 1.36 0 0 1-.566-1.182a2.929 2.929 0 0 0 .437 1.794a2.927 2.927 0 0 0 1.1-1.489z"></path><path d="M9.328 22.121c-.132.667-.972.877-.972.877a1.36 1.36 0 0 1-.565-1.182a2.929 2.929 0 0 0 .443 1.793a2.926 2.926 0 0 0 1.094-1.488z"></path><path d="M11.664 19.07c-.132.667-.972.877-.972.877a1.359 1.359 0 0 1-.565-1.182a2.93 2.93 0 0 0 .443 1.793a2.927 2.927 0 0 0 1.094-1.488z"></path></g><g opacity=".53" fill="#231f20"><path d="M23.157 18.4c.132.667.971.877.971.877a1.359 1.359 0 0 0 .566-1.182a2.93 2.93 0 0 1-.443 1.793a2.927 2.927 0 0 1-1.094-1.488z"></path><path d="M21.495 18.737c.132.667.972.877.972.877a1.36 1.36 0 0 0 .565-1.182a2.931 2.931 0 0 1-.444 1.793a2.926 2.926 0 0 1-1.093-1.488z"></path><path d="M22.669 20.249c.132.667.971.877.971.877a1.36 1.36 0 0 0 .566-1.182a2.929 2.929 0 0 1-.443 1.793a2.926 2.926 0 0 1-1.094-1.488z"></path><path d="M21.008 20.583c.132.667.971.877.971.877a1.359 1.359 0 0 0 .565-1.182a2.928 2.928 0 0 1-.443 1.793a2.927 2.927 0 0 1-1.093-1.488z"></path><path d="M22.175 22.121c.132.667.972.877.972.877a1.36 1.36 0 0 0 .565-1.182a2.928 2.928 0 0 1-.444 1.793a2.927 2.927 0 0 1-1.093-1.488z"></path><path d="M19.838 19.07c.132.667.972.877.972.877a1.359 1.359 0 0 0 .565-1.182a2.928 2.928 0 0 1-.443 1.793a2.928 2.928 0 0 1-1.094-1.488z"></path></g><circle cx="11.339" cy="14.074" r="3.816" fill="#fff"></circle><circle cx="12.13" cy="14.446" r="1.861" fill="#bdbfc1"></circle><circle cx="12.13" cy="14.446" r="1.191" fill="#231f20"></circle><circle cx="11.603" cy="14.027" r=".357" fill="#fff"></circle><circle cx="20.112" cy="14.074" r="3.816" fill="#fff"></circle><circle cx="20.903" cy="14.446" r="1.861" fill="#bdbfc1"></circle><circle cx="20.903" cy="14.446" r="1.191" fill="#231f20"></circle><circle cx="20.375" cy="14.027" r=".357" fill="#fff"></circle><path d="M15.706 21.52c0-1.412 2.157-3.413 2.157-4.887a2.157 2.157 0 0 0-4.313 0c0 1.474 2.156 3.475 2.156 4.887z" fill="url(#IconifyId-17ab498a166-cbb4b1-618)"></path></g></svg>