<svg xmlns="http://www.w3.org/2000/svg" xmlns:xlink="http://www.w3.org/1999/xlink" aria-hidden="true" role="img" class="iconify iconify--vscode-icons" width="1em" height="1em" preserveAspectRatio="xMidYMid meet" viewBox="0 0 32 32"><circle cx="16" cy="16" r="14" fill="#ffe42e"></circle><path d="M21.052 21.433l-2.889-2.889a1.293 1.293 0 0 1 0-1.829l4.28-4.28a.375.375 0 0 0 0-.53l-1.577-1.577a.374.374 0 0 0-.53 0l-.963.963l-.65-.649l.963-.963a1.293 1.293 0 0 1 1.829 0l1.577 1.577a1.3 1.3 0 0 1 0 1.829l-4.28 4.279a.377.377 0 0 0 0 .53l2.89 2.889z" fill="#8bb5b5"></path><path d="M24.738 23.879l-.59.59a.833.833 0 0 1-1.179 0l-3.538-3.538a.833.833 0 0 1 0-1.179l.59-.59a.835.835 0 0 1 1.179 0l3.538 3.538a.835.835 0 0 1 0 1.179z" fill="#d95612"></path><path fill="#24bfbe" d="M8.15 16.019l1.36-1.36l1.359 1.36l-1.36 1.359z"></path><path d="M18.679 9.566l1.769 1.769a.833.833 0 0 1 0 1.179l-7.665 7.666a.835.835 0 0 1-1.179 0l-1.769-1.769a.834.834 0 0 1 0-1.18L17.5 9.566a.835.835 0 0 1 1.179 0z" fill="#25c4c3"></path><path fill="#1ddedd" d="M9.51 14.66l1.359-1.36l1.359 1.36l-1.36 1.359z"></path><path fill="#24bfbe" d="M10.85 13.32l1.36-1.358l1.359 1.359l-1.36 1.359z"></path><path fill="#1ddedd" d="M12.21 11.96l1.359-1.359l1.359 1.36l-1.36 1.358z"></path><path fill="#1bcfce" d="M13.569 10.601l1.359-1.359l1.359 1.36l-1.36 1.358z"></path><path fill="#24bfbe" d="M14.928 9.242l1.359-1.359l1.359 1.36l-1.36 1.358z"></path><path fill="#1bcfce" d="M6.791 14.66l1.36-1.359l1.358 1.36l-1.359 1.358z"></path><path fill="#1bcfce" d="M9.491 11.96l1.36-1.36l1.358 1.36l-1.359 1.359z"></path><path fill="#34edeb" d="M12.21 9.241l1.359-1.359l1.359 1.36l-1.36 1.358z"></path><path fill="#1bcfce" d="M13.568 7.882l1.36-1.36l1.358 1.36l-1.359 1.359z"></path><path fill="#34edeb" d="M8.132 10.6l1.36-1.358L10.85 10.6L9.491 11.96z"></path><path fill="#34edeb" d="M12.21 6.523l1.36-1.36l1.358 1.36l-1.359 1.359z"></path><path fill="#98edeb" d="M4.073 11.942l1.359-1.36l1.359 1.36L5.43 13.3z"></path><path fill="#98edeb" d="M8.132 7.882L9.49 6.523l1.359 1.36L9.49 9.24z"></path><path d="M19.829 10.716l.619.619a.833.833 0 0 1 0 1.179l-7.665 7.666a.835.835 0 0 1-1.179 0l-.619-.62a.833.833 0 0 0 1.179 0l7.665-7.66a.833.833 0 0 0 0-1.184z" fill="#00a3a2"></path><path d="M19.3 10.185l-.619-.619a.835.835 0 0 0-1.179 0l-7.667 7.665a.834.834 0 0 0 0 1.18l.619.619a.836.836 0 0 1 0-1.18l7.665-7.665a.835.835 0 0 1 1.181 0z" fill="#39d9d8"></path><path d="M21.748 19.71l-.314-.314a1.252 1.252 0 0 0-1.769 0a1.25 1.25 0 0 0 0 1.769l.314.314a.835.835 0 0 1 0-1.179l.59-.59a.835.835 0 0 1 1.179 0z" fill="#eb6e2d"></path><path d="M12.194 20.791a1.194 1.194 0 0 1-.85-.352L9.575 18.67a1.2 1.2 0 0 1 0-1.7l7.665-7.664a1.2 1.2 0 0 1 1.7 0l1.769 1.769a1.2 1.2 0 0 1 0 1.7l-7.665 7.665a1.194 1.194 0 0 1-.85.351zm5.9-11.1a.463.463 0 0 0-.33.136L10.1 17.491a.466.466 0 0 0 0 .66l1.769 1.769a.467.467 0 0 0 .659 0l7.666-7.665a.468.468 0 0 0 0-.66L18.42 9.826a.464.464 0 0 0-.33-.136z" fill="#13acbd"></path><path d="M23.559 25.081a1.194 1.194 0 0 1-.85-.352l-3.538-3.538a1.2 1.2 0 0 1 0-1.7l.59-.589a1.2 1.2 0 0 1 1.7 0L25 22.44a1.2 1.2 0 0 1 0 1.7l-.59.59a1.194 1.194 0 0 1-.851.351zm-2.949-5.795a.462.462 0 0 0-.329.136l-.59.59a.467.467 0 0 0 0 .66l3.538 3.537a.465.465 0 0 0 .659 0l.59-.589a.467.467 0 0 0 0-.66l-3.538-3.538a.464.464 0 0 0-.33-.136z" fill="#bf4404"></path></svg>