<svg xmlns="http://www.w3.org/2000/svg" xmlns:xlink="http://www.w3.org/1999/xlink" aria-hidden="true" role="img" class="iconify iconify--vscode-icons" width="1em" height="1em" preserveAspectRatio="xMidYMid meet" viewBox="0 0 32 32"><path d="M12.556 13.935l.031.029l3.434 2.012l3.449-2.046l.022-.026l-3.487-1.95zm10.64-2.2h.047l4.726-2.768l.031-.045l-4.8-2.775zM16.015 2L4 9l.04.071l4.754 2.74l.064-.011l7.166-4.142l3.466 2.09V4.007z" fill="#4f859a"></path><path d="M4 22.883l4.857 2.875V11.805L4 9.005zm8.592 5.086L16.024 30l.046-.115V24.27l-.046-.1l-3.432-1.807zm-.036-14.033v4.057l3.467 1.993l.014-.032v-3.996l-.013-.023z" fill="#2e6371"></path><path d="M23.2 11.735v8.421l-7.176 4.014V30L28 22.883V8.922zm-3.7 2.169l-3.468 2.031v4.05l3.468-2z" fill="#1bafce"></path></svg>