<svg xmlns="http://www.w3.org/2000/svg" xmlns:xlink="http://www.w3.org/1999/xlink" aria-hidden="true" role="img" class="iconify iconify--vscode-icons" width="1em" height="1em" preserveAspectRatio="xMidYMid meet" viewBox="0 0 32 32"><path fill="#e24329" d="M16 28.896l5.156-15.867H10.844L16 28.896z"></path><path fill="#fc6d26" d="M16 28.896l-5.156-15.867H3.619L16 28.896z"></path><path d="M3.619 13.029l-1.567 4.822a1.067 1.067 0 0 0 .388 1.193L16 28.9L3.619 13.029z" fill="#fca326"></path><path d="M3.619 13.029h7.225L7.739 3.473a.534.534 0 0 0-1.015 0l-3.105 9.556z" fill="#e24329"></path><path fill="#fc6d26" d="M16 28.896l5.156-15.867h7.225L16 28.896z"></path><path d="M28.381 13.029l1.567 4.822a1.067 1.067 0 0 1-.388 1.193L16 28.9l12.381-15.871z" fill="#fca326"></path><path d="M28.381 13.029h-7.225l3.105-9.557a.534.534 0 0 1 1.015 0l3.105 9.557z" fill="#e24329"></path></svg>