<svg xmlns="http://www.w3.org/2000/svg" xmlns:xlink="http://www.w3.org/1999/xlink" aria-hidden="true" role="img" class="iconify iconify--vscode-icons" width="1em" height="1em" preserveAspectRatio="xMidYMid meet" viewBox="0 0 32 32"><defs><linearGradient id="IconifyId-17ab498a166-cbb4b1-811" x1="-235.911" y1="-171.036" x2="-235.873" y2="-171.046" gradientTransform="matrix(87.822 0 0 -88.533 20744.25 -15114.083)" gradientUnits="userSpaceOnUse"><stop offset="0" stop-color="#ffd441"></stop><stop offset="1" stop-color="#ffb047"></stop></linearGradient><linearGradient id="IconifyId-17ab498a166-cbb4b1-812" x1="-235.679" y1="-172.644" x2="-235.66" y2="-172.6" gradientTransform="matrix(87.822 0 0 -88.533 20724.385 -15266.467)" gradientUnits="userSpaceOnUse"><stop offset="0" stop-color="#ffd754"></stop><stop offset="1" stop-color="#ffb532"></stop></linearGradient><linearGradient id="IconifyId-17ab498a166-cbb4b1-813" x1="-235.02" y1="-173.45" x2="-235.02" y2="-173.412" gradientTransform="matrix(87.822 0 0 -88.533 20662.517 -15342.2)" gradientUnits="userSpaceOnUse"><stop offset="0" stop-color="#ffd642"></stop><stop offset="0" stop-color="#ffd441"></stop><stop offset="1" stop-color="#ffb532"></stop></linearGradient><linearGradient id="IconifyId-17ab498a166-cbb4b1-814" x1="-234.582" y1="-172.909" x2="-234.633" y2="-172.897" gradientTransform="matrix(106.198 0 0 -88.551 24932.157 -15295.168)" gradientUnits="userSpaceOnUse"><stop offset="0" stop-color="#ffd441"></stop><stop offset="1" stop-color="#ffa829"></stop></linearGradient></defs><path d="M27.4 5.5h-9.2l-2.1 4.2H4.3v16.8h25.2v-21zm0 18.7H6.6V11.8h20.8zm0-14.5h-8.2l1-2.1h7.1v2.1z" fill="#dbad7b"></path><path fill="#dbad7b" d="M25.7 13.7H.5l3.8 12.8h25.2l-3.8-12.8z"></path><path d="M28.069 30.557v-5.428h-5.385l5.385 5.429" fill="#ffdf51" fill-opacity=".7"></path><path d="M28.674 27.479v-5.871h-5.825l5.824 5.871" fill="#ff8900" fill-opacity=".7"></path><path d="M25.136 25.129V31h5.824l-5.824-5.871" fill-opacity=".7" fill="url(#IconifyId-17ab498a166-cbb4b1-811)"></path><path d="M27.456 22v-4.643h-4.607L27.456 22" fill="#ffdf4f" fill-opacity=".7"></path><path d="M29.643 20.894v-5.871h-5.824l5.824 5.871" fill-opacity=".8" fill="url(#IconifyId-17ab498a166-cbb4b1-812)"></path><path d="M19.716 10v5.871h5.824L19.716 10" fill-opacity=".8" fill="url(#IconifyId-17ab498a166-cbb4b1-813)"></path><path d="M21.082 19.2v-5.875h-7.043l5.8 5.873h1.244" fill-opacity=".88" fill="url(#IconifyId-17ab498a166-cbb4b1-814)"></path><path d="M21.082 30.968v-7.1h-7.043l7.043 7.1" fill="#ffb700" fill-opacity=".7"></path><path d="M21.084 25.085v-5.871H15.26l5.824 5.871" fill="#ffb700" fill-opacity=".5"></path><path d="M22.849 17.357v5.871h5.824l-5.824-5.871" fill="#ffcd25" fill-opacity=".7"></path><path d="M21.069 18.018v-5.872h-5.824l5.824 5.871" fill="#ff8900" fill-opacity=".7"></path><path d="M22.684 25.129V31h5.824l-5.824-5.871" fill="#ff8900" fill-opacity=".7"></path><path fill="#fff" d="M26.342 25.129l-1.885-1.901h-1.608v-5.871h3.286l-1.474-1.486h-3.592l.013 3.325V31h1.602v-5.871h3.658z"></path></svg>