<svg xmlns="http://www.w3.org/2000/svg" xmlns:xlink="http://www.w3.org/1999/xlink" aria-hidden="true" role="img" class="iconify iconify--vscode-icons" width="1em" height="1em" preserveAspectRatio="xMidYMid meet" viewBox="0 0 32 32"><defs><linearGradient id="IconifyId-17ab498a166-cbb4b1-721" x1="596.629" y1="-820.523" x2="599.481" y2="-826.534" gradientTransform="matrix(.366 0 0 -.366 -210.44 -292.295)" gradientUnits="userSpaceOnUse"><stop offset="0" stop-color="#8ae234"></stop><stop offset="1" stop-color="#4e9a06"></stop></linearGradient><linearGradient id="IconifyId-17ab498a166-cbb4b1-722" x1="599.996" y1="-815.078" x2="631.107" y2="-868.963" xlink:href="#IconifyId-17ab498a166-cbb4b1-721"></linearGradient><linearGradient id="IconifyId-17ab498a166-cbb4b1-723" x1="648.158" y1="-1013.946" x2="677.021" y2="-1071.027" gradientTransform="matrix(.347 0 0 -.339 -214.765 -336.913)" gradientUnits="userSpaceOnUse"><stop offset="0" stop-color="#fff" stop-opacity=".549"></stop><stop offset="1" stop-color="#fff" stop-opacity="0"></stop></linearGradient><radialGradient id="IconifyId-17ab498a166-cbb4b1-724" cx="572.646" cy="-769.85" r="14.375" gradientTransform="matrix(.358 0 0 -.358 -181.98 -268.597)" gradientUnits="userSpaceOnUse"><stop offset="0" stop-color="#fff"></stop><stop offset=".5" stop-color="#fff520" stop-opacity=".891"></stop><stop offset="1" stop-color="#fff300" stop-opacity="0"></stop></radialGradient><filter id="IconifyId-17ab498a166-cbb4b1-725"><feGaussianBlur stdDeviation="1.275"></feGaussianBlur></filter></defs><g filter="url(#IconifyId-17ab498a166-cbb4b1-725)"><path d="M4.646 8h22.707a1.976 1.976 0 0 1 1.981 1.971V25.96a1.977 1.977 0 0 1-1.972 1.981H4.646a1.976 1.976 0 0 1-1.98-1.972V9.978A1.976 1.976 0 0 1 4.637 8z" fill-rule="evenodd" fill="#000"></path><path d="M4.646 8h22.707a1.976 1.976 0 0 1 1.981 1.971V25.96a1.977 1.977 0 0 1-1.972 1.981H4.646a1.976 1.976 0 0 1-1.98-1.972V9.978A1.976 1.976 0 0 1 4.637 8z" fill="none" stroke="#000" stroke-width="2.051"></path></g><path d="M6.2 6.374h3.281v3.3H6.2z" stroke="#366a04" stroke-width="2.902" fill-rule="evenodd" fill="url(#IconifyId-17ab498a166-cbb4b1-721)"></path><path d="M4.646 8h22.707a1.977 1.977 0 0 1 1.981 1.972v15.989a1.977 1.977 0 0 1-1.972 1.98H4.646a1.976 1.976 0 0 1-1.98-1.972V9.978A1.976 1.976 0 0 1 4.638 8h.008z" stroke="#366a04" stroke-width="3.605" fill-rule="evenodd" fill="url(#IconifyId-17ab498a166-cbb4b1-722)"></path><path d="M20.877 17.969A4.878 4.878 0 1 1 16 13.092a4.877 4.877 0 0 1 4.877 4.877z" fill="#fff" stroke="#366a04" stroke-width="3.605"></path><path d="M5.185 8.7h21.54c1.406 0 1.879.59 1.879 1.835V25.34c0 1.245-.518 1.834-1.879 1.834H5.185c-1.407 0-1.879-.544-1.879-1.834V10.534c0-1.382.609-1.834 1.879-1.834z" fill="none" stroke-linejoin="round" stroke-width="3.38" stroke="url(#IconifyId-17ab498a166-cbb4b1-723)"></path><circle cx="23.184" cy="7.22" r="5.15" fill="url(#IconifyId-17ab498a166-cbb4b1-724)"></circle></svg>