<svg xmlns="http://www.w3.org/2000/svg" xmlns:xlink="http://www.w3.org/1999/xlink" aria-hidden="true" role="img" class="iconify iconify--vscode-icons" width="1em" height="1em" preserveAspectRatio="xMidYMid meet" viewBox="0 0 32 32"><defs><linearGradient id="IconifyId-17ab498a166-cbb4b1-224" x1="28.607" y1="-60.825" x2="11.085" y2="-50.756" gradientTransform="matrix(1 0 0 -1 0 -29.66)" gradientUnits="userSpaceOnUse"><stop offset=".18" stop-color="#0052cc"></stop><stop offset="1" stop-color="#2684ff"></stop></linearGradient><linearGradient id="IconifyId-17ab498a166-cbb4b1-225" x1="621.442" y1="1817.567" x2="603.915" y2="1827.64" gradientTransform="matrix(-1 0 0 1 624.83 -1816.71)" xlink:href="#IconifyId-17ab498a166-cbb4b1-224"></linearGradient></defs><path d="M3.015 23.087c-.289.472-.614 1.02-.891 1.456a.892.892 0 0 0 .3 1.212l5.792 3.564a.89.89 0 0 0 1.226-.29l.008-.013c.231-.387.53-.891.855-1.43c2.294-3.787 4.6-3.323 8.763-1.336l5.743 2.731A.892.892 0 0 0 26 28.559l.011-.024l2.755-6.235a.891.891 0 0 0-.445-1.167a695.491 695.491 0 0 1-5.792-2.754c-7.805-3.793-14.439-3.548-19.514 4.708z" fill="url(#IconifyId-17ab498a166-cbb4b1-224)"></path><path d="M28.985 8.932c.289-.472.614-1.02.891-1.456a.892.892 0 0 0-.3-1.212L23.785 2.7a.89.89 0 0 0-1.236.241a.584.584 0 0 0-.033.053c-.232.387-.53.891-.856 1.43c-2.294 3.787-4.6 3.323-8.763 1.336L7.172 3.043a.89.89 0 0 0-1.187.421l-.011.024l-2.758 6.238a.891.891 0 0 0 .445 1.167c1.212.57 3.622 1.706 5.792 2.753c7.823 3.787 14.457 3.533 19.532-4.714z" fill="url(#IconifyId-17ab498a166-cbb4b1-225)"></path></svg>