<svg xmlns="http://www.w3.org/2000/svg" xmlns:xlink="http://www.w3.org/1999/xlink" aria-hidden="true" role="img" class="iconify iconify--vscode-icons" width="1em" height="1em" preserveAspectRatio="xMidYMid meet" viewBox="0 0 32 32"><defs><linearGradient id="IconifyId-17ab498a166-cbb4b1-452" x1="2.591" y1="16" x2="29.409" y2="16" gradientUnits="userSpaceOnUse"><stop offset="0" stop-color="#ffca3f"></stop><stop offset=".014" stop-color="#fec83e"></stop><stop offset=".238" stop-color="#ebaf35"></stop><stop offset=".471" stop-color="#de9d2e"></stop><stop offset=".717" stop-color="#d6922a"></stop><stop offset=".999" stop-color="#d38f29"></stop></linearGradient><linearGradient id="IconifyId-17ab498a166-cbb4b1-453" x1="19.532" y1="27.942" x2="11.214" y2="16.674" xlink:href="#IconifyId-17ab498a166-cbb4b1-452"></linearGradient></defs><path d="M22.652 3.474l-3.994 4.348l-.055.055l-.6.656a7.2 7.2 0 1 1-4.006 0l-.6-.656l-.055-.055l-3.994-4.348a13.409 13.409 0 1 0 13.3 0z" fill="url(#IconifyId-17ab498a166-cbb4b1-452)"></path><path d="M24.1 23.839a5.287 5.287 0 0 1-5-7.011a2.1 2.1 0 0 1-1.6.688a2.153 2.153 0 0 1-1.417-.507c-.026.023-.054-.065-.082-.044c-.028-.021-.056.067-.082.044a2.153 2.153 0 0 1-1.417.507a2.1 2.1 0 0 1-1.6-.688a5.287 5.287 0 0 1-7.595 6.329a13.334 13.334 0 0 0 10.664 5.315h.054a13.334 13.334 0 0 0 10.664-5.315a5.264 5.264 0 0 1-2.589.682z" fill="url(#IconifyId-17ab498a166-cbb4b1-453)"></path></svg>