<svg xmlns="http://www.w3.org/2000/svg" xmlns:xlink="http://www.w3.org/1999/xlink" aria-hidden="true" role="img" class="iconify iconify--vscode-icons" width="1em" height="1em" preserveAspectRatio="xMidYMid meet" viewBox="0 0 32 32"><defs><radialGradient id="IconifyId-17ab498a166-cbb4b1-933" cx="20.365" cy="6.269" r="2.721" gradientTransform="matrix(-.148 .989 1.059 .158 11.812 -5.692)" gradientUnits="userSpaceOnUse"><stop offset="0" stop-color="#bedcdc"></stop><stop offset=".5" stop-color="#8e9e9e" stop-opacity=".74"></stop><stop offset="1" stop-color="#404f5c" stop-opacity=".84"></stop></radialGradient><radialGradient id="IconifyId-17ab498a166-cbb4b1-934" cx="6.566" cy="14.644" r="3.9" gradientTransform="matrix(-.148 .989 1.059 .158 9.451 15.181)" xlink:href="#IconifyId-17ab498a166-cbb4b1-933"></radialGradient></defs><path d="M27.4 5.5h-9.2l-2.1 4.2H4.3v4H.5l3.8 12.8h25.2v-21zm-7.2 2.1h7.1v2.1h-8.1zm5.5 6.1H6.6v-1.9h20.8v7.626z" fill="#7bbedb"></path><path fill="silver" d="M13.886 12.006l-1.803 1.803l-.901-1.803l.901-.901l1.803.901z"></path><path fill="silver" d="M16.772 11.912h-2.551L14.859 10h1.274l.639 1.912z"></path><path fill="silver" d="M18.877 13.886l-1.803-1.803l1.803-.901l.902.901l-.902 1.803z"></path><path fill="silver" d="M18.971 16.772v-2.551l1.912.638v1.274l-1.912.639z"></path><path fill="silver" d="M16.997 18.877l1.803-1.803l.901 1.803l-.901.902l-1.803-.902z"></path><path fill="silver" d="M14.112 18.971h2.55l-.637 1.912H14.75l-.638-1.912z"></path><path fill="silver" d="M12.006 16.997l1.803 1.803l-1.803.901l-.901-.901l.901-1.803z"></path><path fill="silver" d="M11.912 14.112v2.55L10 16.025V14.75l1.912-.638z"></path><path d="M11.663 15.442a3.778 3.778 0 1 1 1.107 2.672a3.778 3.778 0 0 1-1.107-2.672zm3.779 1.425a1.425 1.425 0 1 0-1.008-.418a1.425 1.425 0 0 0 1.008.418z" fill="silver"></path><path d="M15.5 18.939a3.5 3.5 0 1 0-3.555-3.439a3.5 3.5 0 0 0 3.555 3.439zm-.113-6.457a2.96 2.96 0 1 1-2.907 3.012a2.961 2.961 0 0 1 2.91-3.012z" fill="#a9a9a9"></path><path d="M15.489 18.162a2.721 2.721 0 1 0-2.767-2.673a2.72 2.72 0 0 0 2.767 2.673zm-.075-4.275a1.555 1.555 0 1 1-1.528 1.583a1.555 1.555 0 0 1 1.528-1.583z" fill="url(#IconifyId-17ab498a166-cbb4b1-933)"></path><path d="M15.47 17a1.555 1.555 0 1 0-1.583-1.526A1.555 1.555 0 0 0 15.47 17zm-.051-2.87a1.316 1.316 0 1 1-1.292 1.339a1.316 1.316 0 0 1 1.292-1.337z" fill="#a9a9a9"></path><path fill="silver" d="M27.572 19.763l-1.706-.947l1.098-1.176l1.024.568l-.416 1.555z"></path><path fill="silver" d="M29.208 22.119l-1.005-1.672l1.539-.47l.603 1.004l-1.137 1.138z"></path><path fill="silver" d="M29.446 24.978l-.034-1.951l1.568.363l.02 1.17l-1.554.418z"></path><path fill="silver" d="M28.223 27.572l.946-1.706l1.176 1.098l-.567 1.024l-1.555-.416z"></path><path fill="silver" d="M25.866 29.208l1.673-1.005l.469 1.539l-1.003.603l-1.139-1.137z"></path><path fill="silver" d="M23.007 29.446l1.952-.034l-.363 1.568l-1.171.02l-.418-1.554z"></path><path fill="silver" d="M20.413 28.223l1.706.946l-1.098 1.176l-1.024-.567l.416-1.555z"></path><path fill="silver" d="M18.777 25.866l1.005 1.673l-1.539.469l-.603-1.003l1.137-1.139z"></path><path fill="silver" d="M18.539 23.007l.034 1.952l-1.567-.363l-.021-1.171l1.554-.418z"></path><path fill="silver" d="M19.763 20.413l-.947 1.706l-1.176-1.098l.568-1.024l1.555.416z"></path><path fill="silver" d="M22.119 18.777l-1.672 1.005l-.47-1.539l1.004-.603l1.138 1.137z"></path><path fill="silver" d="M24.978 18.539l-1.951.034l.363-1.567l1.17-.021l.418 1.554z"></path><path d="M23.9 18.372a5.626 5.626 0 1 1-3.946 1.716a5.625 5.625 0 0 1 3.946-1.716zm-2.017 5.658a2.112 2.112 0 1 0 .592-1.5a2.11 2.11 0 0 0-.592 1.5z" fill="silver"></path><path d="M24.081 29.045a5.053 5.053 0 1 0-5.14-4.964a5.054 5.054 0 0 0 5.14 4.964zm-.163-9.327a4.275 4.275 0 1 1-4.2 4.35a4.275 4.275 0 0 1 4.2-4.35z" fill="#a9a9a9"></path><path d="M24.061 27.893a3.9 3.9 0 1 0-3.967-3.832a3.9 3.9 0 0 0 3.967 3.832zm-.105-6.027a2.128 2.128 0 1 1-2.09 2.164a2.127 2.127 0 0 1 2.089-2.164z" fill="url(#IconifyId-17ab498a166-cbb4b1-934)"></path><path d="M24.033 26.324a2.331 2.331 0 1 0-2.372-2.291a2.331 2.331 0 0 0 2.372 2.291zm-.075-4.3a1.973 1.973 0 1 1-1.938 2.007a1.972 1.972 0 0 1 1.938-2.007z" fill="#a9a9a9"></path></svg>