<svg xmlns="http://www.w3.org/2000/svg" xmlns:xlink="http://www.w3.org/1999/xlink" aria-hidden="true" role="img" class="iconify iconify--vscode-icons" width="1em" height="1em" preserveAspectRatio="xMidYMid meet" viewBox="0 0 32 32"><defs><linearGradient id="IconifyId-17ab498a166-cbb4b1-594" x1="23.325" y1="-118.543" x2="7.26" y2="-104.193" gradientTransform="matrix(1 0 0 -1 0 -96)" gradientUnits="userSpaceOnUse"><stop offset="0" stop-color="#fc5454"></stop><stop offset="1" stop-color="#af4343"></stop></linearGradient><linearGradient id="IconifyId-17ab498a166-cbb4b1-595" x1="7.1" y1="-104.002" x2="23.001" y2="-118.292" gradientTransform="matrix(1 0 0 -1 0 -96)" gradientUnits="userSpaceOnUse"><stop offset="0" stop-color="#fc5454"></stop><stop offset="1" stop-color="#bc3f3f"></stop></linearGradient></defs><path d="M3.174 26.589a1.154 1.154 0 0 1-.928-.423a1.234 1.234 0 0 1-.21-1.052L6.233 6.78a1.8 1.8 0 0 1 1.681-1.37h20.912a1.157 1.157 0 0 1 .928.423a1.235 1.235 0 0 1 .21 1.052l-4.2 18.335a1.8 1.8 0 0 1-1.681 1.37H3.174z" fill-rule="evenodd" fill="url(#IconifyId-17ab498a166-cbb4b1-594)"></path><path d="M7.914 5.646h20.912a.913.913 0 0 1 .908 1.187l-4.2 18.334a1.575 1.575 0 0 1-1.451 1.187H3.174a.913.913 0 0 1-.908-1.187l4.2-18.334a1.574 1.574 0 0 1 1.448-1.187z" fill-rule="evenodd" fill="url(#IconifyId-17ab498a166-cbb4b1-595)"></path><path d="M16.04 21.544h5.086a1.118 1.118 0 0 1 0 2.234H16.04a1.118 1.118 0 0 1 0-2.234z" fill="#8e2d2d" fill-rule="evenodd"></path><path d="M19.339 16.578a1.762 1.762 0 0 1-.591.6l-9.439 6.775a1.224 1.224 0 0 1-1.438-1.977l8.512-6.164v-.126L11.035 10a1.224 1.224 0 0 1 1.782-1.672l6.418 6.827a1.166 1.166 0 0 1 .104 1.423z" fill="#8e2d2d" fill-rule="evenodd"></path><path d="M19.1 16.342a1.749 1.749 0 0 1-.59.6l-9.436 6.776a1.225 1.225 0 0 1-1.439-1.977l8.513-6.164v-.127L10.8 9.761a1.224 1.224 0 0 1 1.783-1.672L19 14.916a1.162 1.162 0 0 1 .1 1.426z" fill="#fff" fill-rule="evenodd"></path><path d="M15.9 21.412h5.086a1.059 1.059 0 1 1 0 2.118H15.9a1.059 1.059 0 1 1 0-2.118z" fill="#fff" fill-rule="evenodd"></path></svg>