<svg xmlns="http://www.w3.org/2000/svg" xmlns:xlink="http://www.w3.org/1999/xlink" aria-hidden="true" role="img" class="iconify iconify--vscode-icons" width="1em" height="1em" preserveAspectRatio="xMidYMid meet" viewBox="0 0 32 32"><defs><radialGradient id="IconifyId-17ab498a166-cbb4b1-815" cx="29.86" cy="-463.041" r="15.86" gradientTransform="matrix(1 0 0 -1 0 -442)" gradientUnits="userSpaceOnUse"><stop offset=".045" stop-color="#f4793b"></stop><stop offset="1" stop-color="#fff33e"></stop></radialGradient><radialGradient id="IconifyId-17ab498a166-cbb4b1-816" cx="13.122" cy="-458.585" r="7.97" gradientTransform="matrix(1 0 0 -1 0 -442)" gradientUnits="userSpaceOnUse"><stop offset=".258" stop-color="#ee3d85"></stop><stop offset="1" stop-color="#7b5aa6"></stop></radialGradient><radialGradient id="IconifyId-17ab498a166-cbb4b1-817" cx="19.652" cy="-453.559" r="14.153" gradientTransform="matrix(1 0 0 -1 0 -442)" gradientUnits="userSpaceOnUse"><stop offset=".134" stop-color="#f05872"></stop><stop offset="1" stop-color="#f4793b"></stop></radialGradient><linearGradient id="IconifyId-17ab498a166-cbb4b1-818" x1="13.453" y1="-458.063" x2="18.024" y2="-454.205" gradientTransform="matrix(1 0 0 -1 0 -442)" gradientUnits="userSpaceOnUse"><stop offset="0" stop-color="#ee3d85"></stop><stop offset="1" stop-color="#f05872"></stop></linearGradient></defs><path d="M27.5 5.5h-9.3l-2.1 4.2H4.4v16.8h25.2v-21zm0 4.2h-8.2l1.1-2.1h7.1z" fill="#bfb755"></path><path d="M30.662 21.651a.749.749 0 0 0-.762-1.288L16.064 27.95a1.636 1.636 0 1 0 1.791 2.733z" opacity=".997" fill="url(#IconifyId-17ab498a166-cbb4b1-815)"></path><path d="M14.551 14.655a1.8 1.8 0 1 0-1.844 3.062l7.412 3.061a.694.694 0 0 0 .738-1.157z" fill="url(#IconifyId-17ab498a166-cbb4b1-816)"></path><path d="M19.995 10.065a1.422 1.422 0 0 0-1.188.158l-6.433 4.366a1.8 1.8 0 1 0 2.105 2.929q.065-.047.125-.1l5.864-4.884a1.426 1.426 0 0 0-.474-2.469z" opacity=".999" fill="url(#IconifyId-17ab498a166-cbb4b1-818)"></path><path d="M20.574 10.413a1.426 1.426 0 0 0-2.006 2.027l.057.054l11.166 9.129a.748.748 0 0 0 1.021-1.086z" opacity=".997" fill="url(#IconifyId-17ab498a166-cbb4b1-817)"></path></svg>