<svg xmlns="http://www.w3.org/2000/svg" xmlns:xlink="http://www.w3.org/1999/xlink" aria-hidden="true" role="img" class="iconify iconify--vscode-icons" width="1em" height="1em" preserveAspectRatio="xMidYMid meet" viewBox="0 0 32 32"><path d="M29.4 27.6H2.5V4.5h26.9zm-25.9-1h24.9V5.5H3.5z" fill="#00bd02"></path><path fill="#00bd02" d="M2.5 5.5h26.9v1.9H2.5z"></path><path fill="#00bd02" d="M11.333 9.5H19.5v1h-8.167z"></path><path fill="#00bd02" d="M11.333 12.083h12.5v1h-12.5z"></path><path fill="#00bd02" d="M11.333 14.75H21.95v1H11.333z"></path><path fill="#00bd02" d="M11.333 17.583H25.5v1H11.333z"></path><path fill="#00bd02" d="M11.333 20.5h9.834v1h-9.834z"></path><path fill="#00bd02" d="M11.5 23.083h12.167v1H11.5z"></path><path fill="#00bd02" d="M5.5 9.5h4.333v1H5.5z"></path><path fill="#00bd02" d="M5.5 12.083h4.333v1H5.5z"></path><path fill="#00bd02" d="M5.5 12.083h4.333v1H5.5z"></path><path fill="#00bd02" d="M5.5 14.667h4.333v1H5.5z"></path><path fill="#00bd02" d="M5.5 17.25h4.333v1H5.5z"></path><path fill="#00bd02" d="M5.5 20.5h4.333v1H5.5z"></path><path fill="#00bd02" d="M5.5 23.083h4.333v1H5.5z"></path></svg>