<svg xmlns="http://www.w3.org/2000/svg" xmlns:xlink="http://www.w3.org/1999/xlink" aria-hidden="true" role="img" class="iconify iconify--vscode-icons" width="1em" height="1em" preserveAspectRatio="xMidYMid meet" viewBox="0 0 32 32"><path d="M27.4 5.5h-9.2l-2.1 4.2H4.3v16.8h25.2v-21zm0 18.7H6.6V11.8h20.8zm0-14.5h-8.2l1-2.1h7.1v2.1z" fill="#dbab7b"></path><path fill="#dbab7b" d="M25.7 13.7H.5l3.8 12.8h25.2l-3.8-12.8z"></path><path d="M20.5 12.625L12.625 20.5l7.875 7.875l7.875-7.875l-7.875-7.875" fill="#f68712"></path><path d="M10 10l10.5 2.625l-7.875 7.875L10 10" fill="#fab20b"></path><path d="M31 10l-2.625 10.5l-7.875-7.875L31 10" fill="#f47216"></path><path d="M31 31l-10.5-2.625l7.875-7.875L31 31" fill="#f25c19"></path><path d="M10 31l2.625-10.5l7.875 7.875L10 31" fill="#f89c0e"></path><path d="M20.5 12.625L10 10h5.25l5.25 2.625" fill="#fbc707"></path><path d="M20.5 12.625L31 10h-5.25l-5.25 2.625" fill="#fbc707"></path><path d="M20.5 28.375L31 31h-5.25l-5.25-2.625" fill="#f68712"></path><path d="M20.5 28.375L10 31h5.25l5.25-2.625" fill="#f25c19"></path><path d="M12.625 20.5L10 31v-5.25l2.625-5.25" fill="#fff200"></path><path d="M12.625 20.5L10 10v5.25l2.625 5.25" fill="#fff200"></path><path d="M28.375 20.5L31 10v5.25l-2.625 5.25" fill="#f1471d"></path><path d="M28.375 20.5L31 31v-5.25l-2.625-5.25" fill="#f1471d"></path></svg>