<svg xmlns="http://www.w3.org/2000/svg" xmlns:xlink="http://www.w3.org/1999/xlink" aria-hidden="true" role="img" class="iconify iconify--vscode-icons" width="1em" height="1em" preserveAspectRatio="xMidYMid meet" viewBox="0 0 32 32"><path d="M16.245 24.187a8.352 8.352 0 1 1 8.355-8.352a8.362 8.362 0 0 1-8.355 8.352zm0-14.762a6.41 6.41 0 1 0 6.41 6.41a6.417 6.417 0 0 0-6.41-6.41z" fill="#000"></path><path fill="#262692" d="M29.132 8.551l-3.681-2.02v.943h-9.63v1.95h9.63v1.147l3.681-2.02z"></path><path fill="#262693" d="M8.984 2l-2.02 3.687h.942v9.641h1.951V5.687h1.147L8.984 2z"></path><path fill="#262693" d="M23.705 30l-2.02-3.757h.943v-9.826h1.95v9.826h1.147L23.705 30z"></path><path fill="#262692" d="M2.868 23.32l3.766-2.02v.942h9.85v1.95h-9.85v1.148l-3.766-2.02z"></path></svg>