<svg xmlns="http://www.w3.org/2000/svg" xmlns:xlink="http://www.w3.org/1999/xlink" aria-hidden="true" role="img" class="iconify iconify--vscode-icons" width="1em" height="1em" preserveAspectRatio="xMidYMid meet" viewBox="0 0 32 32"><defs><linearGradient id="IconifyId-17ab498a166-cbb4b1-392" x1="-264.845" y1="181.772" x2="-255.586" y2="182.061" gradientTransform="scale(-1 1) rotate(26.18 205.537 615.155)" gradientUnits="userSpaceOnUse"><stop offset="0" stop-color="#bd6316"></stop><stop offset="1" stop-color="#4e1500"></stop></linearGradient><linearGradient id="IconifyId-17ab498a166-cbb4b1-393" x1="-263.276" y1="170.205" x2="-256.603" y2="171.772" xlink:href="#IconifyId-17ab498a166-cbb4b1-392"></linearGradient><linearGradient id="IconifyId-17ab498a166-cbb4b1-394" x1="-265.068" y1="175.732" x2="-256.777" y2="178.801" xlink:href="#IconifyId-17ab498a166-cbb4b1-392"></linearGradient><linearGradient id="IconifyId-17ab498a166-cbb4b1-395" x1="-655.014" y1="147.549" x2="-655.555" y2="146.948" gradientTransform="scale(-1 1) rotate(-18.83 -723.282 -1847.955)" gradientUnits="userSpaceOnUse"><stop offset="0" stop-color="#ffd436"></stop><stop offset="1" stop-color="#8b3f02"></stop></linearGradient><linearGradient id="IconifyId-17ab498a166-cbb4b1-396" x1="-258.899" y1="170.981" x2="-253.843" y2="171.325" gradientTransform="scale(-1 1) rotate(26.18 205.537 615.155)" gradientUnits="userSpaceOnUse"><stop offset="0" stop-color="#fff8b7"></stop><stop offset="1" stop-color="#fcbf0e"></stop></linearGradient><linearGradient id="IconifyId-17ab498a166-cbb4b1-397" x1="-258.884" y1="170.975" x2="-253.896" y2="171.314" xlink:href="#IconifyId-17ab498a166-cbb4b1-392"></linearGradient><linearGradient id="IconifyId-17ab498a166-cbb4b1-398" x1="-257.805" y1="172.266" x2="-257.726" y2="168.648" gradientTransform="scale(-1 1) rotate(26.18 205.537 615.155)" xlink:href="#IconifyId-17ab498a166-cbb4b1-395"></linearGradient><linearGradient id="IconifyId-17ab498a166-cbb4b1-399" x1="-258.935" y1="181.92" x2="-256.173" y2="182.108" xlink:href="#IconifyId-17ab498a166-cbb4b1-396"></linearGradient><linearGradient id="IconifyId-17ab498a166-cbb4b1-400" x1="-274.156" y1="170.544" x2="-274.512" y2="173.778" gradientTransform="matrix(-1 0 0 1 -257.657 -155.509)" xlink:href="#IconifyId-17ab498a166-cbb4b1-395"></linearGradient><linearGradient id="IconifyId-17ab498a166-cbb4b1-401" x1="-645.79" y1="-337.938" x2="-645.121" y2="-334.17" gradientTransform="scale(-1 1) rotate(-52.06 29.075 -802.903)" gradientUnits="userSpaceOnUse"><stop offset="0" stop-color="#ffef94"></stop><stop offset="1" stop-color="#ffd200"></stop></linearGradient><linearGradient id="IconifyId-17ab498a166-cbb4b1-402" x1="-276.128" y1="178.682" x2="-274.754" y2="178.682" gradientTransform="scale(-1 1) rotate(26.18 189.155 648.159)" xlink:href="#IconifyId-17ab498a166-cbb4b1-395"></linearGradient><linearGradient id="IconifyId-17ab498a166-cbb4b1-403" x1="-274.314" y1="178.887" x2="-271.841" y2="178.987" gradientTransform="scale(-1 1) rotate(26.18 189.155 648.159)" xlink:href="#IconifyId-17ab498a166-cbb4b1-395"></linearGradient><linearGradient id="IconifyId-17ab498a166-cbb4b1-404" x1="-273.817" y1="189.281" x2="-274.213" y2="174.569" gradientTransform="scale(-1 1) rotate(26.18 189.155 648.159)" gradientUnits="userSpaceOnUse"><stop offset="0" stop-color="#d89530"></stop><stop offset="1" stop-color="#772d00"></stop></linearGradient><linearGradient id="IconifyId-17ab498a166-cbb4b1-405" x1="-274.075" y1="174.09" x2="-273.917" y2="181.459" gradientTransform="scale(-1 1) rotate(26.18 189.155 648.159)" xlink:href="#IconifyId-17ab498a166-cbb4b1-395"></linearGradient><linearGradient id="IconifyId-17ab498a166-cbb4b1-406" x1="-272.919" y1="189.281" x2="-273.315" y2="174.57" xlink:href="#IconifyId-17ab498a166-cbb4b1-404"></linearGradient><linearGradient id="IconifyId-17ab498a166-cbb4b1-407" x1="-273.177" y1="174.071" x2="-273.019" y2="181.44" gradientTransform="scale(-1 1) rotate(26.18 189.155 648.159)" xlink:href="#IconifyId-17ab498a166-cbb4b1-395"></linearGradient><linearGradient id="IconifyId-17ab498a166-cbb4b1-408" x1="-652.29" y1="-335.227" x2="-651.867" y2="-332.867" gradientTransform="scale(-1 1) rotate(-52.06 29.075 -802.903)" gradientUnits="userSpaceOnUse"><stop offset="0" stop-color="#ffdb57"></stop><stop offset="1" stop-color="#b55c13"></stop></linearGradient><linearGradient id="IconifyId-17ab498a166-cbb4b1-409" x1="-665.076" y1="157.413" x2="-659.751" y2="150.922" gradientTransform="scale(-1 1) rotate(-18.83 -723.282 -1847.955)" xlink:href="#IconifyId-17ab498a166-cbb4b1-404"></linearGradient><linearGradient id="IconifyId-17ab498a166-cbb4b1-410" x1="-665.161" y1="156.114" x2="-664.822" y2="155.701" gradientTransform="scale(-1 1) rotate(-18.83 -723.282 -1847.955)" xlink:href="#IconifyId-17ab498a166-cbb4b1-404"></linearGradient><linearGradient id="IconifyId-17ab498a166-cbb4b1-411" x1="-665.308" y1="156.436" x2="-665.836" y2="155.32" gradientTransform="scale(-1 1) rotate(-18.83 -723.282 -1847.955)" xlink:href="#IconifyId-17ab498a166-cbb4b1-404"></linearGradient><linearGradient id="IconifyId-17ab498a166-cbb4b1-412" x1="-655.442" y1="147.568" x2="-654.817" y2="146.776" xlink:href="#IconifyId-17ab498a166-cbb4b1-395"></linearGradient><linearGradient id="IconifyId-17ab498a166-cbb4b1-413" x1="-253.999" y1="175.1" x2="-254.134" y2="173.736" gradientTransform="scale(-1 1) rotate(26.18 205.537 615.155)" xlink:href="#IconifyId-17ab498a166-cbb4b1-404"></linearGradient><linearGradient id="IconifyId-17ab498a166-cbb4b1-414" x1="-252.571" y1="173.138" x2="-252.785" y2="170.963" gradientTransform="scale(-1 1) rotate(26.18 205.537 615.155)" xlink:href="#IconifyId-17ab498a166-cbb4b1-404"></linearGradient><linearGradient id="IconifyId-17ab498a166-cbb4b1-415" x1="-257.206" y1="169.107" x2="-259.174" y2="169.787" gradientTransform="scale(-1 1) rotate(26.18 205.537 615.155)" xlink:href="#IconifyId-17ab498a166-cbb4b1-404"></linearGradient><linearGradient id="IconifyId-17ab498a166-cbb4b1-416" x1="-260.717" y1="170.284" x2="-260.77" y2="171.228" gradientTransform="scale(-1 1) rotate(26.18 205.537 615.155)" xlink:href="#IconifyId-17ab498a166-cbb4b1-404"></linearGradient><linearGradient id="IconifyId-17ab498a166-cbb4b1-417" x1="-257.835" y1="174.993" x2="-257.782" y2="171.93" gradientTransform="scale(-1 1) rotate(26.18 205.537 615.155)" xlink:href="#IconifyId-17ab498a166-cbb4b1-395"></linearGradient><linearGradient id="IconifyId-17ab498a166-cbb4b1-418" x1="-263.928" y1="171.018" x2="-255.721" y2="171.018" gradientTransform="scale(-1 1) rotate(26.18 205.537 615.155)" xlink:href="#IconifyId-17ab498a166-cbb4b1-395"></linearGradient><linearGradient id="IconifyId-17ab498a166-cbb4b1-419" x1="-514.299" y1="-57.926" x2="-505.041" y2="-57.638" gradientTransform="matrix(-.947 -.323 -.148 .966 -476.554 -85.464)" xlink:href="#IconifyId-17ab498a166-cbb4b1-392"></linearGradient><linearGradient id="IconifyId-17ab498a166-cbb4b1-420" x1="-512.744" y1="-69.496" x2="-505.964" y2="-67.904" gradientTransform="matrix(-.947 -.323 -.148 .966 -476.554 -85.464)" xlink:href="#IconifyId-17ab498a166-cbb4b1-392"></linearGradient><linearGradient id="IconifyId-17ab498a166-cbb4b1-421" x1="-514.521" y1="-63.966" x2="-506.23" y2="-60.897" gradientTransform="matrix(-.947 -.323 -.148 .966 -476.554 -85.464)" xlink:href="#IconifyId-17ab498a166-cbb4b1-392"></linearGradient><linearGradient id="IconifyId-17ab498a166-cbb4b1-422" x1="-662.221" y1="-197.167" x2="-662.762" y2="-197.768" gradientTransform="matrix(-.564 -.911 -.774 .455 -516.113 -497.612)" xlink:href="#IconifyId-17ab498a166-cbb4b1-395"></linearGradient><linearGradient id="IconifyId-17ab498a166-cbb4b1-423" x1="-508.354" y1="-68.717" x2="-503.297" y2="-68.373" gradientTransform="matrix(-.947 -.323 -.148 .966 -476.554 -85.464)" xlink:href="#IconifyId-17ab498a166-cbb4b1-396"></linearGradient><linearGradient id="IconifyId-17ab498a166-cbb4b1-424" x1="-508.338" y1="-68.723" x2="-503.351" y2="-68.384" gradientTransform="matrix(-.947 -.323 -.148 .966 -476.554 -85.464)" xlink:href="#IconifyId-17ab498a166-cbb4b1-392"></linearGradient><linearGradient id="IconifyId-17ab498a166-cbb4b1-425" x1="-507.26" y1="-67.432" x2="-507.18" y2="-71.05" gradientTransform="matrix(-.947 -.323 -.148 .966 -476.554 -85.464)" xlink:href="#IconifyId-17ab498a166-cbb4b1-395"></linearGradient><linearGradient id="IconifyId-17ab498a166-cbb4b1-426" x1="-508.389" y1="-57.779" x2="-505.627" y2="-57.591" gradientTransform="matrix(-.947 -.323 -.148 .966 -476.554 -85.464)" xlink:href="#IconifyId-17ab498a166-cbb4b1-396"></linearGradient><linearGradient id="IconifyId-17ab498a166-cbb4b1-427" x1="-523.609" y1="-69.153" x2="-523.966" y2="-65.918" gradientTransform="matrix(-.947 -.323 -.148 .966 -492.49 -86.99)" xlink:href="#IconifyId-17ab498a166-cbb4b1-395"></linearGradient><linearGradient id="IconifyId-17ab498a166-cbb4b1-428" x1="-645.333" y1="-334.169" x2="-642.973" y2="-332.091" xlink:href="#IconifyId-17ab498a166-cbb4b1-401"></linearGradient><linearGradient id="IconifyId-17ab498a166-cbb4b1-429" x1="-525.581" y1="-61.015" x2="-524.207" y2="-61.015" gradientTransform="matrix(-.947 -.323 -.148 .966 -492.49 -86.99)" xlink:href="#IconifyId-17ab498a166-cbb4b1-395"></linearGradient><linearGradient id="IconifyId-17ab498a166-cbb4b1-430" x1="-523.768" y1="-60.81" x2="-521.294" y2="-60.71" gradientTransform="matrix(-.947 -.323 -.148 .966 -492.49 -86.99)" xlink:href="#IconifyId-17ab498a166-cbb4b1-395"></linearGradient><linearGradient id="IconifyId-17ab498a166-cbb4b1-431" x1="-523.27" y1="-50.416" x2="-523.666" y2="-65.127" gradientTransform="matrix(-.947 -.323 -.148 .966 -492.49 -86.99)" xlink:href="#IconifyId-17ab498a166-cbb4b1-404"></linearGradient><linearGradient id="IconifyId-17ab498a166-cbb4b1-432" x1="-523.528" y1="-65.606" x2="-523.37" y2="-58.238" gradientTransform="matrix(-.947 -.323 -.148 .966 -492.49 -86.99)" xlink:href="#IconifyId-17ab498a166-cbb4b1-395"></linearGradient><linearGradient id="IconifyId-17ab498a166-cbb4b1-433" x1="-522.372" y1="-50.416" x2="-522.768" y2="-65.127" gradientTransform="matrix(-.947 -.323 -.148 .966 -492.49 -86.99)" xlink:href="#IconifyId-17ab498a166-cbb4b1-404"></linearGradient><linearGradient id="IconifyId-17ab498a166-cbb4b1-434" x1="-522.631" y1="-65.626" x2="-522.472" y2="-58.257" gradientTransform="matrix(-.947 -.323 -.148 .966 -492.49 -86.99)" xlink:href="#IconifyId-17ab498a166-cbb4b1-395"></linearGradient><linearGradient id="IconifyId-17ab498a166-cbb4b1-435" x1="-649.116" y1="-328.591" x2="-646.827" y2="-326.795" xlink:href="#IconifyId-17ab498a166-cbb4b1-401"></linearGradient><linearGradient id="IconifyId-17ab498a166-cbb4b1-436" x1="-672.284" y1="-187.303" x2="-666.958" y2="-193.795" gradientTransform="matrix(-.564 -.911 -.774 .455 -516.113 -497.612)" xlink:href="#IconifyId-17ab498a166-cbb4b1-404"></linearGradient><linearGradient id="IconifyId-17ab498a166-cbb4b1-437" x1="-672.369" y1="-188.603" x2="-672.03" y2="-189.016" gradientTransform="matrix(-.564 -.911 -.774 .455 -516.113 -497.612)" xlink:href="#IconifyId-17ab498a166-cbb4b1-404"></linearGradient><linearGradient id="IconifyId-17ab498a166-cbb4b1-438" x1="-672.516" y1="-188.281" x2="-673.044" y2="-189.397" gradientTransform="matrix(-.564 -.911 -.774 .455 -516.113 -497.612)" xlink:href="#IconifyId-17ab498a166-cbb4b1-404"></linearGradient><linearGradient id="IconifyId-17ab498a166-cbb4b1-439" x1="-662.648" y1="-197.148" x2="-662.023" y2="-197.94" gradientTransform="matrix(-.564 -.911 -.774 .455 -516.113 -497.612)" xlink:href="#IconifyId-17ab498a166-cbb4b1-395"></linearGradient><linearGradient id="IconifyId-17ab498a166-cbb4b1-440" x1="-503.367" y1="-64.607" x2="-503.501" y2="-65.971" gradientTransform="matrix(-.947 -.323 -.148 .966 -476.554 -85.464)" xlink:href="#IconifyId-17ab498a166-cbb4b1-404"></linearGradient><linearGradient id="IconifyId-17ab498a166-cbb4b1-441" x1="-502.006" y1="-66.361" x2="-502.232" y2="-68.654" gradientTransform="matrix(-.947 -.323 -.148 .966 -476.554 -85.464)" xlink:href="#IconifyId-17ab498a166-cbb4b1-404"></linearGradient><linearGradient id="IconifyId-17ab498a166-cbb4b1-442" x1="-506.661" y1="-70.591" x2="-508.629" y2="-69.911" gradientTransform="matrix(-.947 -.323 -.148 .966 -476.554 -85.464)" xlink:href="#IconifyId-17ab498a166-cbb4b1-404"></linearGradient><linearGradient id="IconifyId-17ab498a166-cbb4b1-443" x1="-510.172" y1="-69.414" x2="-510.224" y2="-68.47" gradientTransform="matrix(-.947 -.323 -.148 .966 -476.554 -85.464)" xlink:href="#IconifyId-17ab498a166-cbb4b1-404"></linearGradient><linearGradient id="IconifyId-17ab498a166-cbb4b1-444" x1="-507.289" y1="-64.705" x2="-507.236" y2="-67.768" gradientTransform="matrix(-.947 -.323 -.148 .966 -476.554 -85.464)" xlink:href="#IconifyId-17ab498a166-cbb4b1-395"></linearGradient><linearGradient id="IconifyId-17ab498a166-cbb4b1-445" x1="-642.337" y1="-337.231" x2="-640.048" y2="-335.435" gradientTransform="scale(-1 1) rotate(-52.06 29.075 -802.903)" gradientUnits="userSpaceOnUse"><stop offset="0" stop-color="#ffdb57"></stop><stop offset="1" stop-color="#b66512"></stop></linearGradient><linearGradient id="IconifyId-17ab498a166-cbb4b1-446" x1="-628.479" y1="-215.005" x2="-627.663" y2="-209.203" gradientTransform="scale(-1 1) rotate(-37.85 -2.119 -997.83)" xlink:href="#IconifyId-17ab498a166-cbb4b1-392"></linearGradient><linearGradient id="IconifyId-17ab498a166-cbb4b1-447" x1="-633.006" y1="-211.18" x2="-622.552" y2="-211.18" gradientTransform="scale(-1 1) rotate(-37.85 -2.119 -997.83)" xlink:href="#IconifyId-17ab498a166-cbb4b1-396"></linearGradient><linearGradient id="IconifyId-17ab498a166-cbb4b1-448" x1="-627.491" y1="-215.556" x2="-627.755" y2="-211.648" gradientTransform="scale(-1 1) rotate(-37.85 -2.119 -997.83)" xlink:href="#IconifyId-17ab498a166-cbb4b1-395"></linearGradient><linearGradient id="IconifyId-17ab498a166-cbb4b1-449" x1="-627.796" y1="-210.705" x2="-627.057" y2="-205.186" gradientTransform="scale(-1 1) rotate(-37.85 -2.119 -997.83)" xlink:href="#IconifyId-17ab498a166-cbb4b1-395"></linearGradient><linearGradient id="IconifyId-17ab498a166-cbb4b1-450" x1="245.815" y1="139.434" x2="245.923" y2="136.367" gradientTransform="rotate(7.312 1187.515 -1764.249)" xlink:href="#IconifyId-17ab498a166-cbb4b1-396"></linearGradient><linearGradient id="IconifyId-17ab498a166-cbb4b1-451" x1="-626.269" y1="-215.112" x2="-627.643" y2="-213.078" gradientTransform="scale(-1 1) rotate(-37.85 -2.119 -997.83)" xlink:href="#IconifyId-17ab498a166-cbb4b1-395"></linearGradient></defs><path fill="url(#IconifyId-17ab498a166-cbb4b1-392)" d="M13.372 16.416l5.013-2.464l.93 1.893l-.054.238l-2.048 1.007l5.706 11.611l-.221.359l-1.543.758l-.82-.45l-5.459-11.109l-.482.237l-1.022-2.08z"></path><path d="M9.24 13.619l1.2 2.44c.072.146.416.252.617.292l2.634.683l4.609-2.268l.867-2.342a.679.679 0 0 0 .036-.674l-1.2-2.44a.546.546 0 0 0-.452-.3l-4.44.136a1.278 1.278 0 0 0-1.018.541l-2.72 3.162a.916.916 0 0 0-.133.77zm1.932.033a.356.356 0 0 1 .011-.334l1.84-2.215a.829.829 0 0 1 .66-.351l2.877-.088a.355.355 0 0 1 .293.2l.356.725a.242.242 0 0 1-.139.339L11.833 14.5a.224.224 0 0 1-.3-.121z" fill="url(#IconifyId-17ab498a166-cbb4b1-393)"></path><path d="M9.426 13.209l1.2 2.44c.072.146.416.252.617.292l2.7.547l.782 1.591l.375-.179l5.459 11.109l.82.451l1.541-.76l-.017-.683l.868-1.458l-.241-.49l-.54.1l-.31-.63l.41-.366l-.59-1.199l-.593-.006l-.277-.564l.357-.473l-.3-.607l-.568.043l-.432-.879l.382-.423l-.161-.327a.871.871 0 0 1-.659-1.342l-.345-.7a1.347 1.347 0 0 1-.962-1.956l-.29-.591l.631-.31l-.773-1.546l.843-2.277a.68.68 0 0 0 .035-.674l-1.2-2.44a.546.546 0 0 0-.453-.3l-4.435.131a1.278 1.278 0 0 0-1.018.541l-2.84 3.419a.548.548 0 0 0-.016.516zm1.932.033a.356.356 0 0 1 .011-.334l1.84-2.215a.828.828 0 0 1 .66-.351l2.877-.088a.354.354 0 0 1 .293.2l.356.725a.242.242 0 0 1-.139.339l-5.238 2.574a.224.224 0 0 1-.3-.121z" fill="url(#IconifyId-17ab498a166-cbb4b1-394)"></path><path fill="url(#IconifyId-17ab498a166-cbb4b1-395)" d="M14.47 18.381l.276-.318l.335-.164l-.139.245l-.472.237z"></path><path d="M11.259 15.828l2.776.6l4.38-2.152l.865-2.339a.576.576 0 0 0 .024-.567L18.1 8.917a.441.441 0 0 0-.367-.246l-4.438.13a1.169 1.169 0 0 0-.938.5L9.52 12.725a.447.447 0 0 0-.011.414l1.206 2.453a1 1 0 0 0 .544.236zm.354-1.836l-.358-.729a.463.463 0 0 1 .013-.434v-.008l1.853-2.221a.922.922 0 0 1 .739-.389l2.881-.084a.468.468 0 0 1 .392.257l.358.729c.005.009.19.3-.187.481l-5.244 2.577c-.272.129-.44-.164-.447-.179z" fill="url(#IconifyId-17ab498a166-cbb4b1-396)"></path><path d="M11.246 15.738c.006 0 2.438.51 2.751.591l4.354-2.139l.878-2.336a.472.472 0 0 0 .015-.458l-1.208-2.458a.337.337 0 0 0-.282-.187l-4.454.141a1.083 1.083 0 0 0-.864.46l-2.863 3.436a.341.341 0 0 0-.008.313l1.206 2.454a1.118 1.118 0 0 0 .475.183zm.245-1.7l-.355-.723a.568.568 0 0 1 .018-.535v-.008l.01-.015l1.865-2.241a1.033 1.033 0 0 1 .824-.43l2.9-.091a.575.575 0 0 1 .492.316l.359.73a.456.456 0 0 1 .027.338a.484.484 0 0 1-.265.286l-5.287 2.6a.415.415 0 0 1-.331.025a.486.486 0 0 1-.258-.248z" fill="url(#IconifyId-17ab498a166-cbb4b1-397)"></path><path d="M11.268 15.663c.009 0 2.53.528 2.722.577l4.3-2.113l.878-2.314a.419.419 0 0 0 .01-.4l-1.2-2.436a.282.282 0 0 0-.237-.156l-4.433.149a1.033 1.033 0 0 0-.82.437l-2.353 2.823l-.5.595a.285.285 0 0 0 0 .254l1.193 2.421a1.181 1.181 0 0 0 .44.163zm.14-1.529l-.351-.715a.575.575 0 0 1-.011-.56l1.959-2.36a1.082 1.082 0 0 1 .86-.447l2.887-.1a.628.628 0 0 1 .538.341l.356.724a.539.539 0 0 1-.309.773l-5.267 2.588a.482.482 0 0 1-.662-.243z" fill="url(#IconifyId-17ab498a166-cbb4b1-398)"></path><path d="M18.463 14.345l.7 1.433l-.653.321l.319.649a1.428 1.428 0 0 0 1 2.043l.3.619a.958.958 0 0 0 .706 1.436l.107.218l-.39.428l.5 1.011l.577-.047l.239.485l-.366.478l.336.683h.6l.523 1.065l-.419.371l.382.777l.549-.1l.181.368A96.344 96.344 0 0 1 22.8 28v.638l-1.342.659l-.729-.414l-5.488-11.176l-.467.23l-.7-1.433z" fill="url(#IconifyId-17ab498a166-cbb4b1-399)"></path><path transform="rotate(-26.171 16.6 16.113)" fill="url(#IconifyId-17ab498a166-cbb4b1-400)" d="M14.289 15.413h4.622v1.4h-4.622z"></path><path d="M18.128 14.582l-.8.392l.617 1.256l.8-.392zm-1.319.648l.617 1.256l.308-.152l-.617-1.256z" fill="url(#IconifyId-17ab498a166-cbb4b1-401)"></path><path d="M18.4 16.123l.308.628a1.523 1.523 0 0 0 1.037 2.11l.263.535a1.052 1.052 0 0 0 .744 1.513l.054.111l-.381.423l.557 1.134l.567-.043l.177.36l-.357.472l.392.8l.591.006l.456.929l-.409.366l.45.917l.539-.1l.12.243L22.634 28l-1.027.5l-5.525-11.235z" fill="url(#IconifyId-17ab498a166-cbb4b1-402)"></path><path d="M17.141 16.745l5.528 11.248l.046.511l-1.247.613l-.613-.349l-5.483-11.154z" fill="url(#IconifyId-17ab498a166-cbb4b1-403)"></path><path fill="url(#IconifyId-17ab498a166-cbb4b1-404)" d="M22.287 28.694l.427-.21l-4.794-9.754l-1.028-1.554l.602 1.764l4.793 9.754z"></path><path fill="url(#IconifyId-17ab498a166-cbb4b1-405)" d="M16.892 17.176L22.5 28.589l-.213.105l-4.793-9.754l-.602-1.764z"></path><path fill="url(#IconifyId-17ab498a166-cbb4b1-406)" d="M21.481 29.09l.427-.209l-4.794-9.755l-1.028-1.554l.602 1.764l4.793 9.754z"></path><path fill="url(#IconifyId-17ab498a166-cbb4b1-407)" d="M16.086 17.572l5.608 11.413l-.213.105l-4.793-9.754l-.602-1.764z"></path><path d="M18.27 16.189l-.411.2l5.285 10.755l.279-.47l-.181-.369l-.386.072l-.45-.917l.294-.26l-.508-1.034h-.424l-.392-.8l.256-.338l-.237-.482l-.407.031l-.557-1.134l.273-.3l-.143-.291a1.038 1.038 0 0 1-.619-1.259l-.391-.8a1.505 1.505 0 0 1-.906-1.844zm-.68.334l5.371 10.929l.108-.182l-5.319-10.825z" fill="url(#IconifyId-17ab498a166-cbb4b1-408)"></path><path fill="url(#IconifyId-17ab498a166-cbb4b1-409)" d="M15.018 18.247l5.356 10.997l.196-.273l-5.391-11.032l-.161.308z"></path><path fill="url(#IconifyId-17ab498a166-cbb4b1-410)" d="M20.436 29.315l.211-.291l.705.361l-.203.294l-.713-.364z"></path><path fill="url(#IconifyId-17ab498a166-cbb4b1-411)" d="M21.446 29.41l-.179.26l1.382-.659l.131-.241l-1.334.64z"></path><path fill="url(#IconifyId-17ab498a166-cbb4b1-412)" d="M14.029 16.673l-.225.388l.601 1.293l.297-.354l-.673-1.327z"></path><path fill="url(#IconifyId-17ab498a166-cbb4b1-413)" d="M13.946 16.506l-.239.432l-2.944-.761l.124-.345l3.059.674z"></path><path d="M9.359 13s-.145.444-.087.563l1.212 2.465l.2-.384z" fill="url(#IconifyId-17ab498a166-cbb4b1-414)"></path><path d="M16.683 10.624l.1-.327l-2.963.095a.914.914 0 0 0-.51.251l-.007.165a1.871 1.871 0 0 1 .394-.1z" fill="url(#IconifyId-17ab498a166-cbb4b1-415)"></path><path d="M16.83 10.309a.329.329 0 0 1 .17.137l.382.762l-.164.279l-.341-.693c-.023-.047-.108-.145-.147-.149z" fill="url(#IconifyId-17ab498a166-cbb4b1-416)"></path><path d="M11.237 13.786l.171.348a.482.482 0 0 0 .661.248l5.267-2.588a.539.539 0 0 0 .309-.773l-.153-.31l1.08-.531l.606 1.232a.419.419 0 0 1-.01.4l-.878 2.314l-4.3 2.113c-.191-.049-2.713-.575-2.722-.577a1.181 1.181 0 0 1-.439-.16l-.6-1.222z" fill="url(#IconifyId-17ab498a166-cbb4b1-417)"></path><path d="M13.377 8.968l.532 1.084l.539-.018l-.532-1.084zm2.306-.077l-1.395.047l.533 1.084l1.4-.046zm1.471 2.994l-1.142.561l1.106 2.25l1.142-.561zm-1.447.711l-.441.217l1.106 2.251l.441-.217z" fill="url(#IconifyId-17ab498a166-cbb4b1-418)"></path><path fill="url(#IconifyId-17ab498a166-cbb4b1-419)" d="M10.65 14.159l5.287 1.803L15.623 18l-.173.134l-2.16-.737l-1.921 12.501l-.371.102l-1.627-.555l-.395-.913l1.838-11.961l-.508-.173l.344-2.239z"></path><path d="M8.951 9.175l-.542 2.747a.567.567 0 0 0 .175.452l1.976 2.461l4.866 1.659l1.969-1.077a.535.535 0 0 0 .4-.463l.4-2.627a.659.659 0 0 0-.188-.544L14.453 8.7a1.313 1.313 0 0 0-1.1-.337l-3.874.345a.707.707 0 0 0-.528.467zm1.5 1.407a.281.281 0 0 1 .192-.234l2.633-.256a.928.928 0 0 1 .724.315l2.3 2a.426.426 0 0 1 .121.352l-.1.651s-.027.237-.3.146L10.5 11.667a.269.269 0 0 1-.172-.305z" fill="url(#IconifyId-17ab498a166-cbb4b1-420)"></path><path d="M9.322 9.01l-.4 2.627c-.024.157.188.481.324.653l1.817 2.33l-.263 1.714l.392.134l-1.843 11.959l.395.914l1.627.555l.363-.507l1.483-.436l.081-.528l-.479-.314l.1-.678l.523.028l.2-1.283l-.461-.428l.093-.608l.54-.087l.1-.653l-.469-.375l.145-.946l.532-.034l.054-.352a1.047 1.047 0 0 1-.29-.859a.688.688 0 0 1 .512-.585l.116-.756a1.6 1.6 0 0 1-.364-1.232a1.07 1.07 0 0 1 .688-.874l.1-.636l.666.227l.246-1.674l1.915-1.047a.535.535 0 0 0 .4-.463l.4-2.627a.657.657 0 0 0-.188-.544l-3.556-3.08a1.313 1.313 0 0 0-1.1-.336l-4.109.445a.434.434 0 0 0-.29.356zm1.5 1.407a.281.281 0 0 1 .192-.234l2.663-.289a.852.852 0 0 1 .711.218l2.3 2a.427.427 0 0 1 .122.352l-.12.781s-.027.237-.3.146L10.871 11.5a.269.269 0 0 1-.171-.3z" fill="url(#IconifyId-17ab498a166-cbb4b1-421)"></path><path fill="url(#IconifyId-17ab498a166-cbb4b1-422)" d="M10.428 16.37l.392-.033l.353.12l-.244.078l-.501-.165z"></path><path d="M9.317 12.221l1.846 2.421l4.619 1.575l1.967-1.076a.454.454 0 0 0 .331-.393l.406-2.641a.53.53 0 0 0-.152-.441l-3.552-3.083a1.207 1.207 0 0 0-1.011-.31l-4.109.453a.354.354 0 0 0-.237.292l-.405 2.641a1.261 1.261 0 0 0 .297.562zm1.289-1.077l.121-.785a.367.367 0 0 1 .25-.305h.008l2.675-.295a.953.953 0 0 1 .794.247l2.3 2a.563.563 0 0 1 .166.467l-.121.785c0 .01-.014.35-.411.215l-5.53-1.886a.423.423 0 0 1-.252-.443z" fill="url(#IconifyId-17ab498a166-cbb4b1-423)"></path><path d="M9.356 12.146c0 .005 1.63 2.115 1.831 2.4l4.591 1.566l1.974-1.065a.372.372 0 0 0 .264-.321l.406-2.646a.405.405 0 0 0-.118-.338l-3.571-3.091a1.117 1.117 0 0 0-.931-.285l-4.133.444a.271.271 0 0 0-.179.221l-.406 2.642a1.421 1.421 0 0 0 .272.473zm1.126-1.054l.12-.778a.451.451 0 0 1 .309-.375h.024l2.7-.29a1.07 1.07 0 0 1 .883.278l2.324 2.01a.694.694 0 0 1 .212.581l-.121.786a.38.38 0 0 1-.165.265a.417.417 0 0 1-.365.018l-5.576-1.9a.5.5 0 0 1-.273-.219a.55.55 0 0 1-.072-.377z" fill="url(#IconifyId-17ab498a166-cbb4b1-424)"></path><path d="M9.415 12.108c.006.008 1.693 2.194 1.816 2.366l4.535 1.546l1.963-1.048a.33.33 0 0 0 .228-.282l.4-2.623a.339.339 0 0 0-.1-.283L14.7 8.719a1.066 1.066 0 0 0-.884-.271l-3.4.359l-.716.076a.226.226 0 0 0-.142.183s-.4 2.594-.4 2.611a1.506 1.506 0 0 0 .257.431zm.952-1.007l.118-.77a.463.463 0 0 1 .3-.414l2.836-.308a1.12 1.12 0 0 1 .921.292l2.316 2a.758.758 0 0 1 .234.632s-.1.633-.12.779c-.034.219-.191.5-.668.339l-5.555-1.894a.584.584 0 0 1-.383-.657z" fill="url(#IconifyId-17ab498a166-cbb4b1-425)"></path><path d="M15.781 16.3l-.237 1.543l-.689-.235l-.107.7a1.158 1.158 0 0 0-.7.917a1.723 1.723 0 0 0 .367 1.283l-.1.666a.765.765 0 0 0-.527.634a1.154 1.154 0 0 0 .29.912l-.036.235l-.542.031l-.167 1.088l.479.379l-.08.522l-.55.084l-.113.736l.471.432l-.176 1.146l-.532-.031l-.128.837l.488.317l-.061.4c-.09.027-1.455.411-1.455.411l-.352.462l-1.424-.483l-.343-.822l1.843-12.03l-.493-.168l.237-1.543z" fill="url(#IconifyId-17ab498a166-cbb4b1-426)"></path><path fill="url(#IconifyId-17ab498a166-cbb4b1-427)" d="M11.056 16.181l4.374 1.491l.208-1.352l-4.374-1.492l-.208 1.353z"></path><path d="M15.388 16.234l-.842-.287l-.207 1.353l.841.287zM14 15.76l-.208 1.353l.325.111l.208-1.353z" fill="url(#IconifyId-17ab498a166-cbb4b1-428)"></path><path d="M14.756 17.55l-.1.676a1.251 1.251 0 0 0-.7.957A1.845 1.845 0 0 0 14.3 20.5l-.089.576a.844.844 0 0 0-.525.678a1.256 1.256 0 0 0 .275.95l-.018.119l-.531.034l-.188 1.221l.469.375l-.06.388l-.539.087l-.132.858l.46.427l-.154 1l-.522-.028l-.152.987l.478.314l-.04.262l-1.506.443l-1.083-.369l1.86-12.1z" fill="url(#IconifyId-17ab498a166-cbb4b1-429)"></path><path d="M13.423 17.1l-1.86 12.1l-.246.4L10 29.16l-.289-.692l1.845-12.009z" fill="url(#IconifyId-17ab498a166-cbb4b1-430)"></path><path fill="url(#IconifyId-17ab498a166-cbb4b1-431)" d="M10.877 29.44l.45.154l1.614-10.501l.049-1.863l-.499 1.709l-1.614 10.501z"></path><path fill="url(#IconifyId-17ab498a166-cbb4b1-432)" d="M12.99 17.23l-1.888 12.287l-.225-.077l1.614-10.501l.499-1.709z"></path><path fill="url(#IconifyId-17ab498a166-cbb4b1-433)" d="M10.028 29.151l.449.153l1.614-10.501l.049-1.863l-.499 1.71l-1.613 10.501z"></path><path fill="url(#IconifyId-17ab498a166-cbb4b1-434)" d="M12.14 16.94l-1.887 12.287l-.225-.076l1.613-10.501l.499-1.71z"></path><path d="M14.615 17.5l-.433-.148l-1.782 11.58l.478-.14l.061-.4l-.339-.222l.152-.987l.374.02l.171-1.113l-.33-.306l.132-.858l.387-.062l.08-.519l-.336-.268l.188-1.221l.381-.024l.048-.314a1.2 1.2 0 0 1-.154-.766a.85.85 0 0 1 .363-.59l.132-.856a1.79 1.79 0 0 1-.231-1.123a1.261 1.261 0 0 1 .536-.861zm-.717-.244L12.09 29.024l.185-.054l1.791-11.655z" fill="url(#IconifyId-17ab498a166-cbb4b1-435)"></path><path fill="url(#IconifyId-17ab498a166-cbb4b1-436)" d="M10.932 16.665L9.075 28.47l.303-.058l1.85-11.855l-.296.108z"></path><path fill="url(#IconifyId-17ab498a166-cbb4b1-437)" d="M9.085 28.566l.325-.06l.354.766l-.321.068l-.358-.774z"></path><path fill="url(#IconifyId-17ab498a166-cbb4b1-438)" d="M9.823 29.357l-.283.06l1.447.513l.235-.081l-1.399-.492z"></path><path fill="url(#IconifyId-17ab498a166-cbb4b1-439)" d="M11.024 14.816l-.391.12l-.241 1.367l.429-.043l.203-1.444z"></path><path fill="url(#IconifyId-17ab498a166-cbb4b1-440)" d="M11.05 14.636l-.425.141l-2.084-2.606l.483-.214l2.026 2.679z"></path><path d="M9.384 8.813s-.358.218-.378.346l-.546 2.773l.51-.253z" fill="url(#IconifyId-17ab498a166-cbb4b1-441)"></path><path d="M16.435 12.332l.256-.168l-2.375-2.052a.962.962 0 0 0-.538-.183l-.1.115a2.143 2.143 0 0 1 .362.211z" fill="url(#IconifyId-17ab498a166-cbb4b1-442)"></path><path d="M16.724 12.208a.393.393 0 0 1 .058.221c-.016.1-.112.774-.12.825l-.283.085l.115-.747a.4.4 0 0 0-.033-.213z" fill="url(#IconifyId-17ab498a166-cbb4b1-443)"></path><path d="M10.424 10.725l-.058.375a.584.584 0 0 0 .381.653l5.553 1.894c.478.163.634-.12.668-.339l.051-.334l1.139.388l-.2 1.327a.33.33 0 0 1-.228.282l-1.963 1.048l-4.535-1.546a358.09 358.09 0 0 0-1.816-2.366a1.506 1.506 0 0 1-.257-.43l.2-1.315z" fill="url(#IconifyId-17ab498a166-cbb4b1-444)"></path><path d="M14.756 8.764l-.179 1.166l.432.373l.179-1.167zm1.851 1.595l-1.119-.965l-.179 1.167l1.119.965zm-.5 3.223l-1.2-.411l-.372 2.423l1.2.411zm-1.526-.52l-.461-.162l-.372 2.423l.465.159z" fill="url(#IconifyId-17ab498a166-cbb4b1-445)"></path><path d="M9.936 2.733c2.042-1.441 5.206-.715 7.065 1.8A6.169 6.169 0 0 1 18.27 9.1c-.219-.73-1.023-.427-1.664-.441a4.11 4.11 0 0 0-.763-3.207C14.6 3.778 12.41 3.1 11.07 4.094s-1.382 3.253-.143 4.929a3.68 3.68 0 0 0 3.69 1.742c.521.444 1 .871 1.507 1.329c-1.84 1.134-4.8.334-6.51-1.982c-1.86-2.512-1.93-5.789.322-7.379z" fill="url(#IconifyId-17ab498a166-cbb4b1-446)"></path><path d="M9.956 2.841c1.939-1.405 5.111-.606 6.892 1.8a6.587 6.587 0 0 1 1.38 4.159c-.293-.387-1.035-.264-1.466-.211a4.6 4.6 0 0 0-.823-3.272c-1.317-1.78-3.546-2.373-4.97-1.32s-1.442 3.27-.125 5.051a4.034 4.034 0 0 0 3.842 1.905c.4.35.79.715 1.185 1.073c-1.982 1.012-4.528.084-6.123-2.073c-1.782-2.408-1.897-5.587.208-7.112z" fill="url(#IconifyId-17ab498a166-cbb4b1-447)"></path><path d="M10.1 2.918c1.855-1.345 4.971-.5 6.675 1.8a6.635 6.635 0 0 1 1.361 3.89a1.872 1.872 0 0 0-1.148-.126a4.555 4.555 0 0 0-.946-3.23c-1.394-1.885-3.6-2.472-5.1-1.357s-1.511 3.279-.171 5.2a4.075 4.075 0 0 0 3.976 1.973c.323.285.639.58.957.871c-1.939.959-4.394-.1-5.893-2.131C8.1 7.511 8.1 4.363 10.1 2.918z" fill="url(#IconifyId-17ab498a166-cbb4b1-448)"></path><path d="M9.684 3.412C8.6 4.969 8.825 7.5 10.3 9.494c1.413 1.911 3.466 2.885 5.249 2.443c-1.694.674-4.074-.233-5.554-2.235c-1.54-2.081-1.66-4.783-.311-6.29z" fill="url(#IconifyId-17ab498a166-cbb4b1-449)"></path><path d="M9.9 3.511c-.171.291.366.627.547.144a4.29 4.29 0 0 1 2.442-1.222A3.558 3.558 0 0 0 9.9 3.511zm.077.506a.244.244 0 1 0 .211.273a.243.243 0 0 0-.213-.273z" fill="url(#IconifyId-17ab498a166-cbb4b1-450)"></path><path d="M11.035 3.763c1.4-1.181 3.664-.647 5.163 1.132a4.723 4.723 0 0 1 1.2 3.542c-.136.014-.273.03-.411.048a4.555 4.555 0 0 0-.946-3.23c-1.394-1.885-3.6-2.472-5.1-1.357c-.071.053-.136.11-.2.167a2.672 2.672 0 0 1 .294-.302z" fill="url(#IconifyId-17ab498a166-cbb4b1-451)"></path></svg>