<svg xmlns="http://www.w3.org/2000/svg" xmlns:xlink="http://www.w3.org/1999/xlink" aria-hidden="true" role="img" class="iconify iconify--vscode-icons" width="1em" height="1em" preserveAspectRatio="xMidYMid meet" viewBox="0 0 32 32"><path fill="#c5c5c5" d="M22.75 2H6.35v28h23.3V9l-6.9-7z"></path><path fill="#f5f5f5" d="M27.35 27.7H8.75V4.3h11.7v7h7v16.4h-.1z"></path><path d="M12.1 30.994A11.094 11.094 0 1 1 23.194 19.9A11.106 11.106 0 0 1 12.1 30.994zm0-20.3a9.2 9.2 0 1 0 9.2 9.206a9.216 9.216 0 0 0-9.2-9.2z" fill="#33a9dc"></path><path fill="#33a9dc" stroke="#33a9dc" stroke-miterlimit="10" d="M2.099 19.455h20.003v.89H2.099z"></path><path d="M12.325 15.763a31.93 31.93 0 0 1-8.484-1.11l.242-.807a31.374 31.374 0 0 0 15.992 0l.239.807a28.076 28.076 0 0 1-7.989 1.11z" fill="#33a9dc" stroke="#33a9dc" stroke-miterlimit="10"></path><path d="M4.1 25.724l-.239-.807a31.652 31.652 0 0 1 16.472 0l-.242.807a31.38 31.38 0 0 0-15.991 0z" fill="#33a9dc" stroke="#33a9dc" stroke-miterlimit="10"></path><path d="M8.536 29.055A25.438 25.438 0 0 1 8 10.608l.776.331a24.558 24.558 0 0 0 .533 17.783z" fill="#33a9dc" stroke="#33a9dc" stroke-miterlimit="10"></path><path d="M15.6 29.055l-.776-.333a24.559 24.559 0 0 0 .531-17.783l.776-.331a25.443 25.443 0 0 1-.531 18.447z" fill="#33a9dc" stroke="#33a9dc" stroke-miterlimit="10"></path><path fill="#33a9dc" stroke="#33a9dc" stroke-miterlimit="10" d="M11.655 9.898h.889v20.371h-.889z"></path></svg>