<svg xmlns="http://www.w3.org/2000/svg" xmlns:xlink="http://www.w3.org/1999/xlink" aria-hidden="true" role="img" class="iconify iconify--vscode-icons" width="1em" height="1em" preserveAspectRatio="xMidYMid meet" viewBox="0 0 32 32"><path d="M20.375 3.291a.874.874 0 0 1 1.463.647v6.312l-8.36 6.624l-4.306-3.266z" fill="#009a7c"></path><path d="M6.013 16.669L2.38 19.8a1.166 1.166 0 0 0-.08 1.647c.025.027.05.053.077.077l1.541 1.4a1.166 1.166 0 0 0 1.489.066L9.6 19.935z" fill="#009a7c"></path><path d="M21.838 21.749L5.412 9.007a1.165 1.165 0 0 0-1.489.066l-1.541 1.4a1.166 1.166 0 0 0-.077 1.647c.025.027.05.053.077.077l17.99 16.5a.875.875 0 0 0 1.466-.645z" fill="#00b294"></path><path d="M23.244 29.747a1.745 1.745 0 0 1-1.989-.338A1.025 1.025 0 0 0 23 28.684V3.316a1.025 1.025 0 0 0-1.749-.725a1.745 1.745 0 0 1 1.989-.338l5.765 2.772A1.748 1.748 0 0 1 30 6.6v18.8a1.748 1.748 0 0 1-.991 1.576z" fill="#24bfa5"></path></svg>