<svg xmlns="http://www.w3.org/2000/svg" xmlns:xlink="http://www.w3.org/1999/xlink" aria-hidden="true" role="img" class="iconify iconify--vscode-icons" width="1em" height="1em" preserveAspectRatio="xMidYMid meet" viewBox="0 0 32 32"><path fill="#666" d="M16.043 2l7.314 4.249l.001 7.371l6.319 3.642v8.64L22.441 30l-6.398-3.632L9.646 30l-7.323-4.182v-8.556l6.34-3.623l.009-7.38L16.043 2z"></path><path fill="#cde" d="M16.019 3.07v7.399l-6.398-3.7"></path><path fill="#b2cde5" d="M22.417 6.769l-6.398 3.7V3.07"></path><path fill="#3379ba" d="M22.417 6.769v7.4l-6.398-3.7"></path><path fill="#0057a9" d="M9.621 6.769v7.4l6.398-3.7"></path><path fill="#ccc" d="M16.019 10.469v7.4l-6.398-3.7"></path><path fill="#e5e5e5" d="M16.022 10.469l-.003 7.4l6.398-3.697"></path><path fill="#4c4c4c" d="M22.417 14.169v7.4l-6.398-3.7"></path><path d="M9.621 14.169v7.4l6.398-3.7" fill="#000"></path><path fill="#191919" d="M16.019 17.869v7.4l-6.398-3.7"></path><path fill="#666" d="M16.022 17.869l-.003 7.4l6.398-3.697"></path><path fill="#cde" d="M9.621 14.169v7.4l-6.397-3.7"></path><path fill="#0057a9" d="M3.224 17.869v7.4l6.397-3.7"></path><path fill="#3379ba" d="M9.621 21.569v7.4l-6.397-3.7"></path><path fill="#4c89c3" d="M9.624 21.569l-.003 7.4l6.398-3.697"></path><path fill="#b2cde5" d="M28.815 17.872l-6.398 3.697l.003-7.4"></path><path fill="#3379ba" d="M28.815 17.869v7.4l-6.398-3.7"></path><path fill="#3379ba" d="M22.417 21.569v7.4l-6.398-3.7"></path><path fill="#4c89c3" d="M22.42 21.569l-.003 7.4l6.398-3.697"></path></svg>