<svg xmlns="http://www.w3.org/2000/svg" xmlns:xlink="http://www.w3.org/1999/xlink" aria-hidden="true" role="img" class="iconify iconify--vscode-icons" width="1em" height="1em" preserveAspectRatio="xMidYMid meet" viewBox="0 0 32 32"><circle cx="8.309" cy="22.592" r="5.86" fill="#d5635c"></circle><path d="M8.309 28.9a6.309 6.309 0 1 1 6.309-6.309A6.316 6.316 0 0 1 8.309 28.9zm0-11.719a5.41 5.41 0 1 0 5.41 5.41a5.416 5.416 0 0 0-5.41-5.409z" fill="#cb3c33"></path><circle cx="16" cy="9.408" r="5.86" fill="#60ad51"></circle><path d="M16 15.717a6.309 6.309 0 1 1 6.309-6.309A6.316 6.316 0 0 1 16 15.717zM16 4a5.41 5.41 0 1 0 5.41 5.41A5.416 5.416 0 0 0 16 4z" fill="#389826"></path><circle cx="23.691" cy="22.592" r="5.86" fill="#aa79c1"></circle><path d="M23.691 28.9A6.309 6.309 0 1 1 30 22.592a6.316 6.316 0 0 1-6.309 6.308zm0-11.719a5.41 5.41 0 1 0 5.41 5.41a5.416 5.416 0 0 0-5.41-5.409z" fill="#9558b2"></path></svg>