<svg xmlns="http://www.w3.org/2000/svg" xmlns:xlink="http://www.w3.org/1999/xlink" aria-hidden="true" role="img" class="iconify iconify--vscode-icons" width="1em" height="1em" preserveAspectRatio="xMidYMid meet" viewBox="0 0 32 32"><defs><radialGradient id="IconifyId-17ab498a166-cbb4b1-878" cx="-10.216" cy="31.126" r="13.788" gradientTransform="translate(26.52 -9.307)" gradientUnits="userSpaceOnUse"><stop offset="0" stop-color="#fff"></stop><stop offset=".5" stop-color="#4c6b96"></stop><stop offset="1" stop-color="#231f20"></stop></radialGradient></defs><path d="M27.4 5.5h-9.2l-2.1 4.2H4.3v16.8h25.2v-21zm0 18.7H6.6V11.8h20.8zm0-14.5h-8.2l1-2.1h7.1v2.1z" fill="#7a9edd"></path><path fill="#7a9edd" d="M25.7 13.7H.5l3.8 12.8h25.2l-3.8-12.8z"></path><ellipse cx="20.5" cy="25.4" rx="10.5" ry="5.523" fill="url(#IconifyId-17ab498a166-cbb4b1-878)"></ellipse><ellipse cx="20.5" cy="25.4" rx="10.09" ry="5.113" fill="#6280b6"></ellipse><path d="M22.544 27.053l.5-2.576a1.314 1.314 0 0 0-.279-1.289a2.2 2.2 0 0 0-1.5-.394H20.4l.248-1.276a.164.164 0 0 0-.161-.2h-1.2a.164.164 0 0 0-.161.133l-.526 2.738a1.538 1.538 0 0 0-.358-.79a2.087 2.087 0 0 0-1.65-.605h-2.32a.164.164 0 0 0-.161.133l-1.076 5.535a.164.164 0 0 0 .161.2H14.4a.164.164 0 0 0 .161-.133l.26-1.339h.9a3.875 3.875 0 0 0 1.176-.152a2.3 2.3 0 0 0 .863-.517a2.654 2.654 0 0 0 .51-.633l-.215 1.106a.164.164 0 0 0 .161.2h1.2a.164.164 0 0 0 .161-.133l.59-3.038h.821c.35 0 .452.07.48.1s.078.124.019.427l-.476 2.449a.164.164 0 0 0 .161.2h1.215a.164.164 0 0 0 .157-.146zM17 24.924a1.312 1.312 0 0 1-.421.819a1.628 1.628 0 0 1-.986.241h-.534L15.443 24h.691c.508 0 .712.109.794.2a.886.886 0 0 1 .072.724z" fill="#fff"></path><path d="M27.66 23.4a2.087 2.087 0 0 0-1.65-.605h-2.319a.164.164 0 0 0-.161.133l-1.076 5.535a.164.164 0 0 0 .161.2h1.206a.164.164 0 0 0 .161-.133l.26-1.339h.9a3.875 3.875 0 0 0 1.176-.152a2.3 2.3 0 0 0 .863-.517a2.569 2.569 0 0 0 .807-1.445a1.884 1.884 0 0 0-.328-1.677zm-1.251 1.525a1.312 1.312 0 0 1-.421.819a1.628 1.628 0 0 1-.986.241h-.534L24.854 24h.691c.508 0 .712.109.794.2a.886.886 0 0 1 .07.724z" fill="#fff"></path><path d="M16.134 23.831a1.234 1.234 0 0 1 .916.254a1 1 0 0 1 .109.871a1.459 1.459 0 0 1-.482.917a1.771 1.771 0 0 1-1.086.275h-.733l.45-2.317zM13.2 28.493h1.2l.286-1.472h1.034a3.7 3.7 0 0 0 1.125-.144a2.13 2.13 0 0 0 .8-.482a2.4 2.4 0 0 0 .757-1.356a1.723 1.723 0 0 0-.289-1.533a1.926 1.926 0 0 0-1.526-.549h-2.315z" fill="#000004"></path><path d="M19.291 21.486h1.2l-.291 1.472h1.066a2.075 2.075 0 0 1 1.388.351a1.161 1.161 0 0 1 .229 1.137l-.5 2.576h-1.215l.476-2.449a.665.665 0 0 0-.06-.57a.841.841 0 0 0-.6-.152h-.956l-.616 3.171h-1.2z" fill="#000004"></path><path d="M25.545 23.831a1.234 1.234 0 0 1 .916.254a1 1 0 0 1 .109.871a1.459 1.459 0 0 1-.482.917a1.771 1.771 0 0 1-1.088.275h-.733l.45-2.317zm-2.938 4.662h1.206l.286-1.472h1.033a3.7 3.7 0 0 0 1.125-.144a2.13 2.13 0 0 0 .8-.482a2.4 2.4 0 0 0 .757-1.356a1.723 1.723 0 0 0-.289-1.533A1.926 1.926 0 0 0 26 22.958h-2.317z" fill="#000004"></path></svg>