<svg xmlns="http://www.w3.org/2000/svg" xmlns:xlink="http://www.w3.org/1999/xlink" aria-hidden="true" role="img" class="iconify iconify--vscode-icons" width="1em" height="1em" preserveAspectRatio="xMidYMid meet" viewBox="0 0 32 32"><defs><linearGradient id="IconifyId-17ab498a166-cbb4b1-455" x1="9.89" y1="15.04" x2="8.62" y2="14.37" gradientTransform="translate(0 2)" gradientUnits="userSpaceOnUse"><stop offset="0" stop-color="#a52a22"></stop><stop offset=".4" stop-color="#a52a22" stop-opacity=".5"></stop><stop offset=".8" stop-color="#a52a22" stop-opacity="0"></stop></linearGradient><linearGradient id="IconifyId-17ab498a166-cbb4b1-456" x1="15.29" y1="13.2" x2="14.71" y2="12.63" gradientTransform="translate(0 2)" gradientUnits="userSpaceOnUse"><stop offset="0" stop-color="#a52a22" stop-opacity=".8"></stop><stop offset=".5" stop-color="#a52a22" stop-opacity=".21"></stop><stop offset="1" stop-color="#a52a22" stop-opacity="0"></stop></linearGradient><linearGradient id="IconifyId-17ab498a166-cbb4b1-457" x1="5.35" y1="4.94" x2="26.63" y2="26.21" gradientTransform="translate(0 2)" gradientUnits="userSpaceOnUse"><stop offset="0" stop-color="#fff" stop-opacity=".1"></stop><stop offset="1" stop-color="#fff" stop-opacity="0"></stop></linearGradient><clipPath id="IconifyId-17ab498a166-cbb4b1-458"><path d="M23.62 8.25a.64.64 0 0 0-.74-.51a.61.61 0 0 0-.34.17l-3.31 3.32l-2.56-5a.63.63 0 0 0-.85-.23a.62.62 0 0 0-.27.26L14.13 9l-3.58-6.67a.63.63 0 0 0-.86-.25a.62.62 0 0 0-.32.46L5.88 24.59l9.22 5.17a2 2 0 0 0 1.86 0l9.34-5.17z" fill="none"></path></clipPath></defs><g clip-path="url(#IconifyId-17ab498a166-cbb4b1-458)"><path d="M5.88 24.59l3.49-22a.64.64 0 0 1 .7-.55a.62.62 0 0 1 .46.32L14.13 9l1.42-2.71A.63.63 0 0 1 16.4 6a.57.57 0 0 1 .27.26l9.62 18.33z" fill="#f9a01b"></path><path d="M17.7 2.16L.83.73v30.54l5.05-6.68z" opacity=".12" fill="url(#IconifyId-17ab498a166-cbb4b1-455)"></path><path d="M17.83 16L14.1 9L5.88 24.59z" fill="#f47d20"></path><path d="M.83.73h30.56v30.54H.83z" opacity=".2" fill="url(#IconifyId-17ab498a166-cbb4b1-456)"></path><path d="M26.29 24.59L23.62 8.25a.64.64 0 0 0-.74-.51a.61.61 0 0 0-.34.17L5.88 24.59l9.22 5.17a1.87 1.87 0 0 0 1.86 0z" fill="#ffcb2a"></path><path d="M23.62 8.25a.64.64 0 0 0-.74-.51a.61.61 0 0 0-.34.17l-3.31 3.32l-2.56-5a.63.63 0 0 0-.85-.23a.62.62 0 0 0-.27.26L14.13 9l-3.58-6.67a.63.63 0 0 0-.86-.25a.62.62 0 0 0-.32.46L5.88 24.59h.1l13.28-13.2l3.31-3.32a.64.64 0 0 1 .89-.07a.12.12 0 0 0 .05.05a.68.68 0 0 1 .17.35l2.63 16.2zM5.88 24.56L9.37 2.7a.64.64 0 0 1 .74-.52a.62.62 0 0 1 .44.31l3.57 6.65l1.42-2.71a.62.62 0 0 1 .85-.26a.59.59 0 0 1 .28.26l2.54 4.85z" fill="#fff" fill-opacity=".2"></path><path d="M17 29.6a1.89 1.89 0 0 1-1.87 0L6 24.45v.14l9.21 5.17a2 2 0 0 0 1.87 0l9.33-5.17v-.14z" fill="#a52a22" opacity=".2"></path><path d="M23.62 8.25a.64.64 0 0 0-.74-.51a.61.61 0 0 0-.34.17l-3.31 3.32l-2.56-5a.63.63 0 0 0-.85-.23a.62.62 0 0 0-.27.26L14.13 9l-3.58-6.67a.63.63 0 0 0-.86-.25a.62.62 0 0 0-.32.46L5.88 24.59l9.22 5.17a2 2 0 0 0 1.86 0l9.34-5.17z" fill="url(#IconifyId-17ab498a166-cbb4b1-457)"></path></g><circle cx="23.75" cy="23.63" r="6.37" fill="#767676"></circle><path d="M23.75 20.45a3.19 3.19 0 1 0 3.18 3.18a3.18 3.18 0 0 0-3.18-3.18zm-.32 5.71a2.55 2.55 0 0 1-2.23-2.53a2.78 2.78 0 0 1 .07-.57l1.52 1.53v.32a.64.64 0 0 0 .64.64zm2.2-.83a.65.65 0 0 0-.61-.44h-.32V24a.32.32 0 0 0-.32-.32h-1.91V23h.64a.32.32 0 0 0 .32-.32v-.63h.64a.64.64 0 0 0 .63-.64v-.13a2.55 2.55 0 0 1 1.41 3.32a2.64 2.64 0 0 1-.47.75z" fill="#fff" fill-rule="evenodd"></path></svg>