<svg xmlns="http://www.w3.org/2000/svg" xmlns:xlink="http://www.w3.org/1999/xlink" aria-hidden="true" role="img" class="iconify iconify--vscode-icons" width="1em" height="1em" preserveAspectRatio="xMidYMid meet" viewBox="0 0 32 32"><defs><clipPath id="IconifyId-17ab498a166-cbb4b1-217"><path d="M25.573 24.978v-.034H8.239a1.956 1.956 0 0 0-1.88 1.971a1.9 1.9 0 0 0 1.92 1.929c.133 0 .258.006.408 0h16.849c-.884-.183-1.236-.979-1.236-1.934s.371-1.763 1.273-1.932z" fill="none"></path></clipPath></defs><path d="M24.591 5.907H8.149v23.348h16.442a1.4 1.4 0 0 0 1.4-1.39V7.3a1.4 1.4 0 0 0-1.4-1.393z" fill="#f18b21"></path><path d="M25.573 24.978v-.034H8.239a1.956 1.956 0 0 0-1.88 1.971a1.9 1.9 0 0 0 1.92 1.929c.133 0 .277.01.408 0h16.849c-.884-.183-1.236-.979-1.236-1.934s.371-1.763 1.273-1.932z" fill="#fff"></path><g clip-path="url(#IconifyId-17ab498a166-cbb4b1-217)" fill="#ccd4d3"><path d="M6.281 25.434h19.455v.189H6.281z"></path><path d="M6.281 26.391h19.455v.189H6.281z"></path><path d="M6.281 27.348h19.455v.189H6.281z"></path><path d="M6.281 27.827h19.455v.189H6.281z"></path><path d="M6.281 28.305h19.455v.189H6.281z"></path><path d="M6.281 26.87h19.455v.189H6.281z"></path><path d="M6.281 25.913h19.455v.189H6.281z"></path></g><path d="M24.644 2H8.202v23.348h16.442a1.4 1.4 0 0 0 1.4-1.39V3.39a1.4 1.4 0 0 0-1.4-1.39z" fill="#edce8a"></path><path d="M8.154 28.848c-.016 0-.05-.009-.066-.01a2.008 2.008 0 0 1-1.7-1.805a1.662 1.662 0 0 1 1.716-1.7c.016 0 .09.009.106.01L8.2 2.005C8.168 2 8.135 2 8.1 2a2.04 2.04 0 0 0-2.066 1.579a6.719 6.719 0 0 0-.034.84l-.045 22.69a2.154 2.154 0 0 0 .02.277v.06h.009A2.144 2.144 0 0 0 8.1 29.254h.047z" fill="#3f5364"></path><path fill="#efb422" d="M9.87 30l-.805-.634L8.26 30v-3.115h1.61V30z"></path><path d="M14.445 16.578a3.7 3.7 0 0 0 2.589 1.076v-1.53a2.087 2.087 0 0 1-1.508-.624z" fill="#3f5364"></path><path d="M18.366 10.6l-.566 1.416a2.29 2.29 0 0 1 1.083.907h1.649a3.687 3.687 0 0 0-2.166-2.323z" fill="#3f5364"></path><path d="M13.362 14a3.712 3.712 0 0 0 .311 1.474l1.4-.624A2.07 2.07 0 0 1 14.9 14a2.146 2.146 0 0 1 2.13-2.125v-1.53A3.67 3.67 0 0 0 13.362 14z" fill="#f18b21"></path><path d="M17.794 15.983l.566 1.417a3.672 3.672 0 0 0 2.186-2.351H18.9a2.178 2.178 0 0 1-1.106.934z" fill="#f18b21"></path><path d="M17.029 17.825a3.825 3.825 0 1 1 3.694-4.873H22.2a5.256 5.256 0 1 0 0 2.125h-1.477a3.825 3.825 0 0 1-3.694 2.748z" fill="#3f5364"></path><path d="M17.029 8.56V7.115a6.876 6.876 0 0 0-6.429 4.391l1.336.51a5.493 5.493 0 0 1 5.093-3.456z" fill="#3f5364"></path><path d="M17.029 19.44v1.445a6.9 6.9 0 0 0 6.822-5.808h-1.479a5.425 5.425 0 0 1-5.343 4.363z" fill="#3f5364"></path><path d="M22.4 12.951h1.45A6.921 6.921 0 0 0 19.528 7.6l-.51 1.331a5.532 5.532 0 0 1 3.382 4.02z" fill="#f18b21"></path><path d="M11.572 14h-1.451a6.9 6.9 0 0 0 4.352 6.4l.539-1.331A5.482 5.482 0 0 1 11.572 14z" fill="#f18b21"></path><path d="M24.021 12.951h1.45a8.781 8.781 0 0 0-1.224-3.428l-1.224.765a6.351 6.351 0 0 1 .998 2.663z" fill="#3f5364"></path><path d="M8.5 14.005a8.949 8.949 0 0 0 .753 3.672l1.406-.578a7.558 7.558 0 0 1-.7-3.1" fill="#3f5364"></path><path d="M17.029 21.055a7.062 7.062 0 0 1-5-2.069L11 20.006a8.406 8.406 0 0 0 6.029 2.494a8.55 8.55 0 0 0 8.471-7.452h-1.45a7.115 7.115 0 0 1-7.021 6.007z" fill="#f18b21"></path><path d="M17.029 6.945a6.909 6.909 0 0 1 4.233 1.416l.884-1.161a8.559 8.559 0 0 0-13.079 3.711l1.365.539a7.1 7.1 0 0 1 6.597-4.505z" fill="#f18b21"></path></svg>