<svg xmlns="http://www.w3.org/2000/svg" xmlns:xlink="http://www.w3.org/1999/xlink" aria-hidden="true" role="img" class="iconify iconify--vscode-icons" width="1em" height="1em" preserveAspectRatio="xMidYMid meet" viewBox="0 0 32 32"><path d="M27.4 5.5h-9.2l-2.1 4.2H4.3v16.8h25.2v-21zm0 18.7H6.6V11.8h20.8zm0-14.5h-8.2l1-2.1h7.1v2.1z" fill="#dd7ab9"></path><path fill="#dd7ab9" d="M25.7 13.7H.5l3.8 12.8h25.2l-3.8-12.8z"></path><path fill="#fff" d="M10.454 16.071H27.03v11.101H10.454z"></path><path d="M26.944 15.6H10.557a.549.549 0 0 0-.557.54v11.811a.548.548 0 0 0 .557.54h6.275v.834s.02.749-.476.9c-.1.032-.429.1-.429.1a.338.338 0 1 0 0 .676h5.667a.338.338 0 1 0 0-.676a3.139 3.139 0 0 1-.469-.107a.792.792 0 0 1-.421-.639c-.029-.274-.014-1.09-.014-1.09h6.255a.549.549 0 0 0 .557-.54V16.136a.55.55 0 0 0-.558-.536zm-.292 10.34h-15.8v-9.489h15.8z" fill="#eec06e"></path><path fill="#fff" d="M18.54 22.132h10.688v8.848H18.54z"></path><path d="M29.491 28.92v-6.811a.351.351 0 0 0-.357-.346h-10.67a.351.351 0 0 0-.356.346v6.806l-1.364 1.54c0 .22.172.527.383.527h13.345c.212 0 .384-.307.384-.527zm-4.956 1.88h-1.471c-.126 0-.227-.217-.227-.327v-.012h1.922v.012c.003.11-.099.327-.224.327zm4.385-2.323H18.68v-6.126h10.24z" fill="#f16d6f"></path><path fill="#fff" d="M23.926 21.534h6.795v9.223h-6.795z"></path><path d="M30.5 21.231h-6.261a.451.451 0 0 0-.458.444v8.886a.451.451 0 0 0 .458.443H30.5a.451.451 0 0 0 .458-.443v-8.887a.451.451 0 0 0-.458-.443zm-3.131 9.527a.343.343 0 1 1 .343-.343a.343.343 0 0 1-.341.342zm3.047-.919h-6.093v-8.046h6.095z" fill="#489cd6"></path><path fill="#fff" d="M27.911 25.169h2.946v5.735h-2.946z"></path><path d="M30.726 25.127h-2.667a.27.27 0 0 0-.274.266v5.325a.27.27 0 0 0 .274.266h2.667a.27.27 0 0 0 .274-.266v-5.325a.27.27 0 0 0-.274-.266zm-1.642.123h.616v.091h-.617zm.309 5.585a.206.206 0 1 1 .205-.206a.206.206 0 0 1-.206.207zm1.333-.586H28.06v-4.736h2.665z" fill="#d488b9"></path></svg>