<svg xmlns="http://www.w3.org/2000/svg" xmlns:xlink="http://www.w3.org/1999/xlink" aria-hidden="true" role="img" class="iconify iconify--vscode-icons" width="1em" height="1em" preserveAspectRatio="xMidYMid meet" viewBox="0 0 32 32"><defs><radialGradient id="IconifyId-17ab498a166-cbb4b1-875" cx="290.179" cy="-321.728" r="8.902" gradientTransform="matrix(1.711 .138 .094 -1.169 -444.134 -394.022)" gradientUnits="userSpaceOnUse"><stop offset="0" stop-color="#0663b4"></stop><stop offset="1" stop-color="#16adff" stop-opacity=".685"></stop></radialGradient><linearGradient id="IconifyId-17ab498a166-cbb4b1-876" x1="262.559" y1="-662.427" x2="262.559" y2="-659.102" gradientTransform="matrix(1 0 0 -1 -250.518 -647.956)" gradientUnits="userSpaceOnUse"><stop offset="0" stop-color="#047fc7"></stop><stop offset="1" stop-color="#11abe8"></stop></linearGradient></defs><path d="M27.4 5.5h-9.2l-2.1 4.2H4.3v16.8h25.2v-21zm0 18.7H6.6V11.8h20.8zm0-14.5h-8.2l1-2.1h7.1v2.1z" fill="#7baddb"></path><path fill="#7baddb" d="M25.7 13.7H.5l3.8 12.8h25.2l-3.8-12.8z"></path><rect x="13.208" y="13.188" width="17.792" height="17.792" rx="5.775" ry="5.775" fill="#c7ebf1"></rect><rect x="13.558" y="13.713" width="17.092" height="16.917" rx="5.47" ry="5.47" opacity=".823" fill="url(#IconifyId-17ab498a166-cbb4b1-875)"></rect><rect x="14.528" y="15.138" width="14.57" height="14.57" rx="4.565" ry="4.565" fill="#016fd2"></rect><path d="M30.629 18.763a5.467 5.467 0 0 0-5.449-5.051h-6.151a5.47 5.47 0 0 0-5.47 5.47v5.976c0 .124.01.245.018.367c.391.021.784.032 1.181.032a21.893 21.893 0 0 0 15.871-6.794z" fill="#5fffe6" opacity=".173"></path><path d="M28.375 25.2a3.733 3.733 0 1 1-7.467 0a3.733 3.733 0 1 1 7.467 0z" fill="#fff"></path><path d="M19.917 18.379a2.158 2.158 0 0 1-4.317 0a2.158 2.158 0 0 1 4.317 0z" fill="#fff"></path><path d="M14.083 12.663a2.042 2.042 0 1 1-4.083 0a2.042 2.042 0 1 1 4.083 0z" fill="#cbedf2" fill-opacity=".925"></path><path d="M13.617 12.663a1.575 1.575 0 0 1-3.15 0a1.575 1.575 0 0 1 3.15 0z" fill="url(#IconifyId-17ab498a166-cbb4b1-876)"></path></svg>