<svg xmlns="http://www.w3.org/2000/svg" xmlns:xlink="http://www.w3.org/1999/xlink" aria-hidden="true" role="img" class="iconify iconify--vscode-icons" width="1em" height="1em" preserveAspectRatio="xMidYMid meet" viewBox="0 0 32 32"><path d="M27.4 5.5h-9.2l-2.1 4.2H4.3v16.8h25.2v-21zm0 18.7H6.6V11.8h20.8zm0-14.5h-8.2l1-2.1h7.1v2.1z" fill="#db917b"></path><path fill="#db917b" d="M25.7 13.7H.5l3.8 12.8h25.2l-3.8-12.8z"></path><path fill="#e44f26" d="M14.167 28.901L12.482 10h18.516l-1.687 18.898L21.729 31l-7.562-2.099z"></path><path fill="#f1662a" d="M21.74 29.393l6.127-1.699l1.442-16.149H21.74v17.848z"></path><path fill="#fff" d="M20.99 24.011l-6-3.607v-1.307l6-3.608v2.023l-3.828 2.238l3.828 2.239v2.022z"></path><path fill="#fff" d="M22.49 24.009v-2.021l3.855-2.238l-3.855-2.237v-2.022l6 3.591v1.336l-6 3.591z"></path></svg>