<svg xmlns="http://www.w3.org/2000/svg" xmlns:xlink="http://www.w3.org/1999/xlink" aria-hidden="true" role="img" class="iconify iconify--vscode-icons" width="1em" height="1em" preserveAspectRatio="xMidYMid meet" viewBox="0 0 32 32"><path d="M27.4 5.5h-9.2l-2.1 4.2H4.3v4H.5l3.8 12.8h25.2v-21zm-7.2 2.1h7.1v2.1h-8.1zm5.5 6.1H6.6v-1.9h20.8v7.626z" fill="#7bc0db"></path><path d="M22.429 11.161l8.217 4.92v9.838l-8.217 4.92l-8.217-4.92v-9.838z" fill="#000"></path><path d="M14.879 16.451L22.429 21v9.1l-7.55-4.549z" fill="#82eddf"></path><path d="M29.978 16.451L22.428 21v9.1l7.55-4.549z" fill="#00d3b9"></path><path d="M14.879 16.451l7.55-4.55l7.55 4.55L22.429 21z" fill="#0084c1"></path><path d="M22.429 15.076l4.948 2.962v5.925l-4.948 2.962l-4.948-2.962v-5.925z" fill="#000"></path><path d="M19.98 19.519L22.43 21v2.963l-2.45-1.48z" fill="#82eddf"></path><path d="M24.877 19.519L22.429 21v2.963l2.448-1.48z" fill="#00d3b9"></path><path d="M19.98 19.519l2.45-1.48l2.447 1.48L22.429 21z" fill="#0084c1"></path></svg>