<svg xmlns="http://www.w3.org/2000/svg" xmlns:xlink="http://www.w3.org/1999/xlink" aria-hidden="true" role="img" class="iconify iconify--vscode-icons" width="1em" height="1em" preserveAspectRatio="xMidYMid meet" viewBox="0 0 32 32"><defs><linearGradient id="IconifyId-17ab498a166-cbb4b1-314" x1="-67.907" y1="-308.551" x2="-67.857" y2="-308.564" gradientTransform="matrix(87.822 0 0 -88.533 5984.532 -27290.617)" gradientUnits="userSpaceOnUse"><stop offset="0" stop-color="#ffd441"></stop><stop offset="1" stop-color="#ffb047"></stop></linearGradient><linearGradient id="IconifyId-17ab498a166-cbb4b1-315" x1="-67.674" y1="-310.121" x2="-67.647" y2="-310.063" gradientTransform="matrix(87.822 0 0 -88.533 5964.667 -27443)" gradientUnits="userSpaceOnUse"><stop offset="0" stop-color="#ffd754"></stop><stop offset="1" stop-color="#ffb532"></stop></linearGradient><linearGradient id="IconifyId-17ab498a166-cbb4b1-316" x1="-67.029" y1="-310.91" x2="-67.029" y2="-310.86" gradientTransform="matrix(87.822 0 0 -88.533 5902.8 -27518.733)" gradientUnits="userSpaceOnUse"><stop offset="0" stop-color="#ffd642"></stop><stop offset="0" stop-color="#ffd441"></stop><stop offset="1" stop-color="#ffb532"></stop></linearGradient><linearGradient id="IconifyId-17ab498a166-cbb4b1-317" x1="-66.252" y1="-310.377" x2="-66.32" y2="-310.362" gradientTransform="matrix(106.198 0 0 -88.551 7048.428 -27474.167)" gradientUnits="userSpaceOnUse"><stop offset="0" stop-color="#ffd441"></stop><stop offset="1" stop-color="#ffa829"></stop></linearGradient></defs><path d="M23.426 29.41v-7.238h-7.18l7.18 7.238" fill="#ffdf51" fill-opacity=".7"></path><path d="M24.231 25.306v-7.829h-7.765l7.766 7.829" fill="#ff8900" fill-opacity=".7"></path><path d="M19.515 22.171V30h7.766l-7.766-7.829" fill-opacity=".7" fill="url(#IconifyId-17ab498a166-cbb4b1-314)"></path><path d="M22.608 18v-6.191h-6.142L22.608 18" fill="#ffdf4f" fill-opacity=".7"></path><path d="M25.524 16.525V8.7h-7.765l7.766 7.829" fill-opacity=".8" fill="url(#IconifyId-17ab498a166-cbb4b1-315)"></path><path d="M12.288 2v7.829h7.766L12.288 2" fill-opacity=".8" fill="url(#IconifyId-17ab498a166-cbb4b1-316)"></path><path d="M14.11 14.262V6.433H4.719l7.732 7.83h1.659" fill-opacity=".88" fill="url(#IconifyId-17ab498a166-cbb4b1-317)"></path><path d="M14.11 29.958v-9.471H4.719l9.391 9.471" fill="#ffb700" fill-opacity=".7"></path><path d="M14.112 22.114v-7.829H6.346l7.766 7.829" fill="#ffb700" fill-opacity=".5"></path><path d="M16.465 11.809v7.829h7.766l-7.766-7.829" fill="#ffcd25" fill-opacity=".7"></path><path d="M14.092 12.691V4.862H6.326l7.766 7.829" fill="#ff8900" fill-opacity=".7"></path><path d="M16.246 22.171V30h7.766l-7.766-7.829" fill="#ff8900" fill-opacity=".7"></path><path fill="#fff" d="M21.122 22.172l-2.513-2.534h-2.144l.001-7.829h4.381l-1.965-1.98h-4.79l.018 4.433V30h2.136v-7.828h4.876z"></path></svg>