<svg xmlns="http://www.w3.org/2000/svg" xmlns:xlink="http://www.w3.org/1999/xlink" aria-hidden="true" role="img" class="iconify iconify--vscode-icons" width="1em" height="1em" preserveAspectRatio="xMidYMid meet" viewBox="0 0 32 32"><path fill="#8a4182" d="M17.004 13.472h-2.111l-.571-.733V6.986h3.217v5.753l-.535.733z"></path><path fill="#8a4182" d="M14.148 14.009l-.653 2.009l-.873.315l-5.473-1.778l.995-3.058l5.472 1.776l.532.736z"></path><path fill="#8a4182" d="M13.772 16.837l1.709 1.241l.029.926l-3.38 4.657l-2.603-1.89l3.384-4.657l.861-.277z"></path><path fill="#8a4182" d="M16.394 18.087l1.711-1.241l.89.259l3.382 4.655l-2.601 1.89l-3.382-4.655v-.908z"></path><path fill="#8a4182" d="M18.425 16.051l-.653-2.01l.521-.768l5.471-1.776l.995 3.058l-5.473 1.778l-.861-.282z"></path><path d="M16 2a14 14 0 1 0 14 14A14 14 0 0 0 16 2zm-.076 24.94A11.072 11.072 0 1 1 27 15.868A11.072 11.072 0 0 1 15.924 26.94z" fill="#8a4182"></path><path fill="#8a4182" d="M15.459 20.248h.877v4.364h-.877z"></path><path fill="#8a4182" d="M20.214 17.554l.271-.834l4.15 1.348l-.27.835z"></path><path fill="#8a4182" d="M18.366 11.697l2.566-3.53l.709.515l-2.565 3.53z"></path><path fill="#8a4182" d="M10.344 8.68l.71-.515l2.565 3.53l-.71.516z"></path><path fill="#8a4182" d="M7.24 18.07l4.15-1.35l.272.835l-4.15 1.348z"></path></svg>