<svg xmlns="http://www.w3.org/2000/svg" xmlns:xlink="http://www.w3.org/1999/xlink" aria-hidden="true" role="img" class="iconify iconify--vscode-icons" width="1em" height="1em" preserveAspectRatio="xMidYMid meet" viewBox="0 0 32 32"><circle cx="16" cy="16" r="12.551" fill="#5d83ac"></circle><path d="M2 16a14 14 0 1 1 14 14A14 14 0 0 1 2 16zM16 4.789A11.211 11.211 0 1 0 27.211 16A11.211 11.211 0 0 0 16 4.789z" fill="#f0f0f0"></path><path d="M24.576 20.156l-6.4-9.264a3.131 3.131 0 0 0-.819-.819a2.36 2.36 0 0 0-2.442.023a3.543 3.543 0 0 0-.812.8l-6.57 9.26h3.752l4.808-6.8l1.838 2.71q.26.368.544.789t.5.7q-.368-.031-.865-.031h-3.53l-1.914 2.634z" fill="#f0f0f0"></path></svg>