<svg xmlns="http://www.w3.org/2000/svg" xmlns:xlink="http://www.w3.org/1999/xlink" width="200" height="200" class="icon" p-id="3609" t="1626085931341" version="1.1" viewBox="0 0 1024 1024"><defs><style type="text/css"/></defs><path d="M499.2 0C774.417067 0 998.4 224.017067 998.4 499.2c0 275.217067-224.017067 499.2-499.2 499.2C223.982933 998.4 0 774.382933 0 499.2 0 223.982933 224.017067 0 499.2 0z m0 947.2c247.3984 0 448-200.6016 448-448S746.5984 51.2 499.2 51.2 51.2 251.8016 51.2 499.2 251.8016 947.2 499.2 947.2z" p-id="3610"/><path d="M499.2 875.178667a28.672 28.672 0 0 1-28.808533-28.7744v-64a28.672 28.672 0 0 1 28.808533-28.808534 28.672 28.672 0 0 1 28.808533 28.808534v64a28.672 28.672 0 0 1-28.808533 28.808533z m0-631.978667a28.672 28.672 0 0 1-28.808533-28.808533V150.391467a28.672 28.672 0 0 1 28.808533-28.7744 28.672 28.672 0 0 1 28.808533 28.7744v64a28.672 28.672 0 0 1-28.808533 28.808533z m174.421333 571.1872c-4.8128 0-9.6256-3.1744-12.834133-6.382933l-31.982933-54.408534c-3.208533-6.382933-1.604267-16.008533 4.778666-19.182933 6.417067-3.208533 16.042667-1.604267 19.217067 4.778667l32.017067 54.408533c3.1744 6.417067 1.570133 16.008533-4.8128 19.217067-1.604267 1.570133-4.778667 1.570133-6.417067 1.570133zM356.7616 267.264c-4.778667 0-9.591467-3.242667-12.8-6.417067l-31.982933-54.408533c-3.208533-6.417067-1.604267-16.008533 4.778666-19.217067 6.417067-3.1744 16.008533-1.570133 19.217067 4.8128l31.982933 54.408534c3.208533 6.382933 1.604267 15.9744-4.778666 19.182933-1.604267 1.604267-3.208533 1.604267-6.417067 1.604267zM800.017067 700.757333c-4.8128 0-9.6256-1.604267-14.404267-3.1744l-54.408533-32.017066c-12.8-7.9872-17.6128-25.6-11.195734-38.4 7.9872-12.8 25.6-17.6128 38.4-11.195734l54.3744 31.982934c12.8 8.021333 17.6128 25.6 11.229867 38.4a26.385067 26.385067 0 0 1-23.995733 14.404266zM252.757333 385.604267c-4.778667 0-9.591467-1.604267-14.404266-3.208534l-54.3744-31.982933c-12.8-8.021333-17.6128-25.6-11.229867-38.4 8.021333-12.8 25.6-17.6128 38.4-11.229867l54.408533 32.017067c12.8 7.9872 17.6128 25.6 11.195734 38.4a26.385067 26.385067 0 0 1-23.995734 14.404267z m593.578667 128h-63.965867a14.336 14.336 0 0 1-14.404266-14.404267 14.336 14.336 0 0 1 14.404266-14.404267h64a14.336 14.336 0 0 1 14.404267 14.404267 14.336 14.336 0 0 1-14.404267 14.404267z m-631.978667 0H150.391467a14.336 14.336 0 0 1-14.404267-14.404267 14.336 14.336 0 0 1 14.404267-14.404267h64a14.336 14.336 0 0 1 14.404266 14.404267 14.336 14.336 0 0 1-14.404266 14.404267z m531.217067-128a26.385067 26.385067 0 0 1-23.995733-14.404267c-8.021333-12.8-3.208533-30.378667 11.195733-38.4l54.3744-32.017067c12.8-7.9872 30.4128-3.1744 38.4 11.229867 8.021333 12.8 3.208533 30.378667-11.195733 38.4l-54.3744 31.982933c-4.8128 1.604267-9.6256 3.208533-14.404267 3.208534zM198.382933 700.757333a26.385067 26.385067 0 0 1-23.995733-14.404266c-7.9872-12.8-3.1744-30.378667 11.229867-38.4l54.3744-31.982934c12.8-8.021333 30.378667-3.208533 38.4 11.195734 8.021333 12.8 3.208533 30.378667-11.195734 38.4l-54.408533 32.017066c-4.778667 3.1744-9.557333 3.1744-14.370133 3.1744zM641.604267 267.195733c-3.208533 0-4.778667 0-6.417067-1.604266-6.382933-3.1744-9.557333-12.8-4.778667-19.182934l31.982934-54.408533c3.208533-6.417067 12.8-9.591467 19.217066-4.778667 6.382933 3.1744 9.591467 12.765867 4.778667 19.182934l-31.982933 54.408533c-3.208533 3.1744-8.021333 6.382933-12.8 6.382933zM324.8128 814.421333c-3.208533 0-4.8128 0-6.417067-1.604266-6.382933-3.1744-9.591467-12.8-4.778666-19.182934l31.982933-54.408533c3.208533-6.382933 12.8-9.591467 19.217067-4.778667 6.382933 3.1744 9.557333 12.8 4.778666 19.182934l-31.982933 54.408533c-3.208533 3.208533-8.021333 6.382933-12.8 6.382933z m207.9744-300.782933l80.008533 78.404267c4.778667 6.382933 4.778667 15.9744 0 20.821333-1.604267 3.1744-6.382933 4.778667-9.591466 4.778667-3.208533 0-6.417067-1.604267-9.591467-4.778667l-80.008533-80.042667c-4.778667 1.604267-9.591467 3.208533-14.404267 3.208534a36.181333 36.181333 0 0 1-36.795733-36.795734c0-14.404267 9.591467-28.808533 22.391466-33.5872V295.936a14.336 14.336 0 0 1 14.404267-14.370133 14.336 14.336 0 0 1 14.404267 14.404266v169.608534c12.8 4.778667 22.391467 17.578667 22.391466 33.5872 0 4.778667-1.604267 9.591467-3.208533 14.404266z" p-id="3611"/></svg>