<svg xmlns="http://www.w3.org/2000/svg" width="100%" height="100%" baseProfile="full" version="1.1" viewBox="0 0 1400 800"><rect width="300" height="300" x="1300" y="400" fill="#81C995" stroke="#81C995" rx="40" ry="40"><animateTransform attributeName="transform" attributeType="XML" begin="0s" dur="35s" from="0 1450 550" repeatCount="indefinite" to="360 1450 550" type="rotate"/></rect><path fill="#FDD663" stroke="#FDD663" d="M 100 350 A 150 150 0 1 1 400 350 Q400 370 380 370 L 250 370 L 120 370 Q100 370 100 350"><animateMotion begin="0s" dur="20s" path="M 800 -200 L 800 -300 L 800 -200" repeatCount="indefinite"/><animateTransform attributeName="transform" attributeType="XML" begin="0s" dur="30s" keyTimes="0 ; 0.5 ; 1" repeatCount="indefinite" type="rotate" values="0 210 530 ; -30 210 530 ; 0 210 530"/></path><circle cx="200" cy="150" r="20" fill="#1a73e8" stroke="#1a73e8"><animateMotion dur="5s" path="M 0 0 L 40 20 Z" repeatCount="indefinite"/></circle><path fill="#EE675C" stroke="#EE675C" d="M 165 580 L 270 580 Q275 578 270 570 L 223 483 Q220 480 217 483 L 165 570 Q160 578 165 580"><animateTransform attributeName="transform" attributeType="XML" begin="0s" dur="35s" from="0 210 530" repeatCount="indefinite" to="360 210 530" type="rotate"/></path><circle cx="1200" cy="600" r="30" fill="#F1F3F4" stroke="#F1F3F4"><animateMotion dur="9s" path="M 0 0 L -20 40 Z" repeatCount="indefinite"/></circle><path fill="#F1F3F4" stroke="#F1F3F4" d="M 100 350 A 40 40 0 1 1 180 350 L 180 430 A 40 40 0 1 1 100 430 Z"><animateMotion begin="0s" dur="20s" path="M 140 390 L 180 360 L 140 390" repeatCount="indefinite"/><animateTransform attributeName="transform" attributeType="XML" begin="0s" dur="30s" keyTimes="0 ; 0.5 ; 1" repeatCount="indefinite" type="rotate" values="0 140 390; -60 140 390; 0 140 390"/></path><rect width="100" height="100" x="400" y="600" fill="#81C995" stroke="#81C995" rx="40" ry="40"><animateTransform attributeName="transform" attributeType="XML" begin="0s" dur="35s" from="-30 550 750" repeatCount="indefinite" to="330 550 750" type="rotate"/></rect></svg>