<svg xmlns="http://www.w3.org/2000/svg" xmlns:xlink="http://www.w3.org/1999/xlink" width="16" height="16" viewBox="0 0 16 16">
    <path d="M6.14978 9.5497C5.911519999999999 9.618533333333332 5.77148 9.876833333333334 5.8369800000000005 10.126666666666665C6.010859999999999 10.792133333333332 6.458333333333333 11.221066666666667 6.9891000000000005 11.3022C7.358466666666666 11.371699999999999 7.7259 11.253699999999998 8 10.9912C8.2289 11.203199999999999 8.517266666666666 11.320733333333333 8.822433333333333 11.322099999999999C9.428333333333333 11.324366666666666 9.968266666666667 10.8752 10.163466666666666 10.126666666666665C10.228933333333334 9.876833333333334 10.088899999999999 9.6185 9.850633333333333 9.549733333333332C9.612366666666667 9.480899999999998 9.3661 9.627666666666666 9.300633333333334 9.8775C9.194333333333333 10.287166666666666 8.959666666666667 10.39 8.8136 10.385066666666667C8.6771 10.381133333333333 8.507366666666666 10.289066666666667 8.426033333333333 10.021666666666667C8.366433333333333 9.828 8.1944 9.696733333333333 8.0002 9.696766666666665C7.805999999999999 9.696766666666665 7.634 9.828 7.574399999999999 10.0217C7.479933333333333 10.332566666666665 7.2652 10.411999999999999 7.106766666666666 10.376533333333333C6.978133333333333 10.348466666666667 6.791413333333333 10.229966666666666 6.699806666666666 9.877466666666667C6.640386666666666 9.650866666666666 6.432313333333333 9.5091 6.2164399999999995 9.536166666666666L6.14978 9.5497z" fill="currentColor"></path>
    <path d="M4.17582 6.281926666666667C4.34018 6.060033333333333 4.653313333333333 6.013393333333333 4.875206666666666 6.177766666666667L6.575206666666666 7.437033333333333C6.709806666666666 7.536733333333332 6.7855 7.697166666666666 6.776933333333333 7.8644333333333325C6.768366666666666 8.031699999999999 6.676566666666666 8.183566666666666 6.5325 8.268966666666666L4.8325 9.276333333333334C4.5949333333333335 9.417133333333332 4.288226666666667 9.3387 4.147446666666666 9.101099999999999C4.0066733333333335 8.863533333333333 4.085133333333333 8.556833333333334 4.3226933333333335 8.416066666666666L5.37502 7.792466666666667L4.27998 6.981299999999999C4.058086666666666 6.81696 4.011446666666666 6.503826666666666 4.17582 6.281926666666667z" fill="currentColor"></path>
    <path d="M11.8223 6.281926666666667C11.657933333333332 6.060033333333333 11.3448 6.013393333333333 11.122899999999998 6.177766666666667L9.422899999999998 7.437033333333333C9.288333333333332 7.536733333333332 9.212599999999998 7.697166666666666 9.221166666666665 7.8644333333333325C9.229766666666666 8.031699999999999 9.321533333333333 8.183566666666666 9.465633333333333 8.268966666666666L11.165633333333332 9.276333333333334C11.403166666666666 9.417133333333332 11.7099 9.3387 11.850666666666665 9.101099999999999C11.991433333333333 8.863533333333333 11.912966666666666 8.556833333333334 11.675433333333332 8.416066666666666L10.623099999999999 7.792466666666667L11.718133333333334 6.981299999999999C11.940033333333332 6.81696 11.986666666666666 6.503826666666666 11.8223 6.281926666666667z" fill="currentColor"></path>
    <path d="M8.000233333333332 2.333333333333333C4.870613333333333 2.333333333333333 2.33356 4.870386666666667 2.33356 8C2.33356 11.129633333333333 4.870613333333333 13.666666666666666 8.000233333333332 13.666666666666666C11.129833333333332 13.666666666666666 13.6669 11.129633333333333 13.6669 8C13.6669 4.870386666666667 11.129833333333332 2.333333333333333 8.000233333333332 2.333333333333333zM1.3335533333333331 8C1.3335533333333331 4.318099999999999 4.318326666666667 1.3333333333333333 8.000233333333332 1.3333333333333333C11.6821 1.3333333333333333 14.6669 4.318099999999999 14.6669 8C14.6669 11.681866666666666 11.6821 14.666666666666666 8.000233333333332 14.666666666666666C4.318326666666667 14.666666666666666 1.3335533333333331 11.681866666666666 1.3335533333333331 8z" fill="currentColor"></path>
</svg>