<svg xmlns="http://www.w3.org/2000/svg" xmlns:xlink="http://www.w3.org/1999/xlink" width="16" height="16" viewBox="0 0 16 16">
                    <path d="M7.571333333333333 5.642906666666666C6.5793133333333325 5.642906666666666 5.642753333333333 6.618966666666666 5.642753333333333 8.000066666666665C5.642753333333333 9.381133333333333 6.5793133333333325 10.357199999999999 7.571333333333333 10.357199999999999C8.563333333333333 10.357199999999999 9.499866666666666 9.381133333333333 9.499866666666666 8.000066666666665C9.499866666666666 6.618966666666666 8.563333333333333 5.642906666666666 7.571333333333333 5.642906666666666zM4.642753333333333 8.000066666666665C4.642753333333333 6.225226666666666 5.8808066666666665 4.642906666666667 7.571333333333333 4.642906666666667C9.261833333333332 4.642906666666667 10.499866666666666 6.225226666666666 10.499866666666666 8.000066666666665C10.499866666666666 9.774866666666666 9.261833333333332 11.357199999999999 7.571333333333333 11.357199999999999C5.8808066666666665 11.357199999999999 4.642753333333333 9.774866666666666 4.642753333333333 8.000066666666665z" fill="currentColor"></path>

                    <path d="M10.142933333333332 4.928546666666667C10.4191 4.928546666666667 10.642933333333332 5.152406666666666 10.642933333333332 5.428546666666667L10.642933333333332 9.2252C10.642933333333332 9.942633333333333 11.248999999999999 10.398666666666667 11.991566666666666 10.313733333333332C12.674966666666666 10.235533333333333 13.5227 9.639933333333332 13.621933333333333 8.034233333333333C13.639 7.7585999999999995 13.876199999999999 7.548966666666666 14.151833333333332 7.566033333333333C14.427433333333333 7.5830666666666655 14.637066666666666 7.8203 14.620033333333334 8.095933333333333C14.496433333333332 10.095066666666666 13.355166666666666 11.164233333333332 12.105233333333333 11.307233333333333C10.914533333333333 11.443466666666666 9.642933333333332 10.677233333333334 9.642933333333332 9.2252L9.642933333333332 5.428546666666667C9.642933333333332 5.152406666666666 9.866833333333332 4.928546666666667 10.142933333333332 4.928546666666667z" fill="currentColor"></path>

                    <path d="M8 2.375C4.8934 2.375 2.375 4.8934 2.375 8C2.375 11.1066 4.8934 13.625 8 13.625C9.132133333333332 13.625 10.184733333333334 13.291066666666666 11.066533333333332 12.716433333333331C11.2979 12.5657 11.607666666666667 12.631033333333331 11.758433333333333 12.862400000000001C11.909166666666666 13.093733333333333 11.843833333333333 13.403533333333332 11.612466666666666 13.5543C10.5732 14.231499999999999 9.3318 14.625 8 14.625C4.3411133333333325 14.625 1.375 11.6589 1.375 8C1.375 4.3411133333333325 4.3411133333333325 1.375 8 1.375C11.6589 1.375 14.625 4.3411133333333325 14.625 8C14.625 8.276133333333332 14.401133333333334 8.5 14.125 8.5C13.848866666666666 8.5 13.625 8.276133333333332 13.625 8C13.625 4.8934 11.1066 2.375 8 2.375z" fill="currentColor"></path>
                </svg>